G04 #@! TF.GenerationSoftware,KiCad,Pcbnew,7.0.2*
G04 #@! TF.CreationDate,2023-07-08T15:20:31+02:00*
G04 #@! TF.ProjectId,KiKAD_Endplatine_V2,4b694b41-445f-4456-9e64-706c6174696e,rev?*
G04 #@! TF.SameCoordinates,Original*
G04 #@! TF.FileFunction,Legend,Top*
G04 #@! TF.FilePolarity,Positive*
%FSLAX46Y46*%
G04 Gerber Fmt 4.6, Leading zero omitted, Abs format (unit mm)*
G04 Created by KiCad (PCBNEW 7.0.2) date 2023-07-08 15:20:31*
%MOMM*%
%LPD*%
G01*
G04 APERTURE LIST*
G04 Aperture macros list*
%AMRoundRect*
0 Rectangle with rounded corners*
0 $1 Rounding radius*
0 $2 $3 $4 $5 $6 $7 $8 $9 X,Y pos of 4 corners*
0 Add a 4 corners polygon primitive as box body*
4,1,4,$2,$3,$4,$5,$6,$7,$8,$9,$2,$3,0*
0 Add four circle primitives for the rounded corners*
1,1,$1+$1,$2,$3*
1,1,$1+$1,$4,$5*
1,1,$1+$1,$6,$7*
1,1,$1+$1,$8,$9*
0 Add four rect primitives between the rounded corners*
20,1,$1+$1,$2,$3,$4,$5,0*
20,1,$1+$1,$4,$5,$6,$7,0*
20,1,$1+$1,$6,$7,$8,$9,0*
20,1,$1+$1,$8,$9,$2,$3,0*%
G04 Aperture macros list end*
%ADD10C,0.150000*%
%ADD11C,0.120000*%
%ADD12RoundRect,0.255000X-2.245000X-0.255000X2.245000X-0.255000X2.245000X0.255000X-2.245000X0.255000X0*%
%ADD13RoundRect,0.250000X-0.412500X-0.650000X0.412500X-0.650000X0.412500X0.650000X-0.412500X0.650000X0*%
%ADD14RoundRect,0.250000X-0.400000X-0.625000X0.400000X-0.625000X0.400000X0.625000X-0.400000X0.625000X0*%
%ADD15RoundRect,0.150000X-0.512500X-0.150000X0.512500X-0.150000X0.512500X0.150000X-0.512500X0.150000X0*%
%ADD16RoundRect,0.250000X0.400000X0.625000X-0.400000X0.625000X-0.400000X-0.625000X0.400000X-0.625000X0*%
%ADD17RoundRect,0.250000X-0.625000X0.400000X-0.625000X-0.400000X0.625000X-0.400000X0.625000X0.400000X0*%
%ADD18RoundRect,0.250000X0.412500X0.650000X-0.412500X0.650000X-0.412500X-0.650000X0.412500X-0.650000X0*%
%ADD19RoundRect,0.250000X-0.600000X-0.725000X0.600000X-0.725000X0.600000X0.725000X-0.600000X0.725000X0*%
%ADD20O,1.700000X1.950000*%
%ADD21C,3.200000*%
%ADD22RoundRect,0.250001X0.462499X0.624999X-0.462499X0.624999X-0.462499X-0.624999X0.462499X-0.624999X0*%
%ADD23RoundRect,0.250001X-0.624999X0.462499X-0.624999X-0.462499X0.624999X-0.462499X0.624999X0.462499X0*%
%ADD24RoundRect,0.250000X0.625000X-0.400000X0.625000X0.400000X-0.625000X0.400000X-0.625000X-0.400000X0*%
%ADD25RoundRect,0.250000X-0.725000X0.600000X-0.725000X-0.600000X0.725000X-0.600000X0.725000X0.600000X0*%
%ADD26O,1.950000X1.700000*%
%ADD27RoundRect,0.150000X0.512500X0.150000X-0.512500X0.150000X-0.512500X-0.150000X0.512500X-0.150000X0*%
%ADD28RoundRect,0.250000X0.725000X-0.600000X0.725000X0.600000X-0.725000X0.600000X-0.725000X-0.600000X0*%
%ADD29RoundRect,0.250000X0.600000X0.725000X-0.600000X0.725000X-0.600000X-0.725000X0.600000X-0.725000X0*%
%ADD30RoundRect,0.250000X-0.650000X0.412500X-0.650000X-0.412500X0.650000X-0.412500X0.650000X0.412500X0*%
%ADD31R,1.600000X1.600000*%
%ADD32O,1.600000X1.600000*%
%ADD33RoundRect,0.250000X0.650000X-0.412500X0.650000X0.412500X-0.650000X0.412500X-0.650000X-0.412500X0*%
G04 APERTURE END LIST*
D10*
X108466666Y-59382619D02*
X108466666Y-60096904D01*
X108466666Y-60096904D02*
X108419047Y-60239761D01*
X108419047Y-60239761D02*
X108323809Y-60335000D01*
X108323809Y-60335000D02*
X108180952Y-60382619D01*
X108180952Y-60382619D02*
X108085714Y-60382619D01*
X109466666Y-60382619D02*
X108895238Y-60382619D01*
X109180952Y-60382619D02*
X109180952Y-59382619D01*
X109180952Y-59382619D02*
X109085714Y-59525476D01*
X109085714Y-59525476D02*
X108990476Y-59620714D01*
X108990476Y-59620714D02*
X108895238Y-59668333D01*
X169142857Y-90231666D02*
X169904762Y-90231666D01*
X169523809Y-90612619D02*
X169523809Y-89850714D01*
X171095237Y-89565000D02*
X170238095Y-90850714D01*
X171999999Y-90517380D02*
X171952380Y-90565000D01*
X171952380Y-90565000D02*
X171809523Y-90612619D01*
X171809523Y-90612619D02*
X171714285Y-90612619D01*
X171714285Y-90612619D02*
X171571428Y-90565000D01*
X171571428Y-90565000D02*
X171476190Y-90469761D01*
X171476190Y-90469761D02*
X171428571Y-90374523D01*
X171428571Y-90374523D02*
X171380952Y-90184047D01*
X171380952Y-90184047D02*
X171380952Y-90041190D01*
X171380952Y-90041190D02*
X171428571Y-89850714D01*
X171428571Y-89850714D02*
X171476190Y-89755476D01*
X171476190Y-89755476D02*
X171571428Y-89660238D01*
X171571428Y-89660238D02*
X171714285Y-89612619D01*
X171714285Y-89612619D02*
X171809523Y-89612619D01*
X171809523Y-89612619D02*
X171952380Y-89660238D01*
X171952380Y-89660238D02*
X171999999Y-89707857D01*
X172952380Y-90612619D02*
X172380952Y-90612619D01*
X172666666Y-90612619D02*
X172666666Y-89612619D01*
X172666666Y-89612619D02*
X172571428Y-89755476D01*
X172571428Y-89755476D02*
X172476190Y-89850714D01*
X172476190Y-89850714D02*
X172380952Y-89898333D01*
X173809523Y-89945952D02*
X173809523Y-90612619D01*
X173571428Y-89565000D02*
X173333333Y-90279285D01*
X173333333Y-90279285D02*
X173952380Y-90279285D01*
X114761905Y-105462619D02*
X114761905Y-104462619D01*
X114761905Y-104462619D02*
X115000000Y-104462619D01*
X115000000Y-104462619D02*
X115142857Y-104510238D01*
X115142857Y-104510238D02*
X115238095Y-104605476D01*
X115238095Y-104605476D02*
X115285714Y-104700714D01*
X115285714Y-104700714D02*
X115333333Y-104891190D01*
X115333333Y-104891190D02*
X115333333Y-105034047D01*
X115333333Y-105034047D02*
X115285714Y-105224523D01*
X115285714Y-105224523D02*
X115238095Y-105319761D01*
X115238095Y-105319761D02*
X115142857Y-105415000D01*
X115142857Y-105415000D02*
X115000000Y-105462619D01*
X115000000Y-105462619D02*
X114761905Y-105462619D01*
X116285714Y-105462619D02*
X115714286Y-105462619D01*
X116000000Y-105462619D02*
X116000000Y-104462619D01*
X116000000Y-104462619D02*
X115904762Y-104605476D01*
X115904762Y-104605476D02*
X115809524Y-104700714D01*
X115809524Y-104700714D02*
X115714286Y-104748333D01*
X117428571Y-104415000D02*
X116571429Y-105700714D01*
X118333333Y-105462619D02*
X118000000Y-104986428D01*
X117761905Y-105462619D02*
X117761905Y-104462619D01*
X117761905Y-104462619D02*
X118142857Y-104462619D01*
X118142857Y-104462619D02*
X118238095Y-104510238D01*
X118238095Y-104510238D02*
X118285714Y-104557857D01*
X118285714Y-104557857D02*
X118333333Y-104653095D01*
X118333333Y-104653095D02*
X118333333Y-104795952D01*
X118333333Y-104795952D02*
X118285714Y-104891190D01*
X118285714Y-104891190D02*
X118238095Y-104938809D01*
X118238095Y-104938809D02*
X118142857Y-104986428D01*
X118142857Y-104986428D02*
X117761905Y-104986428D01*
X118714286Y-104557857D02*
X118761905Y-104510238D01*
X118761905Y-104510238D02*
X118857143Y-104462619D01*
X118857143Y-104462619D02*
X119095238Y-104462619D01*
X119095238Y-104462619D02*
X119190476Y-104510238D01*
X119190476Y-104510238D02*
X119238095Y-104557857D01*
X119238095Y-104557857D02*
X119285714Y-104653095D01*
X119285714Y-104653095D02*
X119285714Y-104748333D01*
X119285714Y-104748333D02*
X119238095Y-104891190D01*
X119238095Y-104891190D02*
X118666667Y-105462619D01*
X118666667Y-105462619D02*
X119285714Y-105462619D01*
X120428571Y-104415000D02*
X119571429Y-105700714D01*
X121333333Y-105462619D02*
X121000000Y-104986428D01*
X120761905Y-105462619D02*
X120761905Y-104462619D01*
X120761905Y-104462619D02*
X121142857Y-104462619D01*
X121142857Y-104462619D02*
X121238095Y-104510238D01*
X121238095Y-104510238D02*
X121285714Y-104557857D01*
X121285714Y-104557857D02*
X121333333Y-104653095D01*
X121333333Y-104653095D02*
X121333333Y-104795952D01*
X121333333Y-104795952D02*
X121285714Y-104891190D01*
X121285714Y-104891190D02*
X121238095Y-104938809D01*
X121238095Y-104938809D02*
X121142857Y-104986428D01*
X121142857Y-104986428D02*
X120761905Y-104986428D01*
X121714286Y-104557857D02*
X121761905Y-104510238D01*
X121761905Y-104510238D02*
X121857143Y-104462619D01*
X121857143Y-104462619D02*
X122095238Y-104462619D01*
X122095238Y-104462619D02*
X122190476Y-104510238D01*
X122190476Y-104510238D02*
X122238095Y-104557857D01*
X122238095Y-104557857D02*
X122285714Y-104653095D01*
X122285714Y-104653095D02*
X122285714Y-104748333D01*
X122285714Y-104748333D02*
X122238095Y-104891190D01*
X122238095Y-104891190D02*
X121666667Y-105462619D01*
X121666667Y-105462619D02*
X122285714Y-105462619D01*
X186904761Y-36557857D02*
X186809523Y-36510238D01*
X186809523Y-36510238D02*
X186714285Y-36415000D01*
X186714285Y-36415000D02*
X186571428Y-36272142D01*
X186571428Y-36272142D02*
X186476190Y-36224523D01*
X186476190Y-36224523D02*
X186380952Y-36224523D01*
X186428571Y-36462619D02*
X186333333Y-36415000D01*
X186333333Y-36415000D02*
X186238095Y-36319761D01*
X186238095Y-36319761D02*
X186190476Y-36129285D01*
X186190476Y-36129285D02*
X186190476Y-35795952D01*
X186190476Y-35795952D02*
X186238095Y-35605476D01*
X186238095Y-35605476D02*
X186333333Y-35510238D01*
X186333333Y-35510238D02*
X186428571Y-35462619D01*
X186428571Y-35462619D02*
X186619047Y-35462619D01*
X186619047Y-35462619D02*
X186714285Y-35510238D01*
X186714285Y-35510238D02*
X186809523Y-35605476D01*
X186809523Y-35605476D02*
X186857142Y-35795952D01*
X186857142Y-35795952D02*
X186857142Y-36129285D01*
X186857142Y-36129285D02*
X186809523Y-36319761D01*
X186809523Y-36319761D02*
X186714285Y-36415000D01*
X186714285Y-36415000D02*
X186619047Y-36462619D01*
X186619047Y-36462619D02*
X186428571Y-36462619D01*
X187238095Y-35557857D02*
X187285714Y-35510238D01*
X187285714Y-35510238D02*
X187380952Y-35462619D01*
X187380952Y-35462619D02*
X187619047Y-35462619D01*
X187619047Y-35462619D02*
X187714285Y-35510238D01*
X187714285Y-35510238D02*
X187761904Y-35557857D01*
X187761904Y-35557857D02*
X187809523Y-35653095D01*
X187809523Y-35653095D02*
X187809523Y-35748333D01*
X187809523Y-35748333D02*
X187761904Y-35891190D01*
X187761904Y-35891190D02*
X187190476Y-36462619D01*
X187190476Y-36462619D02*
X187809523Y-36462619D01*
X135595238Y-87732619D02*
X135261905Y-87256428D01*
X135023810Y-87732619D02*
X135023810Y-86732619D01*
X135023810Y-86732619D02*
X135404762Y-86732619D01*
X135404762Y-86732619D02*
X135500000Y-86780238D01*
X135500000Y-86780238D02*
X135547619Y-86827857D01*
X135547619Y-86827857D02*
X135595238Y-86923095D01*
X135595238Y-86923095D02*
X135595238Y-87065952D01*
X135595238Y-87065952D02*
X135547619Y-87161190D01*
X135547619Y-87161190D02*
X135500000Y-87208809D01*
X135500000Y-87208809D02*
X135404762Y-87256428D01*
X135404762Y-87256428D02*
X135023810Y-87256428D01*
X136547619Y-87732619D02*
X135976191Y-87732619D01*
X136261905Y-87732619D02*
X136261905Y-86732619D01*
X136261905Y-86732619D02*
X136166667Y-86875476D01*
X136166667Y-86875476D02*
X136071429Y-86970714D01*
X136071429Y-86970714D02*
X135976191Y-87018333D01*
X137500000Y-87732619D02*
X136928572Y-87732619D01*
X137214286Y-87732619D02*
X137214286Y-86732619D01*
X137214286Y-86732619D02*
X137119048Y-86875476D01*
X137119048Y-86875476D02*
X137023810Y-86970714D01*
X137023810Y-86970714D02*
X136928572Y-87018333D01*
X138642857Y-86685000D02*
X137785715Y-87970714D01*
X138976191Y-87351666D02*
X139738096Y-87351666D01*
X139357143Y-87732619D02*
X139357143Y-86970714D01*
X140928571Y-86685000D02*
X140071429Y-87970714D01*
X141261905Y-87351666D02*
X142023810Y-87351666D01*
X141642857Y-87732619D02*
X141642857Y-86970714D01*
X143023809Y-87732619D02*
X142452381Y-87732619D01*
X142738095Y-87732619D02*
X142738095Y-86732619D01*
X142738095Y-86732619D02*
X142642857Y-86875476D01*
X142642857Y-86875476D02*
X142547619Y-86970714D01*
X142547619Y-86970714D02*
X142452381Y-87018333D01*
X146782619Y-98761904D02*
X146306428Y-99095237D01*
X146782619Y-99333332D02*
X145782619Y-99333332D01*
X145782619Y-99333332D02*
X145782619Y-98952380D01*
X145782619Y-98952380D02*
X145830238Y-98857142D01*
X145830238Y-98857142D02*
X145877857Y-98809523D01*
X145877857Y-98809523D02*
X145973095Y-98761904D01*
X145973095Y-98761904D02*
X146115952Y-98761904D01*
X146115952Y-98761904D02*
X146211190Y-98809523D01*
X146211190Y-98809523D02*
X146258809Y-98857142D01*
X146258809Y-98857142D02*
X146306428Y-98952380D01*
X146306428Y-98952380D02*
X146306428Y-99333332D01*
X146782619Y-97809523D02*
X146782619Y-98380951D01*
X146782619Y-98095237D02*
X145782619Y-98095237D01*
X145782619Y-98095237D02*
X145925476Y-98190475D01*
X145925476Y-98190475D02*
X146020714Y-98285713D01*
X146020714Y-98285713D02*
X146068333Y-98380951D01*
X145782619Y-97190475D02*
X145782619Y-97095237D01*
X145782619Y-97095237D02*
X145830238Y-96999999D01*
X145830238Y-96999999D02*
X145877857Y-96952380D01*
X145877857Y-96952380D02*
X145973095Y-96904761D01*
X145973095Y-96904761D02*
X146163571Y-96857142D01*
X146163571Y-96857142D02*
X146401666Y-96857142D01*
X146401666Y-96857142D02*
X146592142Y-96904761D01*
X146592142Y-96904761D02*
X146687380Y-96952380D01*
X146687380Y-96952380D02*
X146735000Y-96999999D01*
X146735000Y-96999999D02*
X146782619Y-97095237D01*
X146782619Y-97095237D02*
X146782619Y-97190475D01*
X146782619Y-97190475D02*
X146735000Y-97285713D01*
X146735000Y-97285713D02*
X146687380Y-97333332D01*
X146687380Y-97333332D02*
X146592142Y-97380951D01*
X146592142Y-97380951D02*
X146401666Y-97428570D01*
X146401666Y-97428570D02*
X146163571Y-97428570D01*
X146163571Y-97428570D02*
X145973095Y-97380951D01*
X145973095Y-97380951D02*
X145877857Y-97333332D01*
X145877857Y-97333332D02*
X145830238Y-97285713D01*
X145830238Y-97285713D02*
X145782619Y-97190475D01*
X145735000Y-95714285D02*
X147020714Y-96571427D01*
X146401666Y-95380951D02*
X146401666Y-94619047D01*
X146782619Y-93619047D02*
X146782619Y-94190475D01*
X146782619Y-93904761D02*
X145782619Y-93904761D01*
X145782619Y-93904761D02*
X145925476Y-93999999D01*
X145925476Y-93999999D02*
X146020714Y-94095237D01*
X146020714Y-94095237D02*
X146068333Y-94190475D01*
X183357142Y-45717380D02*
X183309523Y-45765000D01*
X183309523Y-45765000D02*
X183166666Y-45812619D01*
X183166666Y-45812619D02*
X183071428Y-45812619D01*
X183071428Y-45812619D02*
X182928571Y-45765000D01*
X182928571Y-45765000D02*
X182833333Y-45669761D01*
X182833333Y-45669761D02*
X182785714Y-45574523D01*
X182785714Y-45574523D02*
X182738095Y-45384047D01*
X182738095Y-45384047D02*
X182738095Y-45241190D01*
X182738095Y-45241190D02*
X182785714Y-45050714D01*
X182785714Y-45050714D02*
X182833333Y-44955476D01*
X182833333Y-44955476D02*
X182928571Y-44860238D01*
X182928571Y-44860238D02*
X183071428Y-44812619D01*
X183071428Y-44812619D02*
X183166666Y-44812619D01*
X183166666Y-44812619D02*
X183309523Y-44860238D01*
X183309523Y-44860238D02*
X183357142Y-44907857D01*
X183738095Y-44907857D02*
X183785714Y-44860238D01*
X183785714Y-44860238D02*
X183880952Y-44812619D01*
X183880952Y-44812619D02*
X184119047Y-44812619D01*
X184119047Y-44812619D02*
X184214285Y-44860238D01*
X184214285Y-44860238D02*
X184261904Y-44907857D01*
X184261904Y-44907857D02*
X184309523Y-45003095D01*
X184309523Y-45003095D02*
X184309523Y-45098333D01*
X184309523Y-45098333D02*
X184261904Y-45241190D01*
X184261904Y-45241190D02*
X183690476Y-45812619D01*
X183690476Y-45812619D02*
X184309523Y-45812619D01*
X184690476Y-44907857D02*
X184738095Y-44860238D01*
X184738095Y-44860238D02*
X184833333Y-44812619D01*
X184833333Y-44812619D02*
X185071428Y-44812619D01*
X185071428Y-44812619D02*
X185166666Y-44860238D01*
X185166666Y-44860238D02*
X185214285Y-44907857D01*
X185214285Y-44907857D02*
X185261904Y-45003095D01*
X185261904Y-45003095D02*
X185261904Y-45098333D01*
X185261904Y-45098333D02*
X185214285Y-45241190D01*
X185214285Y-45241190D02*
X184642857Y-45812619D01*
X184642857Y-45812619D02*
X185261904Y-45812619D01*
X176567642Y-46843380D02*
X176520023Y-46891000D01*
X176520023Y-46891000D02*
X176377166Y-46938619D01*
X176377166Y-46938619D02*
X176281928Y-46938619D01*
X176281928Y-46938619D02*
X176139071Y-46891000D01*
X176139071Y-46891000D02*
X176043833Y-46795761D01*
X176043833Y-46795761D02*
X175996214Y-46700523D01*
X175996214Y-46700523D02*
X175948595Y-46510047D01*
X175948595Y-46510047D02*
X175948595Y-46367190D01*
X175948595Y-46367190D02*
X175996214Y-46176714D01*
X175996214Y-46176714D02*
X176043833Y-46081476D01*
X176043833Y-46081476D02*
X176139071Y-45986238D01*
X176139071Y-45986238D02*
X176281928Y-45938619D01*
X176281928Y-45938619D02*
X176377166Y-45938619D01*
X176377166Y-45938619D02*
X176520023Y-45986238D01*
X176520023Y-45986238D02*
X176567642Y-46033857D01*
X176948595Y-46033857D02*
X176996214Y-45986238D01*
X176996214Y-45986238D02*
X177091452Y-45938619D01*
X177091452Y-45938619D02*
X177329547Y-45938619D01*
X177329547Y-45938619D02*
X177424785Y-45986238D01*
X177424785Y-45986238D02*
X177472404Y-46033857D01*
X177472404Y-46033857D02*
X177520023Y-46129095D01*
X177520023Y-46129095D02*
X177520023Y-46224333D01*
X177520023Y-46224333D02*
X177472404Y-46367190D01*
X177472404Y-46367190D02*
X176900976Y-46938619D01*
X176900976Y-46938619D02*
X177520023Y-46938619D01*
X178472404Y-46938619D02*
X177900976Y-46938619D01*
X178186690Y-46938619D02*
X178186690Y-45938619D01*
X178186690Y-45938619D02*
X178091452Y-46081476D01*
X178091452Y-46081476D02*
X177996214Y-46176714D01*
X177996214Y-46176714D02*
X177900976Y-46224333D01*
X180462619Y-40642857D02*
X179986428Y-40976190D01*
X180462619Y-41214285D02*
X179462619Y-41214285D01*
X179462619Y-41214285D02*
X179462619Y-40833333D01*
X179462619Y-40833333D02*
X179510238Y-40738095D01*
X179510238Y-40738095D02*
X179557857Y-40690476D01*
X179557857Y-40690476D02*
X179653095Y-40642857D01*
X179653095Y-40642857D02*
X179795952Y-40642857D01*
X179795952Y-40642857D02*
X179891190Y-40690476D01*
X179891190Y-40690476D02*
X179938809Y-40738095D01*
X179938809Y-40738095D02*
X179986428Y-40833333D01*
X179986428Y-40833333D02*
X179986428Y-41214285D01*
X179462619Y-40309523D02*
X179462619Y-39690476D01*
X179462619Y-39690476D02*
X179843571Y-40023809D01*
X179843571Y-40023809D02*
X179843571Y-39880952D01*
X179843571Y-39880952D02*
X179891190Y-39785714D01*
X179891190Y-39785714D02*
X179938809Y-39738095D01*
X179938809Y-39738095D02*
X180034047Y-39690476D01*
X180034047Y-39690476D02*
X180272142Y-39690476D01*
X180272142Y-39690476D02*
X180367380Y-39738095D01*
X180367380Y-39738095D02*
X180415000Y-39785714D01*
X180415000Y-39785714D02*
X180462619Y-39880952D01*
X180462619Y-39880952D02*
X180462619Y-40166666D01*
X180462619Y-40166666D02*
X180415000Y-40261904D01*
X180415000Y-40261904D02*
X180367380Y-40309523D01*
X179462619Y-39357142D02*
X179462619Y-38738095D01*
X179462619Y-38738095D02*
X179843571Y-39071428D01*
X179843571Y-39071428D02*
X179843571Y-38928571D01*
X179843571Y-38928571D02*
X179891190Y-38833333D01*
X179891190Y-38833333D02*
X179938809Y-38785714D01*
X179938809Y-38785714D02*
X180034047Y-38738095D01*
X180034047Y-38738095D02*
X180272142Y-38738095D01*
X180272142Y-38738095D02*
X180367380Y-38785714D01*
X180367380Y-38785714D02*
X180415000Y-38833333D01*
X180415000Y-38833333D02*
X180462619Y-38928571D01*
X180462619Y-38928571D02*
X180462619Y-39214285D01*
X180462619Y-39214285D02*
X180415000Y-39309523D01*
X180415000Y-39309523D02*
X180367380Y-39357142D01*
X118309523Y-93595119D02*
X117976190Y-93118928D01*
X117738095Y-93595119D02*
X117738095Y-92595119D01*
X117738095Y-92595119D02*
X118119047Y-92595119D01*
X118119047Y-92595119D02*
X118214285Y-92642738D01*
X118214285Y-92642738D02*
X118261904Y-92690357D01*
X118261904Y-92690357D02*
X118309523Y-92785595D01*
X118309523Y-92785595D02*
X118309523Y-92928452D01*
X118309523Y-92928452D02*
X118261904Y-93023690D01*
X118261904Y-93023690D02*
X118214285Y-93071309D01*
X118214285Y-93071309D02*
X118119047Y-93118928D01*
X118119047Y-93118928D02*
X117738095Y-93118928D01*
X118595238Y-92595119D02*
X118928571Y-93595119D01*
X118928571Y-93595119D02*
X119261904Y-92595119D01*
X120309523Y-92547500D02*
X119452381Y-93833214D01*
X121214285Y-93595119D02*
X120880952Y-93118928D01*
X120642857Y-93595119D02*
X120642857Y-92595119D01*
X120642857Y-92595119D02*
X121023809Y-92595119D01*
X121023809Y-92595119D02*
X121119047Y-92642738D01*
X121119047Y-92642738D02*
X121166666Y-92690357D01*
X121166666Y-92690357D02*
X121214285Y-92785595D01*
X121214285Y-92785595D02*
X121214285Y-92928452D01*
X121214285Y-92928452D02*
X121166666Y-93023690D01*
X121166666Y-93023690D02*
X121119047Y-93071309D01*
X121119047Y-93071309D02*
X121023809Y-93118928D01*
X121023809Y-93118928D02*
X120642857Y-93118928D01*
X121500000Y-92595119D02*
X121833333Y-93595119D01*
X121833333Y-93595119D02*
X122166666Y-92595119D01*
X123214285Y-92547500D02*
X122357143Y-93833214D01*
X123547619Y-93214166D02*
X124309524Y-93214166D01*
X123928571Y-93595119D02*
X123928571Y-92833214D01*
X125309523Y-93595119D02*
X124738095Y-93595119D01*
X125023809Y-93595119D02*
X125023809Y-92595119D01*
X125023809Y-92595119D02*
X124928571Y-92737976D01*
X124928571Y-92737976D02*
X124833333Y-92833214D01*
X124833333Y-92833214D02*
X124738095Y-92880833D01*
X135282619Y-60692857D02*
X134806428Y-61026190D01*
X135282619Y-61264285D02*
X134282619Y-61264285D01*
X134282619Y-61264285D02*
X134282619Y-60883333D01*
X134282619Y-60883333D02*
X134330238Y-60788095D01*
X134330238Y-60788095D02*
X134377857Y-60740476D01*
X134377857Y-60740476D02*
X134473095Y-60692857D01*
X134473095Y-60692857D02*
X134615952Y-60692857D01*
X134615952Y-60692857D02*
X134711190Y-60740476D01*
X134711190Y-60740476D02*
X134758809Y-60788095D01*
X134758809Y-60788095D02*
X134806428Y-60883333D01*
X134806428Y-60883333D02*
X134806428Y-61264285D01*
X135282619Y-59740476D02*
X135282619Y-60311904D01*
X135282619Y-60026190D02*
X134282619Y-60026190D01*
X134282619Y-60026190D02*
X134425476Y-60121428D01*
X134425476Y-60121428D02*
X134520714Y-60216666D01*
X134520714Y-60216666D02*
X134568333Y-60311904D01*
X134615952Y-58883333D02*
X135282619Y-58883333D01*
X134235000Y-59121428D02*
X134949285Y-59359523D01*
X134949285Y-59359523D02*
X134949285Y-58740476D01*
X134235000Y-57645238D02*
X135520714Y-58502380D01*
X135282619Y-56740476D02*
X134806428Y-57073809D01*
X135282619Y-57311904D02*
X134282619Y-57311904D01*
X134282619Y-57311904D02*
X134282619Y-56930952D01*
X134282619Y-56930952D02*
X134330238Y-56835714D01*
X134330238Y-56835714D02*
X134377857Y-56788095D01*
X134377857Y-56788095D02*
X134473095Y-56740476D01*
X134473095Y-56740476D02*
X134615952Y-56740476D01*
X134615952Y-56740476D02*
X134711190Y-56788095D01*
X134711190Y-56788095D02*
X134758809Y-56835714D01*
X134758809Y-56835714D02*
X134806428Y-56930952D01*
X134806428Y-56930952D02*
X134806428Y-57311904D01*
X134615952Y-55883333D02*
X135282619Y-55883333D01*
X134235000Y-56121428D02*
X134949285Y-56359523D01*
X134949285Y-56359523D02*
X134949285Y-55740476D01*
X134235000Y-54645238D02*
X135520714Y-55502380D01*
X135282619Y-53740476D02*
X134806428Y-54073809D01*
X135282619Y-54311904D02*
X134282619Y-54311904D01*
X134282619Y-54311904D02*
X134282619Y-53930952D01*
X134282619Y-53930952D02*
X134330238Y-53835714D01*
X134330238Y-53835714D02*
X134377857Y-53788095D01*
X134377857Y-53788095D02*
X134473095Y-53740476D01*
X134473095Y-53740476D02*
X134615952Y-53740476D01*
X134615952Y-53740476D02*
X134711190Y-53788095D01*
X134711190Y-53788095D02*
X134758809Y-53835714D01*
X134758809Y-53835714D02*
X134806428Y-53930952D01*
X134806428Y-53930952D02*
X134806428Y-54311904D01*
X134615952Y-52883333D02*
X135282619Y-52883333D01*
X134235000Y-53121428D02*
X134949285Y-53359523D01*
X134949285Y-53359523D02*
X134949285Y-52740476D01*
X102166666Y-107762619D02*
X101833333Y-107286428D01*
X101595238Y-107762619D02*
X101595238Y-106762619D01*
X101595238Y-106762619D02*
X101976190Y-106762619D01*
X101976190Y-106762619D02*
X102071428Y-106810238D01*
X102071428Y-106810238D02*
X102119047Y-106857857D01*
X102119047Y-106857857D02*
X102166666Y-106953095D01*
X102166666Y-106953095D02*
X102166666Y-107095952D01*
X102166666Y-107095952D02*
X102119047Y-107191190D01*
X102119047Y-107191190D02*
X102071428Y-107238809D01*
X102071428Y-107238809D02*
X101976190Y-107286428D01*
X101976190Y-107286428D02*
X101595238Y-107286428D01*
X102595238Y-107238809D02*
X102928571Y-107238809D01*
X103071428Y-107762619D02*
X102595238Y-107762619D01*
X102595238Y-107762619D02*
X102595238Y-106762619D01*
X102595238Y-106762619D02*
X103071428Y-106762619D01*
X103833333Y-107238809D02*
X103500000Y-107238809D01*
X103500000Y-107762619D02*
X103500000Y-106762619D01*
X103500000Y-106762619D02*
X103976190Y-106762619D01*
X104500000Y-106762619D02*
X104500000Y-107000714D01*
X104261905Y-106905476D02*
X104500000Y-107000714D01*
X104500000Y-107000714D02*
X104738095Y-106905476D01*
X104357143Y-107191190D02*
X104500000Y-107000714D01*
X104500000Y-107000714D02*
X104642857Y-107191190D01*
X105261905Y-106762619D02*
X105261905Y-107000714D01*
X105023810Y-106905476D02*
X105261905Y-107000714D01*
X105261905Y-107000714D02*
X105500000Y-106905476D01*
X105119048Y-107191190D02*
X105261905Y-107000714D01*
X105261905Y-107000714D02*
X105404762Y-107191190D01*
X176567642Y-50391380D02*
X176520023Y-50439000D01*
X176520023Y-50439000D02*
X176377166Y-50486619D01*
X176377166Y-50486619D02*
X176281928Y-50486619D01*
X176281928Y-50486619D02*
X176139071Y-50439000D01*
X176139071Y-50439000D02*
X176043833Y-50343761D01*
X176043833Y-50343761D02*
X175996214Y-50248523D01*
X175996214Y-50248523D02*
X175948595Y-50058047D01*
X175948595Y-50058047D02*
X175948595Y-49915190D01*
X175948595Y-49915190D02*
X175996214Y-49724714D01*
X175996214Y-49724714D02*
X176043833Y-49629476D01*
X176043833Y-49629476D02*
X176139071Y-49534238D01*
X176139071Y-49534238D02*
X176281928Y-49486619D01*
X176281928Y-49486619D02*
X176377166Y-49486619D01*
X176377166Y-49486619D02*
X176520023Y-49534238D01*
X176520023Y-49534238D02*
X176567642Y-49581857D01*
X176948595Y-49581857D02*
X176996214Y-49534238D01*
X176996214Y-49534238D02*
X177091452Y-49486619D01*
X177091452Y-49486619D02*
X177329547Y-49486619D01*
X177329547Y-49486619D02*
X177424785Y-49534238D01*
X177424785Y-49534238D02*
X177472404Y-49581857D01*
X177472404Y-49581857D02*
X177520023Y-49677095D01*
X177520023Y-49677095D02*
X177520023Y-49772333D01*
X177520023Y-49772333D02*
X177472404Y-49915190D01*
X177472404Y-49915190D02*
X176900976Y-50486619D01*
X176900976Y-50486619D02*
X177520023Y-50486619D01*
X177853357Y-49486619D02*
X178472404Y-49486619D01*
X178472404Y-49486619D02*
X178139071Y-49867571D01*
X178139071Y-49867571D02*
X178281928Y-49867571D01*
X178281928Y-49867571D02*
X178377166Y-49915190D01*
X178377166Y-49915190D02*
X178424785Y-49962809D01*
X178424785Y-49962809D02*
X178472404Y-50058047D01*
X178472404Y-50058047D02*
X178472404Y-50296142D01*
X178472404Y-50296142D02*
X178424785Y-50391380D01*
X178424785Y-50391380D02*
X178377166Y-50439000D01*
X178377166Y-50439000D02*
X178281928Y-50486619D01*
X178281928Y-50486619D02*
X177996214Y-50486619D01*
X177996214Y-50486619D02*
X177900976Y-50439000D01*
X177900976Y-50439000D02*
X177853357Y-50391380D01*
X109619048Y-100581666D02*
X110380953Y-100581666D01*
X110000000Y-100962619D02*
X110000000Y-100200714D01*
X111571428Y-99915000D02*
X110714286Y-101200714D01*
X111904762Y-100962619D02*
X111904762Y-99962619D01*
X111904762Y-99962619D02*
X112142857Y-99962619D01*
X112142857Y-99962619D02*
X112285714Y-100010238D01*
X112285714Y-100010238D02*
X112380952Y-100105476D01*
X112380952Y-100105476D02*
X112428571Y-100200714D01*
X112428571Y-100200714D02*
X112476190Y-100391190D01*
X112476190Y-100391190D02*
X112476190Y-100534047D01*
X112476190Y-100534047D02*
X112428571Y-100724523D01*
X112428571Y-100724523D02*
X112380952Y-100819761D01*
X112380952Y-100819761D02*
X112285714Y-100915000D01*
X112285714Y-100915000D02*
X112142857Y-100962619D01*
X112142857Y-100962619D02*
X111904762Y-100962619D01*
X113428571Y-100962619D02*
X112857143Y-100962619D01*
X113142857Y-100962619D02*
X113142857Y-99962619D01*
X113142857Y-99962619D02*
X113047619Y-100105476D01*
X113047619Y-100105476D02*
X112952381Y-100200714D01*
X112952381Y-100200714D02*
X112857143Y-100248333D01*
X132282619Y-91238094D02*
X131282619Y-91238094D01*
X131282619Y-91238094D02*
X131282619Y-90999999D01*
X131282619Y-90999999D02*
X131330238Y-90857142D01*
X131330238Y-90857142D02*
X131425476Y-90761904D01*
X131425476Y-90761904D02*
X131520714Y-90714285D01*
X131520714Y-90714285D02*
X131711190Y-90666666D01*
X131711190Y-90666666D02*
X131854047Y-90666666D01*
X131854047Y-90666666D02*
X132044523Y-90714285D01*
X132044523Y-90714285D02*
X132139761Y-90761904D01*
X132139761Y-90761904D02*
X132235000Y-90857142D01*
X132235000Y-90857142D02*
X132282619Y-90999999D01*
X132282619Y-90999999D02*
X132282619Y-91238094D01*
X131377857Y-90285713D02*
X131330238Y-90238094D01*
X131330238Y-90238094D02*
X131282619Y-90142856D01*
X131282619Y-90142856D02*
X131282619Y-89904761D01*
X131282619Y-89904761D02*
X131330238Y-89809523D01*
X131330238Y-89809523D02*
X131377857Y-89761904D01*
X131377857Y-89761904D02*
X131473095Y-89714285D01*
X131473095Y-89714285D02*
X131568333Y-89714285D01*
X131568333Y-89714285D02*
X131711190Y-89761904D01*
X131711190Y-89761904D02*
X132282619Y-90333332D01*
X132282619Y-90333332D02*
X132282619Y-89714285D01*
X190067619Y-69897857D02*
X189591428Y-70231190D01*
X190067619Y-70469285D02*
X189067619Y-70469285D01*
X189067619Y-70469285D02*
X189067619Y-70088333D01*
X189067619Y-70088333D02*
X189115238Y-69993095D01*
X189115238Y-69993095D02*
X189162857Y-69945476D01*
X189162857Y-69945476D02*
X189258095Y-69897857D01*
X189258095Y-69897857D02*
X189400952Y-69897857D01*
X189400952Y-69897857D02*
X189496190Y-69945476D01*
X189496190Y-69945476D02*
X189543809Y-69993095D01*
X189543809Y-69993095D02*
X189591428Y-70088333D01*
X189591428Y-70088333D02*
X189591428Y-70469285D01*
X190067619Y-68945476D02*
X190067619Y-69516904D01*
X190067619Y-69231190D02*
X189067619Y-69231190D01*
X189067619Y-69231190D02*
X189210476Y-69326428D01*
X189210476Y-69326428D02*
X189305714Y-69421666D01*
X189305714Y-69421666D02*
X189353333Y-69516904D01*
X189162857Y-68564523D02*
X189115238Y-68516904D01*
X189115238Y-68516904D02*
X189067619Y-68421666D01*
X189067619Y-68421666D02*
X189067619Y-68183571D01*
X189067619Y-68183571D02*
X189115238Y-68088333D01*
X189115238Y-68088333D02*
X189162857Y-68040714D01*
X189162857Y-68040714D02*
X189258095Y-67993095D01*
X189258095Y-67993095D02*
X189353333Y-67993095D01*
X189353333Y-67993095D02*
X189496190Y-68040714D01*
X189496190Y-68040714D02*
X190067619Y-68612142D01*
X190067619Y-68612142D02*
X190067619Y-67993095D01*
X127571428Y-95642619D02*
X127238095Y-95166428D01*
X127000000Y-95642619D02*
X127000000Y-94642619D01*
X127000000Y-94642619D02*
X127380952Y-94642619D01*
X127380952Y-94642619D02*
X127476190Y-94690238D01*
X127476190Y-94690238D02*
X127523809Y-94737857D01*
X127523809Y-94737857D02*
X127571428Y-94833095D01*
X127571428Y-94833095D02*
X127571428Y-94975952D01*
X127571428Y-94975952D02*
X127523809Y-95071190D01*
X127523809Y-95071190D02*
X127476190Y-95118809D01*
X127476190Y-95118809D02*
X127380952Y-95166428D01*
X127380952Y-95166428D02*
X127000000Y-95166428D01*
X127904762Y-94642619D02*
X128571428Y-94642619D01*
X128571428Y-94642619D02*
X128142857Y-95642619D01*
X129666666Y-94595000D02*
X128809524Y-95880714D01*
X130000000Y-95261666D02*
X130761905Y-95261666D01*
X131952380Y-94595000D02*
X131095238Y-95880714D01*
X132285714Y-95261666D02*
X133047619Y-95261666D01*
X134047618Y-95642619D02*
X133476190Y-95642619D01*
X133761904Y-95642619D02*
X133761904Y-94642619D01*
X133761904Y-94642619D02*
X133666666Y-94785476D01*
X133666666Y-94785476D02*
X133571428Y-94880714D01*
X133571428Y-94880714D02*
X133476190Y-94928333D01*
X198830119Y-52880953D02*
X197830119Y-52880953D01*
X197830119Y-52880953D02*
X198544404Y-52547620D01*
X198544404Y-52547620D02*
X197830119Y-52214287D01*
X197830119Y-52214287D02*
X198830119Y-52214287D01*
X198830119Y-51738096D02*
X198163452Y-51738096D01*
X197830119Y-51738096D02*
X197877738Y-51785715D01*
X197877738Y-51785715D02*
X197925357Y-51738096D01*
X197925357Y-51738096D02*
X197877738Y-51690477D01*
X197877738Y-51690477D02*
X197830119Y-51738096D01*
X197830119Y-51738096D02*
X197925357Y-51738096D01*
X198782500Y-50833335D02*
X198830119Y-50928573D01*
X198830119Y-50928573D02*
X198830119Y-51119049D01*
X198830119Y-51119049D02*
X198782500Y-51214287D01*
X198782500Y-51214287D02*
X198734880Y-51261906D01*
X198734880Y-51261906D02*
X198639642Y-51309525D01*
X198639642Y-51309525D02*
X198353928Y-51309525D01*
X198353928Y-51309525D02*
X198258690Y-51261906D01*
X198258690Y-51261906D02*
X198211071Y-51214287D01*
X198211071Y-51214287D02*
X198163452Y-51119049D01*
X198163452Y-51119049D02*
X198163452Y-50928573D01*
X198163452Y-50928573D02*
X198211071Y-50833335D01*
X198830119Y-50404763D02*
X198163452Y-50404763D01*
X198353928Y-50404763D02*
X198258690Y-50357144D01*
X198258690Y-50357144D02*
X198211071Y-50309525D01*
X198211071Y-50309525D02*
X198163452Y-50214287D01*
X198163452Y-50214287D02*
X198163452Y-50119049D01*
X198830119Y-49642858D02*
X198782500Y-49738096D01*
X198782500Y-49738096D02*
X198734880Y-49785715D01*
X198734880Y-49785715D02*
X198639642Y-49833334D01*
X198639642Y-49833334D02*
X198353928Y-49833334D01*
X198353928Y-49833334D02*
X198258690Y-49785715D01*
X198258690Y-49785715D02*
X198211071Y-49738096D01*
X198211071Y-49738096D02*
X198163452Y-49642858D01*
X198163452Y-49642858D02*
X198163452Y-49500001D01*
X198163452Y-49500001D02*
X198211071Y-49404763D01*
X198211071Y-49404763D02*
X198258690Y-49357144D01*
X198258690Y-49357144D02*
X198353928Y-49309525D01*
X198353928Y-49309525D02*
X198639642Y-49309525D01*
X198639642Y-49309525D02*
X198734880Y-49357144D01*
X198734880Y-49357144D02*
X198782500Y-49404763D01*
X198782500Y-49404763D02*
X198830119Y-49500001D01*
X198830119Y-49500001D02*
X198830119Y-49642858D01*
X198163452Y-48880953D02*
X198830119Y-48880953D01*
X198258690Y-48880953D02*
X198211071Y-48833334D01*
X198211071Y-48833334D02*
X198163452Y-48738096D01*
X198163452Y-48738096D02*
X198163452Y-48595239D01*
X198163452Y-48595239D02*
X198211071Y-48500001D01*
X198211071Y-48500001D02*
X198306309Y-48452382D01*
X198306309Y-48452382D02*
X198830119Y-48452382D01*
X198163452Y-48119048D02*
X198163452Y-47738096D01*
X197830119Y-47976191D02*
X198687261Y-47976191D01*
X198687261Y-47976191D02*
X198782500Y-47928572D01*
X198782500Y-47928572D02*
X198830119Y-47833334D01*
X198830119Y-47833334D02*
X198830119Y-47738096D01*
X198830119Y-47404762D02*
X198163452Y-47404762D01*
X198353928Y-47404762D02*
X198258690Y-47357143D01*
X198258690Y-47357143D02*
X198211071Y-47309524D01*
X198211071Y-47309524D02*
X198163452Y-47214286D01*
X198163452Y-47214286D02*
X198163452Y-47119048D01*
X198830119Y-46642857D02*
X198782500Y-46738095D01*
X198782500Y-46738095D02*
X198734880Y-46785714D01*
X198734880Y-46785714D02*
X198639642Y-46833333D01*
X198639642Y-46833333D02*
X198353928Y-46833333D01*
X198353928Y-46833333D02*
X198258690Y-46785714D01*
X198258690Y-46785714D02*
X198211071Y-46738095D01*
X198211071Y-46738095D02*
X198163452Y-46642857D01*
X198163452Y-46642857D02*
X198163452Y-46500000D01*
X198163452Y-46500000D02*
X198211071Y-46404762D01*
X198211071Y-46404762D02*
X198258690Y-46357143D01*
X198258690Y-46357143D02*
X198353928Y-46309524D01*
X198353928Y-46309524D02*
X198639642Y-46309524D01*
X198639642Y-46309524D02*
X198734880Y-46357143D01*
X198734880Y-46357143D02*
X198782500Y-46404762D01*
X198782500Y-46404762D02*
X198830119Y-46500000D01*
X198830119Y-46500000D02*
X198830119Y-46642857D01*
X198830119Y-45738095D02*
X198782500Y-45833333D01*
X198782500Y-45833333D02*
X198687261Y-45880952D01*
X198687261Y-45880952D02*
X197830119Y-45880952D01*
X198830119Y-45214285D02*
X198782500Y-45309523D01*
X198782500Y-45309523D02*
X198687261Y-45357142D01*
X198687261Y-45357142D02*
X197830119Y-45357142D01*
X198782500Y-44452380D02*
X198830119Y-44547618D01*
X198830119Y-44547618D02*
X198830119Y-44738094D01*
X198830119Y-44738094D02*
X198782500Y-44833332D01*
X198782500Y-44833332D02*
X198687261Y-44880951D01*
X198687261Y-44880951D02*
X198306309Y-44880951D01*
X198306309Y-44880951D02*
X198211071Y-44833332D01*
X198211071Y-44833332D02*
X198163452Y-44738094D01*
X198163452Y-44738094D02*
X198163452Y-44547618D01*
X198163452Y-44547618D02*
X198211071Y-44452380D01*
X198211071Y-44452380D02*
X198306309Y-44404761D01*
X198306309Y-44404761D02*
X198401547Y-44404761D01*
X198401547Y-44404761D02*
X198496785Y-44880951D01*
X198830119Y-43976189D02*
X198163452Y-43976189D01*
X198353928Y-43976189D02*
X198258690Y-43928570D01*
X198258690Y-43928570D02*
X198211071Y-43880951D01*
X198211071Y-43880951D02*
X198163452Y-43785713D01*
X198163452Y-43785713D02*
X198163452Y-43690475D01*
X198830119Y-43357141D02*
X197830119Y-43357141D01*
X198163452Y-42880951D02*
X198830119Y-42880951D01*
X198258690Y-42880951D02*
X198211071Y-42833332D01*
X198211071Y-42833332D02*
X198163452Y-42738094D01*
X198163452Y-42738094D02*
X198163452Y-42595237D01*
X198163452Y-42595237D02*
X198211071Y-42499999D01*
X198211071Y-42499999D02*
X198306309Y-42452380D01*
X198306309Y-42452380D02*
X198830119Y-42452380D01*
X198163452Y-41976189D02*
X199163452Y-41976189D01*
X198211071Y-41976189D02*
X198163452Y-41880951D01*
X198163452Y-41880951D02*
X198163452Y-41690475D01*
X198163452Y-41690475D02*
X198211071Y-41595237D01*
X198211071Y-41595237D02*
X198258690Y-41547618D01*
X198258690Y-41547618D02*
X198353928Y-41499999D01*
X198353928Y-41499999D02*
X198639642Y-41499999D01*
X198639642Y-41499999D02*
X198734880Y-41547618D01*
X198734880Y-41547618D02*
X198782500Y-41595237D01*
X198782500Y-41595237D02*
X198830119Y-41690475D01*
X198830119Y-41690475D02*
X198830119Y-41880951D01*
X198830119Y-41880951D02*
X198782500Y-41976189D01*
X198163452Y-40642856D02*
X198830119Y-40642856D01*
X198163452Y-41071427D02*
X198687261Y-41071427D01*
X198687261Y-41071427D02*
X198782500Y-41023808D01*
X198782500Y-41023808D02*
X198830119Y-40928570D01*
X198830119Y-40928570D02*
X198830119Y-40785713D01*
X198830119Y-40785713D02*
X198782500Y-40690475D01*
X198782500Y-40690475D02*
X198734880Y-40642856D01*
X198163452Y-40309522D02*
X198163452Y-39928570D01*
X197830119Y-40166665D02*
X198687261Y-40166665D01*
X198687261Y-40166665D02*
X198782500Y-40119046D01*
X198782500Y-40119046D02*
X198830119Y-40023808D01*
X198830119Y-40023808D02*
X198830119Y-39928570D01*
X198830119Y-39071427D02*
X198830119Y-39642855D01*
X198830119Y-39357141D02*
X197830119Y-39357141D01*
X197830119Y-39357141D02*
X197972976Y-39452379D01*
X197972976Y-39452379D02*
X198068214Y-39547617D01*
X198068214Y-39547617D02*
X198115833Y-39642855D01*
X183682142Y-51462619D02*
X183348809Y-50986428D01*
X183110714Y-51462619D02*
X183110714Y-50462619D01*
X183110714Y-50462619D02*
X183491666Y-50462619D01*
X183491666Y-50462619D02*
X183586904Y-50510238D01*
X183586904Y-50510238D02*
X183634523Y-50557857D01*
X183634523Y-50557857D02*
X183682142Y-50653095D01*
X183682142Y-50653095D02*
X183682142Y-50795952D01*
X183682142Y-50795952D02*
X183634523Y-50891190D01*
X183634523Y-50891190D02*
X183586904Y-50938809D01*
X183586904Y-50938809D02*
X183491666Y-50986428D01*
X183491666Y-50986428D02*
X183110714Y-50986428D01*
X184015476Y-50462619D02*
X184634523Y-50462619D01*
X184634523Y-50462619D02*
X184301190Y-50843571D01*
X184301190Y-50843571D02*
X184444047Y-50843571D01*
X184444047Y-50843571D02*
X184539285Y-50891190D01*
X184539285Y-50891190D02*
X184586904Y-50938809D01*
X184586904Y-50938809D02*
X184634523Y-51034047D01*
X184634523Y-51034047D02*
X184634523Y-51272142D01*
X184634523Y-51272142D02*
X184586904Y-51367380D01*
X184586904Y-51367380D02*
X184539285Y-51415000D01*
X184539285Y-51415000D02*
X184444047Y-51462619D01*
X184444047Y-51462619D02*
X184158333Y-51462619D01*
X184158333Y-51462619D02*
X184063095Y-51415000D01*
X184063095Y-51415000D02*
X184015476Y-51367380D01*
X185015476Y-50557857D02*
X185063095Y-50510238D01*
X185063095Y-50510238D02*
X185158333Y-50462619D01*
X185158333Y-50462619D02*
X185396428Y-50462619D01*
X185396428Y-50462619D02*
X185491666Y-50510238D01*
X185491666Y-50510238D02*
X185539285Y-50557857D01*
X185539285Y-50557857D02*
X185586904Y-50653095D01*
X185586904Y-50653095D02*
X185586904Y-50748333D01*
X185586904Y-50748333D02*
X185539285Y-50891190D01*
X185539285Y-50891190D02*
X184967857Y-51462619D01*
X184967857Y-51462619D02*
X185586904Y-51462619D01*
X169142857Y-84836666D02*
X169904762Y-84836666D01*
X169523809Y-85217619D02*
X169523809Y-84455714D01*
X171095237Y-84170000D02*
X170238095Y-85455714D01*
X171999999Y-85217619D02*
X171666666Y-84741428D01*
X171428571Y-85217619D02*
X171428571Y-84217619D01*
X171428571Y-84217619D02*
X171809523Y-84217619D01*
X171809523Y-84217619D02*
X171904761Y-84265238D01*
X171904761Y-84265238D02*
X171952380Y-84312857D01*
X171952380Y-84312857D02*
X171999999Y-84408095D01*
X171999999Y-84408095D02*
X171999999Y-84550952D01*
X171999999Y-84550952D02*
X171952380Y-84646190D01*
X171952380Y-84646190D02*
X171904761Y-84693809D01*
X171904761Y-84693809D02*
X171809523Y-84741428D01*
X171809523Y-84741428D02*
X171428571Y-84741428D01*
X172380952Y-84312857D02*
X172428571Y-84265238D01*
X172428571Y-84265238D02*
X172523809Y-84217619D01*
X172523809Y-84217619D02*
X172761904Y-84217619D01*
X172761904Y-84217619D02*
X172857142Y-84265238D01*
X172857142Y-84265238D02*
X172904761Y-84312857D01*
X172904761Y-84312857D02*
X172952380Y-84408095D01*
X172952380Y-84408095D02*
X172952380Y-84503333D01*
X172952380Y-84503333D02*
X172904761Y-84646190D01*
X172904761Y-84646190D02*
X172333333Y-85217619D01*
X172333333Y-85217619D02*
X172952380Y-85217619D01*
X173523809Y-84646190D02*
X173428571Y-84598571D01*
X173428571Y-84598571D02*
X173380952Y-84550952D01*
X173380952Y-84550952D02*
X173333333Y-84455714D01*
X173333333Y-84455714D02*
X173333333Y-84408095D01*
X173333333Y-84408095D02*
X173380952Y-84312857D01*
X173380952Y-84312857D02*
X173428571Y-84265238D01*
X173428571Y-84265238D02*
X173523809Y-84217619D01*
X173523809Y-84217619D02*
X173714285Y-84217619D01*
X173714285Y-84217619D02*
X173809523Y-84265238D01*
X173809523Y-84265238D02*
X173857142Y-84312857D01*
X173857142Y-84312857D02*
X173904761Y-84408095D01*
X173904761Y-84408095D02*
X173904761Y-84455714D01*
X173904761Y-84455714D02*
X173857142Y-84550952D01*
X173857142Y-84550952D02*
X173809523Y-84598571D01*
X173809523Y-84598571D02*
X173714285Y-84646190D01*
X173714285Y-84646190D02*
X173523809Y-84646190D01*
X173523809Y-84646190D02*
X173428571Y-84693809D01*
X173428571Y-84693809D02*
X173380952Y-84741428D01*
X173380952Y-84741428D02*
X173333333Y-84836666D01*
X173333333Y-84836666D02*
X173333333Y-85027142D01*
X173333333Y-85027142D02*
X173380952Y-85122380D01*
X173380952Y-85122380D02*
X173428571Y-85170000D01*
X173428571Y-85170000D02*
X173523809Y-85217619D01*
X173523809Y-85217619D02*
X173714285Y-85217619D01*
X173714285Y-85217619D02*
X173809523Y-85170000D01*
X173809523Y-85170000D02*
X173857142Y-85122380D01*
X173857142Y-85122380D02*
X173904761Y-85027142D01*
X173904761Y-85027142D02*
X173904761Y-84836666D01*
X173904761Y-84836666D02*
X173857142Y-84741428D01*
X173857142Y-84741428D02*
X173809523Y-84693809D01*
X173809523Y-84693809D02*
X173714285Y-84646190D01*
X198330119Y-61500000D02*
X198330119Y-61309524D01*
X198330119Y-61309524D02*
X198377738Y-61214286D01*
X198377738Y-61214286D02*
X198472976Y-61119048D01*
X198472976Y-61119048D02*
X198663452Y-61071429D01*
X198663452Y-61071429D02*
X198996785Y-61071429D01*
X198996785Y-61071429D02*
X199187261Y-61119048D01*
X199187261Y-61119048D02*
X199282500Y-61214286D01*
X199282500Y-61214286D02*
X199330119Y-61309524D01*
X199330119Y-61309524D02*
X199330119Y-61500000D01*
X199330119Y-61500000D02*
X199282500Y-61595238D01*
X199282500Y-61595238D02*
X199187261Y-61690476D01*
X199187261Y-61690476D02*
X198996785Y-61738095D01*
X198996785Y-61738095D02*
X198663452Y-61738095D01*
X198663452Y-61738095D02*
X198472976Y-61690476D01*
X198472976Y-61690476D02*
X198377738Y-61595238D01*
X198377738Y-61595238D02*
X198330119Y-61500000D01*
X198663452Y-60214286D02*
X199330119Y-60214286D01*
X198663452Y-60642857D02*
X199187261Y-60642857D01*
X199187261Y-60642857D02*
X199282500Y-60595238D01*
X199282500Y-60595238D02*
X199330119Y-60500000D01*
X199330119Y-60500000D02*
X199330119Y-60357143D01*
X199330119Y-60357143D02*
X199282500Y-60261905D01*
X199282500Y-60261905D02*
X199234880Y-60214286D01*
X198663452Y-59880952D02*
X198663452Y-59500000D01*
X198330119Y-59738095D02*
X199187261Y-59738095D01*
X199187261Y-59738095D02*
X199282500Y-59690476D01*
X199282500Y-59690476D02*
X199330119Y-59595238D01*
X199330119Y-59595238D02*
X199330119Y-59500000D01*
X198663452Y-59166666D02*
X199663452Y-59166666D01*
X198711071Y-59166666D02*
X198663452Y-59071428D01*
X198663452Y-59071428D02*
X198663452Y-58880952D01*
X198663452Y-58880952D02*
X198711071Y-58785714D01*
X198711071Y-58785714D02*
X198758690Y-58738095D01*
X198758690Y-58738095D02*
X198853928Y-58690476D01*
X198853928Y-58690476D02*
X199139642Y-58690476D01*
X199139642Y-58690476D02*
X199234880Y-58738095D01*
X199234880Y-58738095D02*
X199282500Y-58785714D01*
X199282500Y-58785714D02*
X199330119Y-58880952D01*
X199330119Y-58880952D02*
X199330119Y-59071428D01*
X199330119Y-59071428D02*
X199282500Y-59166666D01*
X198663452Y-57833333D02*
X199330119Y-57833333D01*
X198663452Y-58261904D02*
X199187261Y-58261904D01*
X199187261Y-58261904D02*
X199282500Y-58214285D01*
X199282500Y-58214285D02*
X199330119Y-58119047D01*
X199330119Y-58119047D02*
X199330119Y-57976190D01*
X199330119Y-57976190D02*
X199282500Y-57880952D01*
X199282500Y-57880952D02*
X199234880Y-57833333D01*
X198663452Y-57499999D02*
X198663452Y-57119047D01*
X198330119Y-57357142D02*
X199187261Y-57357142D01*
X199187261Y-57357142D02*
X199282500Y-57309523D01*
X199282500Y-57309523D02*
X199330119Y-57214285D01*
X199330119Y-57214285D02*
X199330119Y-57119047D01*
X199330119Y-56261904D02*
X199330119Y-56833332D01*
X199330119Y-56547618D02*
X198330119Y-56547618D01*
X198330119Y-56547618D02*
X198472976Y-56642856D01*
X198472976Y-56642856D02*
X198568214Y-56738094D01*
X198568214Y-56738094D02*
X198615833Y-56833332D01*
X129804166Y-76395357D02*
X129708928Y-76347738D01*
X129708928Y-76347738D02*
X129613690Y-76252500D01*
X129613690Y-76252500D02*
X129470833Y-76109642D01*
X129470833Y-76109642D02*
X129375595Y-76062023D01*
X129375595Y-76062023D02*
X129280357Y-76062023D01*
X129327976Y-76300119D02*
X129232738Y-76252500D01*
X129232738Y-76252500D02*
X129137500Y-76157261D01*
X129137500Y-76157261D02*
X129089881Y-75966785D01*
X129089881Y-75966785D02*
X129089881Y-75633452D01*
X129089881Y-75633452D02*
X129137500Y-75442976D01*
X129137500Y-75442976D02*
X129232738Y-75347738D01*
X129232738Y-75347738D02*
X129327976Y-75300119D01*
X129327976Y-75300119D02*
X129518452Y-75300119D01*
X129518452Y-75300119D02*
X129613690Y-75347738D01*
X129613690Y-75347738D02*
X129708928Y-75442976D01*
X129708928Y-75442976D02*
X129756547Y-75633452D01*
X129756547Y-75633452D02*
X129756547Y-75966785D01*
X129756547Y-75966785D02*
X129708928Y-76157261D01*
X129708928Y-76157261D02*
X129613690Y-76252500D01*
X129613690Y-76252500D02*
X129518452Y-76300119D01*
X129518452Y-76300119D02*
X129327976Y-76300119D01*
X130089881Y-75300119D02*
X130708928Y-75300119D01*
X130708928Y-75300119D02*
X130375595Y-75681071D01*
X130375595Y-75681071D02*
X130518452Y-75681071D01*
X130518452Y-75681071D02*
X130613690Y-75728690D01*
X130613690Y-75728690D02*
X130661309Y-75776309D01*
X130661309Y-75776309D02*
X130708928Y-75871547D01*
X130708928Y-75871547D02*
X130708928Y-76109642D01*
X130708928Y-76109642D02*
X130661309Y-76204880D01*
X130661309Y-76204880D02*
X130613690Y-76252500D01*
X130613690Y-76252500D02*
X130518452Y-76300119D01*
X130518452Y-76300119D02*
X130232738Y-76300119D01*
X130232738Y-76300119D02*
X130137500Y-76252500D01*
X130137500Y-76252500D02*
X130089881Y-76204880D01*
X131851785Y-75252500D02*
X130994643Y-76538214D01*
X132185119Y-75919166D02*
X132947024Y-75919166D01*
X132566071Y-76300119D02*
X132566071Y-75538214D01*
X133947023Y-76300119D02*
X133375595Y-76300119D01*
X133661309Y-76300119D02*
X133661309Y-75300119D01*
X133661309Y-75300119D02*
X133566071Y-75442976D01*
X133566071Y-75442976D02*
X133470833Y-75538214D01*
X133470833Y-75538214D02*
X133375595Y-75585833D01*
X135089880Y-75252500D02*
X134232738Y-76538214D01*
X135423214Y-75919166D02*
X136185119Y-75919166D01*
X135804166Y-76300119D02*
X135804166Y-75538214D01*
X137185118Y-76300119D02*
X136613690Y-76300119D01*
X136899404Y-76300119D02*
X136899404Y-75300119D01*
X136899404Y-75300119D02*
X136804166Y-75442976D01*
X136804166Y-75442976D02*
X136708928Y-75538214D01*
X136708928Y-75538214D02*
X136613690Y-75585833D01*
X136571428Y-70017380D02*
X136523809Y-70065000D01*
X136523809Y-70065000D02*
X136380952Y-70112619D01*
X136380952Y-70112619D02*
X136285714Y-70112619D01*
X136285714Y-70112619D02*
X136142857Y-70065000D01*
X136142857Y-70065000D02*
X136047619Y-69969761D01*
X136047619Y-69969761D02*
X136000000Y-69874523D01*
X136000000Y-69874523D02*
X135952381Y-69684047D01*
X135952381Y-69684047D02*
X135952381Y-69541190D01*
X135952381Y-69541190D02*
X136000000Y-69350714D01*
X136000000Y-69350714D02*
X136047619Y-69255476D01*
X136047619Y-69255476D02*
X136142857Y-69160238D01*
X136142857Y-69160238D02*
X136285714Y-69112619D01*
X136285714Y-69112619D02*
X136380952Y-69112619D01*
X136380952Y-69112619D02*
X136523809Y-69160238D01*
X136523809Y-69160238D02*
X136571428Y-69207857D01*
X137047619Y-70112619D02*
X137238095Y-70112619D01*
X137238095Y-70112619D02*
X137333333Y-70065000D01*
X137333333Y-70065000D02*
X137380952Y-70017380D01*
X137380952Y-70017380D02*
X137476190Y-69874523D01*
X137476190Y-69874523D02*
X137523809Y-69684047D01*
X137523809Y-69684047D02*
X137523809Y-69303095D01*
X137523809Y-69303095D02*
X137476190Y-69207857D01*
X137476190Y-69207857D02*
X137428571Y-69160238D01*
X137428571Y-69160238D02*
X137333333Y-69112619D01*
X137333333Y-69112619D02*
X137142857Y-69112619D01*
X137142857Y-69112619D02*
X137047619Y-69160238D01*
X137047619Y-69160238D02*
X137000000Y-69207857D01*
X137000000Y-69207857D02*
X136952381Y-69303095D01*
X136952381Y-69303095D02*
X136952381Y-69541190D01*
X136952381Y-69541190D02*
X137000000Y-69636428D01*
X137000000Y-69636428D02*
X137047619Y-69684047D01*
X137047619Y-69684047D02*
X137142857Y-69731666D01*
X137142857Y-69731666D02*
X137333333Y-69731666D01*
X137333333Y-69731666D02*
X137428571Y-69684047D01*
X137428571Y-69684047D02*
X137476190Y-69636428D01*
X137476190Y-69636428D02*
X137523809Y-69541190D01*
X138666666Y-69065000D02*
X137809524Y-70350714D01*
X139000000Y-69731666D02*
X139761905Y-69731666D01*
X139380952Y-70112619D02*
X139380952Y-69350714D01*
X140952380Y-69065000D02*
X140095238Y-70350714D01*
X141285714Y-69731666D02*
X142047619Y-69731666D01*
X143047618Y-70112619D02*
X142476190Y-70112619D01*
X142761904Y-70112619D02*
X142761904Y-69112619D01*
X142761904Y-69112619D02*
X142666666Y-69255476D01*
X142666666Y-69255476D02*
X142571428Y-69350714D01*
X142571428Y-69350714D02*
X142476190Y-69398333D01*
X156581666Y-110142856D02*
X156581666Y-109380952D01*
X155915000Y-108190476D02*
X157200714Y-109047618D01*
X156581666Y-107857142D02*
X156581666Y-107095238D01*
X155915000Y-105904762D02*
X157200714Y-106761904D01*
X156581666Y-105571428D02*
X156581666Y-104809524D01*
X156962619Y-103809524D02*
X156962619Y-104380952D01*
X156962619Y-104095238D02*
X155962619Y-104095238D01*
X155962619Y-104095238D02*
X156105476Y-104190476D01*
X156105476Y-104190476D02*
X156200714Y-104285714D01*
X156200714Y-104285714D02*
X156248333Y-104380952D01*
X141962619Y-82761904D02*
X141486428Y-83095237D01*
X141962619Y-83333332D02*
X140962619Y-83333332D01*
X140962619Y-83333332D02*
X140962619Y-82952380D01*
X140962619Y-82952380D02*
X141010238Y-82857142D01*
X141010238Y-82857142D02*
X141057857Y-82809523D01*
X141057857Y-82809523D02*
X141153095Y-82761904D01*
X141153095Y-82761904D02*
X141295952Y-82761904D01*
X141295952Y-82761904D02*
X141391190Y-82809523D01*
X141391190Y-82809523D02*
X141438809Y-82857142D01*
X141438809Y-82857142D02*
X141486428Y-82952380D01*
X141486428Y-82952380D02*
X141486428Y-83333332D01*
X140962619Y-82476189D02*
X141962619Y-82142856D01*
X141962619Y-82142856D02*
X140962619Y-81809523D01*
X141962619Y-80952380D02*
X141962619Y-81523808D01*
X141962619Y-81238094D02*
X140962619Y-81238094D01*
X140962619Y-81238094D02*
X141105476Y-81333332D01*
X141105476Y-81333332D02*
X141200714Y-81428570D01*
X141200714Y-81428570D02*
X141248333Y-81523808D01*
X141962619Y-80523808D02*
X140962619Y-80523808D01*
X141581666Y-80428570D02*
X141962619Y-80142856D01*
X141295952Y-80142856D02*
X141676904Y-80523808D01*
X140915000Y-78999999D02*
X142200714Y-79857141D01*
X141581666Y-78666665D02*
X141581666Y-77904761D01*
X140915000Y-76714285D02*
X142200714Y-77571427D01*
X141581666Y-76380951D02*
X141581666Y-75619047D01*
X141962619Y-74619047D02*
X141962619Y-75190475D01*
X141962619Y-74904761D02*
X140962619Y-74904761D01*
X140962619Y-74904761D02*
X141105476Y-74999999D01*
X141105476Y-74999999D02*
X141200714Y-75095237D01*
X141200714Y-75095237D02*
X141248333Y-75190475D01*
X102166666Y-34762619D02*
X101833333Y-34286428D01*
X101595238Y-34762619D02*
X101595238Y-33762619D01*
X101595238Y-33762619D02*
X101976190Y-33762619D01*
X101976190Y-33762619D02*
X102071428Y-33810238D01*
X102071428Y-33810238D02*
X102119047Y-33857857D01*
X102119047Y-33857857D02*
X102166666Y-33953095D01*
X102166666Y-33953095D02*
X102166666Y-34095952D01*
X102166666Y-34095952D02*
X102119047Y-34191190D01*
X102119047Y-34191190D02*
X102071428Y-34238809D01*
X102071428Y-34238809D02*
X101976190Y-34286428D01*
X101976190Y-34286428D02*
X101595238Y-34286428D01*
X102595238Y-34238809D02*
X102928571Y-34238809D01*
X103071428Y-34762619D02*
X102595238Y-34762619D01*
X102595238Y-34762619D02*
X102595238Y-33762619D01*
X102595238Y-33762619D02*
X103071428Y-33762619D01*
X103833333Y-34238809D02*
X103500000Y-34238809D01*
X103500000Y-34762619D02*
X103500000Y-33762619D01*
X103500000Y-33762619D02*
X103976190Y-33762619D01*
X104500000Y-33762619D02*
X104500000Y-34000714D01*
X104261905Y-33905476D02*
X104500000Y-34000714D01*
X104500000Y-34000714D02*
X104738095Y-33905476D01*
X104357143Y-34191190D02*
X104500000Y-34000714D01*
X104500000Y-34000714D02*
X104642857Y-34191190D01*
X105261905Y-33762619D02*
X105261905Y-34000714D01*
X105023810Y-33905476D02*
X105261905Y-34000714D01*
X105261905Y-34000714D02*
X105500000Y-33905476D01*
X105119048Y-34191190D02*
X105261905Y-34000714D01*
X105261905Y-34000714D02*
X105404762Y-34191190D01*
X160833333Y-112867380D02*
X160785714Y-112915000D01*
X160785714Y-112915000D02*
X160642857Y-112962619D01*
X160642857Y-112962619D02*
X160547619Y-112962619D01*
X160547619Y-112962619D02*
X160404762Y-112915000D01*
X160404762Y-112915000D02*
X160309524Y-112819761D01*
X160309524Y-112819761D02*
X160261905Y-112724523D01*
X160261905Y-112724523D02*
X160214286Y-112534047D01*
X160214286Y-112534047D02*
X160214286Y-112391190D01*
X160214286Y-112391190D02*
X160261905Y-112200714D01*
X160261905Y-112200714D02*
X160309524Y-112105476D01*
X160309524Y-112105476D02*
X160404762Y-112010238D01*
X160404762Y-112010238D02*
X160547619Y-111962619D01*
X160547619Y-111962619D02*
X160642857Y-111962619D01*
X160642857Y-111962619D02*
X160785714Y-112010238D01*
X160785714Y-112010238D02*
X160833333Y-112057857D01*
X161690476Y-111962619D02*
X161500000Y-111962619D01*
X161500000Y-111962619D02*
X161404762Y-112010238D01*
X161404762Y-112010238D02*
X161357143Y-112057857D01*
X161357143Y-112057857D02*
X161261905Y-112200714D01*
X161261905Y-112200714D02*
X161214286Y-112391190D01*
X161214286Y-112391190D02*
X161214286Y-112772142D01*
X161214286Y-112772142D02*
X161261905Y-112867380D01*
X161261905Y-112867380D02*
X161309524Y-112915000D01*
X161309524Y-112915000D02*
X161404762Y-112962619D01*
X161404762Y-112962619D02*
X161595238Y-112962619D01*
X161595238Y-112962619D02*
X161690476Y-112915000D01*
X161690476Y-112915000D02*
X161738095Y-112867380D01*
X161738095Y-112867380D02*
X161785714Y-112772142D01*
X161785714Y-112772142D02*
X161785714Y-112534047D01*
X161785714Y-112534047D02*
X161738095Y-112438809D01*
X161738095Y-112438809D02*
X161690476Y-112391190D01*
X161690476Y-112391190D02*
X161595238Y-112343571D01*
X161595238Y-112343571D02*
X161404762Y-112343571D01*
X161404762Y-112343571D02*
X161309524Y-112391190D01*
X161309524Y-112391190D02*
X161261905Y-112438809D01*
X161261905Y-112438809D02*
X161214286Y-112534047D01*
X162928571Y-111915000D02*
X162071429Y-113200714D01*
X163833333Y-112962619D02*
X163500000Y-112486428D01*
X163261905Y-112962619D02*
X163261905Y-111962619D01*
X163261905Y-111962619D02*
X163642857Y-111962619D01*
X163642857Y-111962619D02*
X163738095Y-112010238D01*
X163738095Y-112010238D02*
X163785714Y-112057857D01*
X163785714Y-112057857D02*
X163833333Y-112153095D01*
X163833333Y-112153095D02*
X163833333Y-112295952D01*
X163833333Y-112295952D02*
X163785714Y-112391190D01*
X163785714Y-112391190D02*
X163738095Y-112438809D01*
X163738095Y-112438809D02*
X163642857Y-112486428D01*
X163642857Y-112486428D02*
X163261905Y-112486428D01*
X164785714Y-112962619D02*
X164214286Y-112962619D01*
X164500000Y-112962619D02*
X164500000Y-111962619D01*
X164500000Y-111962619D02*
X164404762Y-112105476D01*
X164404762Y-112105476D02*
X164309524Y-112200714D01*
X164309524Y-112200714D02*
X164214286Y-112248333D01*
X165928571Y-111915000D02*
X165071429Y-113200714D01*
X166833333Y-112867380D02*
X166785714Y-112915000D01*
X166785714Y-112915000D02*
X166642857Y-112962619D01*
X166642857Y-112962619D02*
X166547619Y-112962619D01*
X166547619Y-112962619D02*
X166404762Y-112915000D01*
X166404762Y-112915000D02*
X166309524Y-112819761D01*
X166309524Y-112819761D02*
X166261905Y-112724523D01*
X166261905Y-112724523D02*
X166214286Y-112534047D01*
X166214286Y-112534047D02*
X166214286Y-112391190D01*
X166214286Y-112391190D02*
X166261905Y-112200714D01*
X166261905Y-112200714D02*
X166309524Y-112105476D01*
X166309524Y-112105476D02*
X166404762Y-112010238D01*
X166404762Y-112010238D02*
X166547619Y-111962619D01*
X166547619Y-111962619D02*
X166642857Y-111962619D01*
X166642857Y-111962619D02*
X166785714Y-112010238D01*
X166785714Y-112010238D02*
X166833333Y-112057857D01*
X167166667Y-111962619D02*
X167785714Y-111962619D01*
X167785714Y-111962619D02*
X167452381Y-112343571D01*
X167452381Y-112343571D02*
X167595238Y-112343571D01*
X167595238Y-112343571D02*
X167690476Y-112391190D01*
X167690476Y-112391190D02*
X167738095Y-112438809D01*
X167738095Y-112438809D02*
X167785714Y-112534047D01*
X167785714Y-112534047D02*
X167785714Y-112772142D01*
X167785714Y-112772142D02*
X167738095Y-112867380D01*
X167738095Y-112867380D02*
X167690476Y-112915000D01*
X167690476Y-112915000D02*
X167595238Y-112962619D01*
X167595238Y-112962619D02*
X167309524Y-112962619D01*
X167309524Y-112962619D02*
X167214286Y-112915000D01*
X167214286Y-112915000D02*
X167166667Y-112867380D01*
X176092857Y-106901666D02*
X176854762Y-106901666D01*
X176473809Y-107282619D02*
X176473809Y-106520714D01*
X178045237Y-106235000D02*
X177188095Y-107520714D01*
X178949999Y-107282619D02*
X178616666Y-106806428D01*
X178378571Y-107282619D02*
X178378571Y-106282619D01*
X178378571Y-106282619D02*
X178759523Y-106282619D01*
X178759523Y-106282619D02*
X178854761Y-106330238D01*
X178854761Y-106330238D02*
X178902380Y-106377857D01*
X178902380Y-106377857D02*
X178949999Y-106473095D01*
X178949999Y-106473095D02*
X178949999Y-106615952D01*
X178949999Y-106615952D02*
X178902380Y-106711190D01*
X178902380Y-106711190D02*
X178854761Y-106758809D01*
X178854761Y-106758809D02*
X178759523Y-106806428D01*
X178759523Y-106806428D02*
X178378571Y-106806428D01*
X179283333Y-106282619D02*
X179902380Y-106282619D01*
X179902380Y-106282619D02*
X179569047Y-106663571D01*
X179569047Y-106663571D02*
X179711904Y-106663571D01*
X179711904Y-106663571D02*
X179807142Y-106711190D01*
X179807142Y-106711190D02*
X179854761Y-106758809D01*
X179854761Y-106758809D02*
X179902380Y-106854047D01*
X179902380Y-106854047D02*
X179902380Y-107092142D01*
X179902380Y-107092142D02*
X179854761Y-107187380D01*
X179854761Y-107187380D02*
X179807142Y-107235000D01*
X179807142Y-107235000D02*
X179711904Y-107282619D01*
X179711904Y-107282619D02*
X179426190Y-107282619D01*
X179426190Y-107282619D02*
X179330952Y-107235000D01*
X179330952Y-107235000D02*
X179283333Y-107187380D01*
X180521428Y-106282619D02*
X180616666Y-106282619D01*
X180616666Y-106282619D02*
X180711904Y-106330238D01*
X180711904Y-106330238D02*
X180759523Y-106377857D01*
X180759523Y-106377857D02*
X180807142Y-106473095D01*
X180807142Y-106473095D02*
X180854761Y-106663571D01*
X180854761Y-106663571D02*
X180854761Y-106901666D01*
X180854761Y-106901666D02*
X180807142Y-107092142D01*
X180807142Y-107092142D02*
X180759523Y-107187380D01*
X180759523Y-107187380D02*
X180711904Y-107235000D01*
X180711904Y-107235000D02*
X180616666Y-107282619D01*
X180616666Y-107282619D02*
X180521428Y-107282619D01*
X180521428Y-107282619D02*
X180426190Y-107235000D01*
X180426190Y-107235000D02*
X180378571Y-107187380D01*
X180378571Y-107187380D02*
X180330952Y-107092142D01*
X180330952Y-107092142D02*
X180283333Y-106901666D01*
X180283333Y-106901666D02*
X180283333Y-106663571D01*
X180283333Y-106663571D02*
X180330952Y-106473095D01*
X180330952Y-106473095D02*
X180378571Y-106377857D01*
X180378571Y-106377857D02*
X180426190Y-106330238D01*
X180426190Y-106330238D02*
X180521428Y-106282619D01*
X123737619Y-111785714D02*
X123261428Y-112119047D01*
X123737619Y-112357142D02*
X122737619Y-112357142D01*
X122737619Y-112357142D02*
X122737619Y-111976190D01*
X122737619Y-111976190D02*
X122785238Y-111880952D01*
X122785238Y-111880952D02*
X122832857Y-111833333D01*
X122832857Y-111833333D02*
X122928095Y-111785714D01*
X122928095Y-111785714D02*
X123070952Y-111785714D01*
X123070952Y-111785714D02*
X123166190Y-111833333D01*
X123166190Y-111833333D02*
X123213809Y-111880952D01*
X123213809Y-111880952D02*
X123261428Y-111976190D01*
X123261428Y-111976190D02*
X123261428Y-112357142D01*
X123166190Y-111214285D02*
X123118571Y-111309523D01*
X123118571Y-111309523D02*
X123070952Y-111357142D01*
X123070952Y-111357142D02*
X122975714Y-111404761D01*
X122975714Y-111404761D02*
X122928095Y-111404761D01*
X122928095Y-111404761D02*
X122832857Y-111357142D01*
X122832857Y-111357142D02*
X122785238Y-111309523D01*
X122785238Y-111309523D02*
X122737619Y-111214285D01*
X122737619Y-111214285D02*
X122737619Y-111023809D01*
X122737619Y-111023809D02*
X122785238Y-110928571D01*
X122785238Y-110928571D02*
X122832857Y-110880952D01*
X122832857Y-110880952D02*
X122928095Y-110833333D01*
X122928095Y-110833333D02*
X122975714Y-110833333D01*
X122975714Y-110833333D02*
X123070952Y-110880952D01*
X123070952Y-110880952D02*
X123118571Y-110928571D01*
X123118571Y-110928571D02*
X123166190Y-111023809D01*
X123166190Y-111023809D02*
X123166190Y-111214285D01*
X123166190Y-111214285D02*
X123213809Y-111309523D01*
X123213809Y-111309523D02*
X123261428Y-111357142D01*
X123261428Y-111357142D02*
X123356666Y-111404761D01*
X123356666Y-111404761D02*
X123547142Y-111404761D01*
X123547142Y-111404761D02*
X123642380Y-111357142D01*
X123642380Y-111357142D02*
X123690000Y-111309523D01*
X123690000Y-111309523D02*
X123737619Y-111214285D01*
X123737619Y-111214285D02*
X123737619Y-111023809D01*
X123737619Y-111023809D02*
X123690000Y-110928571D01*
X123690000Y-110928571D02*
X123642380Y-110880952D01*
X123642380Y-110880952D02*
X123547142Y-110833333D01*
X123547142Y-110833333D02*
X123356666Y-110833333D01*
X123356666Y-110833333D02*
X123261428Y-110880952D01*
X123261428Y-110880952D02*
X123213809Y-110928571D01*
X123213809Y-110928571D02*
X123166190Y-111023809D01*
X122690000Y-109690476D02*
X123975714Y-110547618D01*
X123737619Y-108833333D02*
X123737619Y-109404761D01*
X123737619Y-109119047D02*
X122737619Y-109119047D01*
X122737619Y-109119047D02*
X122880476Y-109214285D01*
X122880476Y-109214285D02*
X122975714Y-109309523D01*
X122975714Y-109309523D02*
X123023333Y-109404761D01*
X122690000Y-107690476D02*
X123975714Y-108547618D01*
X123356666Y-107357142D02*
X123356666Y-106595238D01*
X123737619Y-106976190D02*
X122975714Y-106976190D01*
X123737619Y-105595238D02*
X123737619Y-106166666D01*
X123737619Y-105880952D02*
X122737619Y-105880952D01*
X122737619Y-105880952D02*
X122880476Y-105976190D01*
X122880476Y-105976190D02*
X122975714Y-106071428D01*
X122975714Y-106071428D02*
X123023333Y-106166666D01*
X174782619Y-40192857D02*
X174306428Y-40526190D01*
X174782619Y-40764285D02*
X173782619Y-40764285D01*
X173782619Y-40764285D02*
X173782619Y-40383333D01*
X173782619Y-40383333D02*
X173830238Y-40288095D01*
X173830238Y-40288095D02*
X173877857Y-40240476D01*
X173877857Y-40240476D02*
X173973095Y-40192857D01*
X173973095Y-40192857D02*
X174115952Y-40192857D01*
X174115952Y-40192857D02*
X174211190Y-40240476D01*
X174211190Y-40240476D02*
X174258809Y-40288095D01*
X174258809Y-40288095D02*
X174306428Y-40383333D01*
X174306428Y-40383333D02*
X174306428Y-40764285D01*
X173782619Y-39859523D02*
X173782619Y-39240476D01*
X173782619Y-39240476D02*
X174163571Y-39573809D01*
X174163571Y-39573809D02*
X174163571Y-39430952D01*
X174163571Y-39430952D02*
X174211190Y-39335714D01*
X174211190Y-39335714D02*
X174258809Y-39288095D01*
X174258809Y-39288095D02*
X174354047Y-39240476D01*
X174354047Y-39240476D02*
X174592142Y-39240476D01*
X174592142Y-39240476D02*
X174687380Y-39288095D01*
X174687380Y-39288095D02*
X174735000Y-39335714D01*
X174735000Y-39335714D02*
X174782619Y-39430952D01*
X174782619Y-39430952D02*
X174782619Y-39716666D01*
X174782619Y-39716666D02*
X174735000Y-39811904D01*
X174735000Y-39811904D02*
X174687380Y-39859523D01*
X174115952Y-38383333D02*
X174782619Y-38383333D01*
X173735000Y-38621428D02*
X174449285Y-38859523D01*
X174449285Y-38859523D02*
X174449285Y-38240476D01*
X114214286Y-35831666D02*
X114976191Y-35831666D01*
X114595238Y-36212619D02*
X114595238Y-35450714D01*
X116166666Y-35165000D02*
X115309524Y-36450714D01*
X116976190Y-36212619D02*
X116500000Y-36212619D01*
X116500000Y-36212619D02*
X116500000Y-35212619D01*
X117214286Y-35212619D02*
X117833333Y-35212619D01*
X117833333Y-35212619D02*
X117500000Y-35593571D01*
X117500000Y-35593571D02*
X117642857Y-35593571D01*
X117642857Y-35593571D02*
X117738095Y-35641190D01*
X117738095Y-35641190D02*
X117785714Y-35688809D01*
X117785714Y-35688809D02*
X117833333Y-35784047D01*
X117833333Y-35784047D02*
X117833333Y-36022142D01*
X117833333Y-36022142D02*
X117785714Y-36117380D01*
X117785714Y-36117380D02*
X117738095Y-36165000D01*
X117738095Y-36165000D02*
X117642857Y-36212619D01*
X117642857Y-36212619D02*
X117357143Y-36212619D01*
X117357143Y-36212619D02*
X117261905Y-36165000D01*
X117261905Y-36165000D02*
X117214286Y-36117380D01*
X188595119Y-77095238D02*
X188118928Y-77428571D01*
X188595119Y-77666666D02*
X187595119Y-77666666D01*
X187595119Y-77666666D02*
X187595119Y-77285714D01*
X187595119Y-77285714D02*
X187642738Y-77190476D01*
X187642738Y-77190476D02*
X187690357Y-77142857D01*
X187690357Y-77142857D02*
X187785595Y-77095238D01*
X187785595Y-77095238D02*
X187928452Y-77095238D01*
X187928452Y-77095238D02*
X188023690Y-77142857D01*
X188023690Y-77142857D02*
X188071309Y-77190476D01*
X188071309Y-77190476D02*
X188118928Y-77285714D01*
X188118928Y-77285714D02*
X188118928Y-77666666D01*
X187595119Y-76809523D02*
X188595119Y-76476190D01*
X188595119Y-76476190D02*
X187595119Y-76142857D01*
X187690357Y-75857142D02*
X187642738Y-75809523D01*
X187642738Y-75809523D02*
X187595119Y-75714285D01*
X187595119Y-75714285D02*
X187595119Y-75476190D01*
X187595119Y-75476190D02*
X187642738Y-75380952D01*
X187642738Y-75380952D02*
X187690357Y-75333333D01*
X187690357Y-75333333D02*
X187785595Y-75285714D01*
X187785595Y-75285714D02*
X187880833Y-75285714D01*
X187880833Y-75285714D02*
X188023690Y-75333333D01*
X188023690Y-75333333D02*
X188595119Y-75904761D01*
X188595119Y-75904761D02*
X188595119Y-75285714D01*
X103962619Y-97238095D02*
X103486428Y-97571428D01*
X103962619Y-97809523D02*
X102962619Y-97809523D01*
X102962619Y-97809523D02*
X102962619Y-97428571D01*
X102962619Y-97428571D02*
X103010238Y-97333333D01*
X103010238Y-97333333D02*
X103057857Y-97285714D01*
X103057857Y-97285714D02*
X103153095Y-97238095D01*
X103153095Y-97238095D02*
X103295952Y-97238095D01*
X103295952Y-97238095D02*
X103391190Y-97285714D01*
X103391190Y-97285714D02*
X103438809Y-97333333D01*
X103438809Y-97333333D02*
X103486428Y-97428571D01*
X103486428Y-97428571D02*
X103486428Y-97809523D01*
X102962619Y-96952380D02*
X103962619Y-96619047D01*
X103962619Y-96619047D02*
X102962619Y-96285714D01*
X102915000Y-95238095D02*
X104200714Y-96095237D01*
X103581666Y-94904761D02*
X103581666Y-94142857D01*
X103962619Y-94523809D02*
X103200714Y-94523809D01*
X103962619Y-93142857D02*
X103962619Y-93714285D01*
X103962619Y-93428571D02*
X102962619Y-93428571D01*
X102962619Y-93428571D02*
X103105476Y-93523809D01*
X103105476Y-93523809D02*
X103200714Y-93619047D01*
X103200714Y-93619047D02*
X103248333Y-93714285D01*
X152217380Y-97229166D02*
X152265000Y-97276785D01*
X152265000Y-97276785D02*
X152312619Y-97419642D01*
X152312619Y-97419642D02*
X152312619Y-97514880D01*
X152312619Y-97514880D02*
X152265000Y-97657737D01*
X152265000Y-97657737D02*
X152169761Y-97752975D01*
X152169761Y-97752975D02*
X152074523Y-97800594D01*
X152074523Y-97800594D02*
X151884047Y-97848213D01*
X151884047Y-97848213D02*
X151741190Y-97848213D01*
X151741190Y-97848213D02*
X151550714Y-97800594D01*
X151550714Y-97800594D02*
X151455476Y-97752975D01*
X151455476Y-97752975D02*
X151360238Y-97657737D01*
X151360238Y-97657737D02*
X151312619Y-97514880D01*
X151312619Y-97514880D02*
X151312619Y-97419642D01*
X151312619Y-97419642D02*
X151360238Y-97276785D01*
X151360238Y-97276785D02*
X151407857Y-97229166D01*
X151645952Y-96372023D02*
X152312619Y-96372023D01*
X151265000Y-96610118D02*
X151979285Y-96848213D01*
X151979285Y-96848213D02*
X151979285Y-96229166D01*
X151265000Y-95133928D02*
X152550714Y-95991070D01*
X152217380Y-94229166D02*
X152265000Y-94276785D01*
X152265000Y-94276785D02*
X152312619Y-94419642D01*
X152312619Y-94419642D02*
X152312619Y-94514880D01*
X152312619Y-94514880D02*
X152265000Y-94657737D01*
X152265000Y-94657737D02*
X152169761Y-94752975D01*
X152169761Y-94752975D02*
X152074523Y-94800594D01*
X152074523Y-94800594D02*
X151884047Y-94848213D01*
X151884047Y-94848213D02*
X151741190Y-94848213D01*
X151741190Y-94848213D02*
X151550714Y-94800594D01*
X151550714Y-94800594D02*
X151455476Y-94752975D01*
X151455476Y-94752975D02*
X151360238Y-94657737D01*
X151360238Y-94657737D02*
X151312619Y-94514880D01*
X151312619Y-94514880D02*
X151312619Y-94419642D01*
X151312619Y-94419642D02*
X151360238Y-94276785D01*
X151360238Y-94276785D02*
X151407857Y-94229166D01*
X151407857Y-93848213D02*
X151360238Y-93800594D01*
X151360238Y-93800594D02*
X151312619Y-93705356D01*
X151312619Y-93705356D02*
X151312619Y-93467261D01*
X151312619Y-93467261D02*
X151360238Y-93372023D01*
X151360238Y-93372023D02*
X151407857Y-93324404D01*
X151407857Y-93324404D02*
X151503095Y-93276785D01*
X151503095Y-93276785D02*
X151598333Y-93276785D01*
X151598333Y-93276785D02*
X151741190Y-93324404D01*
X151741190Y-93324404D02*
X152312619Y-93895832D01*
X152312619Y-93895832D02*
X152312619Y-93276785D01*
X151265000Y-92133928D02*
X152550714Y-92991070D01*
X152217380Y-91229166D02*
X152265000Y-91276785D01*
X152265000Y-91276785D02*
X152312619Y-91419642D01*
X152312619Y-91419642D02*
X152312619Y-91514880D01*
X152312619Y-91514880D02*
X152265000Y-91657737D01*
X152265000Y-91657737D02*
X152169761Y-91752975D01*
X152169761Y-91752975D02*
X152074523Y-91800594D01*
X152074523Y-91800594D02*
X151884047Y-91848213D01*
X151884047Y-91848213D02*
X151741190Y-91848213D01*
X151741190Y-91848213D02*
X151550714Y-91800594D01*
X151550714Y-91800594D02*
X151455476Y-91752975D01*
X151455476Y-91752975D02*
X151360238Y-91657737D01*
X151360238Y-91657737D02*
X151312619Y-91514880D01*
X151312619Y-91514880D02*
X151312619Y-91419642D01*
X151312619Y-91419642D02*
X151360238Y-91276785D01*
X151360238Y-91276785D02*
X151407857Y-91229166D01*
X151407857Y-90848213D02*
X151360238Y-90800594D01*
X151360238Y-90800594D02*
X151312619Y-90705356D01*
X151312619Y-90705356D02*
X151312619Y-90467261D01*
X151312619Y-90467261D02*
X151360238Y-90372023D01*
X151360238Y-90372023D02*
X151407857Y-90324404D01*
X151407857Y-90324404D02*
X151503095Y-90276785D01*
X151503095Y-90276785D02*
X151598333Y-90276785D01*
X151598333Y-90276785D02*
X151741190Y-90324404D01*
X151741190Y-90324404D02*
X152312619Y-90895832D01*
X152312619Y-90895832D02*
X152312619Y-90276785D01*
X132962619Y-84904761D02*
X132486428Y-85238094D01*
X132962619Y-85476189D02*
X131962619Y-85476189D01*
X131962619Y-85476189D02*
X131962619Y-85095237D01*
X131962619Y-85095237D02*
X132010238Y-84999999D01*
X132010238Y-84999999D02*
X132057857Y-84952380D01*
X132057857Y-84952380D02*
X132153095Y-84904761D01*
X132153095Y-84904761D02*
X132295952Y-84904761D01*
X132295952Y-84904761D02*
X132391190Y-84952380D01*
X132391190Y-84952380D02*
X132438809Y-84999999D01*
X132438809Y-84999999D02*
X132486428Y-85095237D01*
X132486428Y-85095237D02*
X132486428Y-85476189D01*
X132962619Y-83952380D02*
X132962619Y-84523808D01*
X132962619Y-84238094D02*
X131962619Y-84238094D01*
X131962619Y-84238094D02*
X132105476Y-84333332D01*
X132105476Y-84333332D02*
X132200714Y-84428570D01*
X132200714Y-84428570D02*
X132248333Y-84523808D01*
X131962619Y-83619046D02*
X131962619Y-82952380D01*
X131962619Y-82952380D02*
X132962619Y-83380951D01*
X131915000Y-81857142D02*
X133200714Y-82714284D01*
X132581666Y-81523808D02*
X132581666Y-80761904D01*
X132962619Y-81142856D02*
X132200714Y-81142856D01*
X131915000Y-79571428D02*
X133200714Y-80428570D01*
X132581666Y-79238094D02*
X132581666Y-78476190D01*
X132962619Y-78857142D02*
X132200714Y-78857142D01*
X132962619Y-77476190D02*
X132962619Y-78047618D01*
X132962619Y-77761904D02*
X131962619Y-77761904D01*
X131962619Y-77761904D02*
X132105476Y-77857142D01*
X132105476Y-77857142D02*
X132200714Y-77952380D01*
X132200714Y-77952380D02*
X132248333Y-78047618D01*
X195531666Y-105809523D02*
X195531666Y-105047619D01*
X195912619Y-105428571D02*
X195150714Y-105428571D01*
X194865000Y-103857143D02*
X196150714Y-104714285D01*
X195912619Y-102952381D02*
X195436428Y-103285714D01*
X195912619Y-103523809D02*
X194912619Y-103523809D01*
X194912619Y-103523809D02*
X194912619Y-103142857D01*
X194912619Y-103142857D02*
X194960238Y-103047619D01*
X194960238Y-103047619D02*
X195007857Y-103000000D01*
X195007857Y-103000000D02*
X195103095Y-102952381D01*
X195103095Y-102952381D02*
X195245952Y-102952381D01*
X195245952Y-102952381D02*
X195341190Y-103000000D01*
X195341190Y-103000000D02*
X195388809Y-103047619D01*
X195388809Y-103047619D02*
X195436428Y-103142857D01*
X195436428Y-103142857D02*
X195436428Y-103523809D01*
X194912619Y-102666666D02*
X195912619Y-102333333D01*
X195912619Y-102333333D02*
X194912619Y-102000000D01*
X195912619Y-101142857D02*
X195912619Y-101714285D01*
X195912619Y-101428571D02*
X194912619Y-101428571D01*
X194912619Y-101428571D02*
X195055476Y-101523809D01*
X195055476Y-101523809D02*
X195150714Y-101619047D01*
X195150714Y-101619047D02*
X195198333Y-101714285D01*
X191217380Y-88166666D02*
X191265000Y-88214285D01*
X191265000Y-88214285D02*
X191312619Y-88357142D01*
X191312619Y-88357142D02*
X191312619Y-88452380D01*
X191312619Y-88452380D02*
X191265000Y-88595237D01*
X191265000Y-88595237D02*
X191169761Y-88690475D01*
X191169761Y-88690475D02*
X191074523Y-88738094D01*
X191074523Y-88738094D02*
X190884047Y-88785713D01*
X190884047Y-88785713D02*
X190741190Y-88785713D01*
X190741190Y-88785713D02*
X190550714Y-88738094D01*
X190550714Y-88738094D02*
X190455476Y-88690475D01*
X190455476Y-88690475D02*
X190360238Y-88595237D01*
X190360238Y-88595237D02*
X190312619Y-88452380D01*
X190312619Y-88452380D02*
X190312619Y-88357142D01*
X190312619Y-88357142D02*
X190360238Y-88214285D01*
X190360238Y-88214285D02*
X190407857Y-88166666D01*
X191312619Y-87214285D02*
X191312619Y-87785713D01*
X191312619Y-87499999D02*
X190312619Y-87499999D01*
X190312619Y-87499999D02*
X190455476Y-87595237D01*
X190455476Y-87595237D02*
X190550714Y-87690475D01*
X190550714Y-87690475D02*
X190598333Y-87785713D01*
X173248095Y-62007619D02*
X173248095Y-62817142D01*
X173248095Y-62817142D02*
X173295714Y-62912380D01*
X173295714Y-62912380D02*
X173343333Y-62960000D01*
X173343333Y-62960000D02*
X173438571Y-63007619D01*
X173438571Y-63007619D02*
X173629047Y-63007619D01*
X173629047Y-63007619D02*
X173724285Y-62960000D01*
X173724285Y-62960000D02*
X173771904Y-62912380D01*
X173771904Y-62912380D02*
X173819523Y-62817142D01*
X173819523Y-62817142D02*
X173819523Y-62007619D01*
X174248095Y-62102857D02*
X174295714Y-62055238D01*
X174295714Y-62055238D02*
X174390952Y-62007619D01*
X174390952Y-62007619D02*
X174629047Y-62007619D01*
X174629047Y-62007619D02*
X174724285Y-62055238D01*
X174724285Y-62055238D02*
X174771904Y-62102857D01*
X174771904Y-62102857D02*
X174819523Y-62198095D01*
X174819523Y-62198095D02*
X174819523Y-62293333D01*
X174819523Y-62293333D02*
X174771904Y-62436190D01*
X174771904Y-62436190D02*
X174200476Y-63007619D01*
X174200476Y-63007619D02*
X174819523Y-63007619D01*
X195357142Y-39782619D02*
X195023809Y-39306428D01*
X194785714Y-39782619D02*
X194785714Y-38782619D01*
X194785714Y-38782619D02*
X195166666Y-38782619D01*
X195166666Y-38782619D02*
X195261904Y-38830238D01*
X195261904Y-38830238D02*
X195309523Y-38877857D01*
X195309523Y-38877857D02*
X195357142Y-38973095D01*
X195357142Y-38973095D02*
X195357142Y-39115952D01*
X195357142Y-39115952D02*
X195309523Y-39211190D01*
X195309523Y-39211190D02*
X195261904Y-39258809D01*
X195261904Y-39258809D02*
X195166666Y-39306428D01*
X195166666Y-39306428D02*
X194785714Y-39306428D01*
X195690476Y-38782619D02*
X196309523Y-38782619D01*
X196309523Y-38782619D02*
X195976190Y-39163571D01*
X195976190Y-39163571D02*
X196119047Y-39163571D01*
X196119047Y-39163571D02*
X196214285Y-39211190D01*
X196214285Y-39211190D02*
X196261904Y-39258809D01*
X196261904Y-39258809D02*
X196309523Y-39354047D01*
X196309523Y-39354047D02*
X196309523Y-39592142D01*
X196309523Y-39592142D02*
X196261904Y-39687380D01*
X196261904Y-39687380D02*
X196214285Y-39735000D01*
X196214285Y-39735000D02*
X196119047Y-39782619D01*
X196119047Y-39782619D02*
X195833333Y-39782619D01*
X195833333Y-39782619D02*
X195738095Y-39735000D01*
X195738095Y-39735000D02*
X195690476Y-39687380D01*
X197261904Y-39782619D02*
X196690476Y-39782619D01*
X196976190Y-39782619D02*
X196976190Y-38782619D01*
X196976190Y-38782619D02*
X196880952Y-38925476D01*
X196880952Y-38925476D02*
X196785714Y-39020714D01*
X196785714Y-39020714D02*
X196690476Y-39068333D01*
X182826142Y-75607619D02*
X182492809Y-75131428D01*
X182254714Y-75607619D02*
X182254714Y-74607619D01*
X182254714Y-74607619D02*
X182635666Y-74607619D01*
X182635666Y-74607619D02*
X182730904Y-74655238D01*
X182730904Y-74655238D02*
X182778523Y-74702857D01*
X182778523Y-74702857D02*
X182826142Y-74798095D01*
X182826142Y-74798095D02*
X182826142Y-74940952D01*
X182826142Y-74940952D02*
X182778523Y-75036190D01*
X182778523Y-75036190D02*
X182730904Y-75083809D01*
X182730904Y-75083809D02*
X182635666Y-75131428D01*
X182635666Y-75131428D02*
X182254714Y-75131428D01*
X183778523Y-75607619D02*
X183207095Y-75607619D01*
X183492809Y-75607619D02*
X183492809Y-74607619D01*
X183492809Y-74607619D02*
X183397571Y-74750476D01*
X183397571Y-74750476D02*
X183302333Y-74845714D01*
X183302333Y-74845714D02*
X183207095Y-74893333D01*
X184397571Y-74607619D02*
X184492809Y-74607619D01*
X184492809Y-74607619D02*
X184588047Y-74655238D01*
X184588047Y-74655238D02*
X184635666Y-74702857D01*
X184635666Y-74702857D02*
X184683285Y-74798095D01*
X184683285Y-74798095D02*
X184730904Y-74988571D01*
X184730904Y-74988571D02*
X184730904Y-75226666D01*
X184730904Y-75226666D02*
X184683285Y-75417142D01*
X184683285Y-75417142D02*
X184635666Y-75512380D01*
X184635666Y-75512380D02*
X184588047Y-75560000D01*
X184588047Y-75560000D02*
X184492809Y-75607619D01*
X184492809Y-75607619D02*
X184397571Y-75607619D01*
X184397571Y-75607619D02*
X184302333Y-75560000D01*
X184302333Y-75560000D02*
X184254714Y-75512380D01*
X184254714Y-75512380D02*
X184207095Y-75417142D01*
X184207095Y-75417142D02*
X184159476Y-75226666D01*
X184159476Y-75226666D02*
X184159476Y-74988571D01*
X184159476Y-74988571D02*
X184207095Y-74798095D01*
X184207095Y-74798095D02*
X184254714Y-74702857D01*
X184254714Y-74702857D02*
X184302333Y-74655238D01*
X184302333Y-74655238D02*
X184397571Y-74607619D01*
X186401666Y-80880951D02*
X186401666Y-80119047D01*
X186782619Y-80499999D02*
X186020714Y-80499999D01*
X185735000Y-78928571D02*
X187020714Y-79785713D01*
X186782619Y-78023809D02*
X186306428Y-78357142D01*
X186782619Y-78595237D02*
X185782619Y-78595237D01*
X185782619Y-78595237D02*
X185782619Y-78214285D01*
X185782619Y-78214285D02*
X185830238Y-78119047D01*
X185830238Y-78119047D02*
X185877857Y-78071428D01*
X185877857Y-78071428D02*
X185973095Y-78023809D01*
X185973095Y-78023809D02*
X186115952Y-78023809D01*
X186115952Y-78023809D02*
X186211190Y-78071428D01*
X186211190Y-78071428D02*
X186258809Y-78119047D01*
X186258809Y-78119047D02*
X186306428Y-78214285D01*
X186306428Y-78214285D02*
X186306428Y-78595237D01*
X186782619Y-77071428D02*
X186782619Y-77642856D01*
X186782619Y-77357142D02*
X185782619Y-77357142D01*
X185782619Y-77357142D02*
X185925476Y-77452380D01*
X185925476Y-77452380D02*
X186020714Y-77547618D01*
X186020714Y-77547618D02*
X186068333Y-77642856D01*
X173666666Y-53962619D02*
X173666666Y-54676904D01*
X173666666Y-54676904D02*
X173619047Y-54819761D01*
X173619047Y-54819761D02*
X173523809Y-54915000D01*
X173523809Y-54915000D02*
X173380952Y-54962619D01*
X173380952Y-54962619D02*
X173285714Y-54962619D01*
X174571428Y-54295952D02*
X174571428Y-54962619D01*
X174333333Y-53915000D02*
X174095238Y-54629285D01*
X174095238Y-54629285D02*
X174714285Y-54629285D01*
X114439583Y-113748630D02*
X114391964Y-113796250D01*
X114391964Y-113796250D02*
X114249107Y-113843869D01*
X114249107Y-113843869D02*
X114153869Y-113843869D01*
X114153869Y-113843869D02*
X114011012Y-113796250D01*
X114011012Y-113796250D02*
X113915774Y-113701011D01*
X113915774Y-113701011D02*
X113868155Y-113605773D01*
X113868155Y-113605773D02*
X113820536Y-113415297D01*
X113820536Y-113415297D02*
X113820536Y-113272440D01*
X113820536Y-113272440D02*
X113868155Y-113081964D01*
X113868155Y-113081964D02*
X113915774Y-112986726D01*
X113915774Y-112986726D02*
X114011012Y-112891488D01*
X114011012Y-112891488D02*
X114153869Y-112843869D01*
X114153869Y-112843869D02*
X114249107Y-112843869D01*
X114249107Y-112843869D02*
X114391964Y-112891488D01*
X114391964Y-112891488D02*
X114439583Y-112939107D01*
X114772917Y-112843869D02*
X115391964Y-112843869D01*
X115391964Y-112843869D02*
X115058631Y-113224821D01*
X115058631Y-113224821D02*
X115201488Y-113224821D01*
X115201488Y-113224821D02*
X115296726Y-113272440D01*
X115296726Y-113272440D02*
X115344345Y-113320059D01*
X115344345Y-113320059D02*
X115391964Y-113415297D01*
X115391964Y-113415297D02*
X115391964Y-113653392D01*
X115391964Y-113653392D02*
X115344345Y-113748630D01*
X115344345Y-113748630D02*
X115296726Y-113796250D01*
X115296726Y-113796250D02*
X115201488Y-113843869D01*
X115201488Y-113843869D02*
X114915774Y-113843869D01*
X114915774Y-113843869D02*
X114820536Y-113796250D01*
X114820536Y-113796250D02*
X114772917Y-113748630D01*
X116534821Y-112796250D02*
X115677679Y-114081964D01*
X117439583Y-113748630D02*
X117391964Y-113796250D01*
X117391964Y-113796250D02*
X117249107Y-113843869D01*
X117249107Y-113843869D02*
X117153869Y-113843869D01*
X117153869Y-113843869D02*
X117011012Y-113796250D01*
X117011012Y-113796250D02*
X116915774Y-113701011D01*
X116915774Y-113701011D02*
X116868155Y-113605773D01*
X116868155Y-113605773D02*
X116820536Y-113415297D01*
X116820536Y-113415297D02*
X116820536Y-113272440D01*
X116820536Y-113272440D02*
X116868155Y-113081964D01*
X116868155Y-113081964D02*
X116915774Y-112986726D01*
X116915774Y-112986726D02*
X117011012Y-112891488D01*
X117011012Y-112891488D02*
X117153869Y-112843869D01*
X117153869Y-112843869D02*
X117249107Y-112843869D01*
X117249107Y-112843869D02*
X117391964Y-112891488D01*
X117391964Y-112891488D02*
X117439583Y-112939107D01*
X118391964Y-113843869D02*
X117820536Y-113843869D01*
X118106250Y-113843869D02*
X118106250Y-112843869D01*
X118106250Y-112843869D02*
X118011012Y-112986726D01*
X118011012Y-112986726D02*
X117915774Y-113081964D01*
X117915774Y-113081964D02*
X117820536Y-113129583D01*
X119264285Y-82462619D02*
X118930952Y-81986428D01*
X118692857Y-82462619D02*
X118692857Y-81462619D01*
X118692857Y-81462619D02*
X119073809Y-81462619D01*
X119073809Y-81462619D02*
X119169047Y-81510238D01*
X119169047Y-81510238D02*
X119216666Y-81557857D01*
X119216666Y-81557857D02*
X119264285Y-81653095D01*
X119264285Y-81653095D02*
X119264285Y-81795952D01*
X119264285Y-81795952D02*
X119216666Y-81891190D01*
X119216666Y-81891190D02*
X119169047Y-81938809D01*
X119169047Y-81938809D02*
X119073809Y-81986428D01*
X119073809Y-81986428D02*
X118692857Y-81986428D01*
X119645238Y-81557857D02*
X119692857Y-81510238D01*
X119692857Y-81510238D02*
X119788095Y-81462619D01*
X119788095Y-81462619D02*
X120026190Y-81462619D01*
X120026190Y-81462619D02*
X120121428Y-81510238D01*
X120121428Y-81510238D02*
X120169047Y-81557857D01*
X120169047Y-81557857D02*
X120216666Y-81653095D01*
X120216666Y-81653095D02*
X120216666Y-81748333D01*
X120216666Y-81748333D02*
X120169047Y-81891190D01*
X120169047Y-81891190D02*
X119597619Y-82462619D01*
X119597619Y-82462619D02*
X120216666Y-82462619D01*
X121359523Y-81415000D02*
X120502381Y-82700714D01*
X122264285Y-82462619D02*
X121930952Y-81986428D01*
X121692857Y-82462619D02*
X121692857Y-81462619D01*
X121692857Y-81462619D02*
X122073809Y-81462619D01*
X122073809Y-81462619D02*
X122169047Y-81510238D01*
X122169047Y-81510238D02*
X122216666Y-81557857D01*
X122216666Y-81557857D02*
X122264285Y-81653095D01*
X122264285Y-81653095D02*
X122264285Y-81795952D01*
X122264285Y-81795952D02*
X122216666Y-81891190D01*
X122216666Y-81891190D02*
X122169047Y-81938809D01*
X122169047Y-81938809D02*
X122073809Y-81986428D01*
X122073809Y-81986428D02*
X121692857Y-81986428D01*
X123169047Y-81462619D02*
X122692857Y-81462619D01*
X122692857Y-81462619D02*
X122645238Y-81938809D01*
X122645238Y-81938809D02*
X122692857Y-81891190D01*
X122692857Y-81891190D02*
X122788095Y-81843571D01*
X122788095Y-81843571D02*
X123026190Y-81843571D01*
X123026190Y-81843571D02*
X123121428Y-81891190D01*
X123121428Y-81891190D02*
X123169047Y-81938809D01*
X123169047Y-81938809D02*
X123216666Y-82034047D01*
X123216666Y-82034047D02*
X123216666Y-82272142D01*
X123216666Y-82272142D02*
X123169047Y-82367380D01*
X123169047Y-82367380D02*
X123121428Y-82415000D01*
X123121428Y-82415000D02*
X123026190Y-82462619D01*
X123026190Y-82462619D02*
X122788095Y-82462619D01*
X122788095Y-82462619D02*
X122692857Y-82415000D01*
X122692857Y-82415000D02*
X122645238Y-82367380D01*
X124359523Y-81415000D02*
X123502381Y-82700714D01*
X124692857Y-82081666D02*
X125454762Y-82081666D01*
X125073809Y-82462619D02*
X125073809Y-81700714D01*
X126454761Y-82462619D02*
X125883333Y-82462619D01*
X126169047Y-82462619D02*
X126169047Y-81462619D01*
X126169047Y-81462619D02*
X126073809Y-81605476D01*
X126073809Y-81605476D02*
X125978571Y-81700714D01*
X125978571Y-81700714D02*
X125883333Y-81748333D01*
X149017380Y-70428571D02*
X149065000Y-70476190D01*
X149065000Y-70476190D02*
X149112619Y-70619047D01*
X149112619Y-70619047D02*
X149112619Y-70714285D01*
X149112619Y-70714285D02*
X149065000Y-70857142D01*
X149065000Y-70857142D02*
X148969761Y-70952380D01*
X148969761Y-70952380D02*
X148874523Y-70999999D01*
X148874523Y-70999999D02*
X148684047Y-71047618D01*
X148684047Y-71047618D02*
X148541190Y-71047618D01*
X148541190Y-71047618D02*
X148350714Y-70999999D01*
X148350714Y-70999999D02*
X148255476Y-70952380D01*
X148255476Y-70952380D02*
X148160238Y-70857142D01*
X148160238Y-70857142D02*
X148112619Y-70714285D01*
X148112619Y-70714285D02*
X148112619Y-70619047D01*
X148112619Y-70619047D02*
X148160238Y-70476190D01*
X148160238Y-70476190D02*
X148207857Y-70428571D01*
X148112619Y-70095237D02*
X148112619Y-69428571D01*
X148112619Y-69428571D02*
X149112619Y-69857142D01*
X148065000Y-68333333D02*
X149350714Y-69190475D01*
X148731666Y-67999999D02*
X148731666Y-67238095D01*
X149112619Y-67619047D02*
X148350714Y-67619047D01*
X148065000Y-66047619D02*
X149350714Y-66904761D01*
X148731666Y-65714285D02*
X148731666Y-64952381D01*
X149112619Y-65333333D02*
X148350714Y-65333333D01*
X149112619Y-63952381D02*
X149112619Y-64523809D01*
X149112619Y-64238095D02*
X148112619Y-64238095D01*
X148112619Y-64238095D02*
X148255476Y-64333333D01*
X148255476Y-64333333D02*
X148350714Y-64428571D01*
X148350714Y-64428571D02*
X148398333Y-64523809D01*
X178690476Y-95449166D02*
X179452381Y-95449166D01*
X179071428Y-95830119D02*
X179071428Y-95068214D01*
X180642856Y-94782500D02*
X179785714Y-96068214D01*
X181547618Y-95830119D02*
X181214285Y-95353928D01*
X180976190Y-95830119D02*
X180976190Y-94830119D01*
X180976190Y-94830119D02*
X181357142Y-94830119D01*
X181357142Y-94830119D02*
X181452380Y-94877738D01*
X181452380Y-94877738D02*
X181499999Y-94925357D01*
X181499999Y-94925357D02*
X181547618Y-95020595D01*
X181547618Y-95020595D02*
X181547618Y-95163452D01*
X181547618Y-95163452D02*
X181499999Y-95258690D01*
X181499999Y-95258690D02*
X181452380Y-95306309D01*
X181452380Y-95306309D02*
X181357142Y-95353928D01*
X181357142Y-95353928D02*
X180976190Y-95353928D01*
X181833333Y-94830119D02*
X182166666Y-95830119D01*
X182166666Y-95830119D02*
X182499999Y-94830119D01*
X182738095Y-94830119D02*
X183357142Y-94830119D01*
X183357142Y-94830119D02*
X183023809Y-95211071D01*
X183023809Y-95211071D02*
X183166666Y-95211071D01*
X183166666Y-95211071D02*
X183261904Y-95258690D01*
X183261904Y-95258690D02*
X183309523Y-95306309D01*
X183309523Y-95306309D02*
X183357142Y-95401547D01*
X183357142Y-95401547D02*
X183357142Y-95639642D01*
X183357142Y-95639642D02*
X183309523Y-95734880D01*
X183309523Y-95734880D02*
X183261904Y-95782500D01*
X183261904Y-95782500D02*
X183166666Y-95830119D01*
X183166666Y-95830119D02*
X182880952Y-95830119D01*
X182880952Y-95830119D02*
X182785714Y-95782500D01*
X182785714Y-95782500D02*
X182738095Y-95734880D01*
X127071428Y-68282619D02*
X126738095Y-67806428D01*
X126500000Y-68282619D02*
X126500000Y-67282619D01*
X126500000Y-67282619D02*
X126880952Y-67282619D01*
X126880952Y-67282619D02*
X126976190Y-67330238D01*
X126976190Y-67330238D02*
X127023809Y-67377857D01*
X127023809Y-67377857D02*
X127071428Y-67473095D01*
X127071428Y-67473095D02*
X127071428Y-67615952D01*
X127071428Y-67615952D02*
X127023809Y-67711190D01*
X127023809Y-67711190D02*
X126976190Y-67758809D01*
X126976190Y-67758809D02*
X126880952Y-67806428D01*
X126880952Y-67806428D02*
X126500000Y-67806428D01*
X127928571Y-67615952D02*
X127928571Y-68282619D01*
X127690476Y-67235000D02*
X127452381Y-67949285D01*
X127452381Y-67949285D02*
X128071428Y-67949285D01*
X129166666Y-67235000D02*
X128309524Y-68520714D01*
X129500000Y-67901666D02*
X130261905Y-67901666D01*
X129880952Y-68282619D02*
X129880952Y-67520714D01*
X131452380Y-67235000D02*
X130595238Y-68520714D01*
X131785714Y-67901666D02*
X132547619Y-67901666D01*
X133547618Y-68282619D02*
X132976190Y-68282619D01*
X133261904Y-68282619D02*
X133261904Y-67282619D01*
X133261904Y-67282619D02*
X133166666Y-67425476D01*
X133166666Y-67425476D02*
X133071428Y-67520714D01*
X133071428Y-67520714D02*
X132976190Y-67568333D01*
X118238095Y-66282619D02*
X117904762Y-65806428D01*
X117666667Y-66282619D02*
X117666667Y-65282619D01*
X117666667Y-65282619D02*
X118047619Y-65282619D01*
X118047619Y-65282619D02*
X118142857Y-65330238D01*
X118142857Y-65330238D02*
X118190476Y-65377857D01*
X118190476Y-65377857D02*
X118238095Y-65473095D01*
X118238095Y-65473095D02*
X118238095Y-65615952D01*
X118238095Y-65615952D02*
X118190476Y-65711190D01*
X118190476Y-65711190D02*
X118142857Y-65758809D01*
X118142857Y-65758809D02*
X118047619Y-65806428D01*
X118047619Y-65806428D02*
X117666667Y-65806428D01*
X119190476Y-66282619D02*
X118619048Y-66282619D01*
X118904762Y-66282619D02*
X118904762Y-65282619D01*
X118904762Y-65282619D02*
X118809524Y-65425476D01*
X118809524Y-65425476D02*
X118714286Y-65520714D01*
X118714286Y-65520714D02*
X118619048Y-65568333D01*
X120047619Y-65282619D02*
X119857143Y-65282619D01*
X119857143Y-65282619D02*
X119761905Y-65330238D01*
X119761905Y-65330238D02*
X119714286Y-65377857D01*
X119714286Y-65377857D02*
X119619048Y-65520714D01*
X119619048Y-65520714D02*
X119571429Y-65711190D01*
X119571429Y-65711190D02*
X119571429Y-66092142D01*
X119571429Y-66092142D02*
X119619048Y-66187380D01*
X119619048Y-66187380D02*
X119666667Y-66235000D01*
X119666667Y-66235000D02*
X119761905Y-66282619D01*
X119761905Y-66282619D02*
X119952381Y-66282619D01*
X119952381Y-66282619D02*
X120047619Y-66235000D01*
X120047619Y-66235000D02*
X120095238Y-66187380D01*
X120095238Y-66187380D02*
X120142857Y-66092142D01*
X120142857Y-66092142D02*
X120142857Y-65854047D01*
X120142857Y-65854047D02*
X120095238Y-65758809D01*
X120095238Y-65758809D02*
X120047619Y-65711190D01*
X120047619Y-65711190D02*
X119952381Y-65663571D01*
X119952381Y-65663571D02*
X119761905Y-65663571D01*
X119761905Y-65663571D02*
X119666667Y-65711190D01*
X119666667Y-65711190D02*
X119619048Y-65758809D01*
X119619048Y-65758809D02*
X119571429Y-65854047D01*
X121285714Y-65235000D02*
X120428572Y-66520714D01*
X121619048Y-65901666D02*
X122380953Y-65901666D01*
X122000000Y-66282619D02*
X122000000Y-65520714D01*
X123380952Y-66282619D02*
X122809524Y-66282619D01*
X123095238Y-66282619D02*
X123095238Y-65282619D01*
X123095238Y-65282619D02*
X123000000Y-65425476D01*
X123000000Y-65425476D02*
X122904762Y-65520714D01*
X122904762Y-65520714D02*
X122809524Y-65568333D01*
X124523809Y-65235000D02*
X123666667Y-66520714D01*
X125428571Y-66282619D02*
X125095238Y-65806428D01*
X124857143Y-66282619D02*
X124857143Y-65282619D01*
X124857143Y-65282619D02*
X125238095Y-65282619D01*
X125238095Y-65282619D02*
X125333333Y-65330238D01*
X125333333Y-65330238D02*
X125380952Y-65377857D01*
X125380952Y-65377857D02*
X125428571Y-65473095D01*
X125428571Y-65473095D02*
X125428571Y-65615952D01*
X125428571Y-65615952D02*
X125380952Y-65711190D01*
X125380952Y-65711190D02*
X125333333Y-65758809D01*
X125333333Y-65758809D02*
X125238095Y-65806428D01*
X125238095Y-65806428D02*
X124857143Y-65806428D01*
X126333333Y-65282619D02*
X125857143Y-65282619D01*
X125857143Y-65282619D02*
X125809524Y-65758809D01*
X125809524Y-65758809D02*
X125857143Y-65711190D01*
X125857143Y-65711190D02*
X125952381Y-65663571D01*
X125952381Y-65663571D02*
X126190476Y-65663571D01*
X126190476Y-65663571D02*
X126285714Y-65711190D01*
X126285714Y-65711190D02*
X126333333Y-65758809D01*
X126333333Y-65758809D02*
X126380952Y-65854047D01*
X126380952Y-65854047D02*
X126380952Y-66092142D01*
X126380952Y-66092142D02*
X126333333Y-66187380D01*
X126333333Y-66187380D02*
X126285714Y-66235000D01*
X126285714Y-66235000D02*
X126190476Y-66282619D01*
X126190476Y-66282619D02*
X125952381Y-66282619D01*
X125952381Y-66282619D02*
X125857143Y-66235000D01*
X125857143Y-66235000D02*
X125809524Y-66187380D01*
X121633928Y-70517380D02*
X121586309Y-70565000D01*
X121586309Y-70565000D02*
X121443452Y-70612619D01*
X121443452Y-70612619D02*
X121348214Y-70612619D01*
X121348214Y-70612619D02*
X121205357Y-70565000D01*
X121205357Y-70565000D02*
X121110119Y-70469761D01*
X121110119Y-70469761D02*
X121062500Y-70374523D01*
X121062500Y-70374523D02*
X121014881Y-70184047D01*
X121014881Y-70184047D02*
X121014881Y-70041190D01*
X121014881Y-70041190D02*
X121062500Y-69850714D01*
X121062500Y-69850714D02*
X121110119Y-69755476D01*
X121110119Y-69755476D02*
X121205357Y-69660238D01*
X121205357Y-69660238D02*
X121348214Y-69612619D01*
X121348214Y-69612619D02*
X121443452Y-69612619D01*
X121443452Y-69612619D02*
X121586309Y-69660238D01*
X121586309Y-69660238D02*
X121633928Y-69707857D01*
X122586309Y-70612619D02*
X122014881Y-70612619D01*
X122300595Y-70612619D02*
X122300595Y-69612619D01*
X122300595Y-69612619D02*
X122205357Y-69755476D01*
X122205357Y-69755476D02*
X122110119Y-69850714D01*
X122110119Y-69850714D02*
X122014881Y-69898333D01*
X123729166Y-69565000D02*
X122872024Y-70850714D01*
X124062500Y-70231666D02*
X124824405Y-70231666D01*
X124443452Y-70612619D02*
X124443452Y-69850714D01*
X126014880Y-69565000D02*
X125157738Y-70850714D01*
X126348214Y-70231666D02*
X127110119Y-70231666D01*
X128110118Y-70612619D02*
X127538690Y-70612619D01*
X127824404Y-70612619D02*
X127824404Y-69612619D01*
X127824404Y-69612619D02*
X127729166Y-69755476D01*
X127729166Y-69755476D02*
X127633928Y-69850714D01*
X127633928Y-69850714D02*
X127538690Y-69898333D01*
X137901666Y-99999999D02*
X137901666Y-99238095D01*
X138282619Y-99619047D02*
X137520714Y-99619047D01*
X137235000Y-98047619D02*
X138520714Y-98904761D01*
X137901666Y-97714285D02*
X137901666Y-96952381D01*
X138282619Y-97333333D02*
X137520714Y-97333333D01*
X138282619Y-95952381D02*
X138282619Y-96523809D01*
X138282619Y-96238095D02*
X137282619Y-96238095D01*
X137282619Y-96238095D02*
X137425476Y-96333333D01*
X137425476Y-96333333D02*
X137520714Y-96428571D01*
X137520714Y-96428571D02*
X137568333Y-96523809D01*
X147812619Y-107366071D02*
X147336428Y-107699404D01*
X147812619Y-107937499D02*
X146812619Y-107937499D01*
X146812619Y-107937499D02*
X146812619Y-107556547D01*
X146812619Y-107556547D02*
X146860238Y-107461309D01*
X146860238Y-107461309D02*
X146907857Y-107413690D01*
X146907857Y-107413690D02*
X147003095Y-107366071D01*
X147003095Y-107366071D02*
X147145952Y-107366071D01*
X147145952Y-107366071D02*
X147241190Y-107413690D01*
X147241190Y-107413690D02*
X147288809Y-107461309D01*
X147288809Y-107461309D02*
X147336428Y-107556547D01*
X147336428Y-107556547D02*
X147336428Y-107937499D01*
X147812619Y-106889880D02*
X147812619Y-106699404D01*
X147812619Y-106699404D02*
X147765000Y-106604166D01*
X147765000Y-106604166D02*
X147717380Y-106556547D01*
X147717380Y-106556547D02*
X147574523Y-106461309D01*
X147574523Y-106461309D02*
X147384047Y-106413690D01*
X147384047Y-106413690D02*
X147003095Y-106413690D01*
X147003095Y-106413690D02*
X146907857Y-106461309D01*
X146907857Y-106461309D02*
X146860238Y-106508928D01*
X146860238Y-106508928D02*
X146812619Y-106604166D01*
X146812619Y-106604166D02*
X146812619Y-106794642D01*
X146812619Y-106794642D02*
X146860238Y-106889880D01*
X146860238Y-106889880D02*
X146907857Y-106937499D01*
X146907857Y-106937499D02*
X147003095Y-106985118D01*
X147003095Y-106985118D02*
X147241190Y-106985118D01*
X147241190Y-106985118D02*
X147336428Y-106937499D01*
X147336428Y-106937499D02*
X147384047Y-106889880D01*
X147384047Y-106889880D02*
X147431666Y-106794642D01*
X147431666Y-106794642D02*
X147431666Y-106604166D01*
X147431666Y-106604166D02*
X147384047Y-106508928D01*
X147384047Y-106508928D02*
X147336428Y-106461309D01*
X147336428Y-106461309D02*
X147241190Y-106413690D01*
X146765000Y-105270833D02*
X148050714Y-106127975D01*
X147431666Y-104937499D02*
X147431666Y-104175595D01*
X147812619Y-104556547D02*
X147050714Y-104556547D01*
X146765000Y-102985119D02*
X148050714Y-103842261D01*
X147431666Y-102651785D02*
X147431666Y-101889881D01*
X147812619Y-102270833D02*
X147050714Y-102270833D01*
X147812619Y-100889881D02*
X147812619Y-101461309D01*
X147812619Y-101175595D02*
X146812619Y-101175595D01*
X146812619Y-101175595D02*
X146955476Y-101270833D01*
X146955476Y-101270833D02*
X147050714Y-101366071D01*
X147050714Y-101366071D02*
X147098333Y-101461309D01*
X168642857Y-98261666D02*
X169404762Y-98261666D01*
X169023809Y-98642619D02*
X169023809Y-97880714D01*
X170595237Y-97595000D02*
X169738095Y-98880714D01*
X171499999Y-98642619D02*
X171166666Y-98166428D01*
X170928571Y-98642619D02*
X170928571Y-97642619D01*
X170928571Y-97642619D02*
X171309523Y-97642619D01*
X171309523Y-97642619D02*
X171404761Y-97690238D01*
X171404761Y-97690238D02*
X171452380Y-97737857D01*
X171452380Y-97737857D02*
X171499999Y-97833095D01*
X171499999Y-97833095D02*
X171499999Y-97975952D01*
X171499999Y-97975952D02*
X171452380Y-98071190D01*
X171452380Y-98071190D02*
X171404761Y-98118809D01*
X171404761Y-98118809D02*
X171309523Y-98166428D01*
X171309523Y-98166428D02*
X170928571Y-98166428D01*
X171880952Y-97737857D02*
X171928571Y-97690238D01*
X171928571Y-97690238D02*
X172023809Y-97642619D01*
X172023809Y-97642619D02*
X172261904Y-97642619D01*
X172261904Y-97642619D02*
X172357142Y-97690238D01*
X172357142Y-97690238D02*
X172404761Y-97737857D01*
X172404761Y-97737857D02*
X172452380Y-97833095D01*
X172452380Y-97833095D02*
X172452380Y-97928333D01*
X172452380Y-97928333D02*
X172404761Y-98071190D01*
X172404761Y-98071190D02*
X171833333Y-98642619D01*
X171833333Y-98642619D02*
X172452380Y-98642619D01*
X172928571Y-98642619D02*
X173119047Y-98642619D01*
X173119047Y-98642619D02*
X173214285Y-98595000D01*
X173214285Y-98595000D02*
X173261904Y-98547380D01*
X173261904Y-98547380D02*
X173357142Y-98404523D01*
X173357142Y-98404523D02*
X173404761Y-98214047D01*
X173404761Y-98214047D02*
X173404761Y-97833095D01*
X173404761Y-97833095D02*
X173357142Y-97737857D01*
X173357142Y-97737857D02*
X173309523Y-97690238D01*
X173309523Y-97690238D02*
X173214285Y-97642619D01*
X173214285Y-97642619D02*
X173023809Y-97642619D01*
X173023809Y-97642619D02*
X172928571Y-97690238D01*
X172928571Y-97690238D02*
X172880952Y-97737857D01*
X172880952Y-97737857D02*
X172833333Y-97833095D01*
X172833333Y-97833095D02*
X172833333Y-98071190D01*
X172833333Y-98071190D02*
X172880952Y-98166428D01*
X172880952Y-98166428D02*
X172928571Y-98214047D01*
X172928571Y-98214047D02*
X173023809Y-98261666D01*
X173023809Y-98261666D02*
X173214285Y-98261666D01*
X173214285Y-98261666D02*
X173309523Y-98214047D01*
X173309523Y-98214047D02*
X173357142Y-98166428D01*
X173357142Y-98166428D02*
X173404761Y-98071190D01*
X165642857Y-107081666D02*
X166404762Y-107081666D01*
X166023809Y-107462619D02*
X166023809Y-106700714D01*
X167595237Y-106415000D02*
X166738095Y-107700714D01*
X168499999Y-107367380D02*
X168452380Y-107415000D01*
X168452380Y-107415000D02*
X168309523Y-107462619D01*
X168309523Y-107462619D02*
X168214285Y-107462619D01*
X168214285Y-107462619D02*
X168071428Y-107415000D01*
X168071428Y-107415000D02*
X167976190Y-107319761D01*
X167976190Y-107319761D02*
X167928571Y-107224523D01*
X167928571Y-107224523D02*
X167880952Y-107034047D01*
X167880952Y-107034047D02*
X167880952Y-106891190D01*
X167880952Y-106891190D02*
X167928571Y-106700714D01*
X167928571Y-106700714D02*
X167976190Y-106605476D01*
X167976190Y-106605476D02*
X168071428Y-106510238D01*
X168071428Y-106510238D02*
X168214285Y-106462619D01*
X168214285Y-106462619D02*
X168309523Y-106462619D01*
X168309523Y-106462619D02*
X168452380Y-106510238D01*
X168452380Y-106510238D02*
X168499999Y-106557857D01*
X169452380Y-107462619D02*
X168880952Y-107462619D01*
X169166666Y-107462619D02*
X169166666Y-106462619D01*
X169166666Y-106462619D02*
X169071428Y-106605476D01*
X169071428Y-106605476D02*
X168976190Y-106700714D01*
X168976190Y-106700714D02*
X168880952Y-106748333D01*
X170357142Y-106462619D02*
X169880952Y-106462619D01*
X169880952Y-106462619D02*
X169833333Y-106938809D01*
X169833333Y-106938809D02*
X169880952Y-106891190D01*
X169880952Y-106891190D02*
X169976190Y-106843571D01*
X169976190Y-106843571D02*
X170214285Y-106843571D01*
X170214285Y-106843571D02*
X170309523Y-106891190D01*
X170309523Y-106891190D02*
X170357142Y-106938809D01*
X170357142Y-106938809D02*
X170404761Y-107034047D01*
X170404761Y-107034047D02*
X170404761Y-107272142D01*
X170404761Y-107272142D02*
X170357142Y-107367380D01*
X170357142Y-107367380D02*
X170309523Y-107415000D01*
X170309523Y-107415000D02*
X170214285Y-107462619D01*
X170214285Y-107462619D02*
X169976190Y-107462619D01*
X169976190Y-107462619D02*
X169880952Y-107415000D01*
X169880952Y-107415000D02*
X169833333Y-107367380D01*
X128282619Y-59928571D02*
X127806428Y-60261904D01*
X128282619Y-60499999D02*
X127282619Y-60499999D01*
X127282619Y-60499999D02*
X127282619Y-60119047D01*
X127282619Y-60119047D02*
X127330238Y-60023809D01*
X127330238Y-60023809D02*
X127377857Y-59976190D01*
X127377857Y-59976190D02*
X127473095Y-59928571D01*
X127473095Y-59928571D02*
X127615952Y-59928571D01*
X127615952Y-59928571D02*
X127711190Y-59976190D01*
X127711190Y-59976190D02*
X127758809Y-60023809D01*
X127758809Y-60023809D02*
X127806428Y-60119047D01*
X127806428Y-60119047D02*
X127806428Y-60499999D01*
X127282619Y-59595237D02*
X127282619Y-58976190D01*
X127282619Y-58976190D02*
X127663571Y-59309523D01*
X127663571Y-59309523D02*
X127663571Y-59166666D01*
X127663571Y-59166666D02*
X127711190Y-59071428D01*
X127711190Y-59071428D02*
X127758809Y-59023809D01*
X127758809Y-59023809D02*
X127854047Y-58976190D01*
X127854047Y-58976190D02*
X128092142Y-58976190D01*
X128092142Y-58976190D02*
X128187380Y-59023809D01*
X128187380Y-59023809D02*
X128235000Y-59071428D01*
X128235000Y-59071428D02*
X128282619Y-59166666D01*
X128282619Y-59166666D02*
X128282619Y-59452380D01*
X128282619Y-59452380D02*
X128235000Y-59547618D01*
X128235000Y-59547618D02*
X128187380Y-59595237D01*
X127235000Y-57833333D02*
X128520714Y-58690475D01*
X127901666Y-57499999D02*
X127901666Y-56738095D01*
X128282619Y-57119047D02*
X127520714Y-57119047D01*
X127235000Y-55547619D02*
X128520714Y-56404761D01*
X127901666Y-55214285D02*
X127901666Y-54452381D01*
X128282619Y-54833333D02*
X127520714Y-54833333D01*
X128282619Y-53452381D02*
X128282619Y-54023809D01*
X128282619Y-53738095D02*
X127282619Y-53738095D01*
X127282619Y-53738095D02*
X127425476Y-53833333D01*
X127425476Y-53833333D02*
X127520714Y-53928571D01*
X127520714Y-53928571D02*
X127568333Y-54023809D01*
X163048095Y-39132619D02*
X163048095Y-39942142D01*
X163048095Y-39942142D02*
X163095714Y-40037380D01*
X163095714Y-40037380D02*
X163143333Y-40085000D01*
X163143333Y-40085000D02*
X163238571Y-40132619D01*
X163238571Y-40132619D02*
X163429047Y-40132619D01*
X163429047Y-40132619D02*
X163524285Y-40085000D01*
X163524285Y-40085000D02*
X163571904Y-40037380D01*
X163571904Y-40037380D02*
X163619523Y-39942142D01*
X163619523Y-39942142D02*
X163619523Y-39132619D01*
X164619523Y-40132619D02*
X164048095Y-40132619D01*
X164333809Y-40132619D02*
X164333809Y-39132619D01*
X164333809Y-39132619D02*
X164238571Y-39275476D01*
X164238571Y-39275476D02*
X164143333Y-39370714D01*
X164143333Y-39370714D02*
X164048095Y-39418333D01*
X182357142Y-64517380D02*
X182309523Y-64565000D01*
X182309523Y-64565000D02*
X182166666Y-64612619D01*
X182166666Y-64612619D02*
X182071428Y-64612619D01*
X182071428Y-64612619D02*
X181928571Y-64565000D01*
X181928571Y-64565000D02*
X181833333Y-64469761D01*
X181833333Y-64469761D02*
X181785714Y-64374523D01*
X181785714Y-64374523D02*
X181738095Y-64184047D01*
X181738095Y-64184047D02*
X181738095Y-64041190D01*
X181738095Y-64041190D02*
X181785714Y-63850714D01*
X181785714Y-63850714D02*
X181833333Y-63755476D01*
X181833333Y-63755476D02*
X181928571Y-63660238D01*
X181928571Y-63660238D02*
X182071428Y-63612619D01*
X182071428Y-63612619D02*
X182166666Y-63612619D01*
X182166666Y-63612619D02*
X182309523Y-63660238D01*
X182309523Y-63660238D02*
X182357142Y-63707857D01*
X183309523Y-64612619D02*
X182738095Y-64612619D01*
X183023809Y-64612619D02*
X183023809Y-63612619D01*
X183023809Y-63612619D02*
X182928571Y-63755476D01*
X182928571Y-63755476D02*
X182833333Y-63850714D01*
X182833333Y-63850714D02*
X182738095Y-63898333D01*
X184166666Y-63612619D02*
X183976190Y-63612619D01*
X183976190Y-63612619D02*
X183880952Y-63660238D01*
X183880952Y-63660238D02*
X183833333Y-63707857D01*
X183833333Y-63707857D02*
X183738095Y-63850714D01*
X183738095Y-63850714D02*
X183690476Y-64041190D01*
X183690476Y-64041190D02*
X183690476Y-64422142D01*
X183690476Y-64422142D02*
X183738095Y-64517380D01*
X183738095Y-64517380D02*
X183785714Y-64565000D01*
X183785714Y-64565000D02*
X183880952Y-64612619D01*
X183880952Y-64612619D02*
X184071428Y-64612619D01*
X184071428Y-64612619D02*
X184166666Y-64565000D01*
X184166666Y-64565000D02*
X184214285Y-64517380D01*
X184214285Y-64517380D02*
X184261904Y-64422142D01*
X184261904Y-64422142D02*
X184261904Y-64184047D01*
X184261904Y-64184047D02*
X184214285Y-64088809D01*
X184214285Y-64088809D02*
X184166666Y-64041190D01*
X184166666Y-64041190D02*
X184071428Y-63993571D01*
X184071428Y-63993571D02*
X183880952Y-63993571D01*
X183880952Y-63993571D02*
X183785714Y-64041190D01*
X183785714Y-64041190D02*
X183738095Y-64088809D01*
X183738095Y-64088809D02*
X183690476Y-64184047D01*
X160545238Y-93081666D02*
X161307143Y-93081666D01*
X160926190Y-93462619D02*
X160926190Y-92700714D01*
X162497618Y-92415000D02*
X161640476Y-93700714D01*
X163497618Y-93557857D02*
X163402380Y-93510238D01*
X163402380Y-93510238D02*
X163307142Y-93415000D01*
X163307142Y-93415000D02*
X163164285Y-93272142D01*
X163164285Y-93272142D02*
X163069047Y-93224523D01*
X163069047Y-93224523D02*
X162973809Y-93224523D01*
X163021428Y-93462619D02*
X162926190Y-93415000D01*
X162926190Y-93415000D02*
X162830952Y-93319761D01*
X162830952Y-93319761D02*
X162783333Y-93129285D01*
X162783333Y-93129285D02*
X162783333Y-92795952D01*
X162783333Y-92795952D02*
X162830952Y-92605476D01*
X162830952Y-92605476D02*
X162926190Y-92510238D01*
X162926190Y-92510238D02*
X163021428Y-92462619D01*
X163021428Y-92462619D02*
X163211904Y-92462619D01*
X163211904Y-92462619D02*
X163307142Y-92510238D01*
X163307142Y-92510238D02*
X163402380Y-92605476D01*
X163402380Y-92605476D02*
X163449999Y-92795952D01*
X163449999Y-92795952D02*
X163449999Y-93129285D01*
X163449999Y-93129285D02*
X163402380Y-93319761D01*
X163402380Y-93319761D02*
X163307142Y-93415000D01*
X163307142Y-93415000D02*
X163211904Y-93462619D01*
X163211904Y-93462619D02*
X163021428Y-93462619D01*
X164307142Y-92795952D02*
X164307142Y-93462619D01*
X164069047Y-92415000D02*
X163830952Y-93129285D01*
X163830952Y-93129285D02*
X164449999Y-93129285D01*
X116833333Y-59217380D02*
X116785714Y-59265000D01*
X116785714Y-59265000D02*
X116642857Y-59312619D01*
X116642857Y-59312619D02*
X116547619Y-59312619D01*
X116547619Y-59312619D02*
X116404762Y-59265000D01*
X116404762Y-59265000D02*
X116309524Y-59169761D01*
X116309524Y-59169761D02*
X116261905Y-59074523D01*
X116261905Y-59074523D02*
X116214286Y-58884047D01*
X116214286Y-58884047D02*
X116214286Y-58741190D01*
X116214286Y-58741190D02*
X116261905Y-58550714D01*
X116261905Y-58550714D02*
X116309524Y-58455476D01*
X116309524Y-58455476D02*
X116404762Y-58360238D01*
X116404762Y-58360238D02*
X116547619Y-58312619D01*
X116547619Y-58312619D02*
X116642857Y-58312619D01*
X116642857Y-58312619D02*
X116785714Y-58360238D01*
X116785714Y-58360238D02*
X116833333Y-58407857D01*
X117404762Y-58741190D02*
X117309524Y-58693571D01*
X117309524Y-58693571D02*
X117261905Y-58645952D01*
X117261905Y-58645952D02*
X117214286Y-58550714D01*
X117214286Y-58550714D02*
X117214286Y-58503095D01*
X117214286Y-58503095D02*
X117261905Y-58407857D01*
X117261905Y-58407857D02*
X117309524Y-58360238D01*
X117309524Y-58360238D02*
X117404762Y-58312619D01*
X117404762Y-58312619D02*
X117595238Y-58312619D01*
X117595238Y-58312619D02*
X117690476Y-58360238D01*
X117690476Y-58360238D02*
X117738095Y-58407857D01*
X117738095Y-58407857D02*
X117785714Y-58503095D01*
X117785714Y-58503095D02*
X117785714Y-58550714D01*
X117785714Y-58550714D02*
X117738095Y-58645952D01*
X117738095Y-58645952D02*
X117690476Y-58693571D01*
X117690476Y-58693571D02*
X117595238Y-58741190D01*
X117595238Y-58741190D02*
X117404762Y-58741190D01*
X117404762Y-58741190D02*
X117309524Y-58788809D01*
X117309524Y-58788809D02*
X117261905Y-58836428D01*
X117261905Y-58836428D02*
X117214286Y-58931666D01*
X117214286Y-58931666D02*
X117214286Y-59122142D01*
X117214286Y-59122142D02*
X117261905Y-59217380D01*
X117261905Y-59217380D02*
X117309524Y-59265000D01*
X117309524Y-59265000D02*
X117404762Y-59312619D01*
X117404762Y-59312619D02*
X117595238Y-59312619D01*
X117595238Y-59312619D02*
X117690476Y-59265000D01*
X117690476Y-59265000D02*
X117738095Y-59217380D01*
X117738095Y-59217380D02*
X117785714Y-59122142D01*
X117785714Y-59122142D02*
X117785714Y-58931666D01*
X117785714Y-58931666D02*
X117738095Y-58836428D01*
X117738095Y-58836428D02*
X117690476Y-58788809D01*
X117690476Y-58788809D02*
X117595238Y-58741190D01*
X118928571Y-58265000D02*
X118071429Y-59550714D01*
X119833333Y-59217380D02*
X119785714Y-59265000D01*
X119785714Y-59265000D02*
X119642857Y-59312619D01*
X119642857Y-59312619D02*
X119547619Y-59312619D01*
X119547619Y-59312619D02*
X119404762Y-59265000D01*
X119404762Y-59265000D02*
X119309524Y-59169761D01*
X119309524Y-59169761D02*
X119261905Y-59074523D01*
X119261905Y-59074523D02*
X119214286Y-58884047D01*
X119214286Y-58884047D02*
X119214286Y-58741190D01*
X119214286Y-58741190D02*
X119261905Y-58550714D01*
X119261905Y-58550714D02*
X119309524Y-58455476D01*
X119309524Y-58455476D02*
X119404762Y-58360238D01*
X119404762Y-58360238D02*
X119547619Y-58312619D01*
X119547619Y-58312619D02*
X119642857Y-58312619D01*
X119642857Y-58312619D02*
X119785714Y-58360238D01*
X119785714Y-58360238D02*
X119833333Y-58407857D01*
X120738095Y-58312619D02*
X120261905Y-58312619D01*
X120261905Y-58312619D02*
X120214286Y-58788809D01*
X120214286Y-58788809D02*
X120261905Y-58741190D01*
X120261905Y-58741190D02*
X120357143Y-58693571D01*
X120357143Y-58693571D02*
X120595238Y-58693571D01*
X120595238Y-58693571D02*
X120690476Y-58741190D01*
X120690476Y-58741190D02*
X120738095Y-58788809D01*
X120738095Y-58788809D02*
X120785714Y-58884047D01*
X120785714Y-58884047D02*
X120785714Y-59122142D01*
X120785714Y-59122142D02*
X120738095Y-59217380D01*
X120738095Y-59217380D02*
X120690476Y-59265000D01*
X120690476Y-59265000D02*
X120595238Y-59312619D01*
X120595238Y-59312619D02*
X120357143Y-59312619D01*
X120357143Y-59312619D02*
X120261905Y-59265000D01*
X120261905Y-59265000D02*
X120214286Y-59217380D01*
X121928571Y-58265000D02*
X121071429Y-59550714D01*
X122833333Y-59217380D02*
X122785714Y-59265000D01*
X122785714Y-59265000D02*
X122642857Y-59312619D01*
X122642857Y-59312619D02*
X122547619Y-59312619D01*
X122547619Y-59312619D02*
X122404762Y-59265000D01*
X122404762Y-59265000D02*
X122309524Y-59169761D01*
X122309524Y-59169761D02*
X122261905Y-59074523D01*
X122261905Y-59074523D02*
X122214286Y-58884047D01*
X122214286Y-58884047D02*
X122214286Y-58741190D01*
X122214286Y-58741190D02*
X122261905Y-58550714D01*
X122261905Y-58550714D02*
X122309524Y-58455476D01*
X122309524Y-58455476D02*
X122404762Y-58360238D01*
X122404762Y-58360238D02*
X122547619Y-58312619D01*
X122547619Y-58312619D02*
X122642857Y-58312619D01*
X122642857Y-58312619D02*
X122785714Y-58360238D01*
X122785714Y-58360238D02*
X122833333Y-58407857D01*
X123738095Y-58312619D02*
X123261905Y-58312619D01*
X123261905Y-58312619D02*
X123214286Y-58788809D01*
X123214286Y-58788809D02*
X123261905Y-58741190D01*
X123261905Y-58741190D02*
X123357143Y-58693571D01*
X123357143Y-58693571D02*
X123595238Y-58693571D01*
X123595238Y-58693571D02*
X123690476Y-58741190D01*
X123690476Y-58741190D02*
X123738095Y-58788809D01*
X123738095Y-58788809D02*
X123785714Y-58884047D01*
X123785714Y-58884047D02*
X123785714Y-59122142D01*
X123785714Y-59122142D02*
X123738095Y-59217380D01*
X123738095Y-59217380D02*
X123690476Y-59265000D01*
X123690476Y-59265000D02*
X123595238Y-59312619D01*
X123595238Y-59312619D02*
X123357143Y-59312619D01*
X123357143Y-59312619D02*
X123261905Y-59265000D01*
X123261905Y-59265000D02*
X123214286Y-59217380D01*
X108962619Y-111166666D02*
X108486428Y-111499999D01*
X108962619Y-111738094D02*
X107962619Y-111738094D01*
X107962619Y-111738094D02*
X107962619Y-111357142D01*
X107962619Y-111357142D02*
X108010238Y-111261904D01*
X108010238Y-111261904D02*
X108057857Y-111214285D01*
X108057857Y-111214285D02*
X108153095Y-111166666D01*
X108153095Y-111166666D02*
X108295952Y-111166666D01*
X108295952Y-111166666D02*
X108391190Y-111214285D01*
X108391190Y-111214285D02*
X108438809Y-111261904D01*
X108438809Y-111261904D02*
X108486428Y-111357142D01*
X108486428Y-111357142D02*
X108486428Y-111738094D01*
X108962619Y-110214285D02*
X108962619Y-110785713D01*
X108962619Y-110499999D02*
X107962619Y-110499999D01*
X107962619Y-110499999D02*
X108105476Y-110595237D01*
X108105476Y-110595237D02*
X108200714Y-110690475D01*
X108200714Y-110690475D02*
X108248333Y-110785713D01*
X107915000Y-109071428D02*
X109200714Y-109928570D01*
X108962619Y-108166666D02*
X108486428Y-108499999D01*
X108962619Y-108738094D02*
X107962619Y-108738094D01*
X107962619Y-108738094D02*
X107962619Y-108357142D01*
X107962619Y-108357142D02*
X108010238Y-108261904D01*
X108010238Y-108261904D02*
X108057857Y-108214285D01*
X108057857Y-108214285D02*
X108153095Y-108166666D01*
X108153095Y-108166666D02*
X108295952Y-108166666D01*
X108295952Y-108166666D02*
X108391190Y-108214285D01*
X108391190Y-108214285D02*
X108438809Y-108261904D01*
X108438809Y-108261904D02*
X108486428Y-108357142D01*
X108486428Y-108357142D02*
X108486428Y-108738094D01*
X108962619Y-107214285D02*
X108962619Y-107785713D01*
X108962619Y-107499999D02*
X107962619Y-107499999D01*
X107962619Y-107499999D02*
X108105476Y-107595237D01*
X108105476Y-107595237D02*
X108200714Y-107690475D01*
X108200714Y-107690475D02*
X108248333Y-107785713D01*
X107915000Y-106071428D02*
X109200714Y-106928570D01*
X108962619Y-105166666D02*
X108486428Y-105499999D01*
X108962619Y-105738094D02*
X107962619Y-105738094D01*
X107962619Y-105738094D02*
X107962619Y-105357142D01*
X107962619Y-105357142D02*
X108010238Y-105261904D01*
X108010238Y-105261904D02*
X108057857Y-105214285D01*
X108057857Y-105214285D02*
X108153095Y-105166666D01*
X108153095Y-105166666D02*
X108295952Y-105166666D01*
X108295952Y-105166666D02*
X108391190Y-105214285D01*
X108391190Y-105214285D02*
X108438809Y-105261904D01*
X108438809Y-105261904D02*
X108486428Y-105357142D01*
X108486428Y-105357142D02*
X108486428Y-105738094D01*
X108962619Y-104214285D02*
X108962619Y-104785713D01*
X108962619Y-104499999D02*
X107962619Y-104499999D01*
X107962619Y-104499999D02*
X108105476Y-104595237D01*
X108105476Y-104595237D02*
X108200714Y-104690475D01*
X108200714Y-104690475D02*
X108248333Y-104785713D01*
X157901666Y-96407142D02*
X157901666Y-95645238D01*
X158282619Y-96026190D02*
X157520714Y-96026190D01*
X157235000Y-94454762D02*
X158520714Y-95311904D01*
X158282619Y-93550000D02*
X157806428Y-93883333D01*
X158282619Y-94121428D02*
X157282619Y-94121428D01*
X157282619Y-94121428D02*
X157282619Y-93740476D01*
X157282619Y-93740476D02*
X157330238Y-93645238D01*
X157330238Y-93645238D02*
X157377857Y-93597619D01*
X157377857Y-93597619D02*
X157473095Y-93550000D01*
X157473095Y-93550000D02*
X157615952Y-93550000D01*
X157615952Y-93550000D02*
X157711190Y-93597619D01*
X157711190Y-93597619D02*
X157758809Y-93645238D01*
X157758809Y-93645238D02*
X157806428Y-93740476D01*
X157806428Y-93740476D02*
X157806428Y-94121428D01*
X158282619Y-92597619D02*
X158282619Y-93169047D01*
X158282619Y-92883333D02*
X157282619Y-92883333D01*
X157282619Y-92883333D02*
X157425476Y-92978571D01*
X157425476Y-92978571D02*
X157520714Y-93073809D01*
X157520714Y-93073809D02*
X157568333Y-93169047D01*
X157282619Y-92264285D02*
X157282619Y-91597619D01*
X157282619Y-91597619D02*
X158282619Y-92026190D01*
X141214286Y-35831666D02*
X141976191Y-35831666D01*
X141595238Y-36212619D02*
X141595238Y-35450714D01*
X143166666Y-35165000D02*
X142309524Y-36450714D01*
X143976190Y-36212619D02*
X143500000Y-36212619D01*
X143500000Y-36212619D02*
X143500000Y-35212619D01*
X144833333Y-36212619D02*
X144261905Y-36212619D01*
X144547619Y-36212619D02*
X144547619Y-35212619D01*
X144547619Y-35212619D02*
X144452381Y-35355476D01*
X144452381Y-35355476D02*
X144357143Y-35450714D01*
X144357143Y-35450714D02*
X144261905Y-35498333D01*
X157717380Y-46205357D02*
X157765000Y-46252976D01*
X157765000Y-46252976D02*
X157812619Y-46395833D01*
X157812619Y-46395833D02*
X157812619Y-46491071D01*
X157812619Y-46491071D02*
X157765000Y-46633928D01*
X157765000Y-46633928D02*
X157669761Y-46729166D01*
X157669761Y-46729166D02*
X157574523Y-46776785D01*
X157574523Y-46776785D02*
X157384047Y-46824404D01*
X157384047Y-46824404D02*
X157241190Y-46824404D01*
X157241190Y-46824404D02*
X157050714Y-46776785D01*
X157050714Y-46776785D02*
X156955476Y-46729166D01*
X156955476Y-46729166D02*
X156860238Y-46633928D01*
X156860238Y-46633928D02*
X156812619Y-46491071D01*
X156812619Y-46491071D02*
X156812619Y-46395833D01*
X156812619Y-46395833D02*
X156860238Y-46252976D01*
X156860238Y-46252976D02*
X156907857Y-46205357D01*
X156907857Y-45824404D02*
X156860238Y-45776785D01*
X156860238Y-45776785D02*
X156812619Y-45681547D01*
X156812619Y-45681547D02*
X156812619Y-45443452D01*
X156812619Y-45443452D02*
X156860238Y-45348214D01*
X156860238Y-45348214D02*
X156907857Y-45300595D01*
X156907857Y-45300595D02*
X157003095Y-45252976D01*
X157003095Y-45252976D02*
X157098333Y-45252976D01*
X157098333Y-45252976D02*
X157241190Y-45300595D01*
X157241190Y-45300595D02*
X157812619Y-45872023D01*
X157812619Y-45872023D02*
X157812619Y-45252976D01*
X157145952Y-44395833D02*
X157812619Y-44395833D01*
X156765000Y-44633928D02*
X157479285Y-44872023D01*
X157479285Y-44872023D02*
X157479285Y-44252976D01*
X135404761Y-92957857D02*
X135309523Y-92910238D01*
X135309523Y-92910238D02*
X135214285Y-92815000D01*
X135214285Y-92815000D02*
X135071428Y-92672142D01*
X135071428Y-92672142D02*
X134976190Y-92624523D01*
X134976190Y-92624523D02*
X134880952Y-92624523D01*
X134928571Y-92862619D02*
X134833333Y-92815000D01*
X134833333Y-92815000D02*
X134738095Y-92719761D01*
X134738095Y-92719761D02*
X134690476Y-92529285D01*
X134690476Y-92529285D02*
X134690476Y-92195952D01*
X134690476Y-92195952D02*
X134738095Y-92005476D01*
X134738095Y-92005476D02*
X134833333Y-91910238D01*
X134833333Y-91910238D02*
X134928571Y-91862619D01*
X134928571Y-91862619D02*
X135119047Y-91862619D01*
X135119047Y-91862619D02*
X135214285Y-91910238D01*
X135214285Y-91910238D02*
X135309523Y-92005476D01*
X135309523Y-92005476D02*
X135357142Y-92195952D01*
X135357142Y-92195952D02*
X135357142Y-92529285D01*
X135357142Y-92529285D02*
X135309523Y-92719761D01*
X135309523Y-92719761D02*
X135214285Y-92815000D01*
X135214285Y-92815000D02*
X135119047Y-92862619D01*
X135119047Y-92862619D02*
X134928571Y-92862619D01*
X136309523Y-92862619D02*
X135738095Y-92862619D01*
X136023809Y-92862619D02*
X136023809Y-91862619D01*
X136023809Y-91862619D02*
X135928571Y-92005476D01*
X135928571Y-92005476D02*
X135833333Y-92100714D01*
X135833333Y-92100714D02*
X135738095Y-92148333D01*
X135190476Y-104214166D02*
X135952381Y-104214166D01*
X135571428Y-104595119D02*
X135571428Y-103833214D01*
X137142856Y-103547500D02*
X136285714Y-104833214D01*
X138047618Y-104595119D02*
X137714285Y-104118928D01*
X137476190Y-104595119D02*
X137476190Y-103595119D01*
X137476190Y-103595119D02*
X137857142Y-103595119D01*
X137857142Y-103595119D02*
X137952380Y-103642738D01*
X137952380Y-103642738D02*
X137999999Y-103690357D01*
X137999999Y-103690357D02*
X138047618Y-103785595D01*
X138047618Y-103785595D02*
X138047618Y-103928452D01*
X138047618Y-103928452D02*
X137999999Y-104023690D01*
X137999999Y-104023690D02*
X137952380Y-104071309D01*
X137952380Y-104071309D02*
X137857142Y-104118928D01*
X137857142Y-104118928D02*
X137476190Y-104118928D01*
X138333333Y-103595119D02*
X138666666Y-104595119D01*
X138666666Y-104595119D02*
X138999999Y-103595119D01*
X139285714Y-103690357D02*
X139333333Y-103642738D01*
X139333333Y-103642738D02*
X139428571Y-103595119D01*
X139428571Y-103595119D02*
X139666666Y-103595119D01*
X139666666Y-103595119D02*
X139761904Y-103642738D01*
X139761904Y-103642738D02*
X139809523Y-103690357D01*
X139809523Y-103690357D02*
X139857142Y-103785595D01*
X139857142Y-103785595D02*
X139857142Y-103880833D01*
X139857142Y-103880833D02*
X139809523Y-104023690D01*
X139809523Y-104023690D02*
X139238095Y-104595119D01*
X139238095Y-104595119D02*
X139857142Y-104595119D01*
X125809524Y-35831666D02*
X126571429Y-35831666D01*
X126190476Y-36212619D02*
X126190476Y-35450714D01*
X127761904Y-35165000D02*
X126904762Y-36450714D01*
X128571428Y-36212619D02*
X128095238Y-36212619D01*
X128095238Y-36212619D02*
X128095238Y-35212619D01*
X128857143Y-35307857D02*
X128904762Y-35260238D01*
X128904762Y-35260238D02*
X129000000Y-35212619D01*
X129000000Y-35212619D02*
X129238095Y-35212619D01*
X129238095Y-35212619D02*
X129333333Y-35260238D01*
X129333333Y-35260238D02*
X129380952Y-35307857D01*
X129380952Y-35307857D02*
X129428571Y-35403095D01*
X129428571Y-35403095D02*
X129428571Y-35498333D01*
X129428571Y-35498333D02*
X129380952Y-35641190D01*
X129380952Y-35641190D02*
X128809524Y-36212619D01*
X128809524Y-36212619D02*
X129428571Y-36212619D01*
X130571428Y-35165000D02*
X129714286Y-36450714D01*
X131380952Y-36212619D02*
X130904762Y-36212619D01*
X130904762Y-36212619D02*
X130904762Y-35212619D01*
X131666667Y-35307857D02*
X131714286Y-35260238D01*
X131714286Y-35260238D02*
X131809524Y-35212619D01*
X131809524Y-35212619D02*
X132047619Y-35212619D01*
X132047619Y-35212619D02*
X132142857Y-35260238D01*
X132142857Y-35260238D02*
X132190476Y-35307857D01*
X132190476Y-35307857D02*
X132238095Y-35403095D01*
X132238095Y-35403095D02*
X132238095Y-35498333D01*
X132238095Y-35498333D02*
X132190476Y-35641190D01*
X132190476Y-35641190D02*
X131619048Y-36212619D01*
X131619048Y-36212619D02*
X132238095Y-36212619D01*
X154687380Y-108666666D02*
X154735000Y-108714285D01*
X154735000Y-108714285D02*
X154782619Y-108857142D01*
X154782619Y-108857142D02*
X154782619Y-108952380D01*
X154782619Y-108952380D02*
X154735000Y-109095237D01*
X154735000Y-109095237D02*
X154639761Y-109190475D01*
X154639761Y-109190475D02*
X154544523Y-109238094D01*
X154544523Y-109238094D02*
X154354047Y-109285713D01*
X154354047Y-109285713D02*
X154211190Y-109285713D01*
X154211190Y-109285713D02*
X154020714Y-109238094D01*
X154020714Y-109238094D02*
X153925476Y-109190475D01*
X153925476Y-109190475D02*
X153830238Y-109095237D01*
X153830238Y-109095237D02*
X153782619Y-108952380D01*
X153782619Y-108952380D02*
X153782619Y-108857142D01*
X153782619Y-108857142D02*
X153830238Y-108714285D01*
X153830238Y-108714285D02*
X153877857Y-108666666D01*
X153782619Y-107809523D02*
X153782619Y-107999999D01*
X153782619Y-107999999D02*
X153830238Y-108095237D01*
X153830238Y-108095237D02*
X153877857Y-108142856D01*
X153877857Y-108142856D02*
X154020714Y-108238094D01*
X154020714Y-108238094D02*
X154211190Y-108285713D01*
X154211190Y-108285713D02*
X154592142Y-108285713D01*
X154592142Y-108285713D02*
X154687380Y-108238094D01*
X154687380Y-108238094D02*
X154735000Y-108190475D01*
X154735000Y-108190475D02*
X154782619Y-108095237D01*
X154782619Y-108095237D02*
X154782619Y-107904761D01*
X154782619Y-107904761D02*
X154735000Y-107809523D01*
X154735000Y-107809523D02*
X154687380Y-107761904D01*
X154687380Y-107761904D02*
X154592142Y-107714285D01*
X154592142Y-107714285D02*
X154354047Y-107714285D01*
X154354047Y-107714285D02*
X154258809Y-107761904D01*
X154258809Y-107761904D02*
X154211190Y-107809523D01*
X154211190Y-107809523D02*
X154163571Y-107904761D01*
X154163571Y-107904761D02*
X154163571Y-108095237D01*
X154163571Y-108095237D02*
X154211190Y-108190475D01*
X154211190Y-108190475D02*
X154258809Y-108238094D01*
X154258809Y-108238094D02*
X154354047Y-108285713D01*
X153735000Y-106571428D02*
X155020714Y-107428570D01*
X154782619Y-105666666D02*
X154306428Y-105999999D01*
X154782619Y-106238094D02*
X153782619Y-106238094D01*
X153782619Y-106238094D02*
X153782619Y-105857142D01*
X153782619Y-105857142D02*
X153830238Y-105761904D01*
X153830238Y-105761904D02*
X153877857Y-105714285D01*
X153877857Y-105714285D02*
X153973095Y-105666666D01*
X153973095Y-105666666D02*
X154115952Y-105666666D01*
X154115952Y-105666666D02*
X154211190Y-105714285D01*
X154211190Y-105714285D02*
X154258809Y-105761904D01*
X154258809Y-105761904D02*
X154306428Y-105857142D01*
X154306428Y-105857142D02*
X154306428Y-106238094D01*
X153782619Y-105333332D02*
X153782619Y-104714285D01*
X153782619Y-104714285D02*
X154163571Y-105047618D01*
X154163571Y-105047618D02*
X154163571Y-104904761D01*
X154163571Y-104904761D02*
X154211190Y-104809523D01*
X154211190Y-104809523D02*
X154258809Y-104761904D01*
X154258809Y-104761904D02*
X154354047Y-104714285D01*
X154354047Y-104714285D02*
X154592142Y-104714285D01*
X154592142Y-104714285D02*
X154687380Y-104761904D01*
X154687380Y-104761904D02*
X154735000Y-104809523D01*
X154735000Y-104809523D02*
X154782619Y-104904761D01*
X154782619Y-104904761D02*
X154782619Y-105190475D01*
X154782619Y-105190475D02*
X154735000Y-105285713D01*
X154735000Y-105285713D02*
X154687380Y-105333332D01*
X142238095Y-91782619D02*
X141904762Y-91306428D01*
X141666667Y-91782619D02*
X141666667Y-90782619D01*
X141666667Y-90782619D02*
X142047619Y-90782619D01*
X142047619Y-90782619D02*
X142142857Y-90830238D01*
X142142857Y-90830238D02*
X142190476Y-90877857D01*
X142190476Y-90877857D02*
X142238095Y-90973095D01*
X142238095Y-90973095D02*
X142238095Y-91115952D01*
X142238095Y-91115952D02*
X142190476Y-91211190D01*
X142190476Y-91211190D02*
X142142857Y-91258809D01*
X142142857Y-91258809D02*
X142047619Y-91306428D01*
X142047619Y-91306428D02*
X141666667Y-91306428D01*
X143190476Y-91782619D02*
X142619048Y-91782619D01*
X142904762Y-91782619D02*
X142904762Y-90782619D01*
X142904762Y-90782619D02*
X142809524Y-90925476D01*
X142809524Y-90925476D02*
X142714286Y-91020714D01*
X142714286Y-91020714D02*
X142619048Y-91068333D01*
X143571429Y-90877857D02*
X143619048Y-90830238D01*
X143619048Y-90830238D02*
X143714286Y-90782619D01*
X143714286Y-90782619D02*
X143952381Y-90782619D01*
X143952381Y-90782619D02*
X144047619Y-90830238D01*
X144047619Y-90830238D02*
X144095238Y-90877857D01*
X144095238Y-90877857D02*
X144142857Y-90973095D01*
X144142857Y-90973095D02*
X144142857Y-91068333D01*
X144142857Y-91068333D02*
X144095238Y-91211190D01*
X144095238Y-91211190D02*
X143523810Y-91782619D01*
X143523810Y-91782619D02*
X144142857Y-91782619D01*
X145285714Y-90735000D02*
X144428572Y-92020714D01*
X145619048Y-91401666D02*
X146380953Y-91401666D01*
X147380952Y-91782619D02*
X146809524Y-91782619D01*
X147095238Y-91782619D02*
X147095238Y-90782619D01*
X147095238Y-90782619D02*
X147000000Y-90925476D01*
X147000000Y-90925476D02*
X146904762Y-91020714D01*
X146904762Y-91020714D02*
X146809524Y-91068333D01*
X144642619Y-75928571D02*
X144166428Y-76261904D01*
X144642619Y-76499999D02*
X143642619Y-76499999D01*
X143642619Y-76499999D02*
X143642619Y-76119047D01*
X143642619Y-76119047D02*
X143690238Y-76023809D01*
X143690238Y-76023809D02*
X143737857Y-75976190D01*
X143737857Y-75976190D02*
X143833095Y-75928571D01*
X143833095Y-75928571D02*
X143975952Y-75928571D01*
X143975952Y-75928571D02*
X144071190Y-75976190D01*
X144071190Y-75976190D02*
X144118809Y-76023809D01*
X144118809Y-76023809D02*
X144166428Y-76119047D01*
X144166428Y-76119047D02*
X144166428Y-76499999D01*
X143642619Y-75071428D02*
X143642619Y-75261904D01*
X143642619Y-75261904D02*
X143690238Y-75357142D01*
X143690238Y-75357142D02*
X143737857Y-75404761D01*
X143737857Y-75404761D02*
X143880714Y-75499999D01*
X143880714Y-75499999D02*
X144071190Y-75547618D01*
X144071190Y-75547618D02*
X144452142Y-75547618D01*
X144452142Y-75547618D02*
X144547380Y-75499999D01*
X144547380Y-75499999D02*
X144595000Y-75452380D01*
X144595000Y-75452380D02*
X144642619Y-75357142D01*
X144642619Y-75357142D02*
X144642619Y-75166666D01*
X144642619Y-75166666D02*
X144595000Y-75071428D01*
X144595000Y-75071428D02*
X144547380Y-75023809D01*
X144547380Y-75023809D02*
X144452142Y-74976190D01*
X144452142Y-74976190D02*
X144214047Y-74976190D01*
X144214047Y-74976190D02*
X144118809Y-75023809D01*
X144118809Y-75023809D02*
X144071190Y-75071428D01*
X144071190Y-75071428D02*
X144023571Y-75166666D01*
X144023571Y-75166666D02*
X144023571Y-75357142D01*
X144023571Y-75357142D02*
X144071190Y-75452380D01*
X144071190Y-75452380D02*
X144118809Y-75499999D01*
X144118809Y-75499999D02*
X144214047Y-75547618D01*
X143595000Y-73833333D02*
X144880714Y-74690475D01*
X144261666Y-73499999D02*
X144261666Y-72738095D01*
X144642619Y-73119047D02*
X143880714Y-73119047D01*
X143595000Y-71547619D02*
X144880714Y-72404761D01*
X144261666Y-71214285D02*
X144261666Y-70452381D01*
X144642619Y-70833333D02*
X143880714Y-70833333D01*
X144642619Y-69452381D02*
X144642619Y-70023809D01*
X144642619Y-69738095D02*
X143642619Y-69738095D01*
X143642619Y-69738095D02*
X143785476Y-69833333D01*
X143785476Y-69833333D02*
X143880714Y-69928571D01*
X143880714Y-69928571D02*
X143928333Y-70023809D01*
X142931666Y-60430951D02*
X142931666Y-59669047D01*
X143312619Y-60049999D02*
X142550714Y-60049999D01*
X142265000Y-58478571D02*
X143550714Y-59335713D01*
X143217380Y-57573809D02*
X143265000Y-57621428D01*
X143265000Y-57621428D02*
X143312619Y-57764285D01*
X143312619Y-57764285D02*
X143312619Y-57859523D01*
X143312619Y-57859523D02*
X143265000Y-58002380D01*
X143265000Y-58002380D02*
X143169761Y-58097618D01*
X143169761Y-58097618D02*
X143074523Y-58145237D01*
X143074523Y-58145237D02*
X142884047Y-58192856D01*
X142884047Y-58192856D02*
X142741190Y-58192856D01*
X142741190Y-58192856D02*
X142550714Y-58145237D01*
X142550714Y-58145237D02*
X142455476Y-58097618D01*
X142455476Y-58097618D02*
X142360238Y-58002380D01*
X142360238Y-58002380D02*
X142312619Y-57859523D01*
X142312619Y-57859523D02*
X142312619Y-57764285D01*
X142312619Y-57764285D02*
X142360238Y-57621428D01*
X142360238Y-57621428D02*
X142407857Y-57573809D01*
X142312619Y-56716666D02*
X142312619Y-56907142D01*
X142312619Y-56907142D02*
X142360238Y-57002380D01*
X142360238Y-57002380D02*
X142407857Y-57049999D01*
X142407857Y-57049999D02*
X142550714Y-57145237D01*
X142550714Y-57145237D02*
X142741190Y-57192856D01*
X142741190Y-57192856D02*
X143122142Y-57192856D01*
X143122142Y-57192856D02*
X143217380Y-57145237D01*
X143217380Y-57145237D02*
X143265000Y-57097618D01*
X143265000Y-57097618D02*
X143312619Y-57002380D01*
X143312619Y-57002380D02*
X143312619Y-56811904D01*
X143312619Y-56811904D02*
X143265000Y-56716666D01*
X143265000Y-56716666D02*
X143217380Y-56669047D01*
X143217380Y-56669047D02*
X143122142Y-56621428D01*
X143122142Y-56621428D02*
X142884047Y-56621428D01*
X142884047Y-56621428D02*
X142788809Y-56669047D01*
X142788809Y-56669047D02*
X142741190Y-56716666D01*
X142741190Y-56716666D02*
X142693571Y-56811904D01*
X142693571Y-56811904D02*
X142693571Y-57002380D01*
X142693571Y-57002380D02*
X142741190Y-57097618D01*
X142741190Y-57097618D02*
X142788809Y-57145237D01*
X142788809Y-57145237D02*
X142884047Y-57192856D01*
X142265000Y-55478571D02*
X143550714Y-56335713D01*
X143217380Y-54573809D02*
X143265000Y-54621428D01*
X143265000Y-54621428D02*
X143312619Y-54764285D01*
X143312619Y-54764285D02*
X143312619Y-54859523D01*
X143312619Y-54859523D02*
X143265000Y-55002380D01*
X143265000Y-55002380D02*
X143169761Y-55097618D01*
X143169761Y-55097618D02*
X143074523Y-55145237D01*
X143074523Y-55145237D02*
X142884047Y-55192856D01*
X142884047Y-55192856D02*
X142741190Y-55192856D01*
X142741190Y-55192856D02*
X142550714Y-55145237D01*
X142550714Y-55145237D02*
X142455476Y-55097618D01*
X142455476Y-55097618D02*
X142360238Y-55002380D01*
X142360238Y-55002380D02*
X142312619Y-54859523D01*
X142312619Y-54859523D02*
X142312619Y-54764285D01*
X142312619Y-54764285D02*
X142360238Y-54621428D01*
X142360238Y-54621428D02*
X142407857Y-54573809D01*
X142312619Y-53716666D02*
X142312619Y-53907142D01*
X142312619Y-53907142D02*
X142360238Y-54002380D01*
X142360238Y-54002380D02*
X142407857Y-54049999D01*
X142407857Y-54049999D02*
X142550714Y-54145237D01*
X142550714Y-54145237D02*
X142741190Y-54192856D01*
X142741190Y-54192856D02*
X143122142Y-54192856D01*
X143122142Y-54192856D02*
X143217380Y-54145237D01*
X143217380Y-54145237D02*
X143265000Y-54097618D01*
X143265000Y-54097618D02*
X143312619Y-54002380D01*
X143312619Y-54002380D02*
X143312619Y-53811904D01*
X143312619Y-53811904D02*
X143265000Y-53716666D01*
X143265000Y-53716666D02*
X143217380Y-53669047D01*
X143217380Y-53669047D02*
X143122142Y-53621428D01*
X143122142Y-53621428D02*
X142884047Y-53621428D01*
X142884047Y-53621428D02*
X142788809Y-53669047D01*
X142788809Y-53669047D02*
X142741190Y-53716666D01*
X142741190Y-53716666D02*
X142693571Y-53811904D01*
X142693571Y-53811904D02*
X142693571Y-54002380D01*
X142693571Y-54002380D02*
X142741190Y-54097618D01*
X142741190Y-54097618D02*
X142788809Y-54145237D01*
X142788809Y-54145237D02*
X142884047Y-54192856D01*
X162987857Y-87506666D02*
X163749762Y-87506666D01*
X163368809Y-87887619D02*
X163368809Y-87125714D01*
X164940237Y-86840000D02*
X164083095Y-88125714D01*
X165844999Y-87887619D02*
X165511666Y-87411428D01*
X165273571Y-87887619D02*
X165273571Y-86887619D01*
X165273571Y-86887619D02*
X165654523Y-86887619D01*
X165654523Y-86887619D02*
X165749761Y-86935238D01*
X165749761Y-86935238D02*
X165797380Y-86982857D01*
X165797380Y-86982857D02*
X165844999Y-87078095D01*
X165844999Y-87078095D02*
X165844999Y-87220952D01*
X165844999Y-87220952D02*
X165797380Y-87316190D01*
X165797380Y-87316190D02*
X165749761Y-87363809D01*
X165749761Y-87363809D02*
X165654523Y-87411428D01*
X165654523Y-87411428D02*
X165273571Y-87411428D01*
X166225952Y-86982857D02*
X166273571Y-86935238D01*
X166273571Y-86935238D02*
X166368809Y-86887619D01*
X166368809Y-86887619D02*
X166606904Y-86887619D01*
X166606904Y-86887619D02*
X166702142Y-86935238D01*
X166702142Y-86935238D02*
X166749761Y-86982857D01*
X166749761Y-86982857D02*
X166797380Y-87078095D01*
X166797380Y-87078095D02*
X166797380Y-87173333D01*
X166797380Y-87173333D02*
X166749761Y-87316190D01*
X166749761Y-87316190D02*
X166178333Y-87887619D01*
X166178333Y-87887619D02*
X166797380Y-87887619D01*
X167130714Y-86887619D02*
X167797380Y-86887619D01*
X167797380Y-86887619D02*
X167368809Y-87887619D01*
D11*
X104215000Y-60810000D02*
X113385000Y-60810000D01*
X104215000Y-64990000D02*
X102715000Y-64990000D01*
X104215000Y-64990000D02*
X104215000Y-60810000D01*
X104215000Y-84790000D02*
X104215000Y-88970000D01*
X104215000Y-88970000D02*
X113385000Y-88970000D01*
X113385000Y-60810000D02*
X113385000Y-64990000D01*
X113385000Y-88970000D02*
X113385000Y-84790000D01*
X170788748Y-91090000D02*
X172211252Y-91090000D01*
X170788748Y-92910000D02*
X172211252Y-92910000D01*
X117216686Y-106196250D02*
X118670814Y-106196250D01*
X117216686Y-108016250D02*
X118670814Y-108016250D01*
X187362500Y-36940000D02*
X185562500Y-36940000D01*
X187362500Y-36940000D02*
X188162500Y-36940000D01*
X187362500Y-40060000D02*
X186562500Y-40060000D01*
X187362500Y-40060000D02*
X188162500Y-40060000D01*
X139727064Y-86360000D02*
X138272936Y-86360000D01*
X139727064Y-84540000D02*
X138272936Y-84540000D01*
X145410000Y-95772936D02*
X145410000Y-97227064D01*
X143590000Y-95772936D02*
X143590000Y-97227064D01*
X184711252Y-44410000D02*
X183288748Y-44410000D01*
X184711252Y-42590000D02*
X183288748Y-42590000D01*
X173711252Y-47410000D02*
X172288748Y-47410000D01*
X173711252Y-45590000D02*
X172288748Y-45590000D01*
X178472500Y-38822936D02*
X178472500Y-40277064D01*
X176652500Y-38822936D02*
X176652500Y-40277064D01*
X116390000Y-94222500D02*
X126610000Y-94222500D01*
X116390000Y-95442500D02*
X117610000Y-95442500D01*
X116390000Y-102642500D02*
X116390000Y-94222500D01*
X117610000Y-95442500D02*
X117610000Y-100442500D01*
X117610000Y-99442500D02*
X125390000Y-99442500D01*
X117610000Y-100442500D02*
X116390000Y-100442500D01*
X117610000Y-100442500D02*
X117610000Y-102642500D01*
X117610000Y-102642500D02*
X116390000Y-102642500D01*
X118680000Y-96022500D02*
X119000000Y-95942500D01*
X118680000Y-99442500D02*
X118680000Y-96022500D01*
X118700000Y-103132500D02*
X119300000Y-103132500D01*
X119000000Y-95942500D02*
X119320000Y-96022500D01*
X119000000Y-99442500D02*
X118680000Y-99442500D01*
X119000000Y-102532500D02*
X118700000Y-103132500D01*
X119300000Y-103132500D02*
X119000000Y-102532500D01*
X119320000Y-96022500D02*
X119320000Y-99442500D01*
X119320000Y-99442500D02*
X119000000Y-99442500D01*
X120170000Y-100442500D02*
X120330000Y-100442500D01*
X121180000Y-96022500D02*
X121500000Y-95942500D01*
X121180000Y-99442500D02*
X121180000Y-96022500D01*
X121500000Y-95942500D02*
X121820000Y-96022500D01*
X121500000Y-99442500D02*
X121180000Y-99442500D01*
X121820000Y-96022500D02*
X121820000Y-99442500D01*
X121820000Y-99442500D02*
X121500000Y-99442500D01*
X122670000Y-100442500D02*
X122830000Y-100442500D01*
X123680000Y-96022500D02*
X124000000Y-95942500D01*
X123680000Y-99442500D02*
X123680000Y-96022500D01*
X124000000Y-95942500D02*
X124320000Y-96022500D01*
X124000000Y-99442500D02*
X123680000Y-99442500D01*
X124320000Y-96022500D02*
X124320000Y-99442500D01*
X124320000Y-99442500D02*
X124000000Y-99442500D01*
X125390000Y-95442500D02*
X125390000Y-100442500D01*
X125390000Y-100442500D02*
X126610000Y-100442500D01*
X125390000Y-102642500D02*
X125390000Y-100442500D01*
X126610000Y-94222500D02*
X126610000Y-102642500D01*
X126610000Y-95442500D02*
X125390000Y-95442500D01*
X126610000Y-102642500D02*
X125390000Y-102642500D01*
X133910000Y-56322936D02*
X133910000Y-57777064D01*
X132090000Y-56322936D02*
X132090000Y-57777064D01*
X173711252Y-50910000D02*
X172288748Y-50910000D01*
X173711252Y-49090000D02*
X172288748Y-49090000D01*
X114960000Y-104135000D02*
X114960000Y-101865000D01*
X114960000Y-101865000D02*
X110900000Y-101865000D01*
X110900000Y-104135000D02*
X114960000Y-104135000D01*
X131135000Y-88040000D02*
X128865000Y-88040000D01*
X128865000Y-88040000D02*
X128865000Y-92100000D01*
X131135000Y-92100000D02*
X131135000Y-88040000D01*
X186590000Y-68227064D02*
X186590000Y-66772936D01*
X188410000Y-68227064D02*
X188410000Y-66772936D01*
X129772936Y-96090000D02*
X131227064Y-96090000D01*
X129772936Y-97910000D02*
X131227064Y-97910000D01*
X197277500Y-41890000D02*
X197277500Y-52110000D01*
X196057500Y-41890000D02*
X196057500Y-43110000D01*
X188857500Y-41890000D02*
X197277500Y-41890000D01*
X196057500Y-43110000D02*
X191057500Y-43110000D01*
X192057500Y-43110000D02*
X192057500Y-50890000D01*
X191057500Y-43110000D02*
X191057500Y-41890000D01*
X191057500Y-43110000D02*
X188857500Y-43110000D01*
X188857500Y-43110000D02*
X188857500Y-41890000D01*
X195477500Y-44180000D02*
X195557500Y-44500000D01*
X192057500Y-44180000D02*
X195477500Y-44180000D01*
X188367500Y-44200000D02*
X188367500Y-44800000D01*
X195557500Y-44500000D02*
X195477500Y-44820000D01*
X192057500Y-44500000D02*
X192057500Y-44180000D01*
X188967500Y-44500000D02*
X188367500Y-44200000D01*
X188367500Y-44800000D02*
X188967500Y-44500000D01*
X195477500Y-44820000D02*
X192057500Y-44820000D01*
X192057500Y-44820000D02*
X192057500Y-44500000D01*
X191057500Y-45670000D02*
X191057500Y-45830000D01*
X195477500Y-46680000D02*
X195557500Y-47000000D01*
X192057500Y-46680000D02*
X195477500Y-46680000D01*
X195557500Y-47000000D02*
X195477500Y-47320000D01*
X192057500Y-47000000D02*
X192057500Y-46680000D01*
X195477500Y-47320000D02*
X192057500Y-47320000D01*
X192057500Y-47320000D02*
X192057500Y-47000000D01*
X191057500Y-48170000D02*
X191057500Y-48330000D01*
X195477500Y-49180000D02*
X195557500Y-49500000D01*
X192057500Y-49180000D02*
X195477500Y-49180000D01*
X195557500Y-49500000D02*
X195477500Y-49820000D01*
X192057500Y-49500000D02*
X192057500Y-49180000D01*
X195477500Y-49820000D02*
X192057500Y-49820000D01*
X192057500Y-49820000D02*
X192057500Y-49500000D01*
X196057500Y-50890000D02*
X191057500Y-50890000D01*
X191057500Y-50890000D02*
X191057500Y-52110000D01*
X188857500Y-50890000D02*
X191057500Y-50890000D01*
X197277500Y-52110000D02*
X188857500Y-52110000D01*
X196057500Y-52110000D02*
X196057500Y-50890000D01*
X188857500Y-52110000D02*
X188857500Y-50890000D01*
X183272936Y-48090000D02*
X184727064Y-48090000D01*
X183272936Y-49910000D02*
X184727064Y-49910000D01*
X172227064Y-87910000D02*
X170772936Y-87910000D01*
X172227064Y-86090000D02*
X170772936Y-86090000D01*
X197777500Y-53890000D02*
X197777500Y-64110000D01*
X196557500Y-53890000D02*
X196557500Y-55110000D01*
X189357500Y-53890000D02*
X197777500Y-53890000D01*
X196557500Y-55110000D02*
X191557500Y-55110000D01*
X192557500Y-55110000D02*
X192557500Y-62890000D01*
X191557500Y-55110000D02*
X191557500Y-53890000D01*
X191557500Y-55110000D02*
X189357500Y-55110000D01*
X189357500Y-55110000D02*
X189357500Y-53890000D01*
X195977500Y-56180000D02*
X196057500Y-56500000D01*
X192557500Y-56180000D02*
X195977500Y-56180000D01*
X188867500Y-56200000D02*
X188867500Y-56800000D01*
X196057500Y-56500000D02*
X195977500Y-56820000D01*
X192557500Y-56500000D02*
X192557500Y-56180000D01*
X189467500Y-56500000D02*
X188867500Y-56200000D01*
X188867500Y-56800000D02*
X189467500Y-56500000D01*
X195977500Y-56820000D02*
X192557500Y-56820000D01*
X192557500Y-56820000D02*
X192557500Y-56500000D01*
X191557500Y-57670000D02*
X191557500Y-57830000D01*
X195977500Y-58680000D02*
X196057500Y-59000000D01*
X192557500Y-58680000D02*
X195977500Y-58680000D01*
X196057500Y-59000000D02*
X195977500Y-59320000D01*
X192557500Y-59000000D02*
X192557500Y-58680000D01*
X195977500Y-59320000D02*
X192557500Y-59320000D01*
X192557500Y-59320000D02*
X192557500Y-59000000D01*
X191557500Y-60170000D02*
X191557500Y-60330000D01*
X195977500Y-61180000D02*
X196057500Y-61500000D01*
X192557500Y-61180000D02*
X195977500Y-61180000D01*
X196057500Y-61500000D02*
X195977500Y-61820000D01*
X192557500Y-61500000D02*
X192557500Y-61180000D01*
X195977500Y-61820000D02*
X192557500Y-61820000D01*
X192557500Y-61820000D02*
X192557500Y-61500000D01*
X196557500Y-62890000D02*
X191557500Y-62890000D01*
X191557500Y-62890000D02*
X191557500Y-64110000D01*
X189357500Y-62890000D02*
X191557500Y-62890000D01*
X197777500Y-64110000D02*
X189357500Y-64110000D01*
X196557500Y-64110000D02*
X196557500Y-62890000D01*
X189357500Y-64110000D02*
X189357500Y-62890000D01*
X133137500Y-74997500D02*
X134937500Y-74997500D01*
X133137500Y-74997500D02*
X132337500Y-74997500D01*
X133137500Y-71877500D02*
X133937500Y-71877500D01*
X133137500Y-71877500D02*
X132337500Y-71877500D01*
X138788748Y-70590000D02*
X140211252Y-70590000D01*
X138788748Y-72410000D02*
X140211252Y-72410000D01*
X159410000Y-106272936D02*
X159410000Y-107727064D01*
X157590000Y-106272936D02*
X157590000Y-107727064D01*
X142890000Y-77722500D02*
X153110000Y-77722500D01*
X142890000Y-78942500D02*
X144110000Y-78942500D01*
X142890000Y-86142500D02*
X142890000Y-77722500D01*
X144110000Y-78942500D02*
X144110000Y-83942500D01*
X144110000Y-82942500D02*
X151890000Y-82942500D01*
X144110000Y-83942500D02*
X142890000Y-83942500D01*
X144110000Y-83942500D02*
X144110000Y-86142500D01*
X144110000Y-86142500D02*
X142890000Y-86142500D01*
X145180000Y-79522500D02*
X145500000Y-79442500D01*
X145180000Y-82942500D02*
X145180000Y-79522500D01*
X145200000Y-86632500D02*
X145800000Y-86632500D01*
X145500000Y-79442500D02*
X145820000Y-79522500D01*
X145500000Y-82942500D02*
X145180000Y-82942500D01*
X145500000Y-86032500D02*
X145200000Y-86632500D01*
X145800000Y-86632500D02*
X145500000Y-86032500D01*
X145820000Y-79522500D02*
X145820000Y-82942500D01*
X145820000Y-82942500D02*
X145500000Y-82942500D01*
X146670000Y-83942500D02*
X146830000Y-83942500D01*
X147680000Y-79522500D02*
X148000000Y-79442500D01*
X147680000Y-82942500D02*
X147680000Y-79522500D01*
X148000000Y-79442500D02*
X148320000Y-79522500D01*
X148000000Y-82942500D02*
X147680000Y-82942500D01*
X148320000Y-79522500D02*
X148320000Y-82942500D01*
X148320000Y-82942500D02*
X148000000Y-82942500D01*
X149170000Y-83942500D02*
X149330000Y-83942500D01*
X150180000Y-79522500D02*
X150500000Y-79442500D01*
X150180000Y-82942500D02*
X150180000Y-79522500D01*
X150500000Y-79442500D02*
X150820000Y-79522500D01*
X150500000Y-82942500D02*
X150180000Y-82942500D01*
X150820000Y-79522500D02*
X150820000Y-82942500D01*
X150820000Y-82942500D02*
X150500000Y-82942500D01*
X151890000Y-78942500D02*
X151890000Y-83942500D01*
X151890000Y-83942500D02*
X153110000Y-83942500D01*
X151890000Y-86142500D02*
X151890000Y-83942500D01*
X153110000Y-77722500D02*
X153110000Y-86142500D01*
X153110000Y-78942500D02*
X151890000Y-78942500D01*
X153110000Y-86142500D02*
X151890000Y-86142500D01*
X163272936Y-109090000D02*
X164727064Y-109090000D01*
X163272936Y-110910000D02*
X164727064Y-110910000D01*
X179177064Y-105910000D02*
X177722936Y-105910000D01*
X179177064Y-104090000D02*
X177722936Y-104090000D01*
X124365000Y-108502064D02*
X124365000Y-107047936D01*
X126185000Y-108502064D02*
X126185000Y-107047936D01*
X173410000Y-38822936D02*
X173410000Y-40277064D01*
X171590000Y-38822936D02*
X171590000Y-40277064D01*
X122120000Y-43000000D02*
G75*
G03*
X122120000Y-43000000I-6120000J0D01*
G01*
X189222500Y-81610000D02*
X189222500Y-71390000D01*
X190442500Y-81610000D02*
X190442500Y-80390000D01*
X197642500Y-81610000D02*
X189222500Y-81610000D01*
X190442500Y-80390000D02*
X195442500Y-80390000D01*
X194442500Y-80390000D02*
X194442500Y-72610000D01*
X195442500Y-80390000D02*
X195442500Y-81610000D01*
X195442500Y-80390000D02*
X197642500Y-80390000D01*
X197642500Y-80390000D02*
X197642500Y-81610000D01*
X191022500Y-79320000D02*
X190942500Y-79000000D01*
X194442500Y-79320000D02*
X191022500Y-79320000D01*
X198132500Y-79300000D02*
X198132500Y-78700000D01*
X190942500Y-79000000D02*
X191022500Y-78680000D01*
X194442500Y-79000000D02*
X194442500Y-79320000D01*
X197532500Y-79000000D02*
X198132500Y-79300000D01*
X198132500Y-78700000D02*
X197532500Y-79000000D01*
X191022500Y-78680000D02*
X194442500Y-78680000D01*
X194442500Y-78680000D02*
X194442500Y-79000000D01*
X195442500Y-77830000D02*
X195442500Y-77670000D01*
X191022500Y-76820000D02*
X190942500Y-76500000D01*
X194442500Y-76820000D02*
X191022500Y-76820000D01*
X190942500Y-76500000D02*
X191022500Y-76180000D01*
X194442500Y-76500000D02*
X194442500Y-76820000D01*
X191022500Y-76180000D02*
X194442500Y-76180000D01*
X194442500Y-76180000D02*
X194442500Y-76500000D01*
X195442500Y-75330000D02*
X195442500Y-75170000D01*
X191022500Y-74320000D02*
X190942500Y-74000000D01*
X194442500Y-74320000D02*
X191022500Y-74320000D01*
X190942500Y-74000000D02*
X191022500Y-73680000D01*
X194442500Y-74000000D02*
X194442500Y-74320000D01*
X191022500Y-73680000D02*
X194442500Y-73680000D01*
X194442500Y-73680000D02*
X194442500Y-74000000D01*
X190442500Y-72610000D02*
X195442500Y-72610000D01*
X195442500Y-72610000D02*
X195442500Y-71390000D01*
X197642500Y-72610000D02*
X195442500Y-72610000D01*
X189222500Y-71390000D02*
X197642500Y-71390000D01*
X190442500Y-71390000D02*
X190442500Y-72610000D01*
X197642500Y-71390000D02*
X197642500Y-72610000D01*
X115110000Y-99310000D02*
X104890000Y-99310000D01*
X115110000Y-98090000D02*
X113890000Y-98090000D01*
X115110000Y-90890000D02*
X115110000Y-99310000D01*
X113890000Y-98090000D02*
X113890000Y-93090000D01*
X113890000Y-94090000D02*
X106110000Y-94090000D01*
X113890000Y-93090000D02*
X115110000Y-93090000D01*
X113890000Y-93090000D02*
X113890000Y-90890000D01*
X113890000Y-90890000D02*
X115110000Y-90890000D01*
X112820000Y-97510000D02*
X112500000Y-97590000D01*
X112820000Y-94090000D02*
X112820000Y-97510000D01*
X112800000Y-90400000D02*
X112200000Y-90400000D01*
X112500000Y-97590000D02*
X112180000Y-97510000D01*
X112500000Y-94090000D02*
X112820000Y-94090000D01*
X112500000Y-91000000D02*
X112800000Y-90400000D01*
X112200000Y-90400000D02*
X112500000Y-91000000D01*
X112180000Y-97510000D02*
X112180000Y-94090000D01*
X112180000Y-94090000D02*
X112500000Y-94090000D01*
X111330000Y-93090000D02*
X111170000Y-93090000D01*
X110320000Y-97510000D02*
X110000000Y-97590000D01*
X110320000Y-94090000D02*
X110320000Y-97510000D01*
X110000000Y-97590000D02*
X109680000Y-97510000D01*
X110000000Y-94090000D02*
X110320000Y-94090000D01*
X109680000Y-97510000D02*
X109680000Y-94090000D01*
X109680000Y-94090000D02*
X110000000Y-94090000D01*
X108830000Y-93090000D02*
X108670000Y-93090000D01*
X107820000Y-97510000D02*
X107500000Y-97590000D01*
X107820000Y-94090000D02*
X107820000Y-97510000D01*
X107500000Y-97590000D02*
X107180000Y-97510000D01*
X107500000Y-94090000D02*
X107820000Y-94090000D01*
X107180000Y-97510000D02*
X107180000Y-94090000D01*
X107180000Y-94090000D02*
X107500000Y-94090000D01*
X106110000Y-98090000D02*
X106110000Y-93090000D01*
X106110000Y-93090000D02*
X104890000Y-93090000D01*
X106110000Y-90890000D02*
X106110000Y-93090000D01*
X104890000Y-99310000D02*
X104890000Y-90890000D01*
X104890000Y-98090000D02*
X106110000Y-98090000D01*
X104890000Y-90890000D02*
X106110000Y-90890000D01*
X150910000Y-93351248D02*
X150910000Y-94773752D01*
X149090000Y-93351248D02*
X149090000Y-94773752D01*
X134090000Y-80727064D02*
X134090000Y-79272936D01*
X135910000Y-80727064D02*
X135910000Y-79272936D01*
X194277500Y-97890000D02*
X194277500Y-108110000D01*
X193057500Y-97890000D02*
X193057500Y-99110000D01*
X185857500Y-97890000D02*
X194277500Y-97890000D01*
X193057500Y-99110000D02*
X188057500Y-99110000D01*
X189057500Y-99110000D02*
X189057500Y-106890000D01*
X188057500Y-99110000D02*
X188057500Y-97890000D01*
X188057500Y-99110000D02*
X185857500Y-99110000D01*
X185857500Y-99110000D02*
X185857500Y-97890000D01*
X192477500Y-100180000D02*
X192557500Y-100500000D01*
X189057500Y-100180000D02*
X192477500Y-100180000D01*
X185367500Y-100200000D02*
X185367500Y-100800000D01*
X192557500Y-100500000D02*
X192477500Y-100820000D01*
X189057500Y-100500000D02*
X189057500Y-100180000D01*
X185967500Y-100500000D02*
X185367500Y-100200000D01*
X185367500Y-100800000D02*
X185967500Y-100500000D01*
X192477500Y-100820000D02*
X189057500Y-100820000D01*
X189057500Y-100820000D02*
X189057500Y-100500000D01*
X188057500Y-101670000D02*
X188057500Y-101830000D01*
X192477500Y-102680000D02*
X192557500Y-103000000D01*
X189057500Y-102680000D02*
X192477500Y-102680000D01*
X192557500Y-103000000D02*
X192477500Y-103320000D01*
X189057500Y-103000000D02*
X189057500Y-102680000D01*
X192477500Y-103320000D02*
X189057500Y-103320000D01*
X189057500Y-103320000D02*
X189057500Y-103000000D01*
X188057500Y-104170000D02*
X188057500Y-104330000D01*
X192477500Y-105180000D02*
X192557500Y-105500000D01*
X189057500Y-105180000D02*
X192477500Y-105180000D01*
X192557500Y-105500000D02*
X192477500Y-105820000D01*
X189057500Y-105500000D02*
X189057500Y-105180000D01*
X192477500Y-105820000D02*
X189057500Y-105820000D01*
X189057500Y-105820000D02*
X189057500Y-105500000D01*
X193057500Y-106890000D02*
X188057500Y-106890000D01*
X188057500Y-106890000D02*
X188057500Y-108110000D01*
X185857500Y-106890000D02*
X188057500Y-106890000D01*
X194277500Y-108110000D02*
X185857500Y-108110000D01*
X193057500Y-108110000D02*
X193057500Y-106890000D01*
X185857500Y-108110000D02*
X185857500Y-106890000D01*
X189910000Y-87288748D02*
X189910000Y-88711252D01*
X188090000Y-87288748D02*
X188090000Y-88711252D01*
X171360000Y-63545000D02*
X171360000Y-81445000D01*
X171360000Y-81445000D02*
X176660000Y-81445000D01*
X173010000Y-63545000D02*
X171360000Y-63545000D01*
X176660000Y-63545000D02*
X175010000Y-63545000D01*
X176660000Y-81445000D02*
X176660000Y-63545000D01*
X173010000Y-63545000D02*
G75*
G03*
X175010000Y-63545000I1000000J0D01*
G01*
X196727064Y-38410000D02*
X195272936Y-38410000D01*
X196727064Y-36590000D02*
X195272936Y-36590000D01*
X182590000Y-72227064D02*
X182590000Y-70772936D01*
X184410000Y-72227064D02*
X184410000Y-70772936D01*
X185410000Y-78272936D02*
X185410000Y-79727064D01*
X183590000Y-78272936D02*
X183590000Y-79727064D01*
X186610000Y-61277500D02*
X176390000Y-61277500D01*
X186610000Y-60057500D02*
X185390000Y-60057500D01*
X186610000Y-52857500D02*
X186610000Y-61277500D01*
X185390000Y-60057500D02*
X185390000Y-55057500D01*
X185390000Y-56057500D02*
X177610000Y-56057500D01*
X185390000Y-55057500D02*
X186610000Y-55057500D01*
X185390000Y-55057500D02*
X185390000Y-52857500D01*
X185390000Y-52857500D02*
X186610000Y-52857500D01*
X184320000Y-59477500D02*
X184000000Y-59557500D01*
X184320000Y-56057500D02*
X184320000Y-59477500D01*
X184300000Y-52367500D02*
X183700000Y-52367500D01*
X184000000Y-59557500D02*
X183680000Y-59477500D01*
X184000000Y-56057500D02*
X184320000Y-56057500D01*
X184000000Y-52967500D02*
X184300000Y-52367500D01*
X183700000Y-52367500D02*
X184000000Y-52967500D01*
X183680000Y-59477500D02*
X183680000Y-56057500D01*
X183680000Y-56057500D02*
X184000000Y-56057500D01*
X182830000Y-55057500D02*
X182670000Y-55057500D01*
X181820000Y-59477500D02*
X181500000Y-59557500D01*
X181820000Y-56057500D02*
X181820000Y-59477500D01*
X181500000Y-59557500D02*
X181180000Y-59477500D01*
X181500000Y-56057500D02*
X181820000Y-56057500D01*
X181180000Y-59477500D02*
X181180000Y-56057500D01*
X181180000Y-56057500D02*
X181500000Y-56057500D01*
X180330000Y-55057500D02*
X180170000Y-55057500D01*
X179320000Y-59477500D02*
X179000000Y-59557500D01*
X179320000Y-56057500D02*
X179320000Y-59477500D01*
X179000000Y-59557500D02*
X178680000Y-59477500D01*
X179000000Y-56057500D02*
X179320000Y-56057500D01*
X178680000Y-59477500D02*
X178680000Y-56057500D01*
X178680000Y-56057500D02*
X179000000Y-56057500D01*
X177610000Y-60057500D02*
X177610000Y-55057500D01*
X177610000Y-55057500D02*
X176390000Y-55057500D01*
X177610000Y-52857500D02*
X177610000Y-55057500D01*
X176390000Y-61277500D02*
X176390000Y-52857500D01*
X176390000Y-60057500D02*
X177610000Y-60057500D01*
X176390000Y-52857500D02*
X177610000Y-52857500D01*
X116457498Y-110471250D02*
X117880002Y-110471250D01*
X116457498Y-112291250D02*
X117880002Y-112291250D01*
X123727064Y-78910000D02*
X122272936Y-78910000D01*
X123727064Y-77090000D02*
X122272936Y-77090000D01*
X149590000Y-68211252D02*
X149590000Y-66788748D01*
X151410000Y-68211252D02*
X151410000Y-66788748D01*
X186110000Y-94277500D02*
X175890000Y-94277500D01*
X186110000Y-93057500D02*
X184890000Y-93057500D01*
X186110000Y-85857500D02*
X186110000Y-94277500D01*
X184890000Y-93057500D02*
X184890000Y-88057500D01*
X184890000Y-89057500D02*
X177110000Y-89057500D01*
X184890000Y-88057500D02*
X186110000Y-88057500D01*
X184890000Y-88057500D02*
X184890000Y-85857500D01*
X184890000Y-85857500D02*
X186110000Y-85857500D01*
X183820000Y-92477500D02*
X183500000Y-92557500D01*
X183820000Y-89057500D02*
X183820000Y-92477500D01*
X183800000Y-85367500D02*
X183200000Y-85367500D01*
X183500000Y-92557500D02*
X183180000Y-92477500D01*
X183500000Y-89057500D02*
X183820000Y-89057500D01*
X183500000Y-85967500D02*
X183800000Y-85367500D01*
X183200000Y-85367500D02*
X183500000Y-85967500D01*
X183180000Y-92477500D02*
X183180000Y-89057500D01*
X183180000Y-89057500D02*
X183500000Y-89057500D01*
X182330000Y-88057500D02*
X182170000Y-88057500D01*
X181320000Y-92477500D02*
X181000000Y-92557500D01*
X181320000Y-89057500D02*
X181320000Y-92477500D01*
X181000000Y-92557500D02*
X180680000Y-92477500D01*
X181000000Y-89057500D02*
X181320000Y-89057500D01*
X180680000Y-92477500D02*
X180680000Y-89057500D01*
X180680000Y-89057500D02*
X181000000Y-89057500D01*
X179830000Y-88057500D02*
X179670000Y-88057500D01*
X178820000Y-92477500D02*
X178500000Y-92557500D01*
X178820000Y-89057500D02*
X178820000Y-92477500D01*
X178500000Y-92557500D02*
X178180000Y-92477500D01*
X178500000Y-89057500D02*
X178820000Y-89057500D01*
X178180000Y-92477500D02*
X178180000Y-89057500D01*
X178180000Y-89057500D02*
X178500000Y-89057500D01*
X177110000Y-93057500D02*
X177110000Y-88057500D01*
X177110000Y-88057500D02*
X175890000Y-88057500D01*
X177110000Y-85857500D02*
X177110000Y-88057500D01*
X175890000Y-94277500D02*
X175890000Y-85857500D01*
X175890000Y-93057500D02*
X177110000Y-93057500D01*
X175890000Y-85857500D02*
X177110000Y-85857500D01*
X130727064Y-66910000D02*
X129272936Y-66910000D01*
X130727064Y-65090000D02*
X129272936Y-65090000D01*
X122727064Y-64910000D02*
X121272936Y-64910000D01*
X122727064Y-63090000D02*
X121272936Y-63090000D01*
X123851248Y-71090000D02*
X125273752Y-71090000D01*
X123851248Y-72910000D02*
X125273752Y-72910000D01*
X136910000Y-97272936D02*
X136910000Y-98727064D01*
X135090000Y-97272936D02*
X135090000Y-98727064D01*
X146410000Y-103726248D02*
X146410000Y-105148752D01*
X144590000Y-103726248D02*
X144590000Y-105148752D01*
X170272936Y-99090000D02*
X171727064Y-99090000D01*
X170272936Y-100910000D02*
X171727064Y-100910000D01*
X168711252Y-105910000D02*
X167288748Y-105910000D01*
X168711252Y-104090000D02*
X167288748Y-104090000D01*
X126910000Y-56272936D02*
X126910000Y-57727064D01*
X125090000Y-56272936D02*
X125090000Y-57727064D01*
X161160000Y-40670000D02*
X161160000Y-50950000D01*
X161160000Y-50950000D02*
X166460000Y-50950000D01*
X162810000Y-40670000D02*
X161160000Y-40670000D01*
X166460000Y-40670000D02*
X164810000Y-40670000D01*
X166460000Y-50950000D02*
X166460000Y-40670000D01*
X162810000Y-40670000D02*
G75*
G03*
X164810000Y-40670000I1000000J0D01*
G01*
X182288748Y-65090000D02*
X183711252Y-65090000D01*
X182288748Y-66910000D02*
X183711252Y-66910000D01*
X165482500Y-96805000D02*
X167282500Y-96805000D01*
X165482500Y-96805000D02*
X164682500Y-96805000D01*
X165482500Y-93685000D02*
X166282500Y-93685000D01*
X165482500Y-93685000D02*
X164682500Y-93685000D01*
X120711252Y-57910000D02*
X119288748Y-57910000D01*
X120711252Y-56090000D02*
X119288748Y-56090000D01*
X111910000Y-107272936D02*
X111910000Y-108727064D01*
X110090000Y-107272936D02*
X110090000Y-108727064D01*
X156910000Y-93322936D02*
X156910000Y-94777064D01*
X155090000Y-93322936D02*
X155090000Y-94777064D01*
X149120000Y-43000000D02*
G75*
G03*
X149120000Y-43000000I-6120000J0D01*
G01*
X156410000Y-44851248D02*
X156410000Y-46273752D01*
X154590000Y-44851248D02*
X154590000Y-46273752D01*
X135500000Y-91560000D02*
X137300000Y-91560000D01*
X135500000Y-91560000D02*
X134700000Y-91560000D01*
X135500000Y-88440000D02*
X136300000Y-88440000D01*
X135500000Y-88440000D02*
X134700000Y-88440000D01*
X132390000Y-105222500D02*
X142610000Y-105222500D01*
X132390000Y-106442500D02*
X133610000Y-106442500D01*
X132390000Y-113642500D02*
X132390000Y-105222500D01*
X133610000Y-106442500D02*
X133610000Y-111442500D01*
X133610000Y-110442500D02*
X141390000Y-110442500D01*
X133610000Y-111442500D02*
X132390000Y-111442500D01*
X133610000Y-111442500D02*
X133610000Y-113642500D01*
X133610000Y-113642500D02*
X132390000Y-113642500D01*
X134680000Y-107022500D02*
X135000000Y-106942500D01*
X134680000Y-110442500D02*
X134680000Y-107022500D01*
X134700000Y-114132500D02*
X135300000Y-114132500D01*
X135000000Y-106942500D02*
X135320000Y-107022500D01*
X135000000Y-110442500D02*
X134680000Y-110442500D01*
X135000000Y-113532500D02*
X134700000Y-114132500D01*
X135300000Y-114132500D02*
X135000000Y-113532500D01*
X135320000Y-107022500D02*
X135320000Y-110442500D01*
X135320000Y-110442500D02*
X135000000Y-110442500D01*
X136170000Y-111442500D02*
X136330000Y-111442500D01*
X137180000Y-107022500D02*
X137500000Y-106942500D01*
X137180000Y-110442500D02*
X137180000Y-107022500D01*
X137500000Y-106942500D02*
X137820000Y-107022500D01*
X137500000Y-110442500D02*
X137180000Y-110442500D01*
X137820000Y-107022500D02*
X137820000Y-110442500D01*
X137820000Y-110442500D02*
X137500000Y-110442500D01*
X138670000Y-111442500D02*
X138830000Y-111442500D01*
X139680000Y-107022500D02*
X140000000Y-106942500D01*
X139680000Y-110442500D02*
X139680000Y-107022500D01*
X140000000Y-106942500D02*
X140320000Y-107022500D01*
X140000000Y-110442500D02*
X139680000Y-110442500D01*
X140320000Y-107022500D02*
X140320000Y-110442500D01*
X140320000Y-110442500D02*
X140000000Y-110442500D01*
X141390000Y-106442500D02*
X141390000Y-111442500D01*
X141390000Y-111442500D02*
X142610000Y-111442500D01*
X141390000Y-113642500D02*
X141390000Y-111442500D01*
X142610000Y-105222500D02*
X142610000Y-113642500D01*
X142610000Y-106442500D02*
X141390000Y-106442500D01*
X142610000Y-113642500D02*
X141390000Y-113642500D01*
X135120000Y-43000000D02*
G75*
G03*
X135120000Y-43000000I-6120000J0D01*
G01*
X153410000Y-106272936D02*
X153410000Y-107727064D01*
X151590000Y-106272936D02*
X151590000Y-107727064D01*
X145227064Y-90410000D02*
X143772936Y-90410000D01*
X145227064Y-88590000D02*
X143772936Y-88590000D01*
X145090000Y-73727064D02*
X145090000Y-72272936D01*
X146910000Y-73727064D02*
X146910000Y-72272936D01*
X141910000Y-56338748D02*
X141910000Y-57761252D01*
X140090000Y-56338748D02*
X140090000Y-57761252D01*
X164617936Y-88335000D02*
X166072064Y-88335000D01*
X164617936Y-90155000D02*
X166072064Y-90155000D01*
%LPC*%
D12*
X105000000Y-66000000D03*
X112600000Y-66000000D03*
X105000000Y-68540000D03*
X112600000Y-68540000D03*
X105000000Y-71080000D03*
X112600000Y-71080000D03*
X105000000Y-73620000D03*
X112600000Y-73620000D03*
X105000000Y-76160000D03*
X112600000Y-76160000D03*
X105000000Y-78700000D03*
X112600000Y-78700000D03*
X105000000Y-81240000D03*
X112600000Y-81240000D03*
X105000000Y-83780000D03*
X112600000Y-83780000D03*
D13*
X169937500Y-92000000D03*
X173062500Y-92000000D03*
D14*
X116393750Y-107106250D03*
X119493750Y-107106250D03*
D15*
X186225000Y-37550000D03*
X186225000Y-39450000D03*
X188500000Y-38500000D03*
D16*
X140550000Y-85450000D03*
X137450000Y-85450000D03*
D17*
X144500000Y-94950000D03*
X144500000Y-98050000D03*
D18*
X185562500Y-43500000D03*
X182437500Y-43500000D03*
X174562500Y-46500000D03*
X171437500Y-46500000D03*
D17*
X177562500Y-38000000D03*
X177562500Y-41100000D03*
D19*
X119000000Y-101032500D03*
D20*
X121500000Y-101032500D03*
X124000000Y-101032500D03*
D17*
X133000000Y-55500000D03*
X133000000Y-58600000D03*
D21*
X103500000Y-111500000D03*
D18*
X174562500Y-50000000D03*
X171437500Y-50000000D03*
D22*
X113987500Y-103000000D03*
X111012500Y-103000000D03*
D23*
X130000000Y-89012500D03*
X130000000Y-91987500D03*
D24*
X187500000Y-69050000D03*
X187500000Y-65950000D03*
D14*
X128950000Y-97000000D03*
X132050000Y-97000000D03*
D25*
X190467500Y-44500000D03*
D26*
X190467500Y-47000000D03*
X190467500Y-49500000D03*
D14*
X182450000Y-49000000D03*
X185550000Y-49000000D03*
D16*
X173050000Y-87000000D03*
X169950000Y-87000000D03*
D25*
X190967500Y-56500000D03*
D26*
X190967500Y-59000000D03*
X190967500Y-61500000D03*
D27*
X134275000Y-74387500D03*
X134275000Y-72487500D03*
X132000000Y-73437500D03*
D13*
X137937500Y-71500000D03*
X141062500Y-71500000D03*
D17*
X158500000Y-105450000D03*
X158500000Y-108550000D03*
D19*
X145500000Y-84532500D03*
D20*
X148000000Y-84532500D03*
X150500000Y-84532500D03*
D21*
X103500000Y-38500000D03*
D14*
X162450000Y-110000000D03*
X165550000Y-110000000D03*
D16*
X180000000Y-105000000D03*
X176900000Y-105000000D03*
D24*
X125275000Y-109325000D03*
X125275000Y-106225000D03*
D17*
X172500000Y-38000000D03*
X172500000Y-41100000D03*
D21*
X113000000Y-43000000D03*
X119000000Y-43000000D03*
D28*
X196032500Y-79000000D03*
D26*
X196032500Y-76500000D03*
X196032500Y-74000000D03*
D29*
X112500000Y-92500000D03*
D20*
X110000000Y-92500000D03*
X107500000Y-92500000D03*
D30*
X150000000Y-92500000D03*
X150000000Y-95625000D03*
D24*
X135000000Y-81550000D03*
X135000000Y-78450000D03*
D25*
X187467500Y-100500000D03*
D26*
X187467500Y-103000000D03*
X187467500Y-105500000D03*
D30*
X189000000Y-86437500D03*
X189000000Y-89562500D03*
D31*
X170200000Y-64875000D03*
D32*
X170200000Y-67415000D03*
X170200000Y-69955000D03*
X170200000Y-72495000D03*
X170200000Y-75035000D03*
X170200000Y-77575000D03*
X170200000Y-80115000D03*
X177820000Y-80115000D03*
X177820000Y-77575000D03*
X177820000Y-75035000D03*
X177820000Y-72495000D03*
X177820000Y-69955000D03*
X177820000Y-67415000D03*
X177820000Y-64875000D03*
D16*
X197550000Y-37500000D03*
X194450000Y-37500000D03*
D24*
X183500000Y-73050000D03*
X183500000Y-69950000D03*
D17*
X184500000Y-77450000D03*
X184500000Y-80550000D03*
D29*
X184000000Y-54467500D03*
D20*
X181500000Y-54467500D03*
X179000000Y-54467500D03*
D13*
X115606250Y-111381250D03*
X118731250Y-111381250D03*
D16*
X124550000Y-78000000D03*
X121450000Y-78000000D03*
D33*
X150500000Y-69062500D03*
X150500000Y-65937500D03*
D29*
X183500000Y-87467500D03*
D20*
X181000000Y-87467500D03*
X178500000Y-87467500D03*
D16*
X131550000Y-66000000D03*
X128450000Y-66000000D03*
X123550000Y-64000000D03*
X120450000Y-64000000D03*
D13*
X123000000Y-72000000D03*
X126125000Y-72000000D03*
D17*
X136000000Y-96450000D03*
X136000000Y-99550000D03*
D30*
X145500000Y-102875000D03*
X145500000Y-106000000D03*
D14*
X169450000Y-100000000D03*
X172550000Y-100000000D03*
D18*
X169562500Y-105000000D03*
X166437500Y-105000000D03*
D17*
X126000000Y-55450000D03*
X126000000Y-58550000D03*
D31*
X160000000Y-42000000D03*
D32*
X160000000Y-44540000D03*
X160000000Y-47080000D03*
X160000000Y-49620000D03*
X167620000Y-49620000D03*
X167620000Y-47080000D03*
X167620000Y-44540000D03*
X167620000Y-42000000D03*
D13*
X181437500Y-66000000D03*
X184562500Y-66000000D03*
D27*
X166620000Y-96195000D03*
X166620000Y-94295000D03*
X164345000Y-95245000D03*
D18*
X121562500Y-57000000D03*
X118437500Y-57000000D03*
D17*
X111000000Y-106450000D03*
X111000000Y-109550000D03*
X156000000Y-92500000D03*
X156000000Y-95600000D03*
D21*
X140000000Y-43000000D03*
X146000000Y-43000000D03*
D30*
X155500000Y-44000000D03*
X155500000Y-47125000D03*
D27*
X136637500Y-90950000D03*
X136637500Y-89050000D03*
X134362500Y-90000000D03*
D19*
X135000000Y-112032500D03*
D20*
X137500000Y-112032500D03*
X140000000Y-112032500D03*
D21*
X126000000Y-43000000D03*
X132000000Y-43000000D03*
D17*
X152500000Y-105450000D03*
X152500000Y-108550000D03*
D16*
X146050000Y-89500000D03*
X142950000Y-89500000D03*
D24*
X146000000Y-74550000D03*
X146000000Y-71450000D03*
D30*
X141000000Y-55487500D03*
X141000000Y-58612500D03*
D14*
X163795000Y-89245000D03*
X166895000Y-89245000D03*
%LPD*%
M02*
