%TF.GenerationSoftware,KiCad,Pcbnew,7.0.2*%
%TF.CreationDate,2023-07-08T15:21:49+02:00*%
%TF.ProjectId,KiKAD_Endplatine_V2,4b694b41-445f-4456-9e64-706c6174696e,rev?*%
%TF.SameCoordinates,Original*%
%TF.FileFunction,Drillmap*%
%TF.FilePolarity,Positive*%
%FSLAX45Y45*%
G04 Gerber Fmt 4.5, Leading zero omitted, Abs format (unit mm)*
G04 Created by KiCad (PCBNEW 7.0.2) date 2023-07-08 15:21:49*
%MOMM*%
%LPD*%
G01*
G04 APERTURE LIST*
%ADD10C,0.050000*%
%ADD11C,0.200000*%
%ADD12C,0.320000*%
G04 APERTURE END LIST*
D10*
X10000000Y-3500000D02*
X20000000Y-3500000D01*
X20000000Y-11500000D01*
X10000000Y-11500000D01*
X10000000Y-3500000D01*
D11*
D12*
X10190000Y-3690000D02*
X10510000Y-4010000D01*
X10510000Y-3690000D02*
X10190000Y-4010000D01*
X10190000Y-10990000D02*
X10510000Y-11310000D01*
X10510000Y-10990000D02*
X10190000Y-11310000D01*
D11*
X10245119Y-11815024D02*
X10245119Y-11615024D01*
X10245119Y-11615024D02*
X10292738Y-11615024D01*
X10292738Y-11615024D02*
X10321310Y-11624548D01*
X10321310Y-11624548D02*
X10340357Y-11643595D01*
X10340357Y-11643595D02*
X10349881Y-11662643D01*
X10349881Y-11662643D02*
X10359405Y-11700738D01*
X10359405Y-11700738D02*
X10359405Y-11729309D01*
X10359405Y-11729309D02*
X10349881Y-11767405D01*
X10349881Y-11767405D02*
X10340357Y-11786452D01*
X10340357Y-11786452D02*
X10321310Y-11805500D01*
X10321310Y-11805500D02*
X10292738Y-11815024D01*
X10292738Y-11815024D02*
X10245119Y-11815024D01*
X10445119Y-11815024D02*
X10445119Y-11681690D01*
X10445119Y-11719786D02*
X10454643Y-11700738D01*
X10454643Y-11700738D02*
X10464167Y-11691214D01*
X10464167Y-11691214D02*
X10483214Y-11681690D01*
X10483214Y-11681690D02*
X10502262Y-11681690D01*
X10568929Y-11815024D02*
X10568929Y-11681690D01*
X10568929Y-11615024D02*
X10559405Y-11624548D01*
X10559405Y-11624548D02*
X10568929Y-11634071D01*
X10568929Y-11634071D02*
X10578452Y-11624548D01*
X10578452Y-11624548D02*
X10568929Y-11615024D01*
X10568929Y-11615024D02*
X10568929Y-11634071D01*
X10692738Y-11815024D02*
X10673690Y-11805500D01*
X10673690Y-11805500D02*
X10664167Y-11786452D01*
X10664167Y-11786452D02*
X10664167Y-11615024D01*
X10797500Y-11815024D02*
X10778452Y-11805500D01*
X10778452Y-11805500D02*
X10768929Y-11786452D01*
X10768929Y-11786452D02*
X10768929Y-11615024D01*
X11026071Y-11815024D02*
X11026071Y-11615024D01*
X11026071Y-11615024D02*
X11092738Y-11757881D01*
X11092738Y-11757881D02*
X11159405Y-11615024D01*
X11159405Y-11615024D02*
X11159405Y-11815024D01*
X11340357Y-11815024D02*
X11340357Y-11710262D01*
X11340357Y-11710262D02*
X11330833Y-11691214D01*
X11330833Y-11691214D02*
X11311786Y-11681690D01*
X11311786Y-11681690D02*
X11273690Y-11681690D01*
X11273690Y-11681690D02*
X11254643Y-11691214D01*
X11340357Y-11805500D02*
X11321309Y-11815024D01*
X11321309Y-11815024D02*
X11273690Y-11815024D01*
X11273690Y-11815024D02*
X11254643Y-11805500D01*
X11254643Y-11805500D02*
X11245119Y-11786452D01*
X11245119Y-11786452D02*
X11245119Y-11767405D01*
X11245119Y-11767405D02*
X11254643Y-11748357D01*
X11254643Y-11748357D02*
X11273690Y-11738833D01*
X11273690Y-11738833D02*
X11321309Y-11738833D01*
X11321309Y-11738833D02*
X11340357Y-11729309D01*
X11435595Y-11681690D02*
X11435595Y-11881690D01*
X11435595Y-11691214D02*
X11454643Y-11681690D01*
X11454643Y-11681690D02*
X11492738Y-11681690D01*
X11492738Y-11681690D02*
X11511786Y-11691214D01*
X11511786Y-11691214D02*
X11521309Y-11700738D01*
X11521309Y-11700738D02*
X11530833Y-11719786D01*
X11530833Y-11719786D02*
X11530833Y-11776928D01*
X11530833Y-11776928D02*
X11521309Y-11795976D01*
X11521309Y-11795976D02*
X11511786Y-11805500D01*
X11511786Y-11805500D02*
X11492738Y-11815024D01*
X11492738Y-11815024D02*
X11454643Y-11815024D01*
X11454643Y-11815024D02*
X11435595Y-11805500D01*
X11616548Y-11795976D02*
X11626071Y-11805500D01*
X11626071Y-11805500D02*
X11616548Y-11815024D01*
X11616548Y-11815024D02*
X11607024Y-11805500D01*
X11607024Y-11805500D02*
X11616548Y-11795976D01*
X11616548Y-11795976D02*
X11616548Y-11815024D01*
X11616548Y-11691214D02*
X11626071Y-11700738D01*
X11626071Y-11700738D02*
X11616548Y-11710262D01*
X11616548Y-11710262D02*
X11607024Y-11700738D01*
X11607024Y-11700738D02*
X11616548Y-11691214D01*
X11616548Y-11691214D02*
X11616548Y-11710262D01*
X9797500Y-12042500D02*
X9997500Y-12242500D01*
X9997500Y-12042500D02*
X9797500Y-12242500D01*
X10226071Y-12035024D02*
X10349881Y-12035024D01*
X10349881Y-12035024D02*
X10283214Y-12111214D01*
X10283214Y-12111214D02*
X10311786Y-12111214D01*
X10311786Y-12111214D02*
X10330833Y-12120738D01*
X10330833Y-12120738D02*
X10340357Y-12130262D01*
X10340357Y-12130262D02*
X10349881Y-12149309D01*
X10349881Y-12149309D02*
X10349881Y-12196928D01*
X10349881Y-12196928D02*
X10340357Y-12215976D01*
X10340357Y-12215976D02*
X10330833Y-12225500D01*
X10330833Y-12225500D02*
X10311786Y-12235024D01*
X10311786Y-12235024D02*
X10254643Y-12235024D01*
X10254643Y-12235024D02*
X10235595Y-12225500D01*
X10235595Y-12225500D02*
X10226071Y-12215976D01*
X10435595Y-12215976D02*
X10445119Y-12225500D01*
X10445119Y-12225500D02*
X10435595Y-12235024D01*
X10435595Y-12235024D02*
X10426071Y-12225500D01*
X10426071Y-12225500D02*
X10435595Y-12215976D01*
X10435595Y-12215976D02*
X10435595Y-12235024D01*
X10521310Y-12054071D02*
X10530833Y-12044548D01*
X10530833Y-12044548D02*
X10549881Y-12035024D01*
X10549881Y-12035024D02*
X10597500Y-12035024D01*
X10597500Y-12035024D02*
X10616548Y-12044548D01*
X10616548Y-12044548D02*
X10626071Y-12054071D01*
X10626071Y-12054071D02*
X10635595Y-12073119D01*
X10635595Y-12073119D02*
X10635595Y-12092167D01*
X10635595Y-12092167D02*
X10626071Y-12120738D01*
X10626071Y-12120738D02*
X10511786Y-12235024D01*
X10511786Y-12235024D02*
X10635595Y-12235024D01*
X10759405Y-12035024D02*
X10778452Y-12035024D01*
X10778452Y-12035024D02*
X10797500Y-12044548D01*
X10797500Y-12044548D02*
X10807024Y-12054071D01*
X10807024Y-12054071D02*
X10816548Y-12073119D01*
X10816548Y-12073119D02*
X10826071Y-12111214D01*
X10826071Y-12111214D02*
X10826071Y-12158833D01*
X10826071Y-12158833D02*
X10816548Y-12196928D01*
X10816548Y-12196928D02*
X10807024Y-12215976D01*
X10807024Y-12215976D02*
X10797500Y-12225500D01*
X10797500Y-12225500D02*
X10778452Y-12235024D01*
X10778452Y-12235024D02*
X10759405Y-12235024D01*
X10759405Y-12235024D02*
X10740357Y-12225500D01*
X10740357Y-12225500D02*
X10730833Y-12215976D01*
X10730833Y-12215976D02*
X10721310Y-12196928D01*
X10721310Y-12196928D02*
X10711786Y-12158833D01*
X10711786Y-12158833D02*
X10711786Y-12111214D01*
X10711786Y-12111214D02*
X10721310Y-12073119D01*
X10721310Y-12073119D02*
X10730833Y-12054071D01*
X10730833Y-12054071D02*
X10740357Y-12044548D01*
X10740357Y-12044548D02*
X10759405Y-12035024D01*
X10949881Y-12035024D02*
X10968929Y-12035024D01*
X10968929Y-12035024D02*
X10987976Y-12044548D01*
X10987976Y-12044548D02*
X10997500Y-12054071D01*
X10997500Y-12054071D02*
X11007024Y-12073119D01*
X11007024Y-12073119D02*
X11016548Y-12111214D01*
X11016548Y-12111214D02*
X11016548Y-12158833D01*
X11016548Y-12158833D02*
X11007024Y-12196928D01*
X11007024Y-12196928D02*
X10997500Y-12215976D01*
X10997500Y-12215976D02*
X10987976Y-12225500D01*
X10987976Y-12225500D02*
X10968929Y-12235024D01*
X10968929Y-12235024D02*
X10949881Y-12235024D01*
X10949881Y-12235024D02*
X10930833Y-12225500D01*
X10930833Y-12225500D02*
X10921310Y-12215976D01*
X10921310Y-12215976D02*
X10911786Y-12196928D01*
X10911786Y-12196928D02*
X10902262Y-12158833D01*
X10902262Y-12158833D02*
X10902262Y-12111214D01*
X10902262Y-12111214D02*
X10911786Y-12073119D01*
X10911786Y-12073119D02*
X10921310Y-12054071D01*
X10921310Y-12054071D02*
X10930833Y-12044548D01*
X10930833Y-12044548D02*
X10949881Y-12035024D01*
X11102262Y-12235024D02*
X11102262Y-12101690D01*
X11102262Y-12120738D02*
X11111786Y-12111214D01*
X11111786Y-12111214D02*
X11130833Y-12101690D01*
X11130833Y-12101690D02*
X11159405Y-12101690D01*
X11159405Y-12101690D02*
X11178452Y-12111214D01*
X11178452Y-12111214D02*
X11187976Y-12130262D01*
X11187976Y-12130262D02*
X11187976Y-12235024D01*
X11187976Y-12130262D02*
X11197500Y-12111214D01*
X11197500Y-12111214D02*
X11216548Y-12101690D01*
X11216548Y-12101690D02*
X11245119Y-12101690D01*
X11245119Y-12101690D02*
X11264167Y-12111214D01*
X11264167Y-12111214D02*
X11273690Y-12130262D01*
X11273690Y-12130262D02*
X11273690Y-12235024D01*
X11368929Y-12235024D02*
X11368929Y-12101690D01*
X11368929Y-12120738D02*
X11378452Y-12111214D01*
X11378452Y-12111214D02*
X11397500Y-12101690D01*
X11397500Y-12101690D02*
X11426071Y-12101690D01*
X11426071Y-12101690D02*
X11445119Y-12111214D01*
X11445119Y-12111214D02*
X11454643Y-12130262D01*
X11454643Y-12130262D02*
X11454643Y-12235024D01*
X11454643Y-12130262D02*
X11464167Y-12111214D01*
X11464167Y-12111214D02*
X11483214Y-12101690D01*
X11483214Y-12101690D02*
X11511786Y-12101690D01*
X11511786Y-12101690D02*
X11530833Y-12111214D01*
X11530833Y-12111214D02*
X11540357Y-12130262D01*
X11540357Y-12130262D02*
X11540357Y-12235024D01*
X11930833Y-12025500D02*
X11759405Y-12282643D01*
X12187976Y-12035024D02*
X12207024Y-12035024D01*
X12207024Y-12035024D02*
X12226072Y-12044548D01*
X12226072Y-12044548D02*
X12235595Y-12054071D01*
X12235595Y-12054071D02*
X12245119Y-12073119D01*
X12245119Y-12073119D02*
X12254643Y-12111214D01*
X12254643Y-12111214D02*
X12254643Y-12158833D01*
X12254643Y-12158833D02*
X12245119Y-12196928D01*
X12245119Y-12196928D02*
X12235595Y-12215976D01*
X12235595Y-12215976D02*
X12226072Y-12225500D01*
X12226072Y-12225500D02*
X12207024Y-12235024D01*
X12207024Y-12235024D02*
X12187976Y-12235024D01*
X12187976Y-12235024D02*
X12168929Y-12225500D01*
X12168929Y-12225500D02*
X12159405Y-12215976D01*
X12159405Y-12215976D02*
X12149881Y-12196928D01*
X12149881Y-12196928D02*
X12140357Y-12158833D01*
X12140357Y-12158833D02*
X12140357Y-12111214D01*
X12140357Y-12111214D02*
X12149881Y-12073119D01*
X12149881Y-12073119D02*
X12159405Y-12054071D01*
X12159405Y-12054071D02*
X12168929Y-12044548D01*
X12168929Y-12044548D02*
X12187976Y-12035024D01*
X12340357Y-12215976D02*
X12349881Y-12225500D01*
X12349881Y-12225500D02*
X12340357Y-12235024D01*
X12340357Y-12235024D02*
X12330833Y-12225500D01*
X12330833Y-12225500D02*
X12340357Y-12215976D01*
X12340357Y-12215976D02*
X12340357Y-12235024D01*
X12540357Y-12235024D02*
X12426072Y-12235024D01*
X12483214Y-12235024D02*
X12483214Y-12035024D01*
X12483214Y-12035024D02*
X12464167Y-12063595D01*
X12464167Y-12063595D02*
X12445119Y-12082643D01*
X12445119Y-12082643D02*
X12426072Y-12092167D01*
X12616548Y-12054071D02*
X12626072Y-12044548D01*
X12626072Y-12044548D02*
X12645119Y-12035024D01*
X12645119Y-12035024D02*
X12692738Y-12035024D01*
X12692738Y-12035024D02*
X12711786Y-12044548D01*
X12711786Y-12044548D02*
X12721310Y-12054071D01*
X12721310Y-12054071D02*
X12730833Y-12073119D01*
X12730833Y-12073119D02*
X12730833Y-12092167D01*
X12730833Y-12092167D02*
X12721310Y-12120738D01*
X12721310Y-12120738D02*
X12607024Y-12235024D01*
X12607024Y-12235024D02*
X12730833Y-12235024D01*
X12902262Y-12035024D02*
X12864167Y-12035024D01*
X12864167Y-12035024D02*
X12845119Y-12044548D01*
X12845119Y-12044548D02*
X12835595Y-12054071D01*
X12835595Y-12054071D02*
X12816548Y-12082643D01*
X12816548Y-12082643D02*
X12807024Y-12120738D01*
X12807024Y-12120738D02*
X12807024Y-12196928D01*
X12807024Y-12196928D02*
X12816548Y-12215976D01*
X12816548Y-12215976D02*
X12826072Y-12225500D01*
X12826072Y-12225500D02*
X12845119Y-12235024D01*
X12845119Y-12235024D02*
X12883214Y-12235024D01*
X12883214Y-12235024D02*
X12902262Y-12225500D01*
X12902262Y-12225500D02*
X12911786Y-12215976D01*
X12911786Y-12215976D02*
X12921310Y-12196928D01*
X12921310Y-12196928D02*
X12921310Y-12149309D01*
X12921310Y-12149309D02*
X12911786Y-12130262D01*
X12911786Y-12130262D02*
X12902262Y-12120738D01*
X12902262Y-12120738D02*
X12883214Y-12111214D01*
X12883214Y-12111214D02*
X12845119Y-12111214D01*
X12845119Y-12111214D02*
X12826072Y-12120738D01*
X12826072Y-12120738D02*
X12816548Y-12130262D01*
X12816548Y-12130262D02*
X12807024Y-12149309D01*
X13045119Y-12035024D02*
X13064167Y-12035024D01*
X13064167Y-12035024D02*
X13083214Y-12044548D01*
X13083214Y-12044548D02*
X13092738Y-12054071D01*
X13092738Y-12054071D02*
X13102262Y-12073119D01*
X13102262Y-12073119D02*
X13111786Y-12111214D01*
X13111786Y-12111214D02*
X13111786Y-12158833D01*
X13111786Y-12158833D02*
X13102262Y-12196928D01*
X13102262Y-12196928D02*
X13092738Y-12215976D01*
X13092738Y-12215976D02*
X13083214Y-12225500D01*
X13083214Y-12225500D02*
X13064167Y-12235024D01*
X13064167Y-12235024D02*
X13045119Y-12235024D01*
X13045119Y-12235024D02*
X13026072Y-12225500D01*
X13026072Y-12225500D02*
X13016548Y-12215976D01*
X13016548Y-12215976D02*
X13007024Y-12196928D01*
X13007024Y-12196928D02*
X12997500Y-12158833D01*
X12997500Y-12158833D02*
X12997500Y-12111214D01*
X12997500Y-12111214D02*
X13007024Y-12073119D01*
X13007024Y-12073119D02*
X13016548Y-12054071D01*
X13016548Y-12054071D02*
X13026072Y-12044548D01*
X13026072Y-12044548D02*
X13045119Y-12035024D01*
X13187976Y-12035024D02*
X13187976Y-12073119D01*
X13264167Y-12035024D02*
X13264167Y-12073119D01*
X13559405Y-12311214D02*
X13549881Y-12301690D01*
X13549881Y-12301690D02*
X13530834Y-12273119D01*
X13530834Y-12273119D02*
X13521310Y-12254071D01*
X13521310Y-12254071D02*
X13511786Y-12225500D01*
X13511786Y-12225500D02*
X13502262Y-12177881D01*
X13502262Y-12177881D02*
X13502262Y-12139786D01*
X13502262Y-12139786D02*
X13511786Y-12092167D01*
X13511786Y-12092167D02*
X13521310Y-12063595D01*
X13521310Y-12063595D02*
X13530834Y-12044548D01*
X13530834Y-12044548D02*
X13549881Y-12015976D01*
X13549881Y-12015976D02*
X13559405Y-12006452D01*
X13626072Y-12054071D02*
X13635595Y-12044548D01*
X13635595Y-12044548D02*
X13654643Y-12035024D01*
X13654643Y-12035024D02*
X13702262Y-12035024D01*
X13702262Y-12035024D02*
X13721310Y-12044548D01*
X13721310Y-12044548D02*
X13730834Y-12054071D01*
X13730834Y-12054071D02*
X13740357Y-12073119D01*
X13740357Y-12073119D02*
X13740357Y-12092167D01*
X13740357Y-12092167D02*
X13730834Y-12120738D01*
X13730834Y-12120738D02*
X13616548Y-12235024D01*
X13616548Y-12235024D02*
X13740357Y-12235024D01*
X13978453Y-12235024D02*
X13978453Y-12035024D01*
X14064167Y-12235024D02*
X14064167Y-12130262D01*
X14064167Y-12130262D02*
X14054643Y-12111214D01*
X14054643Y-12111214D02*
X14035596Y-12101690D01*
X14035596Y-12101690D02*
X14007024Y-12101690D01*
X14007024Y-12101690D02*
X13987976Y-12111214D01*
X13987976Y-12111214D02*
X13978453Y-12120738D01*
X14187976Y-12235024D02*
X14168929Y-12225500D01*
X14168929Y-12225500D02*
X14159405Y-12215976D01*
X14159405Y-12215976D02*
X14149881Y-12196928D01*
X14149881Y-12196928D02*
X14149881Y-12139786D01*
X14149881Y-12139786D02*
X14159405Y-12120738D01*
X14159405Y-12120738D02*
X14168929Y-12111214D01*
X14168929Y-12111214D02*
X14187976Y-12101690D01*
X14187976Y-12101690D02*
X14216548Y-12101690D01*
X14216548Y-12101690D02*
X14235596Y-12111214D01*
X14235596Y-12111214D02*
X14245119Y-12120738D01*
X14245119Y-12120738D02*
X14254643Y-12139786D01*
X14254643Y-12139786D02*
X14254643Y-12196928D01*
X14254643Y-12196928D02*
X14245119Y-12215976D01*
X14245119Y-12215976D02*
X14235596Y-12225500D01*
X14235596Y-12225500D02*
X14216548Y-12235024D01*
X14216548Y-12235024D02*
X14187976Y-12235024D01*
X14368929Y-12235024D02*
X14349881Y-12225500D01*
X14349881Y-12225500D02*
X14340357Y-12206452D01*
X14340357Y-12206452D02*
X14340357Y-12035024D01*
X14521310Y-12225500D02*
X14502262Y-12235024D01*
X14502262Y-12235024D02*
X14464167Y-12235024D01*
X14464167Y-12235024D02*
X14445119Y-12225500D01*
X14445119Y-12225500D02*
X14435596Y-12206452D01*
X14435596Y-12206452D02*
X14435596Y-12130262D01*
X14435596Y-12130262D02*
X14445119Y-12111214D01*
X14445119Y-12111214D02*
X14464167Y-12101690D01*
X14464167Y-12101690D02*
X14502262Y-12101690D01*
X14502262Y-12101690D02*
X14521310Y-12111214D01*
X14521310Y-12111214D02*
X14530834Y-12130262D01*
X14530834Y-12130262D02*
X14530834Y-12149309D01*
X14530834Y-12149309D02*
X14435596Y-12168357D01*
X14607024Y-12225500D02*
X14626072Y-12235024D01*
X14626072Y-12235024D02*
X14664167Y-12235024D01*
X14664167Y-12235024D02*
X14683215Y-12225500D01*
X14683215Y-12225500D02*
X14692738Y-12206452D01*
X14692738Y-12206452D02*
X14692738Y-12196928D01*
X14692738Y-12196928D02*
X14683215Y-12177881D01*
X14683215Y-12177881D02*
X14664167Y-12168357D01*
X14664167Y-12168357D02*
X14635596Y-12168357D01*
X14635596Y-12168357D02*
X14616548Y-12158833D01*
X14616548Y-12158833D02*
X14607024Y-12139786D01*
X14607024Y-12139786D02*
X14607024Y-12130262D01*
X14607024Y-12130262D02*
X14616548Y-12111214D01*
X14616548Y-12111214D02*
X14635596Y-12101690D01*
X14635596Y-12101690D02*
X14664167Y-12101690D01*
X14664167Y-12101690D02*
X14683215Y-12111214D01*
X14759405Y-12311214D02*
X14768929Y-12301690D01*
X14768929Y-12301690D02*
X14787977Y-12273119D01*
X14787977Y-12273119D02*
X14797500Y-12254071D01*
X14797500Y-12254071D02*
X14807024Y-12225500D01*
X14807024Y-12225500D02*
X14816548Y-12177881D01*
X14816548Y-12177881D02*
X14816548Y-12139786D01*
X14816548Y-12139786D02*
X14807024Y-12092167D01*
X14807024Y-12092167D02*
X14797500Y-12063595D01*
X14797500Y-12063595D02*
X14787977Y-12044548D01*
X14787977Y-12044548D02*
X14768929Y-12015976D01*
X14768929Y-12015976D02*
X14759405Y-12006452D01*
X15121310Y-12311214D02*
X15111786Y-12301690D01*
X15111786Y-12301690D02*
X15092738Y-12273119D01*
X15092738Y-12273119D02*
X15083215Y-12254071D01*
X15083215Y-12254071D02*
X15073691Y-12225500D01*
X15073691Y-12225500D02*
X15064167Y-12177881D01*
X15064167Y-12177881D02*
X15064167Y-12139786D01*
X15064167Y-12139786D02*
X15073691Y-12092167D01*
X15073691Y-12092167D02*
X15083215Y-12063595D01*
X15083215Y-12063595D02*
X15092738Y-12044548D01*
X15092738Y-12044548D02*
X15111786Y-12015976D01*
X15111786Y-12015976D02*
X15121310Y-12006452D01*
X15197500Y-12101690D02*
X15197500Y-12235024D01*
X15197500Y-12120738D02*
X15207024Y-12111214D01*
X15207024Y-12111214D02*
X15226072Y-12101690D01*
X15226072Y-12101690D02*
X15254643Y-12101690D01*
X15254643Y-12101690D02*
X15273691Y-12111214D01*
X15273691Y-12111214D02*
X15283215Y-12130262D01*
X15283215Y-12130262D02*
X15283215Y-12235024D01*
X15407024Y-12235024D02*
X15387977Y-12225500D01*
X15387977Y-12225500D02*
X15378453Y-12215976D01*
X15378453Y-12215976D02*
X15368929Y-12196928D01*
X15368929Y-12196928D02*
X15368929Y-12139786D01*
X15368929Y-12139786D02*
X15378453Y-12120738D01*
X15378453Y-12120738D02*
X15387977Y-12111214D01*
X15387977Y-12111214D02*
X15407024Y-12101690D01*
X15407024Y-12101690D02*
X15435596Y-12101690D01*
X15435596Y-12101690D02*
X15454643Y-12111214D01*
X15454643Y-12111214D02*
X15464167Y-12120738D01*
X15464167Y-12120738D02*
X15473691Y-12139786D01*
X15473691Y-12139786D02*
X15473691Y-12196928D01*
X15473691Y-12196928D02*
X15464167Y-12215976D01*
X15464167Y-12215976D02*
X15454643Y-12225500D01*
X15454643Y-12225500D02*
X15435596Y-12235024D01*
X15435596Y-12235024D02*
X15407024Y-12235024D01*
X15530834Y-12101690D02*
X15607024Y-12101690D01*
X15559405Y-12035024D02*
X15559405Y-12206452D01*
X15559405Y-12206452D02*
X15568929Y-12225500D01*
X15568929Y-12225500D02*
X15587977Y-12235024D01*
X15587977Y-12235024D02*
X15607024Y-12235024D01*
X15826072Y-12101690D02*
X15826072Y-12301690D01*
X15826072Y-12111214D02*
X15845119Y-12101690D01*
X15845119Y-12101690D02*
X15883215Y-12101690D01*
X15883215Y-12101690D02*
X15902262Y-12111214D01*
X15902262Y-12111214D02*
X15911786Y-12120738D01*
X15911786Y-12120738D02*
X15921310Y-12139786D01*
X15921310Y-12139786D02*
X15921310Y-12196928D01*
X15921310Y-12196928D02*
X15911786Y-12215976D01*
X15911786Y-12215976D02*
X15902262Y-12225500D01*
X15902262Y-12225500D02*
X15883215Y-12235024D01*
X15883215Y-12235024D02*
X15845119Y-12235024D01*
X15845119Y-12235024D02*
X15826072Y-12225500D01*
X16035596Y-12235024D02*
X16016548Y-12225500D01*
X16016548Y-12225500D02*
X16007024Y-12206452D01*
X16007024Y-12206452D02*
X16007024Y-12035024D01*
X16197500Y-12235024D02*
X16197500Y-12130262D01*
X16197500Y-12130262D02*
X16187977Y-12111214D01*
X16187977Y-12111214D02*
X16168929Y-12101690D01*
X16168929Y-12101690D02*
X16130834Y-12101690D01*
X16130834Y-12101690D02*
X16111786Y-12111214D01*
X16197500Y-12225500D02*
X16178453Y-12235024D01*
X16178453Y-12235024D02*
X16130834Y-12235024D01*
X16130834Y-12235024D02*
X16111786Y-12225500D01*
X16111786Y-12225500D02*
X16102262Y-12206452D01*
X16102262Y-12206452D02*
X16102262Y-12187405D01*
X16102262Y-12187405D02*
X16111786Y-12168357D01*
X16111786Y-12168357D02*
X16130834Y-12158833D01*
X16130834Y-12158833D02*
X16178453Y-12158833D01*
X16178453Y-12158833D02*
X16197500Y-12149309D01*
X16264167Y-12101690D02*
X16340358Y-12101690D01*
X16292739Y-12035024D02*
X16292739Y-12206452D01*
X16292739Y-12206452D02*
X16302262Y-12225500D01*
X16302262Y-12225500D02*
X16321310Y-12235024D01*
X16321310Y-12235024D02*
X16340358Y-12235024D01*
X16483215Y-12225500D02*
X16464167Y-12235024D01*
X16464167Y-12235024D02*
X16426072Y-12235024D01*
X16426072Y-12235024D02*
X16407024Y-12225500D01*
X16407024Y-12225500D02*
X16397500Y-12206452D01*
X16397500Y-12206452D02*
X16397500Y-12130262D01*
X16397500Y-12130262D02*
X16407024Y-12111214D01*
X16407024Y-12111214D02*
X16426072Y-12101690D01*
X16426072Y-12101690D02*
X16464167Y-12101690D01*
X16464167Y-12101690D02*
X16483215Y-12111214D01*
X16483215Y-12111214D02*
X16492739Y-12130262D01*
X16492739Y-12130262D02*
X16492739Y-12149309D01*
X16492739Y-12149309D02*
X16397500Y-12168357D01*
X16664167Y-12235024D02*
X16664167Y-12035024D01*
X16664167Y-12225500D02*
X16645120Y-12235024D01*
X16645120Y-12235024D02*
X16607024Y-12235024D01*
X16607024Y-12235024D02*
X16587977Y-12225500D01*
X16587977Y-12225500D02*
X16578453Y-12215976D01*
X16578453Y-12215976D02*
X16568929Y-12196928D01*
X16568929Y-12196928D02*
X16568929Y-12139786D01*
X16568929Y-12139786D02*
X16578453Y-12120738D01*
X16578453Y-12120738D02*
X16587977Y-12111214D01*
X16587977Y-12111214D02*
X16607024Y-12101690D01*
X16607024Y-12101690D02*
X16645120Y-12101690D01*
X16645120Y-12101690D02*
X16664167Y-12111214D01*
X16740358Y-12311214D02*
X16749881Y-12301690D01*
X16749881Y-12301690D02*
X16768929Y-12273119D01*
X16768929Y-12273119D02*
X16778453Y-12254071D01*
X16778453Y-12254071D02*
X16787977Y-12225500D01*
X16787977Y-12225500D02*
X16797501Y-12177881D01*
X16797501Y-12177881D02*
X16797501Y-12139786D01*
X16797501Y-12139786D02*
X16787977Y-12092167D01*
X16787977Y-12092167D02*
X16778453Y-12063595D01*
X16778453Y-12063595D02*
X16768929Y-12044548D01*
X16768929Y-12044548D02*
X16749881Y-12015976D01*
X16749881Y-12015976D02*
X16740358Y-12006452D01*
M02*
