M48
; DRILL file {KiCad 7.0.2} date Sat Jul  8 15:21:24 2023
; FORMAT={-:-/ absolute / metric / decimal}
; #@! TF.CreationDate,2023-07-08T15:21:24+02:00
; #@! TF.GenerationSoftware,Kicad,Pcbnew,7.0.2
; #@! TF.FileFunction,Plated,1,2,PTH
FMAT,2
METRIC
; #@! TA.AperFunction,Plated,PTH,ViaDrill
T1C0.300
; #@! TA.AperFunction,Plated,PTH,ComponentDrill
T2C0.800
; #@! TA.AperFunction,Plated,PTH,ComponentDrill
T3C0.950
; #@! TA.AperFunction,Plated,PTH,ComponentDrill
T4C1.600
%
G90
G05
T1
X117.0Y-72.0
X123.5Y-91.0
X139.5Y-81.0
X139.5Y-109.0
X149.0Y-107.0
X157.5Y-89.0
X165.0Y-92.0
X169.0Y-89.0
T2
X160.0Y-42.0
X160.0Y-44.54
X160.0Y-47.08
X160.0Y-49.62
X167.62Y-42.0
X167.62Y-44.54
X167.62Y-47.08
X167.62Y-49.62
X170.2Y-64.875
X170.2Y-67.415
X170.2Y-69.955
X170.2Y-72.495
X170.2Y-75.035
X170.2Y-77.575
X170.2Y-80.115
X177.82Y-64.875
X177.82Y-67.415
X177.82Y-69.955
X177.82Y-72.495
X177.82Y-75.035
X177.82Y-77.575
X177.82Y-80.115
T3
X107.5Y-92.5
X110.0Y-92.5
X112.5Y-92.5
X119.0Y-101.032
X121.5Y-101.032
X124.0Y-101.032
X135.0Y-112.032
X137.5Y-112.032
X140.0Y-112.032
X145.5Y-84.532
X148.0Y-84.532
X150.5Y-84.532
X178.5Y-87.468
X179.0Y-54.467
X181.0Y-87.468
X181.5Y-54.467
X183.5Y-87.468
X184.0Y-54.467
X187.468Y-100.5
X187.468Y-103.0
X187.468Y-105.5
X190.468Y-44.5
X190.468Y-47.0
X190.468Y-49.5
X190.968Y-56.5
X190.968Y-59.0
X190.968Y-61.5
X196.032Y-74.0
X196.032Y-76.5
X196.032Y-79.0
T4
X113.0Y-43.0
X119.0Y-43.0
X126.0Y-43.0
X132.0Y-43.0
X140.0Y-43.0
X146.0Y-43.0
T0
M30
