%TF.GenerationSoftware,KiCad,Pcbnew,7.0.1*%
%TF.CreationDate,2023-05-11T17:19:37+02:00*%
%TF.ProjectId,midi-interface,6d696469-2d69-46e7-9465-72666163652e,rev?*%
%TF.SameCoordinates,Original*%
%TF.FileFunction,Drillmap*%
%TF.FilePolarity,Positive*%
%FSLAX45Y45*%
G04 Gerber Fmt 4.5, Leading zero omitted, Abs format (unit mm)*
G04 Created by KiCad (PCBNEW 7.0.1) date 2023-05-11 17:19:37*
%MOMM*%
%LPD*%
G01*
G04 APERTURE LIST*
%ADD10C,0.100000*%
%ADD11C,0.200000*%
G04 APERTURE END LIST*
D10*
X9144000Y-6451600D02*
X14935200Y-6451600D01*
X14935200Y-14782800D01*
X9144000Y-14782800D01*
X9144000Y-6451600D01*
D11*
X9386619Y-15100324D02*
X9386619Y-14900324D01*
X9386619Y-14900324D02*
X9434238Y-14900324D01*
X9434238Y-14900324D02*
X9462810Y-14909848D01*
X9462810Y-14909848D02*
X9481857Y-14928895D01*
X9481857Y-14928895D02*
X9491381Y-14947943D01*
X9491381Y-14947943D02*
X9500905Y-14986038D01*
X9500905Y-14986038D02*
X9500905Y-15014609D01*
X9500905Y-15014609D02*
X9491381Y-15052705D01*
X9491381Y-15052705D02*
X9481857Y-15071752D01*
X9481857Y-15071752D02*
X9462810Y-15090800D01*
X9462810Y-15090800D02*
X9434238Y-15100324D01*
X9434238Y-15100324D02*
X9386619Y-15100324D01*
X9586619Y-15100324D02*
X9586619Y-14966990D01*
X9586619Y-15005086D02*
X9596143Y-14986038D01*
X9596143Y-14986038D02*
X9605667Y-14976514D01*
X9605667Y-14976514D02*
X9624714Y-14966990D01*
X9624714Y-14966990D02*
X9643762Y-14966990D01*
X9710429Y-15100324D02*
X9710429Y-14966990D01*
X9710429Y-14900324D02*
X9700905Y-14909848D01*
X9700905Y-14909848D02*
X9710429Y-14919371D01*
X9710429Y-14919371D02*
X9719952Y-14909848D01*
X9719952Y-14909848D02*
X9710429Y-14900324D01*
X9710429Y-14900324D02*
X9710429Y-14919371D01*
X9834238Y-15100324D02*
X9815190Y-15090800D01*
X9815190Y-15090800D02*
X9805667Y-15071752D01*
X9805667Y-15071752D02*
X9805667Y-14900324D01*
X9939000Y-15100324D02*
X9919952Y-15090800D01*
X9919952Y-15090800D02*
X9910429Y-15071752D01*
X9910429Y-15071752D02*
X9910429Y-14900324D01*
X10167571Y-15100324D02*
X10167571Y-14900324D01*
X10167571Y-14900324D02*
X10234238Y-15043181D01*
X10234238Y-15043181D02*
X10300905Y-14900324D01*
X10300905Y-14900324D02*
X10300905Y-15100324D01*
X10481857Y-15100324D02*
X10481857Y-14995562D01*
X10481857Y-14995562D02*
X10472333Y-14976514D01*
X10472333Y-14976514D02*
X10453286Y-14966990D01*
X10453286Y-14966990D02*
X10415190Y-14966990D01*
X10415190Y-14966990D02*
X10396143Y-14976514D01*
X10481857Y-15090800D02*
X10462810Y-15100324D01*
X10462810Y-15100324D02*
X10415190Y-15100324D01*
X10415190Y-15100324D02*
X10396143Y-15090800D01*
X10396143Y-15090800D02*
X10386619Y-15071752D01*
X10386619Y-15071752D02*
X10386619Y-15052705D01*
X10386619Y-15052705D02*
X10396143Y-15033657D01*
X10396143Y-15033657D02*
X10415190Y-15024133D01*
X10415190Y-15024133D02*
X10462810Y-15024133D01*
X10462810Y-15024133D02*
X10481857Y-15014609D01*
X10577095Y-14966990D02*
X10577095Y-15166990D01*
X10577095Y-14976514D02*
X10596143Y-14966990D01*
X10596143Y-14966990D02*
X10634238Y-14966990D01*
X10634238Y-14966990D02*
X10653286Y-14976514D01*
X10653286Y-14976514D02*
X10662810Y-14986038D01*
X10662810Y-14986038D02*
X10672333Y-15005086D01*
X10672333Y-15005086D02*
X10672333Y-15062228D01*
X10672333Y-15062228D02*
X10662810Y-15081276D01*
X10662810Y-15081276D02*
X10653286Y-15090800D01*
X10653286Y-15090800D02*
X10634238Y-15100324D01*
X10634238Y-15100324D02*
X10596143Y-15100324D01*
X10596143Y-15100324D02*
X10577095Y-15090800D01*
X10758048Y-15081276D02*
X10767571Y-15090800D01*
X10767571Y-15090800D02*
X10758048Y-15100324D01*
X10758048Y-15100324D02*
X10748524Y-15090800D01*
X10748524Y-15090800D02*
X10758048Y-15081276D01*
X10758048Y-15081276D02*
X10758048Y-15100324D01*
X10758048Y-14976514D02*
X10767571Y-14986038D01*
X10767571Y-14986038D02*
X10758048Y-14995562D01*
X10758048Y-14995562D02*
X10748524Y-14986038D01*
X10748524Y-14986038D02*
X10758048Y-14976514D01*
X10758048Y-14976514D02*
X10758048Y-14995562D01*
M02*
