M48
; DRILL file {KiCad 7.0.1} date Do 11 Mai 2023 17:19:39 CEST
; FORMAT={-:-/ absolute / metric / decimal}
; #@! TF.CreationDate,2023-05-11T17:19:39+02:00
; #@! TF.GenerationSoftware,Kicad,Pcbnew,7.0.1
; #@! TF.FileFunction,Plated,1,2,PTH
FMAT,2
METRIC
; #@! TA.AperFunction,Plated,PTH,ViaDrill
T1C0.400
; #@! TA.AperFunction,Plated,PTH,ComponentDrill
T2C0.800
; #@! TA.AperFunction,Plated,PTH,ComponentDrill
T3C1.000
; #@! TA.AperFunction,Plated,PTH,ComponentDrill
T4C1.016
; #@! TA.AperFunction,Plated,PTH,ComponentDrill
T5C1.100
; #@! TA.AperFunction,Plated,PTH,ComponentDrill
T6C1.220
; #@! TA.AperFunction,Plated,PTH,ComponentDrill
T7C1.420
; #@! TA.AperFunction,Plated,PTH,ComponentDrill
T8C1.430
%
G90
G05
T1
X123.952Y-73.152
T2
X130.556Y-69.332
X130.556Y-76.952
X133.096Y-69.332
X133.096Y-76.952
X135.636Y-69.332
X135.636Y-76.952
X138.176Y-69.332
X138.176Y-76.952
T3
X96.012Y-79.248
X97.028Y-71.12
X97.028Y-73.66
X98.552Y-79.248
X99.568Y-71.12
X99.568Y-73.66
X102.108Y-71.12
X102.108Y-73.66
X104.648Y-71.12
X104.648Y-73.66
X107.188Y-71.12
X107.188Y-73.66
X109.728Y-71.12
X109.728Y-73.66
X112.268Y-71.12
X112.268Y-73.66
X114.808Y-71.12
X114.808Y-73.66
X137.16Y-66.548
X139.7Y-66.548
X142.24Y-66.548
X144.78Y-66.548
X147.32Y-66.548
T4
X96.012Y-83.82
X96.012Y-86.36
X96.012Y-88.9
X96.012Y-91.44
X96.012Y-93.98
X96.012Y-96.52
X96.012Y-99.06
X96.012Y-101.6
X96.012Y-105.664
X96.012Y-108.204
X96.012Y-110.744
X96.012Y-113.284
X96.012Y-115.824
X96.012Y-118.364
X96.012Y-120.904
X96.012Y-123.444
X96.012Y-125.984
X96.012Y-128.524
X144.272Y-83.82
X144.272Y-86.36
X144.272Y-88.9
X144.272Y-91.44
X144.272Y-93.98
X144.272Y-96.52
X144.272Y-101.6
X144.272Y-104.14
X144.272Y-106.68
X144.272Y-109.22
X144.272Y-111.76
X144.272Y-114.3
X144.272Y-116.84
X144.272Y-119.38
T5
X146.812Y-72.354
X146.812Y-77.434
T6
X104.14Y-100.36
X104.14Y-116.84
X104.14Y-133.32
X114.808Y-100.36
X114.808Y-116.84
X114.808Y-133.32
X125.476Y-100.36
X125.476Y-116.84
X125.476Y-133.32
X136.144Y-100.36
X136.144Y-116.84
X136.144Y-133.32
T7
X104.14Y-103.46
X104.14Y-119.94
X104.14Y-136.42
X114.808Y-103.46
X114.808Y-119.94
X114.808Y-136.42
X125.476Y-103.46
X125.476Y-119.94
X125.476Y-136.42
X136.144Y-103.46
X136.144Y-119.94
X136.144Y-136.42
T8
X104.14Y-111.76
X104.14Y-128.24
X104.14Y-144.72
X114.808Y-111.76
X114.808Y-128.24
X114.808Y-144.72
X125.476Y-111.76
X125.476Y-128.24
X125.476Y-144.72
X136.144Y-111.76
X136.144Y-128.24
X136.144Y-144.72
T0
M30
