G04 #@! TF.GenerationSoftware,KiCad,Pcbnew,7.0.1*
G04 #@! TF.CreationDate,2023-05-11T17:19:09+02:00*
G04 #@! TF.ProjectId,midi-interface,6d696469-2d69-46e7-9465-72666163652e,rev?*
G04 #@! TF.SameCoordinates,Original*
G04 #@! TF.FileFunction,Copper,L1,Top*
G04 #@! TF.FilePolarity,Positive*
%FSLAX46Y46*%
G04 Gerber Fmt 4.6, Leading zero omitted, Abs format (unit mm)*
G04 Created by KiCad (PCBNEW 7.0.1) date 2023-05-11 17:19:09*
%MOMM*%
%LPD*%
G01*
G04 APERTURE LIST*
G04 Aperture macros list*
%AMRoundRect*
0 Rectangle with rounded corners*
0 $1 Rounding radius*
0 $2 $3 $4 $5 $6 $7 $8 $9 X,Y pos of 4 corners*
0 Add a 4 corners polygon primitive as box body*
4,1,4,$2,$3,$4,$5,$6,$7,$8,$9,$2,$3,0*
0 Add four circle primitives for the rounded corners*
1,1,$1+$1,$2,$3*
1,1,$1+$1,$4,$5*
1,1,$1+$1,$6,$7*
1,1,$1+$1,$8,$9*
0 Add four rect primitives between the rounded corners*
20,1,$1+$1,$2,$3,$4,$5,0*
20,1,$1+$1,$4,$5,$6,$7,0*
20,1,$1+$1,$6,$7,$8,$9,0*
20,1,$1+$1,$8,$9,$2,$3,0*%
G04 Aperture macros list end*
G04 #@! TA.AperFunction,ComponentPad*
%ADD10R,2.200000X2.200000*%
G04 #@! TD*
G04 #@! TA.AperFunction,ComponentPad*
%ADD11O,2.200000X2.200000*%
G04 #@! TD*
G04 #@! TA.AperFunction,ComponentPad*
%ADD12O,1.600000X1.600000*%
G04 #@! TD*
G04 #@! TA.AperFunction,ComponentPad*
%ADD13R,1.600000X1.600000*%
G04 #@! TD*
G04 #@! TA.AperFunction,ComponentPad*
%ADD14R,1.930000X1.830000*%
G04 #@! TD*
G04 #@! TA.AperFunction,ComponentPad*
%ADD15C,2.130000*%
G04 #@! TD*
G04 #@! TA.AperFunction,ComponentPad*
%ADD16R,1.700000X1.700000*%
G04 #@! TD*
G04 #@! TA.AperFunction,ComponentPad*
%ADD17O,1.700000X1.700000*%
G04 #@! TD*
G04 #@! TA.AperFunction,ComponentPad*
%ADD18O,1.727200X1.727200*%
G04 #@! TD*
G04 #@! TA.AperFunction,ComponentPad*
%ADD19R,1.727200X1.727200*%
G04 #@! TD*
G04 #@! TA.AperFunction,ComponentPad*
%ADD20RoundRect,0.250000X-0.600000X0.600000X-0.600000X-0.600000X0.600000X-0.600000X0.600000X0.600000X0*%
G04 #@! TD*
G04 #@! TA.AperFunction,ComponentPad*
%ADD21C,1.700000*%
G04 #@! TD*
G04 #@! TA.AperFunction,ViaPad*
%ADD22C,0.800000*%
G04 #@! TD*
G04 #@! TA.AperFunction,Conductor*
%ADD23C,0.250000*%
G04 #@! TD*
G04 APERTURE END LIST*
D10*
X146812000Y-72353818D03*
D11*
X146812000Y-77433818D03*
D12*
X130556000Y-69332000D03*
X133096000Y-69332000D03*
X135636000Y-69332000D03*
X138176000Y-69332000D03*
X138176000Y-76952000D03*
X135636000Y-76952000D03*
X133096000Y-76952000D03*
D13*
X130556000Y-76952000D03*
D14*
X114808000Y-116840000D03*
D15*
X114808000Y-128240000D03*
X114808000Y-119940000D03*
D14*
X125476000Y-116840000D03*
D15*
X125476000Y-128240000D03*
X125476000Y-119940000D03*
D16*
X98552000Y-79248000D03*
D17*
X96012000Y-79248000D03*
D14*
X104140000Y-116840000D03*
D15*
X104140000Y-128240000D03*
X104140000Y-119940000D03*
D14*
X125476000Y-133320000D03*
D15*
X125476000Y-144720000D03*
X125476000Y-136420000D03*
D14*
X104140000Y-100360000D03*
D15*
X104140000Y-111760000D03*
X104140000Y-103460000D03*
D14*
X136144000Y-133320000D03*
D15*
X136144000Y-144720000D03*
X136144000Y-136420000D03*
D14*
X125476000Y-100360000D03*
D15*
X125476000Y-111760000D03*
X125476000Y-103460000D03*
D14*
X136144000Y-100360000D03*
D15*
X136144000Y-111760000D03*
X136144000Y-103460000D03*
D14*
X114808000Y-100360000D03*
D15*
X114808000Y-111760000D03*
X114808000Y-103460000D03*
D14*
X104140000Y-133320000D03*
D15*
X104140000Y-144720000D03*
X104140000Y-136420000D03*
D14*
X136144000Y-116840000D03*
D15*
X136144000Y-128240000D03*
X136144000Y-119940000D03*
D14*
X114808000Y-133320000D03*
D15*
X114808000Y-144720000D03*
X114808000Y-136420000D03*
D18*
X144272000Y-119380000D03*
X144272000Y-111760000D03*
X144272000Y-109220000D03*
X144272000Y-96520000D03*
X144272000Y-93980000D03*
X144272000Y-91440000D03*
X144272000Y-88900000D03*
X144272000Y-86360000D03*
X144272000Y-83820000D03*
X96012000Y-123444000D03*
X96012000Y-83820000D03*
X96012000Y-86360000D03*
X96012000Y-88900000D03*
X96012000Y-91440000D03*
X96012000Y-93980000D03*
X96012000Y-96520000D03*
X96012000Y-99060000D03*
X96012000Y-101600000D03*
X96012000Y-105664000D03*
X96012000Y-108204000D03*
X96012000Y-110744000D03*
X96012000Y-113284000D03*
X96012000Y-115824000D03*
X96012000Y-118364000D03*
D19*
X96012000Y-120904000D03*
X144272000Y-106680000D03*
X144272000Y-104140000D03*
D18*
X144272000Y-116840000D03*
X144272000Y-114300000D03*
X96012000Y-128524000D03*
X96012000Y-125984000D03*
X144272000Y-101600000D03*
D20*
X97028000Y-71120000D03*
D21*
X97028000Y-73660000D03*
X99568000Y-71120000D03*
X99568000Y-73660000D03*
X102108000Y-71120000D03*
X102108000Y-73660000D03*
X104648000Y-71120000D03*
X104648000Y-73660000D03*
X107188000Y-71120000D03*
X107188000Y-73660000D03*
X109728000Y-71120000D03*
X109728000Y-73660000D03*
X112268000Y-71120000D03*
X112268000Y-73660000D03*
X114808000Y-71120000D03*
X114808000Y-73660000D03*
D16*
X137160000Y-66548000D03*
D17*
X139700000Y-66548000D03*
X142240000Y-66548000D03*
X144780000Y-66548000D03*
X147320000Y-66548000D03*
D22*
X123952000Y-73152000D03*
D23*
X123952000Y-73152000D02*
X118364000Y-78740000D01*
X118364000Y-78740000D02*
X99060000Y-78740000D01*
X99060000Y-78740000D02*
X98552000Y-79248000D01*
G04 #@! TA.AperFunction,Conductor*
G36*
X149289500Y-64533113D02*
G01*
X149334887Y-64578500D01*
X149351500Y-64640500D01*
X149351500Y-147702903D01*
X149334705Y-147765217D01*
X149288871Y-147810651D01*
X149226412Y-147826898D01*
X91563412Y-147321082D01*
X91501873Y-147304110D01*
X91456932Y-147258773D01*
X91440500Y-147197087D01*
X91440500Y-144719999D01*
X102569659Y-144719999D01*
X102588993Y-144965656D01*
X102646516Y-145205261D01*
X102693666Y-145319091D01*
X102740816Y-145432920D01*
X102869567Y-145643023D01*
X103029601Y-145830399D01*
X103216977Y-145990433D01*
X103427080Y-146119184D01*
X103654738Y-146213483D01*
X103894345Y-146271007D01*
X104140000Y-146290341D01*
X104385655Y-146271007D01*
X104625262Y-146213483D01*
X104852920Y-146119184D01*
X105063023Y-145990433D01*
X105250399Y-145830399D01*
X105410433Y-145643023D01*
X105539184Y-145432920D01*
X105633483Y-145205262D01*
X105691007Y-144965655D01*
X105710341Y-144720000D01*
X105710341Y-144719999D01*
X113237659Y-144719999D01*
X113256993Y-144965656D01*
X113314516Y-145205261D01*
X113361666Y-145319091D01*
X113408816Y-145432920D01*
X113537567Y-145643023D01*
X113697601Y-145830399D01*
X113884977Y-145990433D01*
X114095080Y-146119184D01*
X114322738Y-146213483D01*
X114562345Y-146271007D01*
X114808000Y-146290341D01*
X115053655Y-146271007D01*
X115293262Y-146213483D01*
X115520920Y-146119184D01*
X115731023Y-145990433D01*
X115918399Y-145830399D01*
X116078433Y-145643023D01*
X116207184Y-145432920D01*
X116301483Y-145205262D01*
X116359007Y-144965655D01*
X116378341Y-144720000D01*
X116378341Y-144719999D01*
X123905659Y-144719999D01*
X123924993Y-144965656D01*
X123982516Y-145205261D01*
X124029666Y-145319091D01*
X124076816Y-145432920D01*
X124205567Y-145643023D01*
X124365601Y-145830399D01*
X124552977Y-145990433D01*
X124763080Y-146119184D01*
X124990738Y-146213483D01*
X125230345Y-146271007D01*
X125476000Y-146290341D01*
X125721655Y-146271007D01*
X125961262Y-146213483D01*
X126188920Y-146119184D01*
X126399023Y-145990433D01*
X126586399Y-145830399D01*
X126746433Y-145643023D01*
X126875184Y-145432920D01*
X126969483Y-145205262D01*
X127027007Y-144965655D01*
X127046341Y-144720000D01*
X127046341Y-144719999D01*
X134573659Y-144719999D01*
X134592993Y-144965656D01*
X134650516Y-145205261D01*
X134697666Y-145319091D01*
X134744816Y-145432920D01*
X134873567Y-145643023D01*
X135033601Y-145830399D01*
X135220977Y-145990433D01*
X135431080Y-146119184D01*
X135658738Y-146213483D01*
X135898345Y-146271007D01*
X136144000Y-146290341D01*
X136389655Y-146271007D01*
X136629262Y-146213483D01*
X136856920Y-146119184D01*
X137067023Y-145990433D01*
X137254399Y-145830399D01*
X137414433Y-145643023D01*
X137543184Y-145432920D01*
X137637483Y-145205262D01*
X137695007Y-144965655D01*
X137714341Y-144720000D01*
X137695007Y-144474345D01*
X137637483Y-144234738D01*
X137543184Y-144007080D01*
X137414433Y-143796977D01*
X137254399Y-143609601D01*
X137067023Y-143449567D01*
X136856920Y-143320816D01*
X136743091Y-143273666D01*
X136629261Y-143226516D01*
X136389656Y-143168993D01*
X136144000Y-143149659D01*
X135898343Y-143168993D01*
X135658738Y-143226516D01*
X135431078Y-143320817D01*
X135220978Y-143449566D01*
X135033601Y-143609601D01*
X134873566Y-143796978D01*
X134744817Y-144007078D01*
X134650516Y-144234738D01*
X134592993Y-144474343D01*
X134573659Y-144719999D01*
X127046341Y-144719999D01*
X127027007Y-144474345D01*
X126969483Y-144234738D01*
X126875184Y-144007080D01*
X126746433Y-143796977D01*
X126586399Y-143609601D01*
X126399023Y-143449567D01*
X126188920Y-143320816D01*
X126075091Y-143273666D01*
X125961261Y-143226516D01*
X125721656Y-143168993D01*
X125476000Y-143149659D01*
X125230343Y-143168993D01*
X124990738Y-143226516D01*
X124763078Y-143320817D01*
X124552978Y-143449566D01*
X124365601Y-143609601D01*
X124205566Y-143796978D01*
X124076817Y-144007078D01*
X123982516Y-144234738D01*
X123924993Y-144474343D01*
X123905659Y-144719999D01*
X116378341Y-144719999D01*
X116359007Y-144474345D01*
X116301483Y-144234738D01*
X116207184Y-144007080D01*
X116078433Y-143796977D01*
X115918399Y-143609601D01*
X115731023Y-143449567D01*
X115520920Y-143320816D01*
X115407091Y-143273666D01*
X115293261Y-143226516D01*
X115053656Y-143168993D01*
X114808000Y-143149659D01*
X114562343Y-143168993D01*
X114322738Y-143226516D01*
X114095078Y-143320817D01*
X113884978Y-143449566D01*
X113697601Y-143609601D01*
X113537566Y-143796978D01*
X113408817Y-144007078D01*
X113314516Y-144234738D01*
X113256993Y-144474343D01*
X113237659Y-144719999D01*
X105710341Y-144719999D01*
X105691007Y-144474345D01*
X105633483Y-144234738D01*
X105539184Y-144007080D01*
X105410433Y-143796977D01*
X105250399Y-143609601D01*
X105063023Y-143449567D01*
X104852920Y-143320816D01*
X104739091Y-143273666D01*
X104625261Y-143226516D01*
X104385656Y-143168993D01*
X104140000Y-143149659D01*
X103894343Y-143168993D01*
X103654738Y-143226516D01*
X103427078Y-143320817D01*
X103216978Y-143449566D01*
X103029601Y-143609601D01*
X102869566Y-143796978D01*
X102740817Y-144007078D01*
X102646516Y-144234738D01*
X102588993Y-144474343D01*
X102569659Y-144719999D01*
X91440500Y-144719999D01*
X91440500Y-139763228D01*
X102635308Y-139763228D01*
X102649506Y-140009474D01*
X102703732Y-140250094D01*
X102703733Y-140250098D01*
X102703734Y-140250099D01*
X102796532Y-140478634D01*
X102925411Y-140688945D01*
X103086908Y-140875382D01*
X103276687Y-141032939D01*
X103489650Y-141157385D01*
X103489651Y-141157385D01*
X103489654Y-141157387D01*
X103720073Y-141245375D01*
X103720074Y-141245375D01*
X103720079Y-141245377D01*
X103961785Y-141294553D01*
X104208278Y-141303592D01*
X104452936Y-141272250D01*
X104689191Y-141201370D01*
X104910697Y-141092856D01*
X105111505Y-140949621D01*
X105286223Y-140775512D01*
X105430158Y-140575205D01*
X105539445Y-140354079D01*
X105611149Y-140118074D01*
X105625447Y-140009475D01*
X105643344Y-139873528D01*
X105643425Y-139870179D01*
X105645141Y-139800000D01*
X105642118Y-139763228D01*
X113303308Y-139763228D01*
X113317506Y-140009474D01*
X113371732Y-140250094D01*
X113371733Y-140250098D01*
X113371734Y-140250099D01*
X113464532Y-140478634D01*
X113593411Y-140688945D01*
X113754908Y-140875382D01*
X113944687Y-141032939D01*
X114157650Y-141157385D01*
X114157651Y-141157385D01*
X114157654Y-141157387D01*
X114388073Y-141245375D01*
X114388074Y-141245375D01*
X114388079Y-141245377D01*
X114629785Y-141294553D01*
X114876278Y-141303592D01*
X115120936Y-141272250D01*
X115357191Y-141201370D01*
X115578697Y-141092856D01*
X115779505Y-140949621D01*
X115954223Y-140775512D01*
X116098158Y-140575205D01*
X116207445Y-140354079D01*
X116279149Y-140118074D01*
X116293447Y-140009475D01*
X116311344Y-139873528D01*
X116311425Y-139870179D01*
X116313141Y-139800000D01*
X116310118Y-139763228D01*
X123971308Y-139763228D01*
X123985506Y-140009474D01*
X124039732Y-140250094D01*
X124039733Y-140250098D01*
X124039734Y-140250099D01*
X124132532Y-140478634D01*
X124261411Y-140688945D01*
X124422908Y-140875382D01*
X124612687Y-141032939D01*
X124825650Y-141157385D01*
X124825651Y-141157385D01*
X124825654Y-141157387D01*
X125056073Y-141245375D01*
X125056074Y-141245375D01*
X125056079Y-141245377D01*
X125297785Y-141294553D01*
X125544278Y-141303592D01*
X125788936Y-141272250D01*
X126025191Y-141201370D01*
X126246697Y-141092856D01*
X126447505Y-140949621D01*
X126622223Y-140775512D01*
X126766158Y-140575205D01*
X126875445Y-140354079D01*
X126947149Y-140118074D01*
X126961447Y-140009475D01*
X126979344Y-139873528D01*
X126979425Y-139870179D01*
X126981141Y-139800000D01*
X126978118Y-139763228D01*
X134639308Y-139763228D01*
X134653506Y-140009474D01*
X134707732Y-140250094D01*
X134707733Y-140250098D01*
X134707734Y-140250099D01*
X134800532Y-140478634D01*
X134929411Y-140688945D01*
X135090908Y-140875382D01*
X135280687Y-141032939D01*
X135493650Y-141157385D01*
X135493651Y-141157385D01*
X135493654Y-141157387D01*
X135724073Y-141245375D01*
X135724074Y-141245375D01*
X135724079Y-141245377D01*
X135965785Y-141294553D01*
X136212278Y-141303592D01*
X136456936Y-141272250D01*
X136693191Y-141201370D01*
X136914697Y-141092856D01*
X137115505Y-140949621D01*
X137290223Y-140775512D01*
X137434158Y-140575205D01*
X137543445Y-140354079D01*
X137615149Y-140118074D01*
X137629447Y-140009475D01*
X137647344Y-139873528D01*
X137647425Y-139870179D01*
X137649141Y-139800000D01*
X137628930Y-139554171D01*
X137628930Y-139554169D01*
X137568841Y-139314943D01*
X137470487Y-139088747D01*
X137470486Y-139088744D01*
X137336508Y-138881645D01*
X137170504Y-138699210D01*
X136976932Y-138546336D01*
X136760992Y-138427131D01*
X136704299Y-138407055D01*
X136528480Y-138344792D01*
X136285650Y-138301539D01*
X136162326Y-138300031D01*
X136039006Y-138298525D01*
X136039003Y-138298525D01*
X135795188Y-138335834D01*
X135560732Y-138412466D01*
X135341947Y-138526359D01*
X135144695Y-138674458D01*
X134974286Y-138852783D01*
X134835288Y-139056547D01*
X134731435Y-139280276D01*
X134665518Y-139517963D01*
X134639308Y-139763228D01*
X126978118Y-139763228D01*
X126960930Y-139554171D01*
X126960930Y-139554169D01*
X126900841Y-139314943D01*
X126802487Y-139088747D01*
X126802486Y-139088744D01*
X126668508Y-138881645D01*
X126502504Y-138699210D01*
X126308932Y-138546336D01*
X126092992Y-138427131D01*
X126036299Y-138407055D01*
X125860480Y-138344792D01*
X125617650Y-138301539D01*
X125494326Y-138300031D01*
X125371006Y-138298525D01*
X125371003Y-138298525D01*
X125127188Y-138335834D01*
X124892732Y-138412466D01*
X124673947Y-138526359D01*
X124476695Y-138674458D01*
X124306286Y-138852783D01*
X124167288Y-139056547D01*
X124063435Y-139280276D01*
X123997518Y-139517963D01*
X123971308Y-139763228D01*
X116310118Y-139763228D01*
X116292930Y-139554171D01*
X116292930Y-139554169D01*
X116232841Y-139314943D01*
X116134487Y-139088747D01*
X116134486Y-139088744D01*
X116000508Y-138881645D01*
X115834504Y-138699210D01*
X115640932Y-138546336D01*
X115424992Y-138427131D01*
X115368299Y-138407055D01*
X115192480Y-138344792D01*
X114949650Y-138301539D01*
X114826326Y-138300031D01*
X114703006Y-138298525D01*
X114703003Y-138298525D01*
X114459188Y-138335834D01*
X114224732Y-138412466D01*
X114005947Y-138526359D01*
X113808695Y-138674458D01*
X113638286Y-138852783D01*
X113499288Y-139056547D01*
X113395435Y-139280276D01*
X113329518Y-139517963D01*
X113303308Y-139763228D01*
X105642118Y-139763228D01*
X105624930Y-139554171D01*
X105624930Y-139554169D01*
X105564841Y-139314943D01*
X105466487Y-139088747D01*
X105466486Y-139088744D01*
X105332508Y-138881645D01*
X105166504Y-138699210D01*
X104972932Y-138546336D01*
X104756992Y-138427131D01*
X104700299Y-138407055D01*
X104524480Y-138344792D01*
X104281650Y-138301539D01*
X104158326Y-138300031D01*
X104035006Y-138298525D01*
X104035003Y-138298525D01*
X103791188Y-138335834D01*
X103556732Y-138412466D01*
X103337947Y-138526359D01*
X103140695Y-138674458D01*
X102970286Y-138852783D01*
X102831288Y-139056547D01*
X102727435Y-139280276D01*
X102661518Y-139517963D01*
X102635308Y-139763228D01*
X91440500Y-139763228D01*
X91440500Y-136420000D01*
X102569659Y-136420000D01*
X102588993Y-136665656D01*
X102646516Y-136905261D01*
X102693666Y-137019090D01*
X102740816Y-137132920D01*
X102869567Y-137343023D01*
X103029601Y-137530399D01*
X103216977Y-137690433D01*
X103427080Y-137819184D01*
X103654738Y-137913483D01*
X103894345Y-137971007D01*
X104140000Y-137990341D01*
X104385655Y-137971007D01*
X104625262Y-137913483D01*
X104852920Y-137819184D01*
X105063023Y-137690433D01*
X105250399Y-137530399D01*
X105410433Y-137343023D01*
X105539184Y-137132920D01*
X105633483Y-136905262D01*
X105691007Y-136665655D01*
X105710341Y-136420000D01*
X113237659Y-136420000D01*
X113256993Y-136665656D01*
X113314516Y-136905261D01*
X113361666Y-137019090D01*
X113408816Y-137132920D01*
X113537567Y-137343023D01*
X113697601Y-137530399D01*
X113884977Y-137690433D01*
X114095080Y-137819184D01*
X114322738Y-137913483D01*
X114562345Y-137971007D01*
X114808000Y-137990341D01*
X115053655Y-137971007D01*
X115293262Y-137913483D01*
X115520920Y-137819184D01*
X115731023Y-137690433D01*
X115918399Y-137530399D01*
X116078433Y-137343023D01*
X116207184Y-137132920D01*
X116301483Y-136905262D01*
X116359007Y-136665655D01*
X116378341Y-136420000D01*
X123905659Y-136420000D01*
X123924993Y-136665656D01*
X123982516Y-136905261D01*
X124029666Y-137019090D01*
X124076816Y-137132920D01*
X124205567Y-137343023D01*
X124365601Y-137530399D01*
X124552977Y-137690433D01*
X124763080Y-137819184D01*
X124990738Y-137913483D01*
X125230345Y-137971007D01*
X125476000Y-137990341D01*
X125721655Y-137971007D01*
X125961262Y-137913483D01*
X126188920Y-137819184D01*
X126399023Y-137690433D01*
X126586399Y-137530399D01*
X126746433Y-137343023D01*
X126875184Y-137132920D01*
X126969483Y-136905262D01*
X127027007Y-136665655D01*
X127046341Y-136420000D01*
X134573659Y-136420000D01*
X134592993Y-136665656D01*
X134650516Y-136905261D01*
X134697666Y-137019090D01*
X134744816Y-137132920D01*
X134873567Y-137343023D01*
X135033601Y-137530399D01*
X135220977Y-137690433D01*
X135431080Y-137819184D01*
X135658738Y-137913483D01*
X135898345Y-137971007D01*
X136144000Y-137990341D01*
X136389655Y-137971007D01*
X136629262Y-137913483D01*
X136856920Y-137819184D01*
X137067023Y-137690433D01*
X137254399Y-137530399D01*
X137414433Y-137343023D01*
X137543184Y-137132920D01*
X137637483Y-136905262D01*
X137695007Y-136665655D01*
X137714341Y-136420000D01*
X137695007Y-136174345D01*
X137637483Y-135934738D01*
X137543184Y-135707080D01*
X137414433Y-135496977D01*
X137254399Y-135309601D01*
X137067023Y-135149567D01*
X136856920Y-135020816D01*
X136742835Y-134973560D01*
X136689971Y-134931885D01*
X136666671Y-134868729D01*
X136679804Y-134802705D01*
X136725499Y-134753273D01*
X136790289Y-134735000D01*
X137156824Y-134735000D01*
X137216375Y-134728597D01*
X137351089Y-134678352D01*
X137466188Y-134592188D01*
X137552352Y-134477089D01*
X137602597Y-134342375D01*
X137609000Y-134282824D01*
X137609000Y-133570000D01*
X134679000Y-133570000D01*
X134679000Y-134282824D01*
X134685402Y-134342375D01*
X134735647Y-134477089D01*
X134821811Y-134592188D01*
X134936910Y-134678352D01*
X135071624Y-134728597D01*
X135131176Y-134735000D01*
X135497711Y-134735000D01*
X135562501Y-134753273D01*
X135608196Y-134802705D01*
X135621329Y-134868729D01*
X135598029Y-134931885D01*
X135545164Y-134973561D01*
X135431078Y-135020817D01*
X135220978Y-135149566D01*
X135033601Y-135309601D01*
X134873566Y-135496978D01*
X134744817Y-135707078D01*
X134650516Y-135934738D01*
X134592993Y-136174343D01*
X134573659Y-136420000D01*
X127046341Y-136420000D01*
X127027007Y-136174345D01*
X126969483Y-135934738D01*
X126875184Y-135707080D01*
X126746433Y-135496977D01*
X126586399Y-135309601D01*
X126399023Y-135149567D01*
X126188920Y-135020816D01*
X126074835Y-134973560D01*
X126021971Y-134931885D01*
X125998671Y-134868729D01*
X126011804Y-134802705D01*
X126057499Y-134753273D01*
X126122289Y-134735000D01*
X126488824Y-134735000D01*
X126548375Y-134728597D01*
X126683089Y-134678352D01*
X126798188Y-134592188D01*
X126884352Y-134477089D01*
X126934597Y-134342375D01*
X126941000Y-134282824D01*
X126941000Y-133570000D01*
X124011000Y-133570000D01*
X124011000Y-134282824D01*
X124017402Y-134342375D01*
X124067647Y-134477089D01*
X124153811Y-134592188D01*
X124268910Y-134678352D01*
X124403624Y-134728597D01*
X124463176Y-134735000D01*
X124829711Y-134735000D01*
X124894501Y-134753273D01*
X124940196Y-134802705D01*
X124953329Y-134868729D01*
X124930029Y-134931885D01*
X124877164Y-134973561D01*
X124763078Y-135020817D01*
X124552978Y-135149566D01*
X124365601Y-135309601D01*
X124205566Y-135496978D01*
X124076817Y-135707078D01*
X123982516Y-135934738D01*
X123924993Y-136174343D01*
X123905659Y-136420000D01*
X116378341Y-136420000D01*
X116359007Y-136174345D01*
X116301483Y-135934738D01*
X116207184Y-135707080D01*
X116078433Y-135496977D01*
X115918399Y-135309601D01*
X115731023Y-135149567D01*
X115520920Y-135020816D01*
X115406835Y-134973560D01*
X115353971Y-134931885D01*
X115330671Y-134868729D01*
X115343804Y-134802705D01*
X115389499Y-134753273D01*
X115454289Y-134735000D01*
X115820824Y-134735000D01*
X115880375Y-134728597D01*
X116015089Y-134678352D01*
X116130188Y-134592188D01*
X116216352Y-134477089D01*
X116266597Y-134342375D01*
X116273000Y-134282824D01*
X116273000Y-133570000D01*
X113343000Y-133570000D01*
X113343000Y-134282824D01*
X113349402Y-134342375D01*
X113399647Y-134477089D01*
X113485811Y-134592188D01*
X113600910Y-134678352D01*
X113735624Y-134728597D01*
X113795176Y-134735000D01*
X114161711Y-134735000D01*
X114226501Y-134753273D01*
X114272196Y-134802705D01*
X114285329Y-134868729D01*
X114262029Y-134931885D01*
X114209164Y-134973561D01*
X114095078Y-135020817D01*
X113884978Y-135149566D01*
X113697601Y-135309601D01*
X113537566Y-135496978D01*
X113408817Y-135707078D01*
X113314516Y-135934738D01*
X113256993Y-136174343D01*
X113237659Y-136420000D01*
X105710341Y-136420000D01*
X105691007Y-136174345D01*
X105633483Y-135934738D01*
X105539184Y-135707080D01*
X105410433Y-135496977D01*
X105250399Y-135309601D01*
X105063023Y-135149567D01*
X104852920Y-135020816D01*
X104738835Y-134973560D01*
X104685971Y-134931885D01*
X104662671Y-134868729D01*
X104675804Y-134802705D01*
X104721499Y-134753273D01*
X104786289Y-134735000D01*
X105152824Y-134735000D01*
X105212375Y-134728597D01*
X105347089Y-134678352D01*
X105462188Y-134592188D01*
X105548352Y-134477089D01*
X105598597Y-134342375D01*
X105605000Y-134282824D01*
X105605000Y-133570000D01*
X102675000Y-133570000D01*
X102675000Y-134282824D01*
X102681402Y-134342375D01*
X102731647Y-134477089D01*
X102817811Y-134592188D01*
X102932910Y-134678352D01*
X103067624Y-134728597D01*
X103127176Y-134735000D01*
X103493711Y-134735000D01*
X103558501Y-134753273D01*
X103604196Y-134802705D01*
X103617329Y-134868729D01*
X103594029Y-134931885D01*
X103541164Y-134973561D01*
X103427078Y-135020817D01*
X103216978Y-135149566D01*
X103029601Y-135309601D01*
X102869566Y-135496978D01*
X102740817Y-135707078D01*
X102646516Y-135934738D01*
X102588993Y-136174343D01*
X102569659Y-136420000D01*
X91440500Y-136420000D01*
X91440500Y-133070000D01*
X102675000Y-133070000D01*
X103890000Y-133070000D01*
X103890000Y-131905000D01*
X104390000Y-131905000D01*
X104390000Y-133070000D01*
X105605000Y-133070000D01*
X113343000Y-133070000D01*
X114558000Y-133070000D01*
X114558000Y-131905000D01*
X115058000Y-131905000D01*
X115058000Y-133070000D01*
X116273000Y-133070000D01*
X124011000Y-133070000D01*
X125226000Y-133070000D01*
X125226000Y-131905000D01*
X125726000Y-131905000D01*
X125726000Y-133070000D01*
X126941000Y-133070000D01*
X134679000Y-133070000D01*
X135894000Y-133070000D01*
X135894000Y-131905000D01*
X136394000Y-131905000D01*
X136394000Y-133070000D01*
X137609000Y-133070000D01*
X137609000Y-132357176D01*
X137602597Y-132297624D01*
X137552352Y-132162910D01*
X137466188Y-132047811D01*
X137351089Y-131961647D01*
X137216375Y-131911402D01*
X137156824Y-131905000D01*
X136394000Y-131905000D01*
X135894000Y-131905000D01*
X135131176Y-131905000D01*
X135071624Y-131911402D01*
X134936910Y-131961647D01*
X134821811Y-132047811D01*
X134735647Y-132162910D01*
X134685402Y-132297624D01*
X134679000Y-132357176D01*
X134679000Y-133070000D01*
X126941000Y-133070000D01*
X126941000Y-132357176D01*
X126934597Y-132297624D01*
X126884352Y-132162910D01*
X126798188Y-132047811D01*
X126683089Y-131961647D01*
X126548375Y-131911402D01*
X126488824Y-131905000D01*
X125726000Y-131905000D01*
X125226000Y-131905000D01*
X124463176Y-131905000D01*
X124403624Y-131911402D01*
X124268910Y-131961647D01*
X124153811Y-132047811D01*
X124067647Y-132162910D01*
X124017402Y-132297624D01*
X124011000Y-132357176D01*
X124011000Y-133070000D01*
X116273000Y-133070000D01*
X116273000Y-132357176D01*
X116266597Y-132297624D01*
X116216352Y-132162910D01*
X116130188Y-132047811D01*
X116015089Y-131961647D01*
X115880375Y-131911402D01*
X115820824Y-131905000D01*
X115058000Y-131905000D01*
X114558000Y-131905000D01*
X113795176Y-131905000D01*
X113735624Y-131911402D01*
X113600910Y-131961647D01*
X113485811Y-132047811D01*
X113399647Y-132162910D01*
X113349402Y-132297624D01*
X113343000Y-132357176D01*
X113343000Y-133070000D01*
X105605000Y-133070000D01*
X105605000Y-132357176D01*
X105598597Y-132297624D01*
X105548352Y-132162910D01*
X105462188Y-132047811D01*
X105347089Y-131961647D01*
X105212375Y-131911402D01*
X105152824Y-131905000D01*
X104390000Y-131905000D01*
X103890000Y-131905000D01*
X103127176Y-131905000D01*
X103067624Y-131911402D01*
X102932910Y-131961647D01*
X102817811Y-132047811D01*
X102731647Y-132162910D01*
X102681402Y-132297624D01*
X102675000Y-132357176D01*
X102675000Y-133070000D01*
X91440500Y-133070000D01*
X91440500Y-128524000D01*
X94643224Y-128524000D01*
X94661892Y-128749288D01*
X94717390Y-128968443D01*
X94808196Y-129175462D01*
X94931847Y-129364724D01*
X95084950Y-129531037D01*
X95084954Y-129531040D01*
X95263351Y-129669893D01*
X95462169Y-129777488D01*
X95675986Y-129850891D01*
X95898967Y-129888100D01*
X96125032Y-129888100D01*
X96125033Y-129888100D01*
X96348014Y-129850891D01*
X96561831Y-129777488D01*
X96760649Y-129669893D01*
X96939046Y-129531040D01*
X96958016Y-129510433D01*
X97092152Y-129364724D01*
X97092153Y-129364721D01*
X97092156Y-129364719D01*
X97215802Y-129175465D01*
X97306611Y-128968441D01*
X97362107Y-128749293D01*
X97380775Y-128524000D01*
X97362107Y-128298707D01*
X97347240Y-128240000D01*
X102569659Y-128240000D01*
X102588993Y-128485656D01*
X102646516Y-128725261D01*
X102656471Y-128749293D01*
X102740816Y-128952920D01*
X102869567Y-129163023D01*
X103029601Y-129350399D01*
X103216977Y-129510433D01*
X103427080Y-129639184D01*
X103654738Y-129733483D01*
X103894345Y-129791007D01*
X104140000Y-129810341D01*
X104385655Y-129791007D01*
X104625262Y-129733483D01*
X104852920Y-129639184D01*
X105063023Y-129510433D01*
X105250399Y-129350399D01*
X105410433Y-129163023D01*
X105539184Y-128952920D01*
X105633483Y-128725262D01*
X105691007Y-128485655D01*
X105710341Y-128240000D01*
X113237659Y-128240000D01*
X113256993Y-128485656D01*
X113314516Y-128725261D01*
X113324471Y-128749293D01*
X113408816Y-128952920D01*
X113537567Y-129163023D01*
X113697601Y-129350399D01*
X113884977Y-129510433D01*
X114095080Y-129639184D01*
X114322738Y-129733483D01*
X114562345Y-129791007D01*
X114808000Y-129810341D01*
X115053655Y-129791007D01*
X115293262Y-129733483D01*
X115520920Y-129639184D01*
X115731023Y-129510433D01*
X115918399Y-129350399D01*
X116078433Y-129163023D01*
X116207184Y-128952920D01*
X116301483Y-128725262D01*
X116359007Y-128485655D01*
X116378341Y-128240000D01*
X123905659Y-128240000D01*
X123924993Y-128485656D01*
X123982516Y-128725261D01*
X123992471Y-128749293D01*
X124076816Y-128952920D01*
X124205567Y-129163023D01*
X124365601Y-129350399D01*
X124552977Y-129510433D01*
X124763080Y-129639184D01*
X124990738Y-129733483D01*
X125230345Y-129791007D01*
X125476000Y-129810341D01*
X125721655Y-129791007D01*
X125961262Y-129733483D01*
X126188920Y-129639184D01*
X126399023Y-129510433D01*
X126586399Y-129350399D01*
X126746433Y-129163023D01*
X126875184Y-128952920D01*
X126969483Y-128725262D01*
X127027007Y-128485655D01*
X127046341Y-128240000D01*
X134573659Y-128240000D01*
X134592993Y-128485656D01*
X134650516Y-128725261D01*
X134660471Y-128749293D01*
X134744816Y-128952920D01*
X134873567Y-129163023D01*
X135033601Y-129350399D01*
X135220977Y-129510433D01*
X135431080Y-129639184D01*
X135658738Y-129733483D01*
X135898345Y-129791007D01*
X136144000Y-129810341D01*
X136389655Y-129791007D01*
X136629262Y-129733483D01*
X136856920Y-129639184D01*
X137067023Y-129510433D01*
X137254399Y-129350399D01*
X137414433Y-129163023D01*
X137543184Y-128952920D01*
X137637483Y-128725262D01*
X137695007Y-128485655D01*
X137714341Y-128240000D01*
X137695007Y-127994345D01*
X137637483Y-127754738D01*
X137543184Y-127527080D01*
X137414433Y-127316977D01*
X137254399Y-127129601D01*
X137067023Y-126969567D01*
X136856920Y-126840816D01*
X136743090Y-126793666D01*
X136629261Y-126746516D01*
X136389656Y-126688993D01*
X136144000Y-126669659D01*
X135898343Y-126688993D01*
X135658738Y-126746516D01*
X135431078Y-126840817D01*
X135220978Y-126969566D01*
X135033601Y-127129601D01*
X134873566Y-127316978D01*
X134744817Y-127527078D01*
X134650516Y-127754738D01*
X134592993Y-127994343D01*
X134573659Y-128240000D01*
X127046341Y-128240000D01*
X127027007Y-127994345D01*
X126969483Y-127754738D01*
X126875184Y-127527080D01*
X126746433Y-127316977D01*
X126586399Y-127129601D01*
X126399023Y-126969567D01*
X126188920Y-126840816D01*
X126075090Y-126793666D01*
X125961261Y-126746516D01*
X125721656Y-126688993D01*
X125476000Y-126669659D01*
X125230343Y-126688993D01*
X124990738Y-126746516D01*
X124763078Y-126840817D01*
X124552978Y-126969566D01*
X124365601Y-127129601D01*
X124205566Y-127316978D01*
X124076817Y-127527078D01*
X123982516Y-127754738D01*
X123924993Y-127994343D01*
X123905659Y-128240000D01*
X116378341Y-128240000D01*
X116359007Y-127994345D01*
X116301483Y-127754738D01*
X116207184Y-127527080D01*
X116078433Y-127316977D01*
X115918399Y-127129601D01*
X115731023Y-126969567D01*
X115520920Y-126840816D01*
X115407090Y-126793666D01*
X115293261Y-126746516D01*
X115053656Y-126688993D01*
X114808000Y-126669659D01*
X114562343Y-126688993D01*
X114322738Y-126746516D01*
X114095078Y-126840817D01*
X113884978Y-126969566D01*
X113697601Y-127129601D01*
X113537566Y-127316978D01*
X113408817Y-127527078D01*
X113314516Y-127754738D01*
X113256993Y-127994343D01*
X113237659Y-128240000D01*
X105710341Y-128240000D01*
X105691007Y-127994345D01*
X105633483Y-127754738D01*
X105539184Y-127527080D01*
X105410433Y-127316977D01*
X105250399Y-127129601D01*
X105063023Y-126969567D01*
X104852920Y-126840816D01*
X104739090Y-126793666D01*
X104625261Y-126746516D01*
X104385656Y-126688993D01*
X104140000Y-126669659D01*
X103894343Y-126688993D01*
X103654738Y-126746516D01*
X103427078Y-126840817D01*
X103216978Y-126969566D01*
X103029601Y-127129601D01*
X102869566Y-127316978D01*
X102740817Y-127527078D01*
X102646516Y-127754738D01*
X102588993Y-127994343D01*
X102569659Y-128240000D01*
X97347240Y-128240000D01*
X97306611Y-128079559D01*
X97215802Y-127872535D01*
X97092156Y-127683281D01*
X97092155Y-127683280D01*
X97092152Y-127683275D01*
X96939049Y-127516962D01*
X96760648Y-127378106D01*
X96732832Y-127363053D01*
X96685327Y-127317471D01*
X96667851Y-127253996D01*
X96685330Y-127190523D01*
X96732834Y-127144945D01*
X96760649Y-127129893D01*
X96939046Y-126991040D01*
X96939049Y-126991037D01*
X97092152Y-126824724D01*
X97092153Y-126824721D01*
X97092156Y-126824719D01*
X97215802Y-126635465D01*
X97306611Y-126428441D01*
X97362107Y-126209293D01*
X97380775Y-125984000D01*
X97362107Y-125758707D01*
X97306611Y-125539559D01*
X97215802Y-125332535D01*
X97092156Y-125143281D01*
X97092155Y-125143280D01*
X97092152Y-125143275D01*
X96939049Y-124976962D01*
X96885367Y-124935179D01*
X96760649Y-124838107D01*
X96732832Y-124823053D01*
X96685329Y-124777474D01*
X96667851Y-124714000D01*
X96685329Y-124650526D01*
X96732832Y-124604946D01*
X96760649Y-124589893D01*
X96939046Y-124451040D01*
X96990283Y-124395382D01*
X97092152Y-124284724D01*
X97092153Y-124284721D01*
X97092156Y-124284719D01*
X97215802Y-124095465D01*
X97306611Y-123888441D01*
X97362107Y-123669293D01*
X97380775Y-123444000D01*
X97367453Y-123283228D01*
X102635308Y-123283228D01*
X102649506Y-123529474D01*
X102703732Y-123770094D01*
X102703733Y-123770098D01*
X102703734Y-123770099D01*
X102796532Y-123998634D01*
X102925411Y-124208945D01*
X103086908Y-124395382D01*
X103276687Y-124552939D01*
X103489650Y-124677385D01*
X103489651Y-124677385D01*
X103489654Y-124677387D01*
X103720073Y-124765375D01*
X103720074Y-124765375D01*
X103720079Y-124765377D01*
X103961785Y-124814553D01*
X104208278Y-124823592D01*
X104452936Y-124792250D01*
X104689191Y-124721370D01*
X104910697Y-124612856D01*
X105111505Y-124469621D01*
X105286223Y-124295512D01*
X105430158Y-124095205D01*
X105539445Y-123874079D01*
X105611149Y-123638074D01*
X105625447Y-123529475D01*
X105643344Y-123393528D01*
X105643425Y-123390179D01*
X105645141Y-123320000D01*
X105642118Y-123283228D01*
X113303308Y-123283228D01*
X113317506Y-123529474D01*
X113371732Y-123770094D01*
X113371733Y-123770098D01*
X113371734Y-123770099D01*
X113464532Y-123998634D01*
X113593411Y-124208945D01*
X113754908Y-124395382D01*
X113944687Y-124552939D01*
X114157650Y-124677385D01*
X114157651Y-124677385D01*
X114157654Y-124677387D01*
X114388073Y-124765375D01*
X114388074Y-124765375D01*
X114388079Y-124765377D01*
X114629785Y-124814553D01*
X114876278Y-124823592D01*
X115120936Y-124792250D01*
X115357191Y-124721370D01*
X115578697Y-124612856D01*
X115779505Y-124469621D01*
X115954223Y-124295512D01*
X116098158Y-124095205D01*
X116207445Y-123874079D01*
X116279149Y-123638074D01*
X116293447Y-123529475D01*
X116311344Y-123393528D01*
X116311425Y-123390179D01*
X116313141Y-123320000D01*
X116310118Y-123283228D01*
X123971308Y-123283228D01*
X123985506Y-123529474D01*
X124039732Y-123770094D01*
X124039733Y-123770098D01*
X124039734Y-123770099D01*
X124132532Y-123998634D01*
X124261411Y-124208945D01*
X124422908Y-124395382D01*
X124612687Y-124552939D01*
X124825650Y-124677385D01*
X124825651Y-124677385D01*
X124825654Y-124677387D01*
X125056073Y-124765375D01*
X125056074Y-124765375D01*
X125056079Y-124765377D01*
X125297785Y-124814553D01*
X125544278Y-124823592D01*
X125788936Y-124792250D01*
X126025191Y-124721370D01*
X126246697Y-124612856D01*
X126447505Y-124469621D01*
X126622223Y-124295512D01*
X126766158Y-124095205D01*
X126875445Y-123874079D01*
X126947149Y-123638074D01*
X126961447Y-123529475D01*
X126979344Y-123393528D01*
X126979425Y-123390179D01*
X126981141Y-123320000D01*
X126978118Y-123283228D01*
X134639308Y-123283228D01*
X134653506Y-123529474D01*
X134707732Y-123770094D01*
X134707733Y-123770098D01*
X134707734Y-123770099D01*
X134800532Y-123998634D01*
X134929411Y-124208945D01*
X135090908Y-124395382D01*
X135280687Y-124552939D01*
X135493650Y-124677385D01*
X135493651Y-124677385D01*
X135493654Y-124677387D01*
X135724073Y-124765375D01*
X135724074Y-124765375D01*
X135724079Y-124765377D01*
X135965785Y-124814553D01*
X136212278Y-124823592D01*
X136456936Y-124792250D01*
X136693191Y-124721370D01*
X136914697Y-124612856D01*
X137115505Y-124469621D01*
X137290223Y-124295512D01*
X137434158Y-124095205D01*
X137543445Y-123874079D01*
X137615149Y-123638074D01*
X137629447Y-123529475D01*
X137647344Y-123393528D01*
X137647425Y-123390179D01*
X137649141Y-123320000D01*
X137628930Y-123074171D01*
X137628930Y-123074169D01*
X137568841Y-122834943D01*
X137470487Y-122608747D01*
X137470486Y-122608744D01*
X137336508Y-122401645D01*
X137170504Y-122219210D01*
X136976932Y-122066336D01*
X136760992Y-121947131D01*
X136704299Y-121927055D01*
X136528480Y-121864792D01*
X136285650Y-121821539D01*
X136162326Y-121820031D01*
X136039006Y-121818525D01*
X136039003Y-121818525D01*
X135795188Y-121855834D01*
X135560732Y-121932466D01*
X135341947Y-122046359D01*
X135144695Y-122194458D01*
X134974286Y-122372783D01*
X134835288Y-122576547D01*
X134731435Y-122800276D01*
X134665518Y-123037963D01*
X134639308Y-123283228D01*
X126978118Y-123283228D01*
X126960930Y-123074171D01*
X126960930Y-123074169D01*
X126900841Y-122834943D01*
X126802487Y-122608747D01*
X126802486Y-122608744D01*
X126668508Y-122401645D01*
X126502504Y-122219210D01*
X126308932Y-122066336D01*
X126092992Y-121947131D01*
X126036299Y-121927055D01*
X125860480Y-121864792D01*
X125617650Y-121821539D01*
X125494326Y-121820031D01*
X125371006Y-121818525D01*
X125371003Y-121818525D01*
X125127188Y-121855834D01*
X124892732Y-121932466D01*
X124673947Y-122046359D01*
X124476695Y-122194458D01*
X124306286Y-122372783D01*
X124167288Y-122576547D01*
X124063435Y-122800276D01*
X123997518Y-123037963D01*
X123971308Y-123283228D01*
X116310118Y-123283228D01*
X116292930Y-123074171D01*
X116292930Y-123074169D01*
X116232841Y-122834943D01*
X116134487Y-122608747D01*
X116134486Y-122608744D01*
X116000508Y-122401645D01*
X115834504Y-122219210D01*
X115640932Y-122066336D01*
X115424992Y-121947131D01*
X115368299Y-121927055D01*
X115192480Y-121864792D01*
X114949650Y-121821539D01*
X114826326Y-121820031D01*
X114703006Y-121818525D01*
X114703003Y-121818525D01*
X114459188Y-121855834D01*
X114224732Y-121932466D01*
X114005947Y-122046359D01*
X113808695Y-122194458D01*
X113638286Y-122372783D01*
X113499288Y-122576547D01*
X113395435Y-122800276D01*
X113329518Y-123037963D01*
X113303308Y-123283228D01*
X105642118Y-123283228D01*
X105624930Y-123074171D01*
X105624930Y-123074169D01*
X105564841Y-122834943D01*
X105466487Y-122608747D01*
X105466486Y-122608744D01*
X105332508Y-122401645D01*
X105166504Y-122219210D01*
X104972932Y-122066336D01*
X104756992Y-121947131D01*
X104700299Y-121927055D01*
X104524480Y-121864792D01*
X104281650Y-121821539D01*
X104158326Y-121820031D01*
X104035006Y-121818525D01*
X104035003Y-121818525D01*
X103791188Y-121855834D01*
X103556732Y-121932466D01*
X103337947Y-122046359D01*
X103140695Y-122194458D01*
X102970286Y-122372783D01*
X102831288Y-122576547D01*
X102727435Y-122800276D01*
X102661518Y-123037963D01*
X102635308Y-123283228D01*
X97367453Y-123283228D01*
X97362107Y-123218707D01*
X97306611Y-122999559D01*
X97215802Y-122792535D01*
X97092156Y-122603281D01*
X97092155Y-122603280D01*
X97092152Y-122603275D01*
X96954755Y-122454024D01*
X96925981Y-122401271D01*
X96925388Y-122341185D01*
X96953115Y-122287874D01*
X97002651Y-122253859D01*
X97117688Y-122210952D01*
X97232788Y-122124788D01*
X97318952Y-122009689D01*
X97369197Y-121874975D01*
X97375600Y-121815424D01*
X97375600Y-121154000D01*
X94648400Y-121154000D01*
X94648400Y-121815424D01*
X94654802Y-121874975D01*
X94705047Y-122009689D01*
X94791211Y-122124788D01*
X94906311Y-122210952D01*
X95021348Y-122253859D01*
X95070884Y-122287874D01*
X95098611Y-122341184D01*
X95098018Y-122401271D01*
X95069245Y-122454024D01*
X94931845Y-122603279D01*
X94808196Y-122792537D01*
X94717390Y-122999556D01*
X94661892Y-123218711D01*
X94643224Y-123443999D01*
X94661892Y-123669288D01*
X94661892Y-123669291D01*
X94661893Y-123669293D01*
X94713752Y-123874079D01*
X94717390Y-123888443D01*
X94808196Y-124095462D01*
X94931847Y-124284724D01*
X95084950Y-124451037D01*
X95084954Y-124451040D01*
X95263351Y-124589893D01*
X95263353Y-124589894D01*
X95291166Y-124604946D01*
X95338671Y-124650527D01*
X95356148Y-124714000D01*
X95338671Y-124777473D01*
X95291166Y-124823054D01*
X95263353Y-124838105D01*
X95084950Y-124976962D01*
X94931847Y-125143275D01*
X94808196Y-125332537D01*
X94717390Y-125539556D01*
X94661892Y-125758711D01*
X94643224Y-125984000D01*
X94661892Y-126209288D01*
X94717390Y-126428443D01*
X94808196Y-126635462D01*
X94931847Y-126824724D01*
X95084950Y-126991037D01*
X95084954Y-126991040D01*
X95263351Y-127129893D01*
X95291167Y-127144946D01*
X95338670Y-127190523D01*
X95356148Y-127253996D01*
X95338672Y-127317470D01*
X95291168Y-127363052D01*
X95263354Y-127378104D01*
X95084950Y-127516962D01*
X94931847Y-127683275D01*
X94808196Y-127872537D01*
X94717390Y-128079556D01*
X94661892Y-128298711D01*
X94643224Y-128524000D01*
X91440500Y-128524000D01*
X91440500Y-118364000D01*
X94643224Y-118364000D01*
X94661892Y-118589288D01*
X94661892Y-118589291D01*
X94661893Y-118589293D01*
X94697154Y-118728537D01*
X94717390Y-118808443D01*
X94808196Y-119015462D01*
X94931847Y-119204724D01*
X95069244Y-119353975D01*
X95098018Y-119406727D01*
X95098611Y-119466814D01*
X95070884Y-119520124D01*
X95021349Y-119554140D01*
X94906311Y-119597047D01*
X94791211Y-119683211D01*
X94705047Y-119798310D01*
X94654802Y-119933024D01*
X94648400Y-119992576D01*
X94648400Y-120654000D01*
X97375600Y-120654000D01*
X97375600Y-119992576D01*
X97369947Y-119939999D01*
X102569659Y-119939999D01*
X102588993Y-120185656D01*
X102646516Y-120425261D01*
X102688199Y-120525891D01*
X102740816Y-120652920D01*
X102869567Y-120863023D01*
X103029601Y-121050399D01*
X103216977Y-121210433D01*
X103427080Y-121339184D01*
X103654738Y-121433483D01*
X103894345Y-121491007D01*
X104140000Y-121510341D01*
X104385655Y-121491007D01*
X104625262Y-121433483D01*
X104852920Y-121339184D01*
X105063023Y-121210433D01*
X105250399Y-121050399D01*
X105410433Y-120863023D01*
X105539184Y-120652920D01*
X105633483Y-120425262D01*
X105691007Y-120185655D01*
X105710341Y-119940000D01*
X105710341Y-119939999D01*
X113237659Y-119939999D01*
X113256993Y-120185656D01*
X113314516Y-120425261D01*
X113356199Y-120525891D01*
X113408816Y-120652920D01*
X113537567Y-120863023D01*
X113697601Y-121050399D01*
X113884977Y-121210433D01*
X114095080Y-121339184D01*
X114322738Y-121433483D01*
X114562345Y-121491007D01*
X114808000Y-121510341D01*
X115053655Y-121491007D01*
X115293262Y-121433483D01*
X115520920Y-121339184D01*
X115731023Y-121210433D01*
X115918399Y-121050399D01*
X116078433Y-120863023D01*
X116207184Y-120652920D01*
X116301483Y-120425262D01*
X116359007Y-120185655D01*
X116378341Y-119940000D01*
X116378341Y-119939999D01*
X123905659Y-119939999D01*
X123924993Y-120185656D01*
X123982516Y-120425261D01*
X124024199Y-120525891D01*
X124076816Y-120652920D01*
X124205567Y-120863023D01*
X124365601Y-121050399D01*
X124552977Y-121210433D01*
X124763080Y-121339184D01*
X124990738Y-121433483D01*
X125230345Y-121491007D01*
X125476000Y-121510341D01*
X125721655Y-121491007D01*
X125961262Y-121433483D01*
X126188920Y-121339184D01*
X126399023Y-121210433D01*
X126586399Y-121050399D01*
X126746433Y-120863023D01*
X126875184Y-120652920D01*
X126969483Y-120425262D01*
X127027007Y-120185655D01*
X127046341Y-119940000D01*
X127046341Y-119939999D01*
X134573659Y-119939999D01*
X134592993Y-120185656D01*
X134650516Y-120425261D01*
X134692199Y-120525891D01*
X134744816Y-120652920D01*
X134873567Y-120863023D01*
X135033601Y-121050399D01*
X135220977Y-121210433D01*
X135431080Y-121339184D01*
X135658738Y-121433483D01*
X135898345Y-121491007D01*
X136144000Y-121510341D01*
X136389655Y-121491007D01*
X136629262Y-121433483D01*
X136856920Y-121339184D01*
X137067023Y-121210433D01*
X137254399Y-121050399D01*
X137414433Y-120863023D01*
X137543184Y-120652920D01*
X137637483Y-120425262D01*
X137695007Y-120185655D01*
X137714341Y-119940000D01*
X137695007Y-119694345D01*
X137637483Y-119454738D01*
X137606525Y-119379999D01*
X142903224Y-119379999D01*
X142921892Y-119605288D01*
X142921892Y-119605291D01*
X142921893Y-119605293D01*
X142943569Y-119690891D01*
X142977390Y-119824443D01*
X143068196Y-120031462D01*
X143191847Y-120220724D01*
X143344950Y-120387037D01*
X143344954Y-120387040D01*
X143523351Y-120525893D01*
X143722169Y-120633488D01*
X143935986Y-120706891D01*
X144158967Y-120744100D01*
X144385032Y-120744100D01*
X144385033Y-120744100D01*
X144608014Y-120706891D01*
X144821831Y-120633488D01*
X145020649Y-120525893D01*
X145199046Y-120387040D01*
X145199049Y-120387037D01*
X145352152Y-120220724D01*
X145352153Y-120220721D01*
X145352156Y-120220719D01*
X145475802Y-120031465D01*
X145566611Y-119824441D01*
X145622107Y-119605293D01*
X145640775Y-119380000D01*
X145622107Y-119154707D01*
X145566611Y-118935559D01*
X145475802Y-118728535D01*
X145352156Y-118539281D01*
X145352155Y-118539280D01*
X145352152Y-118539275D01*
X145199049Y-118372962D01*
X145020648Y-118234106D01*
X144992832Y-118219053D01*
X144945327Y-118173471D01*
X144927851Y-118109996D01*
X144945330Y-118046523D01*
X144992834Y-118000945D01*
X145020649Y-117985893D01*
X145199046Y-117847040D01*
X145239750Y-117802824D01*
X145352152Y-117680724D01*
X145352153Y-117680721D01*
X145352156Y-117680719D01*
X145475802Y-117491465D01*
X145566611Y-117284441D01*
X145622107Y-117065293D01*
X145640775Y-116840000D01*
X145622107Y-116614707D01*
X145566611Y-116395559D01*
X145475802Y-116188535D01*
X145352156Y-115999281D01*
X145352155Y-115999280D01*
X145352152Y-115999275D01*
X145199049Y-115832962D01*
X145020648Y-115694106D01*
X144992832Y-115679053D01*
X144945327Y-115633471D01*
X144927851Y-115569996D01*
X144945330Y-115506523D01*
X144992834Y-115460945D01*
X145020649Y-115445893D01*
X145199046Y-115307040D01*
X145199049Y-115307037D01*
X145352152Y-115140724D01*
X145352153Y-115140721D01*
X145352156Y-115140719D01*
X145475802Y-114951465D01*
X145566611Y-114744441D01*
X145622107Y-114525293D01*
X145640775Y-114300000D01*
X145622107Y-114074707D01*
X145566611Y-113855559D01*
X145475802Y-113648535D01*
X145352156Y-113459281D01*
X145352155Y-113459280D01*
X145352152Y-113459275D01*
X145199049Y-113292962D01*
X145020648Y-113154106D01*
X144992832Y-113139053D01*
X144945327Y-113093471D01*
X144927851Y-113029996D01*
X144945330Y-112966523D01*
X144992834Y-112920945D01*
X145020649Y-112905893D01*
X145199046Y-112767040D01*
X145199049Y-112767037D01*
X145352152Y-112600724D01*
X145352153Y-112600721D01*
X145352156Y-112600719D01*
X145475802Y-112411465D01*
X145566611Y-112204441D01*
X145622107Y-111985293D01*
X145640775Y-111760000D01*
X145622107Y-111534707D01*
X145566611Y-111315559D01*
X145475802Y-111108535D01*
X145352156Y-110919281D01*
X145352155Y-110919280D01*
X145352152Y-110919275D01*
X145199049Y-110752962D01*
X145066251Y-110649601D01*
X145020649Y-110614107D01*
X144992832Y-110599053D01*
X144945329Y-110553474D01*
X144927851Y-110490000D01*
X144945329Y-110426526D01*
X144992832Y-110380946D01*
X145020649Y-110365893D01*
X145199046Y-110227040D01*
X145233458Y-110189659D01*
X145352152Y-110060724D01*
X145352153Y-110060721D01*
X145352156Y-110060719D01*
X145475802Y-109871465D01*
X145566611Y-109664441D01*
X145622107Y-109445293D01*
X145640775Y-109220000D01*
X145622107Y-108994707D01*
X145566611Y-108775559D01*
X145475802Y-108568535D01*
X145352156Y-108379281D01*
X145352155Y-108379280D01*
X145352152Y-108379275D01*
X145214755Y-108230024D01*
X145185981Y-108177271D01*
X145185388Y-108117185D01*
X145213115Y-108063874D01*
X145262651Y-108029859D01*
X145377688Y-107986952D01*
X145492788Y-107900788D01*
X145578952Y-107785689D01*
X145629197Y-107650975D01*
X145635600Y-107591424D01*
X145635600Y-106930000D01*
X142908400Y-106930000D01*
X142908400Y-107591424D01*
X142914802Y-107650975D01*
X142965047Y-107785689D01*
X143051211Y-107900788D01*
X143166311Y-107986952D01*
X143281348Y-108029859D01*
X143330884Y-108063874D01*
X143358611Y-108117184D01*
X143358018Y-108177271D01*
X143329245Y-108230024D01*
X143191845Y-108379279D01*
X143068196Y-108568537D01*
X142977390Y-108775556D01*
X142921892Y-108994711D01*
X142903224Y-109220000D01*
X142921892Y-109445288D01*
X142921892Y-109445291D01*
X142921893Y-109445293D01*
X142960590Y-109598105D01*
X142977390Y-109664443D01*
X143068196Y-109871462D01*
X143191847Y-110060724D01*
X143344950Y-110227037D01*
X143344954Y-110227040D01*
X143523351Y-110365893D01*
X143523353Y-110365894D01*
X143551166Y-110380946D01*
X143598671Y-110426527D01*
X143616148Y-110490000D01*
X143598671Y-110553473D01*
X143551166Y-110599054D01*
X143523353Y-110614105D01*
X143344950Y-110752962D01*
X143191847Y-110919275D01*
X143068196Y-111108537D01*
X142977390Y-111315556D01*
X142921892Y-111534711D01*
X142903224Y-111760000D01*
X142921892Y-111985288D01*
X142921892Y-111985291D01*
X142921893Y-111985293D01*
X142960590Y-112138104D01*
X142977390Y-112204443D01*
X143068196Y-112411462D01*
X143191847Y-112600724D01*
X143344950Y-112767037D01*
X143344954Y-112767040D01*
X143523351Y-112905893D01*
X143551167Y-112920946D01*
X143598670Y-112966523D01*
X143616148Y-113029996D01*
X143598672Y-113093470D01*
X143551168Y-113139052D01*
X143523354Y-113154104D01*
X143344950Y-113292962D01*
X143191847Y-113459275D01*
X143068196Y-113648537D01*
X142977390Y-113855556D01*
X142921892Y-114074711D01*
X142903224Y-114300000D01*
X142921892Y-114525288D01*
X142921892Y-114525291D01*
X142921893Y-114525293D01*
X142960590Y-114678105D01*
X142977390Y-114744443D01*
X143068196Y-114951462D01*
X143191847Y-115140724D01*
X143344950Y-115307037D01*
X143344954Y-115307040D01*
X143523351Y-115445893D01*
X143551167Y-115460946D01*
X143598670Y-115506523D01*
X143616148Y-115569996D01*
X143598672Y-115633470D01*
X143551168Y-115679052D01*
X143523354Y-115694104D01*
X143344950Y-115832962D01*
X143191847Y-115999275D01*
X143068196Y-116188537D01*
X142977390Y-116395556D01*
X142921892Y-116614711D01*
X142903224Y-116839999D01*
X142921892Y-117065288D01*
X142921892Y-117065291D01*
X142921893Y-117065293D01*
X142960590Y-117218105D01*
X142977390Y-117284443D01*
X143068196Y-117491462D01*
X143191847Y-117680724D01*
X143344950Y-117847037D01*
X143344954Y-117847040D01*
X143523351Y-117985893D01*
X143551167Y-118000946D01*
X143598670Y-118046523D01*
X143616148Y-118109996D01*
X143598672Y-118173470D01*
X143551168Y-118219052D01*
X143523354Y-118234104D01*
X143344950Y-118372962D01*
X143191847Y-118539275D01*
X143068196Y-118728537D01*
X142977390Y-118935556D01*
X142921892Y-119154711D01*
X142903224Y-119379999D01*
X137606525Y-119379999D01*
X137543184Y-119227080D01*
X137414433Y-119016977D01*
X137254399Y-118829601D01*
X137067023Y-118669567D01*
X136856920Y-118540816D01*
X136742835Y-118493560D01*
X136689971Y-118451885D01*
X136666671Y-118388729D01*
X136679804Y-118322705D01*
X136725499Y-118273273D01*
X136790289Y-118255000D01*
X137156824Y-118255000D01*
X137216375Y-118248597D01*
X137351089Y-118198352D01*
X137466188Y-118112188D01*
X137552352Y-117997089D01*
X137602597Y-117862375D01*
X137609000Y-117802824D01*
X137609000Y-117090000D01*
X134679000Y-117090000D01*
X134679000Y-117802824D01*
X134685402Y-117862375D01*
X134735647Y-117997089D01*
X134821811Y-118112188D01*
X134936910Y-118198352D01*
X135071624Y-118248597D01*
X135131176Y-118255000D01*
X135497711Y-118255000D01*
X135562501Y-118273273D01*
X135608196Y-118322705D01*
X135621329Y-118388729D01*
X135598029Y-118451885D01*
X135545164Y-118493560D01*
X135434801Y-118539275D01*
X135431078Y-118540817D01*
X135220978Y-118669566D01*
X135033601Y-118829601D01*
X134873566Y-119016978D01*
X134744817Y-119227078D01*
X134650516Y-119454738D01*
X134592993Y-119694343D01*
X134573659Y-119939999D01*
X127046341Y-119939999D01*
X127027007Y-119694345D01*
X126969483Y-119454738D01*
X126875184Y-119227080D01*
X126746433Y-119016977D01*
X126586399Y-118829601D01*
X126399023Y-118669567D01*
X126188920Y-118540816D01*
X126074835Y-118493560D01*
X126021971Y-118451885D01*
X125998671Y-118388729D01*
X126011804Y-118322705D01*
X126057499Y-118273273D01*
X126122289Y-118255000D01*
X126488824Y-118255000D01*
X126548375Y-118248597D01*
X126683089Y-118198352D01*
X126798188Y-118112188D01*
X126884352Y-117997089D01*
X126934597Y-117862375D01*
X126941000Y-117802824D01*
X126941000Y-117090000D01*
X124011000Y-117090000D01*
X124011000Y-117802824D01*
X124017402Y-117862375D01*
X124067647Y-117997089D01*
X124153811Y-118112188D01*
X124268910Y-118198352D01*
X124403624Y-118248597D01*
X124463176Y-118255000D01*
X124829711Y-118255000D01*
X124894501Y-118273273D01*
X124940196Y-118322705D01*
X124953329Y-118388729D01*
X124930029Y-118451885D01*
X124877164Y-118493560D01*
X124766801Y-118539275D01*
X124763078Y-118540817D01*
X124552978Y-118669566D01*
X124365601Y-118829601D01*
X124205566Y-119016978D01*
X124076817Y-119227078D01*
X123982516Y-119454738D01*
X123924993Y-119694343D01*
X123905659Y-119939999D01*
X116378341Y-119939999D01*
X116359007Y-119694345D01*
X116301483Y-119454738D01*
X116207184Y-119227080D01*
X116078433Y-119016977D01*
X115918399Y-118829601D01*
X115731023Y-118669567D01*
X115520920Y-118540816D01*
X115406835Y-118493560D01*
X115353971Y-118451885D01*
X115330671Y-118388729D01*
X115343804Y-118322705D01*
X115389499Y-118273273D01*
X115454289Y-118255000D01*
X115820824Y-118255000D01*
X115880375Y-118248597D01*
X116015089Y-118198352D01*
X116130188Y-118112188D01*
X116216352Y-117997089D01*
X116266597Y-117862375D01*
X116273000Y-117802824D01*
X116273000Y-117090000D01*
X113343000Y-117090000D01*
X113343000Y-117802824D01*
X113349402Y-117862375D01*
X113399647Y-117997089D01*
X113485811Y-118112188D01*
X113600910Y-118198352D01*
X113735624Y-118248597D01*
X113795176Y-118255000D01*
X114161711Y-118255000D01*
X114226501Y-118273273D01*
X114272196Y-118322705D01*
X114285329Y-118388729D01*
X114262029Y-118451885D01*
X114209164Y-118493560D01*
X114098801Y-118539275D01*
X114095078Y-118540817D01*
X113884978Y-118669566D01*
X113697601Y-118829601D01*
X113537566Y-119016978D01*
X113408817Y-119227078D01*
X113314516Y-119454738D01*
X113256993Y-119694343D01*
X113237659Y-119939999D01*
X105710341Y-119939999D01*
X105691007Y-119694345D01*
X105633483Y-119454738D01*
X105539184Y-119227080D01*
X105410433Y-119016977D01*
X105250399Y-118829601D01*
X105063023Y-118669567D01*
X104852920Y-118540816D01*
X104738835Y-118493560D01*
X104685971Y-118451885D01*
X104662671Y-118388729D01*
X104675804Y-118322705D01*
X104721499Y-118273273D01*
X104786289Y-118255000D01*
X105152824Y-118255000D01*
X105212375Y-118248597D01*
X105347089Y-118198352D01*
X105462188Y-118112188D01*
X105548352Y-117997089D01*
X105598597Y-117862375D01*
X105605000Y-117802824D01*
X105605000Y-117090000D01*
X102675000Y-117090000D01*
X102675000Y-117802824D01*
X102681402Y-117862375D01*
X102731647Y-117997089D01*
X102817811Y-118112188D01*
X102932910Y-118198352D01*
X103067624Y-118248597D01*
X103127176Y-118255000D01*
X103493711Y-118255000D01*
X103558501Y-118273273D01*
X103604196Y-118322705D01*
X103617329Y-118388729D01*
X103594029Y-118451885D01*
X103541164Y-118493560D01*
X103430801Y-118539275D01*
X103427078Y-118540817D01*
X103216978Y-118669566D01*
X103029601Y-118829601D01*
X102869566Y-119016978D01*
X102740817Y-119227078D01*
X102646516Y-119454738D01*
X102588993Y-119694343D01*
X102569659Y-119939999D01*
X97369947Y-119939999D01*
X97369197Y-119933024D01*
X97318952Y-119798310D01*
X97232788Y-119683211D01*
X97117688Y-119597047D01*
X97002650Y-119554140D01*
X96953115Y-119520124D01*
X96925388Y-119466814D01*
X96925981Y-119406727D01*
X96954752Y-119353977D01*
X97092156Y-119204719D01*
X97215802Y-119015465D01*
X97306611Y-118808441D01*
X97362107Y-118589293D01*
X97380775Y-118364000D01*
X97362107Y-118138707D01*
X97306611Y-117919559D01*
X97215802Y-117712535D01*
X97092156Y-117523281D01*
X97092155Y-117523280D01*
X97092152Y-117523275D01*
X96939049Y-117356962D01*
X96760648Y-117218106D01*
X96732832Y-117203053D01*
X96685327Y-117157471D01*
X96667851Y-117093996D01*
X96685330Y-117030523D01*
X96732834Y-116984945D01*
X96760649Y-116969893D01*
X96939046Y-116831040D01*
X96939049Y-116831037D01*
X97092152Y-116664724D01*
X97092153Y-116664721D01*
X97092156Y-116664719D01*
X97140972Y-116590000D01*
X102675000Y-116590000D01*
X103890000Y-116590000D01*
X103890000Y-115425000D01*
X104390000Y-115425000D01*
X104390000Y-116590000D01*
X105605000Y-116590000D01*
X113343000Y-116590000D01*
X114558000Y-116590000D01*
X114558000Y-115425000D01*
X115058000Y-115425000D01*
X115058000Y-116590000D01*
X116273000Y-116590000D01*
X124011000Y-116590000D01*
X125226000Y-116590000D01*
X125226000Y-115425000D01*
X125726000Y-115425000D01*
X125726000Y-116590000D01*
X126941000Y-116590000D01*
X134679000Y-116590000D01*
X135894000Y-116590000D01*
X135894000Y-115425000D01*
X136394000Y-115425000D01*
X136394000Y-116590000D01*
X137609000Y-116590000D01*
X137609000Y-115877176D01*
X137602597Y-115817624D01*
X137552352Y-115682910D01*
X137466188Y-115567811D01*
X137351089Y-115481647D01*
X137216375Y-115431402D01*
X137156824Y-115425000D01*
X136394000Y-115425000D01*
X135894000Y-115425000D01*
X135131176Y-115425000D01*
X135071624Y-115431402D01*
X134936910Y-115481647D01*
X134821811Y-115567811D01*
X134735647Y-115682910D01*
X134685402Y-115817624D01*
X134679000Y-115877176D01*
X134679000Y-116590000D01*
X126941000Y-116590000D01*
X126941000Y-115877176D01*
X126934597Y-115817624D01*
X126884352Y-115682910D01*
X126798188Y-115567811D01*
X126683089Y-115481647D01*
X126548375Y-115431402D01*
X126488824Y-115425000D01*
X125726000Y-115425000D01*
X125226000Y-115425000D01*
X124463176Y-115425000D01*
X124403624Y-115431402D01*
X124268910Y-115481647D01*
X124153811Y-115567811D01*
X124067647Y-115682910D01*
X124017402Y-115817624D01*
X124011000Y-115877176D01*
X124011000Y-116590000D01*
X116273000Y-116590000D01*
X116273000Y-115877176D01*
X116266597Y-115817624D01*
X116216352Y-115682910D01*
X116130188Y-115567811D01*
X116015089Y-115481647D01*
X115880375Y-115431402D01*
X115820824Y-115425000D01*
X115058000Y-115425000D01*
X114558000Y-115425000D01*
X113795176Y-115425000D01*
X113735624Y-115431402D01*
X113600910Y-115481647D01*
X113485811Y-115567811D01*
X113399647Y-115682910D01*
X113349402Y-115817624D01*
X113343000Y-115877176D01*
X113343000Y-116590000D01*
X105605000Y-116590000D01*
X105605000Y-115877176D01*
X105598597Y-115817624D01*
X105548352Y-115682910D01*
X105462188Y-115567811D01*
X105347089Y-115481647D01*
X105212375Y-115431402D01*
X105152824Y-115425000D01*
X104390000Y-115425000D01*
X103890000Y-115425000D01*
X103127176Y-115425000D01*
X103067624Y-115431402D01*
X102932910Y-115481647D01*
X102817811Y-115567811D01*
X102731647Y-115682910D01*
X102681402Y-115817624D01*
X102675000Y-115877176D01*
X102675000Y-116590000D01*
X97140972Y-116590000D01*
X97215802Y-116475465D01*
X97306611Y-116268441D01*
X97362107Y-116049293D01*
X97380775Y-115824000D01*
X97362107Y-115598707D01*
X97306611Y-115379559D01*
X97215802Y-115172535D01*
X97092156Y-114983281D01*
X97092155Y-114983280D01*
X97092152Y-114983275D01*
X96939049Y-114816962D01*
X96845874Y-114744441D01*
X96760649Y-114678107D01*
X96732832Y-114663053D01*
X96685329Y-114617474D01*
X96667851Y-114554000D01*
X96685329Y-114490526D01*
X96732832Y-114444946D01*
X96760649Y-114429893D01*
X96939046Y-114291040D01*
X96939049Y-114291037D01*
X97092152Y-114124724D01*
X97092153Y-114124721D01*
X97092156Y-114124719D01*
X97215802Y-113935465D01*
X97306611Y-113728441D01*
X97362107Y-113509293D01*
X97380775Y-113284000D01*
X97362107Y-113058707D01*
X97306611Y-112839559D01*
X97215802Y-112632535D01*
X97092156Y-112443281D01*
X97092155Y-112443280D01*
X97092152Y-112443275D01*
X96939049Y-112276962D01*
X96760648Y-112138106D01*
X96732832Y-112123053D01*
X96685327Y-112077471D01*
X96667851Y-112013996D01*
X96685330Y-111950523D01*
X96732834Y-111904945D01*
X96760649Y-111889893D01*
X96927536Y-111759999D01*
X102569659Y-111759999D01*
X102588993Y-112005656D01*
X102646516Y-112245261D01*
X102693666Y-112359091D01*
X102740816Y-112472920D01*
X102869567Y-112683023D01*
X103029601Y-112870399D01*
X103216977Y-113030433D01*
X103427080Y-113159184D01*
X103654738Y-113253483D01*
X103894345Y-113311007D01*
X104140000Y-113330341D01*
X104385655Y-113311007D01*
X104625262Y-113253483D01*
X104852920Y-113159184D01*
X105063023Y-113030433D01*
X105250399Y-112870399D01*
X105410433Y-112683023D01*
X105539184Y-112472920D01*
X105633483Y-112245262D01*
X105691007Y-112005655D01*
X105710341Y-111760000D01*
X105710341Y-111759999D01*
X113237659Y-111759999D01*
X113256993Y-112005656D01*
X113314516Y-112245261D01*
X113361666Y-112359091D01*
X113408816Y-112472920D01*
X113537567Y-112683023D01*
X113697601Y-112870399D01*
X113884977Y-113030433D01*
X114095080Y-113159184D01*
X114322738Y-113253483D01*
X114562345Y-113311007D01*
X114808000Y-113330341D01*
X115053655Y-113311007D01*
X115293262Y-113253483D01*
X115520920Y-113159184D01*
X115731023Y-113030433D01*
X115918399Y-112870399D01*
X116078433Y-112683023D01*
X116207184Y-112472920D01*
X116301483Y-112245262D01*
X116359007Y-112005655D01*
X116378341Y-111760000D01*
X116378341Y-111759999D01*
X123905659Y-111759999D01*
X123924993Y-112005656D01*
X123982516Y-112245261D01*
X124029666Y-112359091D01*
X124076816Y-112472920D01*
X124205567Y-112683023D01*
X124365601Y-112870399D01*
X124552977Y-113030433D01*
X124763080Y-113159184D01*
X124990738Y-113253483D01*
X125230345Y-113311007D01*
X125476000Y-113330341D01*
X125721655Y-113311007D01*
X125961262Y-113253483D01*
X126188920Y-113159184D01*
X126399023Y-113030433D01*
X126586399Y-112870399D01*
X126746433Y-112683023D01*
X126875184Y-112472920D01*
X126969483Y-112245262D01*
X127027007Y-112005655D01*
X127046341Y-111760000D01*
X134573659Y-111760000D01*
X134592993Y-112005656D01*
X134650516Y-112245261D01*
X134697666Y-112359091D01*
X134744816Y-112472920D01*
X134873567Y-112683023D01*
X135033601Y-112870399D01*
X135220977Y-113030433D01*
X135431080Y-113159184D01*
X135658738Y-113253483D01*
X135898345Y-113311007D01*
X136144000Y-113330341D01*
X136389655Y-113311007D01*
X136629262Y-113253483D01*
X136856920Y-113159184D01*
X137067023Y-113030433D01*
X137254399Y-112870399D01*
X137414433Y-112683023D01*
X137543184Y-112472920D01*
X137637483Y-112245262D01*
X137695007Y-112005655D01*
X137714341Y-111760000D01*
X137695007Y-111514345D01*
X137637483Y-111274738D01*
X137543184Y-111047080D01*
X137414433Y-110836977D01*
X137254399Y-110649601D01*
X137067023Y-110489567D01*
X136856920Y-110360816D01*
X136743091Y-110313666D01*
X136629261Y-110266516D01*
X136389656Y-110208993D01*
X136144000Y-110189659D01*
X135898343Y-110208993D01*
X135658738Y-110266516D01*
X135431078Y-110360817D01*
X135220978Y-110489566D01*
X135033601Y-110649601D01*
X134873566Y-110836978D01*
X134744817Y-111047078D01*
X134650516Y-111274738D01*
X134592993Y-111514343D01*
X134573659Y-111760000D01*
X127046341Y-111760000D01*
X127027007Y-111514345D01*
X126969483Y-111274738D01*
X126875184Y-111047080D01*
X126746433Y-110836977D01*
X126586399Y-110649601D01*
X126399023Y-110489567D01*
X126188920Y-110360816D01*
X126075091Y-110313666D01*
X125961261Y-110266516D01*
X125721656Y-110208993D01*
X125476000Y-110189659D01*
X125230343Y-110208993D01*
X124990738Y-110266516D01*
X124763078Y-110360817D01*
X124552978Y-110489566D01*
X124365601Y-110649601D01*
X124205566Y-110836978D01*
X124076817Y-111047078D01*
X123982516Y-111274738D01*
X123924993Y-111514343D01*
X123905659Y-111759999D01*
X116378341Y-111759999D01*
X116359007Y-111514345D01*
X116301483Y-111274738D01*
X116207184Y-111047080D01*
X116078433Y-110836977D01*
X115918399Y-110649601D01*
X115731023Y-110489567D01*
X115520920Y-110360816D01*
X115407091Y-110313666D01*
X115293261Y-110266516D01*
X115053656Y-110208993D01*
X114808000Y-110189659D01*
X114562343Y-110208993D01*
X114322738Y-110266516D01*
X114095078Y-110360817D01*
X113884978Y-110489566D01*
X113697601Y-110649601D01*
X113537566Y-110836978D01*
X113408817Y-111047078D01*
X113314516Y-111274738D01*
X113256993Y-111514343D01*
X113237659Y-111759999D01*
X105710341Y-111759999D01*
X105691007Y-111514345D01*
X105633483Y-111274738D01*
X105539184Y-111047080D01*
X105410433Y-110836977D01*
X105250399Y-110649601D01*
X105063023Y-110489567D01*
X104852920Y-110360816D01*
X104739091Y-110313666D01*
X104625261Y-110266516D01*
X104385656Y-110208993D01*
X104140000Y-110189659D01*
X103894343Y-110208993D01*
X103654738Y-110266516D01*
X103427078Y-110360817D01*
X103216978Y-110489566D01*
X103029601Y-110649601D01*
X102869566Y-110836978D01*
X102740817Y-111047078D01*
X102646516Y-111274738D01*
X102588993Y-111514343D01*
X102569659Y-111759999D01*
X96927536Y-111759999D01*
X96939046Y-111751040D01*
X96939049Y-111751037D01*
X97092152Y-111584724D01*
X97092153Y-111584721D01*
X97092156Y-111584719D01*
X97215802Y-111395465D01*
X97306611Y-111188441D01*
X97362107Y-110969293D01*
X97380775Y-110744000D01*
X97362107Y-110518707D01*
X97306611Y-110299559D01*
X97215802Y-110092535D01*
X97092156Y-109903281D01*
X97092155Y-109903280D01*
X97092152Y-109903275D01*
X96939049Y-109736962D01*
X96845874Y-109664441D01*
X96760649Y-109598107D01*
X96732832Y-109583053D01*
X96685329Y-109537474D01*
X96667851Y-109474000D01*
X96685329Y-109410526D01*
X96732832Y-109364946D01*
X96760649Y-109349893D01*
X96939046Y-109211040D01*
X96939049Y-109211037D01*
X97092152Y-109044724D01*
X97092153Y-109044721D01*
X97092156Y-109044719D01*
X97215802Y-108855465D01*
X97306611Y-108648441D01*
X97362107Y-108429293D01*
X97380775Y-108204000D01*
X97362107Y-107978707D01*
X97306611Y-107759559D01*
X97215802Y-107552535D01*
X97092156Y-107363281D01*
X97092155Y-107363280D01*
X97092152Y-107363275D01*
X96939049Y-107196962D01*
X96885367Y-107155179D01*
X96760649Y-107058107D01*
X96732832Y-107043053D01*
X96685329Y-106997474D01*
X96667851Y-106934000D01*
X96685329Y-106870526D01*
X96732832Y-106824946D01*
X96760649Y-106809893D01*
X96769212Y-106803228D01*
X102635308Y-106803228D01*
X102649506Y-107049474D01*
X102703732Y-107290094D01*
X102703733Y-107290098D01*
X102703734Y-107290099D01*
X102796532Y-107518634D01*
X102925411Y-107728945D01*
X103086908Y-107915382D01*
X103276687Y-108072939D01*
X103489650Y-108197385D01*
X103489651Y-108197385D01*
X103489654Y-108197387D01*
X103720073Y-108285375D01*
X103720074Y-108285375D01*
X103720079Y-108285377D01*
X103961785Y-108334553D01*
X104208278Y-108343592D01*
X104452936Y-108312250D01*
X104689191Y-108241370D01*
X104910697Y-108132856D01*
X105111505Y-107989621D01*
X105286223Y-107815512D01*
X105430158Y-107615205D01*
X105539445Y-107394079D01*
X105611149Y-107158074D01*
X105625447Y-107049475D01*
X105643344Y-106913528D01*
X105643425Y-106910179D01*
X105645141Y-106840000D01*
X105642118Y-106803228D01*
X113303308Y-106803228D01*
X113317506Y-107049474D01*
X113371732Y-107290094D01*
X113371733Y-107290098D01*
X113371734Y-107290099D01*
X113464532Y-107518634D01*
X113593411Y-107728945D01*
X113754908Y-107915382D01*
X113944687Y-108072939D01*
X114157650Y-108197385D01*
X114157651Y-108197385D01*
X114157654Y-108197387D01*
X114388073Y-108285375D01*
X114388074Y-108285375D01*
X114388079Y-108285377D01*
X114629785Y-108334553D01*
X114876278Y-108343592D01*
X115120936Y-108312250D01*
X115357191Y-108241370D01*
X115578697Y-108132856D01*
X115779505Y-107989621D01*
X115954223Y-107815512D01*
X116098158Y-107615205D01*
X116207445Y-107394079D01*
X116279149Y-107158074D01*
X116293447Y-107049475D01*
X116311344Y-106913528D01*
X116311425Y-106910179D01*
X116313141Y-106840000D01*
X116310118Y-106803228D01*
X123971308Y-106803228D01*
X123985506Y-107049474D01*
X124039732Y-107290094D01*
X124039733Y-107290098D01*
X124039734Y-107290099D01*
X124132532Y-107518634D01*
X124261411Y-107728945D01*
X124422908Y-107915382D01*
X124612687Y-108072939D01*
X124825650Y-108197385D01*
X124825651Y-108197385D01*
X124825654Y-108197387D01*
X125056073Y-108285375D01*
X125056074Y-108285375D01*
X125056079Y-108285377D01*
X125297785Y-108334553D01*
X125544278Y-108343592D01*
X125788936Y-108312250D01*
X126025191Y-108241370D01*
X126246697Y-108132856D01*
X126447505Y-107989621D01*
X126622223Y-107815512D01*
X126766158Y-107615205D01*
X126875445Y-107394079D01*
X126947149Y-107158074D01*
X126961447Y-107049475D01*
X126979344Y-106913528D01*
X126979425Y-106910179D01*
X126981141Y-106840000D01*
X126978118Y-106803228D01*
X134639308Y-106803228D01*
X134653506Y-107049474D01*
X134707732Y-107290094D01*
X134707733Y-107290098D01*
X134707734Y-107290099D01*
X134800532Y-107518634D01*
X134929411Y-107728945D01*
X135090908Y-107915382D01*
X135280687Y-108072939D01*
X135493650Y-108197385D01*
X135493651Y-108197385D01*
X135493654Y-108197387D01*
X135724073Y-108285375D01*
X135724074Y-108285375D01*
X135724079Y-108285377D01*
X135965785Y-108334553D01*
X136212278Y-108343592D01*
X136456936Y-108312250D01*
X136693191Y-108241370D01*
X136914697Y-108132856D01*
X137115505Y-107989621D01*
X137290223Y-107815512D01*
X137434158Y-107615205D01*
X137543445Y-107394079D01*
X137615149Y-107158074D01*
X137629447Y-107049475D01*
X137647344Y-106913528D01*
X137647425Y-106910179D01*
X137649141Y-106840000D01*
X137628930Y-106594171D01*
X137628930Y-106594169D01*
X137568841Y-106354943D01*
X137470487Y-106128747D01*
X137470486Y-106128744D01*
X137336508Y-105921645D01*
X137170504Y-105739210D01*
X136976932Y-105586336D01*
X136760992Y-105467131D01*
X136704299Y-105447055D01*
X136528480Y-105384792D01*
X136285650Y-105341539D01*
X136162326Y-105340032D01*
X136039006Y-105338525D01*
X136039003Y-105338525D01*
X135795188Y-105375834D01*
X135560732Y-105452466D01*
X135341947Y-105566359D01*
X135144695Y-105714458D01*
X134974286Y-105892783D01*
X134835288Y-106096547D01*
X134731435Y-106320276D01*
X134665518Y-106557963D01*
X134639308Y-106803228D01*
X126978118Y-106803228D01*
X126960930Y-106594171D01*
X126960930Y-106594169D01*
X126900841Y-106354943D01*
X126802487Y-106128747D01*
X126802486Y-106128744D01*
X126668508Y-105921645D01*
X126502504Y-105739210D01*
X126308932Y-105586336D01*
X126092992Y-105467131D01*
X126036299Y-105447055D01*
X125860480Y-105384792D01*
X125617650Y-105341539D01*
X125494326Y-105340032D01*
X125371006Y-105338525D01*
X125371003Y-105338525D01*
X125127188Y-105375834D01*
X124892732Y-105452466D01*
X124673947Y-105566359D01*
X124476695Y-105714458D01*
X124306286Y-105892783D01*
X124167288Y-106096547D01*
X124063435Y-106320276D01*
X123997518Y-106557963D01*
X123971308Y-106803228D01*
X116310118Y-106803228D01*
X116292930Y-106594171D01*
X116292930Y-106594169D01*
X116232841Y-106354943D01*
X116134487Y-106128747D01*
X116134486Y-106128744D01*
X116000508Y-105921645D01*
X115834504Y-105739210D01*
X115640932Y-105586336D01*
X115424992Y-105467131D01*
X115368299Y-105447055D01*
X115192480Y-105384792D01*
X114949650Y-105341539D01*
X114826326Y-105340032D01*
X114703006Y-105338525D01*
X114703003Y-105338525D01*
X114459188Y-105375834D01*
X114224732Y-105452466D01*
X114005947Y-105566359D01*
X113808695Y-105714458D01*
X113638286Y-105892783D01*
X113499288Y-106096547D01*
X113395435Y-106320276D01*
X113329518Y-106557963D01*
X113303308Y-106803228D01*
X105642118Y-106803228D01*
X105624930Y-106594171D01*
X105624930Y-106594169D01*
X105564841Y-106354943D01*
X105466487Y-106128747D01*
X105466486Y-106128744D01*
X105332508Y-105921645D01*
X105166504Y-105739210D01*
X104972932Y-105586336D01*
X104756992Y-105467131D01*
X104700299Y-105447055D01*
X104524480Y-105384792D01*
X104281650Y-105341539D01*
X104158326Y-105340032D01*
X104035006Y-105338525D01*
X104035003Y-105338525D01*
X103791188Y-105375834D01*
X103556732Y-105452466D01*
X103337947Y-105566359D01*
X103140695Y-105714458D01*
X102970286Y-105892783D01*
X102831288Y-106096547D01*
X102727435Y-106320276D01*
X102661518Y-106557963D01*
X102635308Y-106803228D01*
X96769212Y-106803228D01*
X96939046Y-106671040D01*
X96939049Y-106671037D01*
X97092152Y-106504724D01*
X97092153Y-106504721D01*
X97092156Y-106504719D01*
X97215802Y-106315465D01*
X97306611Y-106108441D01*
X97362107Y-105889293D01*
X97380775Y-105664000D01*
X97362107Y-105438707D01*
X97306611Y-105219559D01*
X97215802Y-105012535D01*
X97092156Y-104823281D01*
X97092155Y-104823280D01*
X97092152Y-104823275D01*
X96939049Y-104656962D01*
X96760650Y-104518108D01*
X96760649Y-104518107D01*
X96561831Y-104410512D01*
X96561830Y-104410511D01*
X96561827Y-104410510D01*
X96348016Y-104337109D01*
X96199360Y-104312303D01*
X96125033Y-104299900D01*
X95898967Y-104299900D01*
X95843221Y-104309202D01*
X95675983Y-104337109D01*
X95462172Y-104410510D01*
X95263349Y-104518108D01*
X95084950Y-104656962D01*
X94931847Y-104823275D01*
X94808196Y-105012537D01*
X94717390Y-105219556D01*
X94661892Y-105438711D01*
X94643224Y-105663999D01*
X94661892Y-105889288D01*
X94661892Y-105889291D01*
X94661893Y-105889293D01*
X94714377Y-106096548D01*
X94717390Y-106108443D01*
X94808196Y-106315462D01*
X94931847Y-106504724D01*
X95084950Y-106671037D01*
X95084954Y-106671040D01*
X95263351Y-106809893D01*
X95263353Y-106809894D01*
X95291166Y-106824946D01*
X95338671Y-106870527D01*
X95356148Y-106934000D01*
X95338671Y-106997473D01*
X95291166Y-107043054D01*
X95263353Y-107058105D01*
X95084950Y-107196962D01*
X94931847Y-107363275D01*
X94808196Y-107552537D01*
X94717390Y-107759556D01*
X94717389Y-107759559D01*
X94681625Y-107900788D01*
X94661892Y-107978711D01*
X94643224Y-108204000D01*
X94661892Y-108429288D01*
X94661892Y-108429291D01*
X94661893Y-108429293D01*
X94697154Y-108568537D01*
X94717390Y-108648443D01*
X94808196Y-108855462D01*
X94931847Y-109044724D01*
X95084950Y-109211037D01*
X95084954Y-109211040D01*
X95263351Y-109349893D01*
X95263353Y-109349894D01*
X95291166Y-109364946D01*
X95338671Y-109410527D01*
X95356148Y-109474000D01*
X95338671Y-109537473D01*
X95291166Y-109583054D01*
X95263353Y-109598105D01*
X95084950Y-109736962D01*
X94931847Y-109903275D01*
X94808196Y-110092537D01*
X94717390Y-110299556D01*
X94717389Y-110299559D01*
X94685236Y-110426527D01*
X94661892Y-110518711D01*
X94643224Y-110744000D01*
X94661892Y-110969288D01*
X94661892Y-110969291D01*
X94661893Y-110969293D01*
X94697154Y-111108537D01*
X94717390Y-111188443D01*
X94808196Y-111395462D01*
X94931847Y-111584724D01*
X95084950Y-111751037D01*
X95084954Y-111751040D01*
X95263351Y-111889893D01*
X95291167Y-111904946D01*
X95338670Y-111950523D01*
X95356148Y-112013996D01*
X95338672Y-112077470D01*
X95291168Y-112123052D01*
X95263354Y-112138104D01*
X95084950Y-112276962D01*
X94931847Y-112443275D01*
X94808196Y-112632537D01*
X94717390Y-112839556D01*
X94717389Y-112839559D01*
X94709579Y-112870399D01*
X94661892Y-113058711D01*
X94643224Y-113283999D01*
X94661892Y-113509288D01*
X94661892Y-113509291D01*
X94661893Y-113509293D01*
X94697154Y-113648537D01*
X94717390Y-113728443D01*
X94808196Y-113935462D01*
X94931847Y-114124724D01*
X95084950Y-114291037D01*
X95084954Y-114291040D01*
X95263351Y-114429893D01*
X95263353Y-114429894D01*
X95291166Y-114444946D01*
X95338671Y-114490527D01*
X95356148Y-114554000D01*
X95338671Y-114617473D01*
X95291166Y-114663054D01*
X95263353Y-114678105D01*
X95084950Y-114816962D01*
X94931847Y-114983275D01*
X94808196Y-115172537D01*
X94717390Y-115379556D01*
X94661892Y-115598711D01*
X94643224Y-115823999D01*
X94661892Y-116049288D01*
X94661892Y-116049291D01*
X94661893Y-116049293D01*
X94697154Y-116188537D01*
X94717390Y-116268443D01*
X94808196Y-116475462D01*
X94931847Y-116664724D01*
X95084950Y-116831037D01*
X95084954Y-116831040D01*
X95263351Y-116969893D01*
X95263353Y-116969894D01*
X95291166Y-116984946D01*
X95338671Y-117030527D01*
X95356148Y-117094000D01*
X95338671Y-117157473D01*
X95291166Y-117203054D01*
X95263353Y-117218105D01*
X95084950Y-117356962D01*
X94931847Y-117523275D01*
X94808196Y-117712537D01*
X94717390Y-117919556D01*
X94661892Y-118138711D01*
X94643224Y-118364000D01*
X91440500Y-118364000D01*
X91440500Y-103460000D01*
X102569659Y-103460000D01*
X102588993Y-103705656D01*
X102646516Y-103945261D01*
X102693666Y-104059091D01*
X102740816Y-104172920D01*
X102869567Y-104383023D01*
X103029601Y-104570399D01*
X103216977Y-104730433D01*
X103427080Y-104859184D01*
X103654738Y-104953483D01*
X103894345Y-105011007D01*
X104140000Y-105030341D01*
X104385655Y-105011007D01*
X104625262Y-104953483D01*
X104852920Y-104859184D01*
X105063023Y-104730433D01*
X105250399Y-104570399D01*
X105410433Y-104383023D01*
X105539184Y-104172920D01*
X105633483Y-103945262D01*
X105691007Y-103705655D01*
X105710341Y-103460000D01*
X113237659Y-103460000D01*
X113256993Y-103705656D01*
X113314516Y-103945261D01*
X113361666Y-104059091D01*
X113408816Y-104172920D01*
X113537567Y-104383023D01*
X113697601Y-104570399D01*
X113884977Y-104730433D01*
X114095080Y-104859184D01*
X114322738Y-104953483D01*
X114562345Y-105011007D01*
X114808000Y-105030341D01*
X115053655Y-105011007D01*
X115293262Y-104953483D01*
X115520920Y-104859184D01*
X115731023Y-104730433D01*
X115918399Y-104570399D01*
X116078433Y-104383023D01*
X116207184Y-104172920D01*
X116301483Y-103945262D01*
X116359007Y-103705655D01*
X116378341Y-103460000D01*
X123905659Y-103460000D01*
X123924993Y-103705656D01*
X123982516Y-103945261D01*
X124029666Y-104059091D01*
X124076816Y-104172920D01*
X124205567Y-104383023D01*
X124365601Y-104570399D01*
X124552977Y-104730433D01*
X124763080Y-104859184D01*
X124990738Y-104953483D01*
X125230345Y-105011007D01*
X125476000Y-105030341D01*
X125721655Y-105011007D01*
X125961262Y-104953483D01*
X126188920Y-104859184D01*
X126399023Y-104730433D01*
X126586399Y-104570399D01*
X126746433Y-104383023D01*
X126875184Y-104172920D01*
X126969483Y-103945262D01*
X127027007Y-103705655D01*
X127046341Y-103460000D01*
X134573659Y-103460000D01*
X134592993Y-103705656D01*
X134650516Y-103945261D01*
X134697666Y-104059091D01*
X134744816Y-104172920D01*
X134873567Y-104383023D01*
X135033601Y-104570399D01*
X135220977Y-104730433D01*
X135431080Y-104859184D01*
X135658738Y-104953483D01*
X135898345Y-105011007D01*
X136144000Y-105030341D01*
X136389655Y-105011007D01*
X136629262Y-104953483D01*
X136856920Y-104859184D01*
X137067023Y-104730433D01*
X137254399Y-104570399D01*
X137408474Y-104390000D01*
X142908400Y-104390000D01*
X142908400Y-105051424D01*
X142914802Y-105110975D01*
X142965047Y-105245689D01*
X143032421Y-105335689D01*
X143054320Y-105383642D01*
X143054320Y-105436358D01*
X143032421Y-105484311D01*
X142965047Y-105574310D01*
X142914802Y-105709024D01*
X142908400Y-105768576D01*
X142908400Y-106430000D01*
X144022000Y-106430000D01*
X144022000Y-104390000D01*
X144522000Y-104390000D01*
X144522000Y-106430000D01*
X145635600Y-106430000D01*
X145635600Y-105768576D01*
X145629197Y-105709024D01*
X145578952Y-105574311D01*
X145511578Y-105484311D01*
X145489679Y-105436358D01*
X145489679Y-105383642D01*
X145511578Y-105335689D01*
X145578952Y-105245688D01*
X145629197Y-105110975D01*
X145635600Y-105051424D01*
X145635600Y-104390000D01*
X144522000Y-104390000D01*
X144022000Y-104390000D01*
X142908400Y-104390000D01*
X137408474Y-104390000D01*
X137414433Y-104383023D01*
X137543184Y-104172920D01*
X137637483Y-103945262D01*
X137695007Y-103705655D01*
X137714341Y-103460000D01*
X137695007Y-103214345D01*
X137637483Y-102974738D01*
X137543184Y-102747080D01*
X137414433Y-102536977D01*
X137254399Y-102349601D01*
X137067023Y-102189567D01*
X136856920Y-102060816D01*
X136742835Y-102013560D01*
X136689971Y-101971885D01*
X136666671Y-101908729D01*
X136679804Y-101842705D01*
X136725499Y-101793273D01*
X136790289Y-101775000D01*
X137156824Y-101775000D01*
X137216375Y-101768597D01*
X137351089Y-101718352D01*
X137466188Y-101632188D01*
X137490285Y-101599999D01*
X142903224Y-101599999D01*
X142921892Y-101825288D01*
X142921892Y-101825291D01*
X142921893Y-101825293D01*
X142969569Y-102013561D01*
X142977390Y-102044443D01*
X143068196Y-102251462D01*
X143191847Y-102440724D01*
X143329244Y-102589975D01*
X143358018Y-102642727D01*
X143358611Y-102702814D01*
X143330884Y-102756124D01*
X143281349Y-102790140D01*
X143166311Y-102833047D01*
X143051211Y-102919211D01*
X142965047Y-103034310D01*
X142914802Y-103169024D01*
X142908400Y-103228576D01*
X142908400Y-103890000D01*
X145635600Y-103890000D01*
X145635600Y-103228576D01*
X145629197Y-103169024D01*
X145578952Y-103034310D01*
X145492788Y-102919211D01*
X145377688Y-102833047D01*
X145262650Y-102790140D01*
X145213115Y-102756124D01*
X145185388Y-102702814D01*
X145185981Y-102642727D01*
X145214752Y-102589977D01*
X145352156Y-102440719D01*
X145475802Y-102251465D01*
X145566611Y-102044441D01*
X145622107Y-101825293D01*
X145640775Y-101600000D01*
X145622107Y-101374707D01*
X145566611Y-101155559D01*
X145475802Y-100948535D01*
X145352156Y-100759281D01*
X145352155Y-100759280D01*
X145352152Y-100759275D01*
X145199049Y-100592962D01*
X145020650Y-100454108D01*
X145020649Y-100454107D01*
X144821831Y-100346512D01*
X144821830Y-100346511D01*
X144821827Y-100346510D01*
X144608016Y-100273109D01*
X144459359Y-100248302D01*
X144385033Y-100235900D01*
X144158967Y-100235900D01*
X144103221Y-100245202D01*
X143935983Y-100273109D01*
X143722172Y-100346510D01*
X143523349Y-100454108D01*
X143344950Y-100592962D01*
X143191847Y-100759275D01*
X143068196Y-100948537D01*
X142977390Y-101155556D01*
X142921892Y-101374711D01*
X142903224Y-101599999D01*
X137490285Y-101599999D01*
X137552352Y-101517089D01*
X137602597Y-101382375D01*
X137609000Y-101322824D01*
X137609000Y-100610000D01*
X134679000Y-100610000D01*
X134679000Y-101322824D01*
X134685402Y-101382375D01*
X134735647Y-101517089D01*
X134821811Y-101632188D01*
X134936910Y-101718352D01*
X135071624Y-101768597D01*
X135131176Y-101775000D01*
X135497711Y-101775000D01*
X135562501Y-101793273D01*
X135608196Y-101842705D01*
X135621329Y-101908729D01*
X135598029Y-101971885D01*
X135545164Y-102013561D01*
X135431078Y-102060817D01*
X135220978Y-102189566D01*
X135033601Y-102349601D01*
X134873566Y-102536978D01*
X134744817Y-102747078D01*
X134650516Y-102974738D01*
X134592993Y-103214343D01*
X134573659Y-103460000D01*
X127046341Y-103460000D01*
X127027007Y-103214345D01*
X126969483Y-102974738D01*
X126875184Y-102747080D01*
X126746433Y-102536977D01*
X126586399Y-102349601D01*
X126399023Y-102189567D01*
X126188920Y-102060816D01*
X126074835Y-102013560D01*
X126021971Y-101971885D01*
X125998671Y-101908729D01*
X126011804Y-101842705D01*
X126057499Y-101793273D01*
X126122289Y-101775000D01*
X126488824Y-101775000D01*
X126548375Y-101768597D01*
X126683089Y-101718352D01*
X126798188Y-101632188D01*
X126884352Y-101517089D01*
X126934597Y-101382375D01*
X126941000Y-101322824D01*
X126941000Y-100610000D01*
X124011000Y-100610000D01*
X124011000Y-101322824D01*
X124017402Y-101382375D01*
X124067647Y-101517089D01*
X124153811Y-101632188D01*
X124268910Y-101718352D01*
X124403624Y-101768597D01*
X124463176Y-101775000D01*
X124829711Y-101775000D01*
X124894501Y-101793273D01*
X124940196Y-101842705D01*
X124953329Y-101908729D01*
X124930029Y-101971885D01*
X124877164Y-102013561D01*
X124763078Y-102060817D01*
X124552978Y-102189566D01*
X124365601Y-102349601D01*
X124205566Y-102536978D01*
X124076817Y-102747078D01*
X123982516Y-102974738D01*
X123924993Y-103214343D01*
X123905659Y-103460000D01*
X116378341Y-103460000D01*
X116359007Y-103214345D01*
X116301483Y-102974738D01*
X116207184Y-102747080D01*
X116078433Y-102536977D01*
X115918399Y-102349601D01*
X115731023Y-102189567D01*
X115520920Y-102060816D01*
X115406835Y-102013560D01*
X115353971Y-101971885D01*
X115330671Y-101908729D01*
X115343804Y-101842705D01*
X115389499Y-101793273D01*
X115454289Y-101775000D01*
X115820824Y-101775000D01*
X115880375Y-101768597D01*
X116015089Y-101718352D01*
X116130188Y-101632188D01*
X116216352Y-101517089D01*
X116266597Y-101382375D01*
X116273000Y-101322824D01*
X116273000Y-100610000D01*
X113343000Y-100610000D01*
X113343000Y-101322824D01*
X113349402Y-101382375D01*
X113399647Y-101517089D01*
X113485811Y-101632188D01*
X113600910Y-101718352D01*
X113735624Y-101768597D01*
X113795176Y-101775000D01*
X114161711Y-101775000D01*
X114226501Y-101793273D01*
X114272196Y-101842705D01*
X114285329Y-101908729D01*
X114262029Y-101971885D01*
X114209164Y-102013561D01*
X114095078Y-102060817D01*
X113884978Y-102189566D01*
X113697601Y-102349601D01*
X113537566Y-102536978D01*
X113408817Y-102747078D01*
X113314516Y-102974738D01*
X113256993Y-103214343D01*
X113237659Y-103460000D01*
X105710341Y-103460000D01*
X105691007Y-103214345D01*
X105633483Y-102974738D01*
X105539184Y-102747080D01*
X105410433Y-102536977D01*
X105250399Y-102349601D01*
X105063023Y-102189567D01*
X104852920Y-102060816D01*
X104738835Y-102013560D01*
X104685971Y-101971885D01*
X104662671Y-101908729D01*
X104675804Y-101842705D01*
X104721499Y-101793273D01*
X104786289Y-101775000D01*
X105152824Y-101775000D01*
X105212375Y-101768597D01*
X105347089Y-101718352D01*
X105462188Y-101632188D01*
X105548352Y-101517089D01*
X105598597Y-101382375D01*
X105605000Y-101322824D01*
X105605000Y-100610000D01*
X102675000Y-100610000D01*
X102675000Y-101322824D01*
X102681402Y-101382375D01*
X102731647Y-101517089D01*
X102817811Y-101632188D01*
X102932910Y-101718352D01*
X103067624Y-101768597D01*
X103127176Y-101775000D01*
X103493711Y-101775000D01*
X103558501Y-101793273D01*
X103604196Y-101842705D01*
X103617329Y-101908729D01*
X103594029Y-101971885D01*
X103541164Y-102013561D01*
X103427078Y-102060817D01*
X103216978Y-102189566D01*
X103029601Y-102349601D01*
X102869566Y-102536978D01*
X102740817Y-102747078D01*
X102646516Y-102974738D01*
X102588993Y-103214343D01*
X102569659Y-103460000D01*
X91440500Y-103460000D01*
X91440500Y-101600000D01*
X94643224Y-101600000D01*
X94661892Y-101825288D01*
X94661892Y-101825291D01*
X94661893Y-101825293D01*
X94709569Y-102013561D01*
X94717390Y-102044443D01*
X94808196Y-102251462D01*
X94931847Y-102440724D01*
X95084950Y-102607037D01*
X95084954Y-102607040D01*
X95263351Y-102745893D01*
X95462169Y-102853488D01*
X95675986Y-102926891D01*
X95898967Y-102964100D01*
X96125032Y-102964100D01*
X96125033Y-102964100D01*
X96348014Y-102926891D01*
X96561831Y-102853488D01*
X96760649Y-102745893D01*
X96939046Y-102607040D01*
X96954756Y-102589975D01*
X97092152Y-102440724D01*
X97092155Y-102440720D01*
X97092156Y-102440719D01*
X97215802Y-102251465D01*
X97306611Y-102044441D01*
X97362107Y-101825293D01*
X97380775Y-101600000D01*
X97362107Y-101374707D01*
X97306611Y-101155559D01*
X97215802Y-100948535D01*
X97092156Y-100759281D01*
X97092155Y-100759280D01*
X97092152Y-100759275D01*
X96939049Y-100592962D01*
X96760648Y-100454106D01*
X96732832Y-100439053D01*
X96685327Y-100393471D01*
X96667851Y-100329996D01*
X96685330Y-100266523D01*
X96732834Y-100220945D01*
X96760649Y-100205893D01*
X96883851Y-100110000D01*
X102675000Y-100110000D01*
X103890000Y-100110000D01*
X103890000Y-98945000D01*
X104390000Y-98945000D01*
X104390000Y-100110000D01*
X105605000Y-100110000D01*
X113343000Y-100110000D01*
X114558000Y-100110000D01*
X114558000Y-98945000D01*
X115058000Y-98945000D01*
X115058000Y-100110000D01*
X116273000Y-100110000D01*
X124011000Y-100110000D01*
X125226000Y-100110000D01*
X125226000Y-98945000D01*
X125726000Y-98945000D01*
X125726000Y-100110000D01*
X126941000Y-100110000D01*
X134679000Y-100110000D01*
X135894000Y-100110000D01*
X135894000Y-98945000D01*
X136394000Y-98945000D01*
X136394000Y-100110000D01*
X137609000Y-100110000D01*
X137609000Y-99397176D01*
X137602597Y-99337624D01*
X137552352Y-99202910D01*
X137466188Y-99087811D01*
X137351089Y-99001647D01*
X137216375Y-98951402D01*
X137156824Y-98945000D01*
X136394000Y-98945000D01*
X135894000Y-98945000D01*
X135131176Y-98945000D01*
X135071624Y-98951402D01*
X134936910Y-99001647D01*
X134821811Y-99087811D01*
X134735647Y-99202910D01*
X134685402Y-99337624D01*
X134679000Y-99397176D01*
X134679000Y-100110000D01*
X126941000Y-100110000D01*
X126941000Y-99397176D01*
X126934597Y-99337624D01*
X126884352Y-99202910D01*
X126798188Y-99087811D01*
X126683089Y-99001647D01*
X126548375Y-98951402D01*
X126488824Y-98945000D01*
X125726000Y-98945000D01*
X125226000Y-98945000D01*
X124463176Y-98945000D01*
X124403624Y-98951402D01*
X124268910Y-99001647D01*
X124153811Y-99087811D01*
X124067647Y-99202910D01*
X124017402Y-99337624D01*
X124011000Y-99397176D01*
X124011000Y-100110000D01*
X116273000Y-100110000D01*
X116273000Y-99397176D01*
X116266597Y-99337624D01*
X116216352Y-99202910D01*
X116130188Y-99087811D01*
X116015089Y-99001647D01*
X115880375Y-98951402D01*
X115820824Y-98945000D01*
X115058000Y-98945000D01*
X114558000Y-98945000D01*
X113795176Y-98945000D01*
X113735624Y-98951402D01*
X113600910Y-99001647D01*
X113485811Y-99087811D01*
X113399647Y-99202910D01*
X113349402Y-99337624D01*
X113343000Y-99397176D01*
X113343000Y-100110000D01*
X105605000Y-100110000D01*
X105605000Y-99397176D01*
X105598597Y-99337624D01*
X105548352Y-99202910D01*
X105462188Y-99087811D01*
X105347089Y-99001647D01*
X105212375Y-98951402D01*
X105152824Y-98945000D01*
X104390000Y-98945000D01*
X103890000Y-98945000D01*
X103127176Y-98945000D01*
X103067624Y-98951402D01*
X102932910Y-99001647D01*
X102817811Y-99087811D01*
X102731647Y-99202910D01*
X102681402Y-99337624D01*
X102675000Y-99397176D01*
X102675000Y-100110000D01*
X96883851Y-100110000D01*
X96939046Y-100067040D01*
X96939049Y-100067037D01*
X97092152Y-99900724D01*
X97092153Y-99900721D01*
X97092156Y-99900719D01*
X97215802Y-99711465D01*
X97306611Y-99504441D01*
X97362107Y-99285293D01*
X97380775Y-99060000D01*
X97362107Y-98834707D01*
X97306611Y-98615559D01*
X97215802Y-98408535D01*
X97092156Y-98219281D01*
X97092155Y-98219280D01*
X97092152Y-98219275D01*
X96939049Y-98052962D01*
X96760648Y-97914106D01*
X96732832Y-97899053D01*
X96685327Y-97853471D01*
X96667851Y-97789996D01*
X96685330Y-97726523D01*
X96732834Y-97680945D01*
X96760649Y-97665893D01*
X96939046Y-97527040D01*
X96939049Y-97527037D01*
X97092152Y-97360724D01*
X97092153Y-97360721D01*
X97092156Y-97360719D01*
X97215802Y-97171465D01*
X97306611Y-96964441D01*
X97362107Y-96745293D01*
X97380775Y-96520000D01*
X142903224Y-96520000D01*
X142921892Y-96745288D01*
X142977390Y-96964443D01*
X143068196Y-97171462D01*
X143191847Y-97360724D01*
X143344950Y-97527037D01*
X143344954Y-97527040D01*
X143523351Y-97665893D01*
X143722169Y-97773488D01*
X143935986Y-97846891D01*
X144158967Y-97884100D01*
X144385032Y-97884100D01*
X144385033Y-97884100D01*
X144608014Y-97846891D01*
X144821831Y-97773488D01*
X145020649Y-97665893D01*
X145199046Y-97527040D01*
X145199049Y-97527037D01*
X145352152Y-97360724D01*
X145352153Y-97360721D01*
X145352156Y-97360719D01*
X145475802Y-97171465D01*
X145566611Y-96964441D01*
X145622107Y-96745293D01*
X145640775Y-96520000D01*
X145622107Y-96294707D01*
X145566611Y-96075559D01*
X145475802Y-95868535D01*
X145352156Y-95679281D01*
X145352155Y-95679280D01*
X145352152Y-95679275D01*
X145199049Y-95512962D01*
X145020648Y-95374106D01*
X144992832Y-95359053D01*
X144945327Y-95313471D01*
X144927851Y-95249996D01*
X144945330Y-95186523D01*
X144992834Y-95140945D01*
X145020649Y-95125893D01*
X145199046Y-94987040D01*
X145199049Y-94987037D01*
X145352152Y-94820724D01*
X145352153Y-94820721D01*
X145352156Y-94820719D01*
X145475802Y-94631465D01*
X145566611Y-94424441D01*
X145622107Y-94205293D01*
X145640775Y-93980000D01*
X145622107Y-93754707D01*
X145566611Y-93535559D01*
X145475802Y-93328535D01*
X145352156Y-93139281D01*
X145352155Y-93139280D01*
X145352152Y-93139275D01*
X145199049Y-92972962D01*
X145145367Y-92931179D01*
X145020649Y-92834107D01*
X144992832Y-92819053D01*
X144945329Y-92773474D01*
X144927851Y-92710000D01*
X144945329Y-92646526D01*
X144992832Y-92600946D01*
X145020649Y-92585893D01*
X145199046Y-92447040D01*
X145199049Y-92447037D01*
X145352152Y-92280724D01*
X145352153Y-92280721D01*
X145352156Y-92280719D01*
X145475802Y-92091465D01*
X145566611Y-91884441D01*
X145622107Y-91665293D01*
X145640775Y-91440000D01*
X145622107Y-91214707D01*
X145566611Y-90995559D01*
X145475802Y-90788535D01*
X145352156Y-90599281D01*
X145352155Y-90599280D01*
X145352152Y-90599275D01*
X145199049Y-90432962D01*
X145145367Y-90391179D01*
X145020649Y-90294107D01*
X144992832Y-90279053D01*
X144945329Y-90233474D01*
X144927851Y-90170000D01*
X144945329Y-90106526D01*
X144992832Y-90060946D01*
X145020649Y-90045893D01*
X145199046Y-89907040D01*
X145199049Y-89907037D01*
X145352152Y-89740724D01*
X145352153Y-89740721D01*
X145352156Y-89740719D01*
X145475802Y-89551465D01*
X145566611Y-89344441D01*
X145622107Y-89125293D01*
X145640775Y-88900000D01*
X145622107Y-88674707D01*
X145566611Y-88455559D01*
X145475802Y-88248535D01*
X145352156Y-88059281D01*
X145352155Y-88059280D01*
X145352152Y-88059275D01*
X145199049Y-87892962D01*
X145145367Y-87851179D01*
X145020649Y-87754107D01*
X144992832Y-87739053D01*
X144945329Y-87693474D01*
X144927851Y-87630000D01*
X144945329Y-87566526D01*
X144992832Y-87520946D01*
X145020649Y-87505893D01*
X145199046Y-87367040D01*
X145199049Y-87367037D01*
X145352152Y-87200724D01*
X145352153Y-87200721D01*
X145352156Y-87200719D01*
X145475802Y-87011465D01*
X145566611Y-86804441D01*
X145622107Y-86585293D01*
X145640775Y-86360000D01*
X145622107Y-86134707D01*
X145566611Y-85915559D01*
X145475802Y-85708535D01*
X145352156Y-85519281D01*
X145352155Y-85519280D01*
X145352152Y-85519275D01*
X145199049Y-85352962D01*
X145145367Y-85311179D01*
X145020649Y-85214107D01*
X144992832Y-85199053D01*
X144945329Y-85153474D01*
X144927851Y-85090000D01*
X144945329Y-85026526D01*
X144992832Y-84980946D01*
X145020649Y-84965893D01*
X145199046Y-84827040D01*
X145199049Y-84827037D01*
X145352152Y-84660724D01*
X145352153Y-84660721D01*
X145352156Y-84660719D01*
X145475802Y-84471465D01*
X145566611Y-84264441D01*
X145622107Y-84045293D01*
X145640775Y-83820000D01*
X145622107Y-83594707D01*
X145566611Y-83375559D01*
X145475802Y-83168535D01*
X145352156Y-82979281D01*
X145352155Y-82979280D01*
X145352152Y-82979275D01*
X145199049Y-82812962D01*
X145020650Y-82674108D01*
X145020649Y-82674107D01*
X144821831Y-82566512D01*
X144821830Y-82566511D01*
X144821827Y-82566510D01*
X144608016Y-82493109D01*
X144459359Y-82468302D01*
X144385033Y-82455900D01*
X144158967Y-82455900D01*
X144103221Y-82465202D01*
X143935983Y-82493109D01*
X143722172Y-82566510D01*
X143523349Y-82674108D01*
X143344950Y-82812962D01*
X143191847Y-82979275D01*
X143068196Y-83168537D01*
X142977390Y-83375556D01*
X142921892Y-83594711D01*
X142903224Y-83819999D01*
X142921892Y-84045288D01*
X142977390Y-84264443D01*
X143068196Y-84471462D01*
X143191847Y-84660724D01*
X143344950Y-84827037D01*
X143344954Y-84827040D01*
X143523351Y-84965893D01*
X143551167Y-84980946D01*
X143598670Y-85026523D01*
X143616148Y-85089996D01*
X143598672Y-85153470D01*
X143551168Y-85199052D01*
X143523354Y-85214104D01*
X143344950Y-85352962D01*
X143191847Y-85519275D01*
X143068196Y-85708537D01*
X142977390Y-85915556D01*
X142921892Y-86134711D01*
X142903224Y-86359999D01*
X142921892Y-86585288D01*
X142977390Y-86804443D01*
X143068196Y-87011462D01*
X143191847Y-87200724D01*
X143344950Y-87367037D01*
X143344954Y-87367040D01*
X143523351Y-87505893D01*
X143523353Y-87505894D01*
X143551166Y-87520946D01*
X143598671Y-87566527D01*
X143616148Y-87630000D01*
X143598671Y-87693473D01*
X143551166Y-87739054D01*
X143523353Y-87754105D01*
X143344950Y-87892962D01*
X143191847Y-88059275D01*
X143068196Y-88248537D01*
X142977390Y-88455556D01*
X142921892Y-88674711D01*
X142903224Y-88899999D01*
X142921892Y-89125288D01*
X142977390Y-89344443D01*
X143068196Y-89551462D01*
X143191847Y-89740724D01*
X143344950Y-89907037D01*
X143344954Y-89907040D01*
X143523351Y-90045893D01*
X143523353Y-90045894D01*
X143551166Y-90060946D01*
X143598671Y-90106527D01*
X143616148Y-90170000D01*
X143598671Y-90233473D01*
X143551166Y-90279054D01*
X143523353Y-90294105D01*
X143344950Y-90432962D01*
X143191847Y-90599275D01*
X143068196Y-90788537D01*
X142977390Y-90995556D01*
X142921892Y-91214711D01*
X142903224Y-91439999D01*
X142921892Y-91665288D01*
X142977390Y-91884443D01*
X143068196Y-92091462D01*
X143191847Y-92280724D01*
X143344950Y-92447037D01*
X143344954Y-92447040D01*
X143523351Y-92585893D01*
X143523353Y-92585894D01*
X143551166Y-92600946D01*
X143598671Y-92646527D01*
X143616148Y-92710000D01*
X143598671Y-92773473D01*
X143551166Y-92819054D01*
X143523353Y-92834105D01*
X143344950Y-92972962D01*
X143191847Y-93139275D01*
X143068196Y-93328537D01*
X142977390Y-93535556D01*
X142921892Y-93754711D01*
X142903224Y-93980000D01*
X142921892Y-94205288D01*
X142977390Y-94424443D01*
X143068196Y-94631462D01*
X143191847Y-94820724D01*
X143344950Y-94987037D01*
X143344954Y-94987040D01*
X143523351Y-95125893D01*
X143523353Y-95125894D01*
X143551166Y-95140946D01*
X143598671Y-95186527D01*
X143616148Y-95250000D01*
X143598671Y-95313473D01*
X143551166Y-95359054D01*
X143523353Y-95374105D01*
X143344950Y-95512962D01*
X143191847Y-95679275D01*
X143068196Y-95868537D01*
X142977390Y-96075556D01*
X142921892Y-96294711D01*
X142903224Y-96520000D01*
X97380775Y-96520000D01*
X97362107Y-96294707D01*
X97306611Y-96075559D01*
X97215802Y-95868535D01*
X97092156Y-95679281D01*
X97092155Y-95679280D01*
X97092152Y-95679275D01*
X96939049Y-95512962D01*
X96760648Y-95374106D01*
X96732832Y-95359053D01*
X96685327Y-95313471D01*
X96667851Y-95249996D01*
X96685330Y-95186523D01*
X96732834Y-95140945D01*
X96760649Y-95125893D01*
X96939046Y-94987040D01*
X96939049Y-94987037D01*
X97092152Y-94820724D01*
X97092153Y-94820721D01*
X97092156Y-94820719D01*
X97215802Y-94631465D01*
X97306611Y-94424441D01*
X97362107Y-94205293D01*
X97380775Y-93980000D01*
X97362107Y-93754707D01*
X97306611Y-93535559D01*
X97215802Y-93328535D01*
X97092156Y-93139281D01*
X97092155Y-93139280D01*
X97092152Y-93139275D01*
X96939049Y-92972962D01*
X96885367Y-92931179D01*
X96760649Y-92834107D01*
X96732832Y-92819053D01*
X96685329Y-92773474D01*
X96667851Y-92710000D01*
X96685329Y-92646526D01*
X96732832Y-92600946D01*
X96760649Y-92585893D01*
X96939046Y-92447040D01*
X96939049Y-92447037D01*
X97092152Y-92280724D01*
X97092153Y-92280721D01*
X97092156Y-92280719D01*
X97215802Y-92091465D01*
X97306611Y-91884441D01*
X97362107Y-91665293D01*
X97380775Y-91440000D01*
X97362107Y-91214707D01*
X97306611Y-90995559D01*
X97215802Y-90788535D01*
X97092156Y-90599281D01*
X97092155Y-90599280D01*
X97092152Y-90599275D01*
X96939049Y-90432962D01*
X96885367Y-90391179D01*
X96760649Y-90294107D01*
X96732832Y-90279053D01*
X96685329Y-90233474D01*
X96667851Y-90170000D01*
X96685329Y-90106526D01*
X96732832Y-90060946D01*
X96760649Y-90045893D01*
X96939046Y-89907040D01*
X96939049Y-89907037D01*
X97092152Y-89740724D01*
X97092153Y-89740721D01*
X97092156Y-89740719D01*
X97215802Y-89551465D01*
X97306611Y-89344441D01*
X97362107Y-89125293D01*
X97380775Y-88900000D01*
X97362107Y-88674707D01*
X97306611Y-88455559D01*
X97215802Y-88248535D01*
X97092156Y-88059281D01*
X97092155Y-88059280D01*
X97092152Y-88059275D01*
X96939049Y-87892962D01*
X96885367Y-87851179D01*
X96760649Y-87754107D01*
X96732832Y-87739053D01*
X96685329Y-87693474D01*
X96667851Y-87630000D01*
X96685329Y-87566526D01*
X96732832Y-87520946D01*
X96760649Y-87505893D01*
X96939046Y-87367040D01*
X96939049Y-87367037D01*
X97092152Y-87200724D01*
X97092153Y-87200721D01*
X97092156Y-87200719D01*
X97215802Y-87011465D01*
X97306611Y-86804441D01*
X97362107Y-86585293D01*
X97380775Y-86360000D01*
X97362107Y-86134707D01*
X97306611Y-85915559D01*
X97215802Y-85708535D01*
X97092156Y-85519281D01*
X97092155Y-85519280D01*
X97092152Y-85519275D01*
X96939049Y-85352962D01*
X96885367Y-85311179D01*
X96760649Y-85214107D01*
X96732832Y-85199053D01*
X96685329Y-85153474D01*
X96667851Y-85090000D01*
X96685329Y-85026526D01*
X96732832Y-84980946D01*
X96760649Y-84965893D01*
X96939046Y-84827040D01*
X96939049Y-84827037D01*
X97092152Y-84660724D01*
X97092153Y-84660721D01*
X97092156Y-84660719D01*
X97215802Y-84471465D01*
X97306611Y-84264441D01*
X97362107Y-84045293D01*
X97380775Y-83820000D01*
X97362107Y-83594707D01*
X97306611Y-83375559D01*
X97215802Y-83168535D01*
X97092156Y-82979281D01*
X97092155Y-82979280D01*
X97092152Y-82979275D01*
X96939049Y-82812962D01*
X96760650Y-82674108D01*
X96760649Y-82674107D01*
X96561831Y-82566512D01*
X96561830Y-82566511D01*
X96561827Y-82566510D01*
X96348016Y-82493109D01*
X96199359Y-82468302D01*
X96125033Y-82455900D01*
X95898967Y-82455900D01*
X95843221Y-82465202D01*
X95675983Y-82493109D01*
X95462172Y-82566510D01*
X95263349Y-82674108D01*
X95084950Y-82812962D01*
X94931847Y-82979275D01*
X94808196Y-83168537D01*
X94717390Y-83375556D01*
X94661892Y-83594711D01*
X94643224Y-83820000D01*
X94661892Y-84045288D01*
X94717390Y-84264443D01*
X94808196Y-84471462D01*
X94931847Y-84660724D01*
X95084950Y-84827037D01*
X95084954Y-84827040D01*
X95263351Y-84965893D01*
X95291167Y-84980946D01*
X95338670Y-85026523D01*
X95356148Y-85089996D01*
X95338672Y-85153470D01*
X95291168Y-85199052D01*
X95263354Y-85214104D01*
X95084950Y-85352962D01*
X94931847Y-85519275D01*
X94808196Y-85708537D01*
X94717390Y-85915556D01*
X94661892Y-86134711D01*
X94643224Y-86360000D01*
X94661892Y-86585288D01*
X94717390Y-86804443D01*
X94808196Y-87011462D01*
X94931847Y-87200724D01*
X95084950Y-87367037D01*
X95084954Y-87367040D01*
X95263351Y-87505893D01*
X95263353Y-87505894D01*
X95291166Y-87520946D01*
X95338671Y-87566527D01*
X95356148Y-87630000D01*
X95338671Y-87693473D01*
X95291166Y-87739054D01*
X95263353Y-87754105D01*
X95084950Y-87892962D01*
X94931847Y-88059275D01*
X94808196Y-88248537D01*
X94717390Y-88455556D01*
X94661892Y-88674711D01*
X94643224Y-88899999D01*
X94661892Y-89125288D01*
X94717390Y-89344443D01*
X94808196Y-89551462D01*
X94931847Y-89740724D01*
X95084950Y-89907037D01*
X95084954Y-89907040D01*
X95263351Y-90045893D01*
X95263353Y-90045894D01*
X95291166Y-90060946D01*
X95338671Y-90106527D01*
X95356148Y-90170000D01*
X95338671Y-90233473D01*
X95291166Y-90279054D01*
X95263353Y-90294105D01*
X95084950Y-90432962D01*
X94931847Y-90599275D01*
X94808196Y-90788537D01*
X94717390Y-90995556D01*
X94661892Y-91214711D01*
X94643224Y-91439999D01*
X94661892Y-91665288D01*
X94717390Y-91884443D01*
X94808196Y-92091462D01*
X94931847Y-92280724D01*
X95084950Y-92447037D01*
X95084954Y-92447040D01*
X95263351Y-92585893D01*
X95263353Y-92585894D01*
X95291166Y-92600946D01*
X95338671Y-92646527D01*
X95356148Y-92710000D01*
X95338671Y-92773473D01*
X95291166Y-92819054D01*
X95263353Y-92834105D01*
X95084950Y-92972962D01*
X94931847Y-93139275D01*
X94808196Y-93328537D01*
X94717390Y-93535556D01*
X94661892Y-93754711D01*
X94643224Y-93980000D01*
X94661892Y-94205288D01*
X94717390Y-94424443D01*
X94808196Y-94631462D01*
X94931847Y-94820724D01*
X95084950Y-94987037D01*
X95084954Y-94987040D01*
X95263351Y-95125893D01*
X95263353Y-95125894D01*
X95291166Y-95140946D01*
X95338671Y-95186527D01*
X95356148Y-95250000D01*
X95338671Y-95313473D01*
X95291166Y-95359054D01*
X95263353Y-95374105D01*
X95084950Y-95512962D01*
X94931847Y-95679275D01*
X94808196Y-95868537D01*
X94717390Y-96075556D01*
X94661892Y-96294711D01*
X94643224Y-96520000D01*
X94661892Y-96745288D01*
X94717390Y-96964443D01*
X94808196Y-97171462D01*
X94931847Y-97360724D01*
X95084950Y-97527037D01*
X95084954Y-97527040D01*
X95263351Y-97665893D01*
X95291167Y-97680946D01*
X95338670Y-97726523D01*
X95356148Y-97789996D01*
X95338672Y-97853470D01*
X95291168Y-97899052D01*
X95263354Y-97914104D01*
X95084950Y-98052962D01*
X94931847Y-98219275D01*
X94808196Y-98408537D01*
X94717390Y-98615556D01*
X94661892Y-98834711D01*
X94643224Y-99059999D01*
X94661892Y-99285288D01*
X94717390Y-99504443D01*
X94808196Y-99711462D01*
X94931847Y-99900724D01*
X95084950Y-100067037D01*
X95084954Y-100067040D01*
X95263351Y-100205893D01*
X95291167Y-100220946D01*
X95338670Y-100266523D01*
X95356148Y-100329996D01*
X95338672Y-100393470D01*
X95291168Y-100439052D01*
X95263354Y-100454104D01*
X95084950Y-100592962D01*
X94931847Y-100759275D01*
X94808196Y-100948537D01*
X94717390Y-101155556D01*
X94661892Y-101374711D01*
X94643224Y-101600000D01*
X91440500Y-101600000D01*
X91440500Y-79248000D01*
X94656340Y-79248000D01*
X94676936Y-79483407D01*
X94678569Y-79489500D01*
X94738097Y-79711663D01*
X94837965Y-79925830D01*
X94973505Y-80119401D01*
X95140599Y-80286495D01*
X95334170Y-80422035D01*
X95548337Y-80521903D01*
X95776591Y-80583062D01*
X95776592Y-80583063D01*
X96011999Y-80603659D01*
X96011999Y-80603658D01*
X96012000Y-80603659D01*
X96247408Y-80583063D01*
X96475663Y-80521903D01*
X96689830Y-80422035D01*
X96883401Y-80286495D01*
X97005329Y-80164566D01*
X97058072Y-80133273D01*
X97119365Y-80131084D01*
X97174209Y-80158537D01*
X97209189Y-80208916D01*
X97258204Y-80340331D01*
X97344454Y-80455546D01*
X97459669Y-80541796D01*
X97594517Y-80592091D01*
X97654127Y-80598500D01*
X99449872Y-80598499D01*
X99509483Y-80592091D01*
X99644331Y-80541796D01*
X99759546Y-80455546D01*
X99845796Y-80340331D01*
X99896091Y-80205483D01*
X99902500Y-80145873D01*
X99902500Y-79489500D01*
X99919113Y-79427500D01*
X99964500Y-79382113D01*
X100026500Y-79365500D01*
X118281256Y-79365500D01*
X118301762Y-79367764D01*
X118304665Y-79367672D01*
X118304667Y-79367673D01*
X118371872Y-79365561D01*
X118375768Y-79365500D01*
X118403349Y-79365500D01*
X118403350Y-79365500D01*
X118407319Y-79364998D01*
X118418965Y-79364080D01*
X118462627Y-79362709D01*
X118481859Y-79357120D01*
X118500918Y-79353174D01*
X118507196Y-79352381D01*
X118520792Y-79350664D01*
X118561407Y-79334582D01*
X118572444Y-79330803D01*
X118614390Y-79318618D01*
X118631629Y-79308422D01*
X118649102Y-79299862D01*
X118667732Y-79292486D01*
X118703064Y-79266814D01*
X118712830Y-79260400D01*
X118750418Y-79238171D01*
X118750417Y-79238171D01*
X118750420Y-79238170D01*
X118764585Y-79224004D01*
X118779373Y-79211373D01*
X118795587Y-79199594D01*
X118823438Y-79165926D01*
X118831279Y-79157309D01*
X120188720Y-77799869D01*
X129255500Y-77799869D01*
X129261909Y-77859483D01*
X129312204Y-77994331D01*
X129398454Y-78109546D01*
X129513669Y-78195796D01*
X129648517Y-78246091D01*
X129708127Y-78252500D01*
X131403872Y-78252499D01*
X131463483Y-78246091D01*
X131598331Y-78195796D01*
X131713546Y-78109546D01*
X131799796Y-77994331D01*
X131850091Y-77859483D01*
X131853862Y-77824405D01*
X131874239Y-77768486D01*
X131918328Y-77728501D01*
X131975969Y-77713667D01*
X132033882Y-77727400D01*
X132078725Y-77766537D01*
X132095951Y-77791138D01*
X132256859Y-77952046D01*
X132443264Y-78082567D01*
X132443265Y-78082567D01*
X132443266Y-78082568D01*
X132649504Y-78178739D01*
X132869308Y-78237635D01*
X133096000Y-78257468D01*
X133322692Y-78237635D01*
X133542496Y-78178739D01*
X133748734Y-78082568D01*
X133935139Y-77952047D01*
X134096047Y-77791139D01*
X134226568Y-77604734D01*
X134253618Y-77546724D01*
X134299375Y-77494549D01*
X134366000Y-77475129D01*
X134432625Y-77494549D01*
X134478382Y-77546725D01*
X134505431Y-77604733D01*
X134635953Y-77791140D01*
X134796859Y-77952046D01*
X134983264Y-78082567D01*
X134983265Y-78082567D01*
X134983266Y-78082568D01*
X135189504Y-78178739D01*
X135409308Y-78237635D01*
X135636000Y-78257468D01*
X135862692Y-78237635D01*
X136082496Y-78178739D01*
X136288734Y-78082568D01*
X136475139Y-77952047D01*
X136636047Y-77791139D01*
X136766568Y-77604734D01*
X136793618Y-77546724D01*
X136839375Y-77494549D01*
X136906000Y-77475129D01*
X136972625Y-77494549D01*
X137018382Y-77546725D01*
X137045431Y-77604733D01*
X137175953Y-77791140D01*
X137336859Y-77952046D01*
X137523264Y-78082567D01*
X137523265Y-78082567D01*
X137523266Y-78082568D01*
X137729504Y-78178739D01*
X137949308Y-78237635D01*
X138176000Y-78257468D01*
X138402692Y-78237635D01*
X138622496Y-78178739D01*
X138828734Y-78082568D01*
X139015139Y-77952047D01*
X139176047Y-77791139D01*
X139306568Y-77604734D01*
X139386268Y-77433817D01*
X145206551Y-77433817D01*
X145226317Y-77684967D01*
X145285126Y-77929928D01*
X145311803Y-77994331D01*
X145381534Y-78162677D01*
X145513164Y-78377477D01*
X145676776Y-78569042D01*
X145868341Y-78732654D01*
X146083141Y-78864284D01*
X146315889Y-78960691D01*
X146560852Y-79019501D01*
X146812000Y-79039267D01*
X147063148Y-79019501D01*
X147308111Y-78960691D01*
X147540859Y-78864284D01*
X147755659Y-78732654D01*
X147947224Y-78569042D01*
X148110836Y-78377477D01*
X148242466Y-78162677D01*
X148338873Y-77929929D01*
X148397683Y-77684966D01*
X148417449Y-77433818D01*
X148397683Y-77182670D01*
X148338873Y-76937707D01*
X148242466Y-76704959D01*
X148110836Y-76490159D01*
X147947224Y-76298594D01*
X147755659Y-76134982D01*
X147540859Y-76003352D01*
X147416770Y-75951953D01*
X147308110Y-75906944D01*
X147063149Y-75848135D01*
X146937574Y-75838252D01*
X146812000Y-75828369D01*
X146811999Y-75828369D01*
X146560850Y-75848135D01*
X146315889Y-75906944D01*
X146083139Y-76003353D01*
X145868342Y-76134981D01*
X145676776Y-76298594D01*
X145513163Y-76490160D01*
X145381535Y-76704957D01*
X145285126Y-76937707D01*
X145226317Y-77182668D01*
X145206551Y-77433817D01*
X139386268Y-77433817D01*
X139402739Y-77398496D01*
X139461635Y-77178692D01*
X139481468Y-76952000D01*
X139461635Y-76725308D01*
X139402739Y-76505504D01*
X139306568Y-76299266D01*
X139306097Y-76298594D01*
X139176046Y-76112859D01*
X139015140Y-75951953D01*
X138828735Y-75821432D01*
X138622497Y-75725261D01*
X138402689Y-75666364D01*
X138176000Y-75646531D01*
X137949310Y-75666364D01*
X137729502Y-75725261D01*
X137523264Y-75821432D01*
X137336859Y-75951953D01*
X137175953Y-76112859D01*
X137045433Y-76299263D01*
X137018382Y-76357275D01*
X136972625Y-76409450D01*
X136906000Y-76428869D01*
X136839375Y-76409450D01*
X136793618Y-76357275D01*
X136766568Y-76299266D01*
X136766566Y-76299263D01*
X136636046Y-76112859D01*
X136475140Y-75951953D01*
X136288735Y-75821432D01*
X136082497Y-75725261D01*
X135862689Y-75666364D01*
X135636000Y-75646531D01*
X135409310Y-75666364D01*
X135189502Y-75725261D01*
X134983264Y-75821432D01*
X134796859Y-75951953D01*
X134635953Y-76112859D01*
X134505433Y-76299263D01*
X134478382Y-76357275D01*
X134432625Y-76409450D01*
X134366000Y-76428869D01*
X134299375Y-76409450D01*
X134253618Y-76357275D01*
X134226568Y-76299266D01*
X134226566Y-76299263D01*
X134096046Y-76112859D01*
X133935140Y-75951953D01*
X133748735Y-75821432D01*
X133542497Y-75725261D01*
X133322689Y-75666364D01*
X133096000Y-75646531D01*
X132869310Y-75666364D01*
X132649502Y-75725261D01*
X132443264Y-75821432D01*
X132256859Y-75951953D01*
X132095951Y-76112861D01*
X132078725Y-76137463D01*
X132033882Y-76176600D01*
X131975969Y-76190333D01*
X131918328Y-76175499D01*
X131874239Y-76135514D01*
X131853861Y-76079592D01*
X131850091Y-76044517D01*
X131799796Y-75909669D01*
X131713546Y-75794454D01*
X131598331Y-75708204D01*
X131463483Y-75657909D01*
X131403873Y-75651500D01*
X131403869Y-75651500D01*
X129708130Y-75651500D01*
X129648515Y-75657909D01*
X129513669Y-75708204D01*
X129398454Y-75794454D01*
X129312204Y-75909668D01*
X129261909Y-76044516D01*
X129255500Y-76104130D01*
X129255500Y-77799869D01*
X120188720Y-77799869D01*
X123899771Y-74088819D01*
X123940000Y-74061939D01*
X123987453Y-74052500D01*
X124046648Y-74052500D01*
X124170083Y-74026262D01*
X124231803Y-74013144D01*
X124404730Y-73936151D01*
X124557871Y-73824888D01*
X124684533Y-73684216D01*
X124779179Y-73520284D01*
X124785222Y-73501687D01*
X145211500Y-73501687D01*
X145217909Y-73561301D01*
X145268204Y-73696149D01*
X145354454Y-73811364D01*
X145469669Y-73897614D01*
X145604517Y-73947909D01*
X145664127Y-73954318D01*
X147959872Y-73954317D01*
X148019483Y-73947909D01*
X148154331Y-73897614D01*
X148269546Y-73811364D01*
X148355796Y-73696149D01*
X148406091Y-73561301D01*
X148412500Y-73501691D01*
X148412499Y-71205946D01*
X148406091Y-71146335D01*
X148355796Y-71011487D01*
X148269546Y-70896272D01*
X148154331Y-70810022D01*
X148019483Y-70759727D01*
X147959873Y-70753318D01*
X147959869Y-70753318D01*
X145664130Y-70753318D01*
X145604515Y-70759727D01*
X145469669Y-70810022D01*
X145354454Y-70896272D01*
X145268204Y-71011486D01*
X145217909Y-71146334D01*
X145211500Y-71205948D01*
X145211500Y-73501687D01*
X124785222Y-73501687D01*
X124837674Y-73340256D01*
X124857460Y-73152000D01*
X124837674Y-72963744D01*
X124780766Y-72788599D01*
X124779179Y-72783715D01*
X124684533Y-72619783D01*
X124557870Y-72479110D01*
X124404730Y-72367848D01*
X124231802Y-72290855D01*
X124046648Y-72251500D01*
X124046646Y-72251500D01*
X123857354Y-72251500D01*
X123857352Y-72251500D01*
X123672197Y-72290855D01*
X123499269Y-72367848D01*
X123346129Y-72479110D01*
X123219466Y-72619783D01*
X123124820Y-72783715D01*
X123066326Y-72963742D01*
X123048679Y-73131649D01*
X123037279Y-73172070D01*
X123013039Y-73206368D01*
X118141228Y-78078181D01*
X118101000Y-78105061D01*
X118053547Y-78114500D01*
X99877047Y-78114500D01*
X99821543Y-78101384D01*
X99777781Y-78064812D01*
X99759546Y-78040454D01*
X99644331Y-77954204D01*
X99509483Y-77903909D01*
X99509482Y-77903908D01*
X99449873Y-77897500D01*
X99449869Y-77897500D01*
X97654130Y-77897500D01*
X97594515Y-77903909D01*
X97459669Y-77954204D01*
X97344454Y-78040454D01*
X97258204Y-78155669D01*
X97209189Y-78287083D01*
X97174209Y-78337462D01*
X97119365Y-78364915D01*
X97058072Y-78362726D01*
X97005326Y-78331430D01*
X96883404Y-78209508D01*
X96883403Y-78209507D01*
X96883401Y-78209505D01*
X96689830Y-78073965D01*
X96475663Y-77974097D01*
X96414502Y-77957709D01*
X96247407Y-77912936D01*
X96012000Y-77892340D01*
X95776592Y-77912936D01*
X95548336Y-77974097D01*
X95334170Y-78073965D01*
X95140598Y-78209505D01*
X94973505Y-78376598D01*
X94837965Y-78570170D01*
X94738097Y-78784336D01*
X94676936Y-79012592D01*
X94656340Y-79248000D01*
X91440500Y-79248000D01*
X91440500Y-73660000D01*
X95672340Y-73660000D01*
X95692936Y-73895407D01*
X95724484Y-74013144D01*
X95754097Y-74123663D01*
X95853965Y-74337830D01*
X95989505Y-74531401D01*
X96156599Y-74698495D01*
X96350170Y-74834035D01*
X96564337Y-74933903D01*
X96792592Y-74995063D01*
X97028000Y-75015659D01*
X97263408Y-74995063D01*
X97491663Y-74933903D01*
X97705830Y-74834035D01*
X97790248Y-74774925D01*
X98806625Y-74774925D01*
X98890420Y-74833599D01*
X99104507Y-74933430D01*
X99332681Y-74994569D01*
X99568000Y-75015157D01*
X99803318Y-74994569D01*
X100031492Y-74933430D01*
X100245576Y-74833600D01*
X100329373Y-74774925D01*
X101346625Y-74774925D01*
X101430420Y-74833599D01*
X101644507Y-74933430D01*
X101872681Y-74994569D01*
X102108000Y-75015157D01*
X102343318Y-74994569D01*
X102571492Y-74933430D01*
X102785576Y-74833600D01*
X102869373Y-74774925D01*
X103886625Y-74774925D01*
X103970420Y-74833599D01*
X104184507Y-74933430D01*
X104412681Y-74994569D01*
X104648000Y-75015157D01*
X104883318Y-74994569D01*
X105111492Y-74933430D01*
X105325576Y-74833600D01*
X105409373Y-74774925D01*
X104648000Y-74013553D01*
X103886625Y-74774925D01*
X102869373Y-74774925D01*
X102108000Y-74013553D01*
X101346625Y-74774925D01*
X100329373Y-74774925D01*
X99568000Y-74013553D01*
X98806625Y-74774925D01*
X97790248Y-74774925D01*
X97899401Y-74698495D01*
X98066495Y-74531401D01*
X98196732Y-74345402D01*
X98241048Y-74306539D01*
X98298305Y-74292528D01*
X98355562Y-74306539D01*
X98399880Y-74345405D01*
X98453073Y-74421373D01*
X99214447Y-73660001D01*
X99921553Y-73660001D01*
X100682925Y-74421373D01*
X100736424Y-74344969D01*
X100780742Y-74306103D01*
X100837999Y-74292092D01*
X100895256Y-74306103D01*
X100939574Y-74344969D01*
X100993072Y-74421373D01*
X100993073Y-74421373D01*
X101754447Y-73660001D01*
X101754447Y-73660000D01*
X102461553Y-73660000D01*
X103222925Y-74421373D01*
X103276424Y-74344969D01*
X103320742Y-74306103D01*
X103377999Y-74292092D01*
X103435256Y-74306103D01*
X103479574Y-74344969D01*
X103533072Y-74421373D01*
X103533073Y-74421373D01*
X104294447Y-73660001D01*
X105001553Y-73660001D01*
X105762925Y-74421373D01*
X105816119Y-74345405D01*
X105860437Y-74306539D01*
X105917694Y-74292528D01*
X105974951Y-74306539D01*
X106019267Y-74345402D01*
X106149505Y-74531401D01*
X106316599Y-74698495D01*
X106510170Y-74834035D01*
X106724337Y-74933903D01*
X106952592Y-74995063D01*
X107188000Y-75015659D01*
X107423408Y-74995063D01*
X107651663Y-74933903D01*
X107865830Y-74834035D01*
X108059401Y-74698495D01*
X108226495Y-74531401D01*
X108356426Y-74345839D01*
X108400743Y-74306975D01*
X108458000Y-74292964D01*
X108515257Y-74306975D01*
X108559573Y-74345839D01*
X108689505Y-74531401D01*
X108856599Y-74698495D01*
X109050170Y-74834035D01*
X109264337Y-74933903D01*
X109492592Y-74995063D01*
X109728000Y-75015659D01*
X109963408Y-74995063D01*
X110191663Y-74933903D01*
X110405830Y-74834035D01*
X110599401Y-74698495D01*
X110766495Y-74531401D01*
X110896426Y-74345839D01*
X110940743Y-74306975D01*
X110998000Y-74292964D01*
X111055257Y-74306975D01*
X111099573Y-74345839D01*
X111229505Y-74531401D01*
X111396599Y-74698495D01*
X111590170Y-74834035D01*
X111804337Y-74933903D01*
X112032592Y-74995063D01*
X112268000Y-75015659D01*
X112503408Y-74995063D01*
X112731663Y-74933903D01*
X112945830Y-74834035D01*
X113139401Y-74698495D01*
X113306495Y-74531401D01*
X113436426Y-74345839D01*
X113480743Y-74306975D01*
X113538000Y-74292964D01*
X113595257Y-74306975D01*
X113639573Y-74345839D01*
X113769505Y-74531401D01*
X113936599Y-74698495D01*
X114130170Y-74834035D01*
X114344337Y-74933903D01*
X114572592Y-74995063D01*
X114808000Y-75015659D01*
X115043408Y-74995063D01*
X115271663Y-74933903D01*
X115485830Y-74834035D01*
X115679401Y-74698495D01*
X115846495Y-74531401D01*
X115982035Y-74337830D01*
X116081903Y-74123663D01*
X116143063Y-73895408D01*
X116163659Y-73660000D01*
X116143063Y-73424592D01*
X116081903Y-73196337D01*
X115982035Y-72982171D01*
X115846495Y-72788599D01*
X115679401Y-72621505D01*
X115493839Y-72491573D01*
X115454975Y-72447257D01*
X115440964Y-72390000D01*
X115454975Y-72332743D01*
X115493839Y-72288426D01*
X115679401Y-72158495D01*
X115846495Y-71991401D01*
X115982035Y-71797830D01*
X116081903Y-71583663D01*
X116143063Y-71355408D01*
X116163659Y-71120000D01*
X116143063Y-70884592D01*
X116081903Y-70656337D01*
X115982035Y-70442171D01*
X115846495Y-70248599D01*
X115679401Y-70081505D01*
X115485830Y-69945965D01*
X115271663Y-69846097D01*
X115210501Y-69829709D01*
X115043407Y-69784936D01*
X114808000Y-69764340D01*
X114572592Y-69784936D01*
X114344336Y-69846097D01*
X114130170Y-69945965D01*
X113936598Y-70081505D01*
X113769505Y-70248598D01*
X113639575Y-70434159D01*
X113595257Y-70473025D01*
X113538000Y-70487036D01*
X113480743Y-70473025D01*
X113436425Y-70434159D01*
X113383536Y-70358625D01*
X113306495Y-70248599D01*
X113139401Y-70081505D01*
X112945830Y-69945965D01*
X112731663Y-69846097D01*
X112670501Y-69829709D01*
X112503407Y-69784936D01*
X112268000Y-69764340D01*
X112032592Y-69784936D01*
X111804336Y-69846097D01*
X111590170Y-69945965D01*
X111396598Y-70081505D01*
X111229505Y-70248598D01*
X111099575Y-70434159D01*
X111055257Y-70473025D01*
X110998000Y-70487036D01*
X110940743Y-70473025D01*
X110896425Y-70434159D01*
X110843536Y-70358625D01*
X110766495Y-70248599D01*
X110599401Y-70081505D01*
X110405830Y-69945965D01*
X110191663Y-69846097D01*
X110130501Y-69829709D01*
X109963407Y-69784936D01*
X109728000Y-69764340D01*
X109492592Y-69784936D01*
X109264336Y-69846097D01*
X109050170Y-69945965D01*
X108856598Y-70081505D01*
X108689505Y-70248598D01*
X108559575Y-70434159D01*
X108515257Y-70473025D01*
X108458000Y-70487036D01*
X108400743Y-70473025D01*
X108356425Y-70434159D01*
X108303536Y-70358625D01*
X108226495Y-70248599D01*
X108059401Y-70081505D01*
X107865830Y-69945965D01*
X107651663Y-69846097D01*
X107590501Y-69829709D01*
X107423407Y-69784936D01*
X107188000Y-69764340D01*
X106952592Y-69784936D01*
X106724336Y-69846097D01*
X106510170Y-69945965D01*
X106316598Y-70081505D01*
X106149508Y-70248595D01*
X106149505Y-70248598D01*
X106149505Y-70248599D01*
X106072465Y-70358625D01*
X106019270Y-70434595D01*
X105974952Y-70473460D01*
X105917695Y-70487471D01*
X105860438Y-70473460D01*
X105816120Y-70434595D01*
X105762925Y-70358626D01*
X105762925Y-70358625D01*
X105001553Y-71120000D01*
X105001553Y-71120001D01*
X105762925Y-71881373D01*
X105816119Y-71805405D01*
X105860437Y-71766539D01*
X105917694Y-71752528D01*
X105974951Y-71766539D01*
X106019267Y-71805402D01*
X106149505Y-71991401D01*
X106316599Y-72158495D01*
X106502160Y-72288426D01*
X106541024Y-72332743D01*
X106555035Y-72390000D01*
X106541024Y-72447257D01*
X106502160Y-72491574D01*
X106319059Y-72619783D01*
X106316595Y-72621508D01*
X106149508Y-72788595D01*
X106149505Y-72788598D01*
X106149505Y-72788599D01*
X106019271Y-72974594D01*
X106019270Y-72974595D01*
X105974952Y-73013460D01*
X105917695Y-73027471D01*
X105860438Y-73013460D01*
X105816120Y-72974595D01*
X105762925Y-72898626D01*
X105762925Y-72898625D01*
X105001553Y-73660000D01*
X105001553Y-73660001D01*
X104294447Y-73660001D01*
X104294447Y-73660000D01*
X103533072Y-72898625D01*
X103533072Y-72898626D01*
X103479574Y-72975030D01*
X103435256Y-73013896D01*
X103377999Y-73027907D01*
X103320742Y-73013896D01*
X103276424Y-72975030D01*
X103222925Y-72898626D01*
X103222925Y-72898625D01*
X102461553Y-73660000D01*
X101754447Y-73660000D01*
X100993072Y-72898625D01*
X100993072Y-72898626D01*
X100939574Y-72975030D01*
X100895256Y-73013896D01*
X100837999Y-73027907D01*
X100780742Y-73013896D01*
X100736424Y-72975030D01*
X100682925Y-72898626D01*
X100682925Y-72898625D01*
X99921553Y-73660000D01*
X99921553Y-73660001D01*
X99214447Y-73660001D01*
X99214447Y-73660000D01*
X98453073Y-72898626D01*
X98399881Y-72974594D01*
X98355563Y-73013460D01*
X98298306Y-73027471D01*
X98241048Y-73013460D01*
X98196730Y-72974595D01*
X98066495Y-72788599D01*
X97899401Y-72621505D01*
X97891730Y-72613834D01*
X97894305Y-72611258D01*
X97864239Y-72574320D01*
X97860397Y-72545072D01*
X98806625Y-72545072D01*
X99568000Y-73306447D01*
X99568001Y-73306447D01*
X100329373Y-72545073D01*
X100329373Y-72545072D01*
X101346625Y-72545072D01*
X102108000Y-73306447D01*
X102108001Y-73306447D01*
X102869373Y-72545073D01*
X102869373Y-72545072D01*
X103886625Y-72545072D01*
X104648000Y-73306447D01*
X104648001Y-73306447D01*
X105409373Y-72545073D01*
X105409373Y-72545072D01*
X105332969Y-72491574D01*
X105294103Y-72447256D01*
X105280092Y-72389999D01*
X105294103Y-72332742D01*
X105332969Y-72288424D01*
X105409373Y-72234925D01*
X104648000Y-71473553D01*
X103886625Y-72234925D01*
X103963031Y-72288425D01*
X104001897Y-72332744D01*
X104015907Y-72390001D01*
X104001896Y-72447258D01*
X103963029Y-72491576D01*
X103886625Y-72545072D01*
X102869373Y-72545072D01*
X102792969Y-72491574D01*
X102754103Y-72447256D01*
X102740092Y-72389999D01*
X102754103Y-72332742D01*
X102792969Y-72288424D01*
X102869373Y-72234925D01*
X102108000Y-71473553D01*
X101346625Y-72234925D01*
X101423031Y-72288425D01*
X101461897Y-72332744D01*
X101475907Y-72390001D01*
X101461896Y-72447258D01*
X101423029Y-72491576D01*
X101346625Y-72545072D01*
X100329373Y-72545072D01*
X100252969Y-72491574D01*
X100214103Y-72447256D01*
X100200092Y-72389999D01*
X100214103Y-72332742D01*
X100252969Y-72288424D01*
X100329373Y-72234925D01*
X99568000Y-71473553D01*
X98806625Y-72234925D01*
X98883031Y-72288425D01*
X98921897Y-72332744D01*
X98935907Y-72390001D01*
X98921896Y-72447258D01*
X98883029Y-72491576D01*
X98806625Y-72545072D01*
X97860397Y-72545072D01*
X97855427Y-72507244D01*
X97883135Y-72445526D01*
X97939111Y-72407538D01*
X97947334Y-72404814D01*
X98096656Y-72312712D01*
X98220712Y-72188656D01*
X98312814Y-72039334D01*
X98336794Y-71966965D01*
X98365134Y-71920006D01*
X98410962Y-71889865D01*
X98449899Y-71884547D01*
X99214447Y-71120001D01*
X99921553Y-71120001D01*
X100682925Y-71881373D01*
X100736424Y-71804969D01*
X100780742Y-71766103D01*
X100837999Y-71752092D01*
X100895256Y-71766103D01*
X100939574Y-71804969D01*
X100993072Y-71881373D01*
X100993073Y-71881373D01*
X101754447Y-71120001D01*
X101754447Y-71120000D01*
X102461553Y-71120000D01*
X103222925Y-71881373D01*
X103276424Y-71804969D01*
X103320742Y-71766103D01*
X103377999Y-71752092D01*
X103435256Y-71766103D01*
X103479574Y-71804969D01*
X103533072Y-71881373D01*
X103533073Y-71881373D01*
X104294447Y-71120001D01*
X104294447Y-71120000D01*
X103533072Y-70358625D01*
X103533072Y-70358626D01*
X103479574Y-70435030D01*
X103435256Y-70473896D01*
X103377999Y-70487907D01*
X103320742Y-70473896D01*
X103276424Y-70435030D01*
X103222925Y-70358626D01*
X103222925Y-70358625D01*
X102461553Y-71120000D01*
X101754447Y-71120000D01*
X100993072Y-70358625D01*
X100993072Y-70358626D01*
X100939574Y-70435030D01*
X100895256Y-70473896D01*
X100837999Y-70487907D01*
X100780742Y-70473896D01*
X100736424Y-70435030D01*
X100682925Y-70358626D01*
X100682925Y-70358625D01*
X99921553Y-71120000D01*
X99921553Y-71120001D01*
X99214447Y-71120001D01*
X99214447Y-71120000D01*
X98449897Y-70355450D01*
X98410960Y-70350132D01*
X98365134Y-70319992D01*
X98336793Y-70273031D01*
X98328696Y-70248595D01*
X98312814Y-70200666D01*
X98220712Y-70051344D01*
X98220711Y-70051342D01*
X98174441Y-70005072D01*
X98806625Y-70005072D01*
X99568000Y-70766447D01*
X99568001Y-70766447D01*
X100329373Y-70005073D01*
X100329373Y-70005072D01*
X101346625Y-70005072D01*
X102108000Y-70766447D01*
X102108001Y-70766447D01*
X102869373Y-70005073D01*
X102869373Y-70005072D01*
X103886625Y-70005072D01*
X104648000Y-70766447D01*
X104648001Y-70766447D01*
X105409373Y-70005073D01*
X105409373Y-70005072D01*
X105325580Y-69946400D01*
X105111492Y-69846569D01*
X104883318Y-69785430D01*
X104647999Y-69764842D01*
X104412681Y-69785430D01*
X104184507Y-69846569D01*
X103970422Y-69946399D01*
X103886625Y-70005072D01*
X102869373Y-70005072D01*
X102785580Y-69946400D01*
X102571492Y-69846569D01*
X102343318Y-69785430D01*
X102107999Y-69764842D01*
X101872681Y-69785430D01*
X101644507Y-69846569D01*
X101430422Y-69946399D01*
X101346625Y-70005072D01*
X100329373Y-70005072D01*
X100245580Y-69946400D01*
X100031492Y-69846569D01*
X99803318Y-69785430D01*
X99567999Y-69764842D01*
X99332681Y-69785430D01*
X99104507Y-69846569D01*
X98890422Y-69946399D01*
X98806625Y-70005072D01*
X98174441Y-70005072D01*
X98096657Y-69927288D01*
X97947334Y-69835186D01*
X97780797Y-69780000D01*
X97678009Y-69769500D01*
X96377991Y-69769500D01*
X96275203Y-69780000D01*
X96108665Y-69835186D01*
X95959342Y-69927288D01*
X95835288Y-70051342D01*
X95743186Y-70200665D01*
X95688000Y-70367202D01*
X95677500Y-70469990D01*
X95677500Y-71770008D01*
X95688000Y-71872796D01*
X95743186Y-72039334D01*
X95835288Y-72188657D01*
X95959342Y-72312711D01*
X95991821Y-72332744D01*
X96108666Y-72404814D01*
X96116890Y-72407539D01*
X96172858Y-72445518D01*
X96200568Y-72507223D01*
X96191773Y-72574290D01*
X96161697Y-72611261D01*
X96164270Y-72613834D01*
X95989505Y-72788598D01*
X95853965Y-72982170D01*
X95754097Y-73196336D01*
X95692936Y-73424592D01*
X95672340Y-73660000D01*
X91440500Y-73660000D01*
X91440500Y-69332000D01*
X129250531Y-69332000D01*
X129270364Y-69558689D01*
X129329261Y-69778497D01*
X129425432Y-69984735D01*
X129555953Y-70171140D01*
X129716859Y-70332046D01*
X129903264Y-70462567D01*
X129903265Y-70462567D01*
X129903266Y-70462568D01*
X130109504Y-70558739D01*
X130329308Y-70617635D01*
X130556000Y-70637468D01*
X130782692Y-70617635D01*
X131002496Y-70558739D01*
X131208734Y-70462568D01*
X131395139Y-70332047D01*
X131556047Y-70171139D01*
X131686568Y-69984734D01*
X131713618Y-69926724D01*
X131759375Y-69874549D01*
X131826000Y-69855129D01*
X131892625Y-69874549D01*
X131938381Y-69926724D01*
X131946310Y-69943727D01*
X131965431Y-69984733D01*
X132095953Y-70171140D01*
X132256859Y-70332046D01*
X132443264Y-70462567D01*
X132443265Y-70462567D01*
X132443266Y-70462568D01*
X132649504Y-70558739D01*
X132869308Y-70617635D01*
X133096000Y-70637468D01*
X133322692Y-70617635D01*
X133542496Y-70558739D01*
X133748734Y-70462568D01*
X133935139Y-70332047D01*
X134096047Y-70171139D01*
X134226568Y-69984734D01*
X134253618Y-69926724D01*
X134299375Y-69874549D01*
X134366000Y-69855129D01*
X134432625Y-69874549D01*
X134478381Y-69926724D01*
X134486310Y-69943727D01*
X134505431Y-69984733D01*
X134635953Y-70171140D01*
X134796859Y-70332046D01*
X134983264Y-70462567D01*
X134983265Y-70462567D01*
X134983266Y-70462568D01*
X135189504Y-70558739D01*
X135409308Y-70617635D01*
X135636000Y-70637468D01*
X135862692Y-70617635D01*
X136082496Y-70558739D01*
X136288734Y-70462568D01*
X136475139Y-70332047D01*
X136636047Y-70171139D01*
X136766568Y-69984734D01*
X136793893Y-69926134D01*
X136839649Y-69873959D01*
X136906274Y-69854539D01*
X136972899Y-69873958D01*
X137018657Y-69926133D01*
X137045866Y-69984482D01*
X137176341Y-70170819D01*
X137337180Y-70331658D01*
X137523519Y-70462134D01*
X137729673Y-70558266D01*
X137925999Y-70610871D01*
X137926000Y-70610872D01*
X137926000Y-69582000D01*
X138426000Y-69582000D01*
X138426000Y-70610871D01*
X138622326Y-70558266D01*
X138828480Y-70462134D01*
X139014819Y-70331658D01*
X139175658Y-70170819D01*
X139306134Y-69984480D01*
X139402266Y-69778326D01*
X139454872Y-69582000D01*
X138426000Y-69582000D01*
X137926000Y-69582000D01*
X137926000Y-69206000D01*
X137942613Y-69144000D01*
X137988000Y-69098613D01*
X138050000Y-69082000D01*
X139454872Y-69082000D01*
X139454871Y-69081999D01*
X139402266Y-68885673D01*
X139306134Y-68679519D01*
X139175658Y-68493180D01*
X139014819Y-68332341D01*
X138828480Y-68201865D01*
X138622326Y-68105733D01*
X138402602Y-68046858D01*
X138346120Y-68041916D01*
X138290054Y-68022809D01*
X138249247Y-67979875D01*
X138233012Y-67922911D01*
X138245051Y-67864915D01*
X138282613Y-67819126D01*
X138367546Y-67755546D01*
X138453796Y-67640331D01*
X138502810Y-67508916D01*
X138537789Y-67458537D01*
X138592634Y-67431084D01*
X138653927Y-67433273D01*
X138706673Y-67464569D01*
X138828599Y-67586495D01*
X139022170Y-67722035D01*
X139236337Y-67821903D01*
X139464592Y-67883063D01*
X139700000Y-67903659D01*
X139935408Y-67883063D01*
X140163663Y-67821903D01*
X140377830Y-67722035D01*
X140571401Y-67586495D01*
X140738495Y-67419401D01*
X140868426Y-67233839D01*
X140912743Y-67194975D01*
X140970000Y-67180964D01*
X141027257Y-67194975D01*
X141071573Y-67233839D01*
X141201505Y-67419401D01*
X141368599Y-67586495D01*
X141562170Y-67722035D01*
X141776337Y-67821903D01*
X142004592Y-67883063D01*
X142240000Y-67903659D01*
X142475408Y-67883063D01*
X142703663Y-67821903D01*
X142917830Y-67722035D01*
X143111401Y-67586495D01*
X143278495Y-67419401D01*
X143408426Y-67233839D01*
X143452743Y-67194975D01*
X143510000Y-67180964D01*
X143567257Y-67194975D01*
X143611573Y-67233839D01*
X143741505Y-67419401D01*
X143908599Y-67586495D01*
X144102170Y-67722035D01*
X144316337Y-67821903D01*
X144544592Y-67883063D01*
X144780000Y-67903659D01*
X145015408Y-67883063D01*
X145243663Y-67821903D01*
X145457830Y-67722035D01*
X145651401Y-67586495D01*
X145818495Y-67419401D01*
X145948426Y-67233839D01*
X145992743Y-67194975D01*
X146050000Y-67180964D01*
X146107257Y-67194975D01*
X146151573Y-67233839D01*
X146281505Y-67419401D01*
X146448599Y-67586495D01*
X146642170Y-67722035D01*
X146856337Y-67821903D01*
X147084592Y-67883063D01*
X147320000Y-67903659D01*
X147555408Y-67883063D01*
X147783663Y-67821903D01*
X147997830Y-67722035D01*
X148191401Y-67586495D01*
X148358495Y-67419401D01*
X148494035Y-67225830D01*
X148593903Y-67011663D01*
X148655063Y-66783408D01*
X148675659Y-66548000D01*
X148655063Y-66312592D01*
X148593903Y-66084337D01*
X148494035Y-65870171D01*
X148358495Y-65676599D01*
X148191401Y-65509505D01*
X147997830Y-65373965D01*
X147783663Y-65274097D01*
X147722501Y-65257709D01*
X147555407Y-65212936D01*
X147320000Y-65192340D01*
X147084592Y-65212936D01*
X146856336Y-65274097D01*
X146642170Y-65373965D01*
X146448598Y-65509505D01*
X146281505Y-65676598D01*
X146151575Y-65862159D01*
X146107257Y-65901025D01*
X146050000Y-65915036D01*
X145992743Y-65901025D01*
X145948425Y-65862159D01*
X145818494Y-65676598D01*
X145651404Y-65509508D01*
X145651401Y-65509505D01*
X145457830Y-65373965D01*
X145243663Y-65274097D01*
X145182501Y-65257709D01*
X145015407Y-65212936D01*
X144780000Y-65192340D01*
X144544592Y-65212936D01*
X144316336Y-65274097D01*
X144102170Y-65373965D01*
X143908598Y-65509505D01*
X143741505Y-65676598D01*
X143611575Y-65862159D01*
X143567257Y-65901025D01*
X143510000Y-65915036D01*
X143452743Y-65901025D01*
X143408425Y-65862159D01*
X143278494Y-65676598D01*
X143111404Y-65509508D01*
X143111401Y-65509505D01*
X142917830Y-65373965D01*
X142703663Y-65274097D01*
X142642501Y-65257709D01*
X142475407Y-65212936D01*
X142240000Y-65192340D01*
X142004592Y-65212936D01*
X141776336Y-65274097D01*
X141562170Y-65373965D01*
X141368598Y-65509505D01*
X141201505Y-65676598D01*
X141071575Y-65862159D01*
X141027257Y-65901025D01*
X140970000Y-65915036D01*
X140912743Y-65901025D01*
X140868425Y-65862159D01*
X140738494Y-65676598D01*
X140571404Y-65509508D01*
X140571401Y-65509505D01*
X140377830Y-65373965D01*
X140163663Y-65274097D01*
X140102501Y-65257709D01*
X139935407Y-65212936D01*
X139700000Y-65192340D01*
X139464592Y-65212936D01*
X139236336Y-65274097D01*
X139022170Y-65373965D01*
X138828601Y-65509503D01*
X138706673Y-65631431D01*
X138653926Y-65662726D01*
X138592634Y-65664915D01*
X138537789Y-65637462D01*
X138502810Y-65587082D01*
X138495658Y-65567907D01*
X138453796Y-65455669D01*
X138367546Y-65340454D01*
X138252331Y-65254204D01*
X138117483Y-65203909D01*
X138057873Y-65197500D01*
X138057869Y-65197500D01*
X136262130Y-65197500D01*
X136202515Y-65203909D01*
X136067669Y-65254204D01*
X135952454Y-65340454D01*
X135866204Y-65455668D01*
X135815909Y-65590516D01*
X135809500Y-65650130D01*
X135809500Y-67445869D01*
X135815909Y-67505484D01*
X135841056Y-67572907D01*
X135866204Y-67640331D01*
X135952454Y-67755546D01*
X136067669Y-67841796D01*
X136099326Y-67853603D01*
X136150347Y-67889328D01*
X136154684Y-67898256D01*
X136194582Y-67891238D01*
X136202517Y-67892091D01*
X136262127Y-67898500D01*
X137614761Y-67898499D01*
X137678626Y-67916210D01*
X137724246Y-67964284D01*
X137738591Y-68028988D01*
X137717562Y-68091839D01*
X137667166Y-68134881D01*
X137523519Y-68201865D01*
X137337180Y-68332341D01*
X137176341Y-68493180D01*
X137045863Y-68679522D01*
X137018656Y-68737866D01*
X136972899Y-68790041D01*
X136906274Y-68809460D01*
X136839650Y-68790040D01*
X136793893Y-68737865D01*
X136766567Y-68679264D01*
X136636046Y-68492859D01*
X136475140Y-68331953D01*
X136288734Y-68201432D01*
X136128921Y-68126909D01*
X136086496Y-68089882D01*
X136086182Y-68090054D01*
X136023900Y-68089560D01*
X135862691Y-68046364D01*
X135636000Y-68026531D01*
X135409310Y-68046364D01*
X135189502Y-68105261D01*
X134983264Y-68201432D01*
X134796859Y-68331953D01*
X134635953Y-68492859D01*
X134505433Y-68679263D01*
X134478382Y-68737275D01*
X134432625Y-68789450D01*
X134366000Y-68808869D01*
X134299375Y-68789450D01*
X134253618Y-68737275D01*
X134226687Y-68679522D01*
X134226568Y-68679266D01*
X134226566Y-68679263D01*
X134096046Y-68492859D01*
X133935140Y-68331953D01*
X133748735Y-68201432D01*
X133542497Y-68105261D01*
X133322689Y-68046364D01*
X133096000Y-68026531D01*
X132869310Y-68046364D01*
X132649502Y-68105261D01*
X132443264Y-68201432D01*
X132256859Y-68331953D01*
X132095953Y-68492859D01*
X131965433Y-68679263D01*
X131938382Y-68737275D01*
X131892625Y-68789450D01*
X131826000Y-68808869D01*
X131759375Y-68789450D01*
X131713618Y-68737275D01*
X131686687Y-68679522D01*
X131686568Y-68679266D01*
X131686566Y-68679263D01*
X131556046Y-68492859D01*
X131395140Y-68331953D01*
X131208735Y-68201432D01*
X131002497Y-68105261D01*
X130782689Y-68046364D01*
X130556000Y-68026531D01*
X130329310Y-68046364D01*
X130109502Y-68105261D01*
X129903264Y-68201432D01*
X129716859Y-68331953D01*
X129555953Y-68492859D01*
X129425432Y-68679264D01*
X129329261Y-68885502D01*
X129270364Y-69105310D01*
X129250531Y-69332000D01*
X91440500Y-69332000D01*
X91440500Y-64640500D01*
X91457113Y-64578500D01*
X91502500Y-64533113D01*
X91564500Y-64516500D01*
X149227500Y-64516500D01*
X149289500Y-64533113D01*
G37*
G04 #@! TD.AperFunction*
M02*
