G04 #@! TF.GenerationSoftware,KiCad,Pcbnew,7.0.1*
G04 #@! TF.CreationDate,2023-05-11T17:19:10+02:00*
G04 #@! TF.ProjectId,midi-interface,6d696469-2d69-46e7-9465-72666163652e,rev?*
G04 #@! TF.SameCoordinates,Original*
G04 #@! TF.FileFunction,Profile,NP*
%FSLAX46Y46*%
G04 Gerber Fmt 4.6, Leading zero omitted, Abs format (unit mm)*
G04 Created by KiCad (PCBNEW 7.0.1) date 2023-05-11 17:19:10*
%MOMM*%
%LPD*%
G01*
G04 APERTURE LIST*
G04 #@! TA.AperFunction,Profile*
%ADD10C,0.100000*%
G04 #@! TD*
%ADD11C,0.150000*%
G04 APERTURE END LIST*
D10*
X91440000Y-64516000D02*
X149352000Y-64516000D01*
X149352000Y-147828000D01*
X91440000Y-147828000D01*
X91440000Y-64516000D01*
D11*
X116300762Y-154776619D02*
X115824572Y-154776619D01*
X115824572Y-154776619D02*
X115776953Y-155252809D01*
X115776953Y-155252809D02*
X115824572Y-155205190D01*
X115824572Y-155205190D02*
X115919810Y-155157571D01*
X115919810Y-155157571D02*
X116157905Y-155157571D01*
X116157905Y-155157571D02*
X116253143Y-155205190D01*
X116253143Y-155205190D02*
X116300762Y-155252809D01*
X116300762Y-155252809D02*
X116348381Y-155348047D01*
X116348381Y-155348047D02*
X116348381Y-155586142D01*
X116348381Y-155586142D02*
X116300762Y-155681380D01*
X116300762Y-155681380D02*
X116253143Y-155729000D01*
X116253143Y-155729000D02*
X116157905Y-155776619D01*
X116157905Y-155776619D02*
X115919810Y-155776619D01*
X115919810Y-155776619D02*
X115824572Y-155729000D01*
X115824572Y-155729000D02*
X115776953Y-155681380D01*
X116681715Y-154776619D02*
X117348381Y-154776619D01*
X117348381Y-154776619D02*
X116919810Y-155776619D01*
X117776953Y-155729000D02*
X117776953Y-155776619D01*
X117776953Y-155776619D02*
X117729334Y-155871857D01*
X117729334Y-155871857D02*
X117681715Y-155919476D01*
X118253143Y-155776619D02*
X118443619Y-155776619D01*
X118443619Y-155776619D02*
X118538857Y-155729000D01*
X118538857Y-155729000D02*
X118586476Y-155681380D01*
X118586476Y-155681380D02*
X118681714Y-155538523D01*
X118681714Y-155538523D02*
X118729333Y-155348047D01*
X118729333Y-155348047D02*
X118729333Y-154967095D01*
X118729333Y-154967095D02*
X118681714Y-154871857D01*
X118681714Y-154871857D02*
X118634095Y-154824238D01*
X118634095Y-154824238D02*
X118538857Y-154776619D01*
X118538857Y-154776619D02*
X118348381Y-154776619D01*
X118348381Y-154776619D02*
X118253143Y-154824238D01*
X118253143Y-154824238D02*
X118205524Y-154871857D01*
X118205524Y-154871857D02*
X118157905Y-154967095D01*
X118157905Y-154967095D02*
X118157905Y-155205190D01*
X118157905Y-155205190D02*
X118205524Y-155300428D01*
X118205524Y-155300428D02*
X118253143Y-155348047D01*
X118253143Y-155348047D02*
X118348381Y-155395666D01*
X118348381Y-155395666D02*
X118538857Y-155395666D01*
X118538857Y-155395666D02*
X118634095Y-155348047D01*
X118634095Y-155348047D02*
X118681714Y-155300428D01*
X118681714Y-155300428D02*
X118729333Y-155205190D01*
X119681714Y-155776619D02*
X119110286Y-155776619D01*
X119396000Y-155776619D02*
X119396000Y-154776619D01*
X119396000Y-154776619D02*
X119300762Y-154919476D01*
X119300762Y-154919476D02*
X119205524Y-155014714D01*
X119205524Y-155014714D02*
X119110286Y-155062333D01*
X120062667Y-154871857D02*
X120110286Y-154824238D01*
X120110286Y-154824238D02*
X120205524Y-154776619D01*
X120205524Y-154776619D02*
X120443619Y-154776619D01*
X120443619Y-154776619D02*
X120538857Y-154824238D01*
X120538857Y-154824238D02*
X120586476Y-154871857D01*
X120586476Y-154871857D02*
X120634095Y-154967095D01*
X120634095Y-154967095D02*
X120634095Y-155062333D01*
X120634095Y-155062333D02*
X120586476Y-155205190D01*
X120586476Y-155205190D02*
X120015048Y-155776619D01*
X120015048Y-155776619D02*
X120634095Y-155776619D01*
X121253143Y-154776619D02*
X121348381Y-154776619D01*
X121348381Y-154776619D02*
X121443619Y-154824238D01*
X121443619Y-154824238D02*
X121491238Y-154871857D01*
X121491238Y-154871857D02*
X121538857Y-154967095D01*
X121538857Y-154967095D02*
X121586476Y-155157571D01*
X121586476Y-155157571D02*
X121586476Y-155395666D01*
X121586476Y-155395666D02*
X121538857Y-155586142D01*
X121538857Y-155586142D02*
X121491238Y-155681380D01*
X121491238Y-155681380D02*
X121443619Y-155729000D01*
X121443619Y-155729000D02*
X121348381Y-155776619D01*
X121348381Y-155776619D02*
X121253143Y-155776619D01*
X121253143Y-155776619D02*
X121157905Y-155729000D01*
X121157905Y-155729000D02*
X121110286Y-155681380D01*
X121110286Y-155681380D02*
X121062667Y-155586142D01*
X121062667Y-155586142D02*
X121015048Y-155395666D01*
X121015048Y-155395666D02*
X121015048Y-155157571D01*
X121015048Y-155157571D02*
X121062667Y-154967095D01*
X121062667Y-154967095D02*
X121110286Y-154871857D01*
X121110286Y-154871857D02*
X121157905Y-154824238D01*
X121157905Y-154824238D02*
X121253143Y-154776619D01*
X122776953Y-155776619D02*
X122776953Y-155109952D01*
X122776953Y-155205190D02*
X122824572Y-155157571D01*
X122824572Y-155157571D02*
X122919810Y-155109952D01*
X122919810Y-155109952D02*
X123062667Y-155109952D01*
X123062667Y-155109952D02*
X123157905Y-155157571D01*
X123157905Y-155157571D02*
X123205524Y-155252809D01*
X123205524Y-155252809D02*
X123205524Y-155776619D01*
X123205524Y-155252809D02*
X123253143Y-155157571D01*
X123253143Y-155157571D02*
X123348381Y-155109952D01*
X123348381Y-155109952D02*
X123491238Y-155109952D01*
X123491238Y-155109952D02*
X123586477Y-155157571D01*
X123586477Y-155157571D02*
X123634096Y-155252809D01*
X123634096Y-155252809D02*
X123634096Y-155776619D01*
X124110286Y-155776619D02*
X124110286Y-155109952D01*
X124110286Y-155205190D02*
X124157905Y-155157571D01*
X124157905Y-155157571D02*
X124253143Y-155109952D01*
X124253143Y-155109952D02*
X124396000Y-155109952D01*
X124396000Y-155109952D02*
X124491238Y-155157571D01*
X124491238Y-155157571D02*
X124538857Y-155252809D01*
X124538857Y-155252809D02*
X124538857Y-155776619D01*
X124538857Y-155252809D02*
X124586476Y-155157571D01*
X124586476Y-155157571D02*
X124681714Y-155109952D01*
X124681714Y-155109952D02*
X124824571Y-155109952D01*
X124824571Y-155109952D02*
X124919810Y-155157571D01*
X124919810Y-155157571D02*
X124967429Y-155252809D01*
X124967429Y-155252809D02*
X124967429Y-155776619D01*
D10*
X149352000Y-148328000D02*
X149352000Y-157050420D01*
X91440000Y-148328000D02*
X91440000Y-157050420D01*
X149352000Y-156464000D02*
X91440000Y-156464000D01*
X149352000Y-156464000D02*
X91440000Y-156464000D01*
X149352000Y-156464000D02*
X148225496Y-157050421D01*
X149352000Y-156464000D02*
X148225496Y-155877579D01*
X91440000Y-156464000D02*
X92566504Y-155877579D01*
X91440000Y-156464000D02*
X92566504Y-157050421D01*
M02*
