%TF.GenerationSoftware,KiCad,Pcbnew,7.0.1*%
%TF.CreationDate,2023-05-11T17:19:37+02:00*%
%TF.ProjectId,midi-interface,6d696469-2d69-46e7-9465-72666163652e,rev?*%
%TF.SameCoordinates,Original*%
%TF.FileFunction,Drillmap*%
%TF.FilePolarity,Positive*%
%FSLAX45Y45*%
G04 Gerber Fmt 4.5, Leading zero omitted, Abs format (unit mm)*
G04 Created by KiCad (PCBNEW 7.0.1) date 2023-05-11 17:19:37*
%MOMM*%
%LPD*%
G01*
G04 APERTURE LIST*
%ADD10C,0.100000*%
%ADD11C,0.200000*%
%ADD12C,0.040000*%
%ADD13C,0.080000*%
%ADD14C,0.101600*%
%ADD15C,0.110000*%
%ADD16C,0.122000*%
%ADD17C,0.142000*%
%ADD18C,0.143000*%
G04 APERTURE END LIST*
D10*
X9144000Y-6451600D02*
X14935200Y-6451600D01*
X14935200Y-14782800D01*
X9144000Y-14782800D01*
X9144000Y-6451600D01*
D11*
D12*
X12375200Y-7295200D02*
X12415200Y-7335200D01*
X12415200Y-7295200D02*
X12375200Y-7335200D01*
D13*
X13095600Y-6933200D02*
G75*
G03*
X13095600Y-6933200I-40000J0D01*
G01*
X13095600Y-7695200D02*
G75*
G03*
X13095600Y-7695200I-40000J0D01*
G01*
X13349600Y-6933200D02*
G75*
G03*
X13349600Y-6933200I-40000J0D01*
G01*
X13349600Y-7695200D02*
G75*
G03*
X13349600Y-7695200I-40000J0D01*
G01*
X13603600Y-6933200D02*
G75*
G03*
X13603600Y-6933200I-40000J0D01*
G01*
X13603600Y-7695200D02*
G75*
G03*
X13603600Y-7695200I-40000J0D01*
G01*
X13857600Y-6933200D02*
G75*
G03*
X13857600Y-6933200I-40000J0D01*
G01*
X13857600Y-7695200D02*
G75*
G03*
X13857600Y-7695200I-40000J0D01*
G01*
D10*
X9601200Y-7874800D02*
X9601200Y-7974800D01*
X9551200Y-7924800D02*
X9651200Y-7924800D01*
X9702800Y-7062000D02*
X9702800Y-7162000D01*
X9652800Y-7112000D02*
X9752800Y-7112000D01*
X9702800Y-7316000D02*
X9702800Y-7416000D01*
X9652800Y-7366000D02*
X9752800Y-7366000D01*
X9855200Y-7874800D02*
X9855200Y-7974800D01*
X9805200Y-7924800D02*
X9905200Y-7924800D01*
X9956800Y-7062000D02*
X9956800Y-7162000D01*
X9906800Y-7112000D02*
X10006800Y-7112000D01*
X9956800Y-7316000D02*
X9956800Y-7416000D01*
X9906800Y-7366000D02*
X10006800Y-7366000D01*
X10210800Y-7062000D02*
X10210800Y-7162000D01*
X10160800Y-7112000D02*
X10260800Y-7112000D01*
X10210800Y-7316000D02*
X10210800Y-7416000D01*
X10160800Y-7366000D02*
X10260800Y-7366000D01*
X10464800Y-7062000D02*
X10464800Y-7162000D01*
X10414800Y-7112000D02*
X10514800Y-7112000D01*
X10464800Y-7316000D02*
X10464800Y-7416000D01*
X10414800Y-7366000D02*
X10514800Y-7366000D01*
X10718800Y-7062000D02*
X10718800Y-7162000D01*
X10668800Y-7112000D02*
X10768800Y-7112000D01*
X10718800Y-7316000D02*
X10718800Y-7416000D01*
X10668800Y-7366000D02*
X10768800Y-7366000D01*
X10972800Y-7062000D02*
X10972800Y-7162000D01*
X10922800Y-7112000D02*
X11022800Y-7112000D01*
X10972800Y-7316000D02*
X10972800Y-7416000D01*
X10922800Y-7366000D02*
X11022800Y-7366000D01*
X11226800Y-7062000D02*
X11226800Y-7162000D01*
X11176800Y-7112000D02*
X11276800Y-7112000D01*
X11226800Y-7316000D02*
X11226800Y-7416000D01*
X11176800Y-7366000D02*
X11276800Y-7366000D01*
X11480800Y-7062000D02*
X11480800Y-7162000D01*
X11430800Y-7112000D02*
X11530800Y-7112000D01*
X11480800Y-7316000D02*
X11480800Y-7416000D01*
X11430800Y-7366000D02*
X11530800Y-7366000D01*
X13716000Y-6604800D02*
X13716000Y-6704800D01*
X13666000Y-6654800D02*
X13766000Y-6654800D01*
X13970000Y-6604800D02*
X13970000Y-6704800D01*
X13920000Y-6654800D02*
X14020000Y-6654800D01*
X14224000Y-6604800D02*
X14224000Y-6704800D01*
X14174000Y-6654800D02*
X14274000Y-6654800D01*
X14478000Y-6604800D02*
X14478000Y-6704800D01*
X14428000Y-6654800D02*
X14528000Y-6654800D01*
X14732000Y-6604800D02*
X14732000Y-6704800D01*
X14682000Y-6654800D02*
X14782000Y-6654800D01*
D14*
X9637121Y-8417921D02*
X9637121Y-8346079D01*
X9565279Y-8346079D01*
X9565279Y-8417921D01*
X9637121Y-8417921D01*
X9637121Y-8671921D02*
X9637121Y-8600079D01*
X9565279Y-8600079D01*
X9565279Y-8671921D01*
X9637121Y-8671921D01*
X9637121Y-8925921D02*
X9637121Y-8854079D01*
X9565279Y-8854079D01*
X9565279Y-8925921D01*
X9637121Y-8925921D01*
X9637121Y-9179921D02*
X9637121Y-9108079D01*
X9565279Y-9108079D01*
X9565279Y-9179921D01*
X9637121Y-9179921D01*
X9637121Y-9433921D02*
X9637121Y-9362079D01*
X9565279Y-9362079D01*
X9565279Y-9433921D01*
X9637121Y-9433921D01*
X9637121Y-9687921D02*
X9637121Y-9616079D01*
X9565279Y-9616079D01*
X9565279Y-9687921D01*
X9637121Y-9687921D01*
X9637121Y-9941921D02*
X9637121Y-9870079D01*
X9565279Y-9870079D01*
X9565279Y-9941921D01*
X9637121Y-9941921D01*
X9637121Y-10195921D02*
X9637121Y-10124079D01*
X9565279Y-10124079D01*
X9565279Y-10195921D01*
X9637121Y-10195921D01*
X9637121Y-10602321D02*
X9637121Y-10530479D01*
X9565279Y-10530479D01*
X9565279Y-10602321D01*
X9637121Y-10602321D01*
X9637121Y-10856321D02*
X9637121Y-10784479D01*
X9565279Y-10784479D01*
X9565279Y-10856321D01*
X9637121Y-10856321D01*
X9637121Y-11110321D02*
X9637121Y-11038479D01*
X9565279Y-11038479D01*
X9565279Y-11110321D01*
X9637121Y-11110321D01*
X9637121Y-11364321D02*
X9637121Y-11292479D01*
X9565279Y-11292479D01*
X9565279Y-11364321D01*
X9637121Y-11364321D01*
X9637121Y-11618321D02*
X9637121Y-11546479D01*
X9565279Y-11546479D01*
X9565279Y-11618321D01*
X9637121Y-11618321D01*
X9637121Y-11872321D02*
X9637121Y-11800479D01*
X9565279Y-11800479D01*
X9565279Y-11872321D01*
X9637121Y-11872321D01*
X9637121Y-12126321D02*
X9637121Y-12054479D01*
X9565279Y-12054479D01*
X9565279Y-12126321D01*
X9637121Y-12126321D01*
X9637121Y-12380321D02*
X9637121Y-12308479D01*
X9565279Y-12308479D01*
X9565279Y-12380321D01*
X9637121Y-12380321D01*
X9637121Y-12634321D02*
X9637121Y-12562479D01*
X9565279Y-12562479D01*
X9565279Y-12634321D01*
X9637121Y-12634321D01*
X9637121Y-12888321D02*
X9637121Y-12816479D01*
X9565279Y-12816479D01*
X9565279Y-12888321D01*
X9637121Y-12888321D01*
X14463121Y-8417921D02*
X14463121Y-8346079D01*
X14391279Y-8346079D01*
X14391279Y-8417921D01*
X14463121Y-8417921D01*
X14463121Y-8671921D02*
X14463121Y-8600079D01*
X14391279Y-8600079D01*
X14391279Y-8671921D01*
X14463121Y-8671921D01*
X14463121Y-8925921D02*
X14463121Y-8854079D01*
X14391279Y-8854079D01*
X14391279Y-8925921D01*
X14463121Y-8925921D01*
X14463121Y-9179921D02*
X14463121Y-9108079D01*
X14391279Y-9108079D01*
X14391279Y-9179921D01*
X14463121Y-9179921D01*
X14463121Y-9433921D02*
X14463121Y-9362079D01*
X14391279Y-9362079D01*
X14391279Y-9433921D01*
X14463121Y-9433921D01*
X14463121Y-9687921D02*
X14463121Y-9616079D01*
X14391279Y-9616079D01*
X14391279Y-9687921D01*
X14463121Y-9687921D01*
X14463121Y-10195921D02*
X14463121Y-10124079D01*
X14391279Y-10124079D01*
X14391279Y-10195921D01*
X14463121Y-10195921D01*
X14463121Y-10449921D02*
X14463121Y-10378079D01*
X14391279Y-10378079D01*
X14391279Y-10449921D01*
X14463121Y-10449921D01*
X14463121Y-10703921D02*
X14463121Y-10632079D01*
X14391279Y-10632079D01*
X14391279Y-10703921D01*
X14463121Y-10703921D01*
X14463121Y-10957921D02*
X14463121Y-10886079D01*
X14391279Y-10886079D01*
X14391279Y-10957921D01*
X14463121Y-10957921D01*
X14463121Y-11211921D02*
X14463121Y-11140079D01*
X14391279Y-11140079D01*
X14391279Y-11211921D01*
X14463121Y-11211921D01*
X14463121Y-11465921D02*
X14463121Y-11394079D01*
X14391279Y-11394079D01*
X14391279Y-11465921D01*
X14463121Y-11465921D01*
X14463121Y-11719921D02*
X14463121Y-11648079D01*
X14391279Y-11648079D01*
X14391279Y-11719921D01*
X14463121Y-11719921D01*
X14463121Y-11973921D02*
X14463121Y-11902079D01*
X14391279Y-11902079D01*
X14391279Y-11973921D01*
X14463121Y-11973921D01*
D15*
X14681200Y-7290382D02*
X14736200Y-7235382D01*
X14681200Y-7180382D01*
X14626200Y-7235382D01*
X14681200Y-7290382D01*
X14681200Y-7798382D02*
X14736200Y-7743382D01*
X14681200Y-7688382D01*
X14626200Y-7743382D01*
X14681200Y-7798382D01*
D16*
X10353000Y-9975000D02*
X10475000Y-10097000D01*
X10475000Y-9975000D02*
X10353000Y-10097000D01*
X10475000Y-10036000D02*
G75*
G03*
X10475000Y-10036000I-61000J0D01*
G01*
X10353000Y-11623000D02*
X10475000Y-11745000D01*
X10475000Y-11623000D02*
X10353000Y-11745000D01*
X10475000Y-11684000D02*
G75*
G03*
X10475000Y-11684000I-61000J0D01*
G01*
X10353000Y-13271000D02*
X10475000Y-13393000D01*
X10475000Y-13271000D02*
X10353000Y-13393000D01*
X10475000Y-13332000D02*
G75*
G03*
X10475000Y-13332000I-61000J0D01*
G01*
X11419800Y-9975000D02*
X11541800Y-10097000D01*
X11541800Y-9975000D02*
X11419800Y-10097000D01*
X11541800Y-10036000D02*
G75*
G03*
X11541800Y-10036000I-61000J0D01*
G01*
X11419800Y-11623000D02*
X11541800Y-11745000D01*
X11541800Y-11623000D02*
X11419800Y-11745000D01*
X11541800Y-11684000D02*
G75*
G03*
X11541800Y-11684000I-61000J0D01*
G01*
X11419800Y-13271000D02*
X11541800Y-13393000D01*
X11541800Y-13271000D02*
X11419800Y-13393000D01*
X11541800Y-13332000D02*
G75*
G03*
X11541800Y-13332000I-61000J0D01*
G01*
X12486600Y-9975000D02*
X12608600Y-10097000D01*
X12608600Y-9975000D02*
X12486600Y-10097000D01*
X12608600Y-10036000D02*
G75*
G03*
X12608600Y-10036000I-61000J0D01*
G01*
X12486600Y-11623000D02*
X12608600Y-11745000D01*
X12608600Y-11623000D02*
X12486600Y-11745000D01*
X12608600Y-11684000D02*
G75*
G03*
X12608600Y-11684000I-61000J0D01*
G01*
X12486600Y-13271000D02*
X12608600Y-13393000D01*
X12608600Y-13271000D02*
X12486600Y-13393000D01*
X12608600Y-13332000D02*
G75*
G03*
X12608600Y-13332000I-61000J0D01*
G01*
X13553400Y-9975000D02*
X13675400Y-10097000D01*
X13675400Y-9975000D02*
X13553400Y-10097000D01*
X13675400Y-10036000D02*
G75*
G03*
X13675400Y-10036000I-61000J0D01*
G01*
X13553400Y-11623000D02*
X13675400Y-11745000D01*
X13675400Y-11623000D02*
X13553400Y-11745000D01*
X13675400Y-11684000D02*
G75*
G03*
X13675400Y-11684000I-61000J0D01*
G01*
X13553400Y-13271000D02*
X13675400Y-13393000D01*
X13675400Y-13271000D02*
X13553400Y-13393000D01*
X13675400Y-13332000D02*
G75*
G03*
X13675400Y-13332000I-61000J0D01*
G01*
D17*
X10343000Y-10275000D02*
X10485000Y-10417000D01*
X10485000Y-10275000D02*
X10343000Y-10417000D01*
X10414000Y-10275000D02*
X10414000Y-10417000D01*
X10343000Y-10346000D02*
X10485000Y-10346000D01*
X10343000Y-11923000D02*
X10485000Y-12065000D01*
X10485000Y-11923000D02*
X10343000Y-12065000D01*
X10414000Y-11923000D02*
X10414000Y-12065000D01*
X10343000Y-11994000D02*
X10485000Y-11994000D01*
X10343000Y-13571000D02*
X10485000Y-13713000D01*
X10485000Y-13571000D02*
X10343000Y-13713000D01*
X10414000Y-13571000D02*
X10414000Y-13713000D01*
X10343000Y-13642000D02*
X10485000Y-13642000D01*
X11409800Y-10275000D02*
X11551800Y-10417000D01*
X11551800Y-10275000D02*
X11409800Y-10417000D01*
X11480800Y-10275000D02*
X11480800Y-10417000D01*
X11409800Y-10346000D02*
X11551800Y-10346000D01*
X11409800Y-11923000D02*
X11551800Y-12065000D01*
X11551800Y-11923000D02*
X11409800Y-12065000D01*
X11480800Y-11923000D02*
X11480800Y-12065000D01*
X11409800Y-11994000D02*
X11551800Y-11994000D01*
X11409800Y-13571000D02*
X11551800Y-13713000D01*
X11551800Y-13571000D02*
X11409800Y-13713000D01*
X11480800Y-13571000D02*
X11480800Y-13713000D01*
X11409800Y-13642000D02*
X11551800Y-13642000D01*
X12476600Y-10275000D02*
X12618600Y-10417000D01*
X12618600Y-10275000D02*
X12476600Y-10417000D01*
X12547600Y-10275000D02*
X12547600Y-10417000D01*
X12476600Y-10346000D02*
X12618600Y-10346000D01*
X12476600Y-11923000D02*
X12618600Y-12065000D01*
X12618600Y-11923000D02*
X12476600Y-12065000D01*
X12547600Y-11923000D02*
X12547600Y-12065000D01*
X12476600Y-11994000D02*
X12618600Y-11994000D01*
X12476600Y-13571000D02*
X12618600Y-13713000D01*
X12618600Y-13571000D02*
X12476600Y-13713000D01*
X12547600Y-13571000D02*
X12547600Y-13713000D01*
X12476600Y-13642000D02*
X12618600Y-13642000D01*
X13543400Y-10275000D02*
X13685400Y-10417000D01*
X13685400Y-10275000D02*
X13543400Y-10417000D01*
X13614400Y-10275000D02*
X13614400Y-10417000D01*
X13543400Y-10346000D02*
X13685400Y-10346000D01*
X13543400Y-11923000D02*
X13685400Y-12065000D01*
X13685400Y-11923000D02*
X13543400Y-12065000D01*
X13614400Y-11923000D02*
X13614400Y-12065000D01*
X13543400Y-11994000D02*
X13685400Y-11994000D01*
X13543400Y-13571000D02*
X13685400Y-13713000D01*
X13685400Y-13571000D02*
X13543400Y-13713000D01*
X13614400Y-13571000D02*
X13614400Y-13713000D01*
X13543400Y-13642000D02*
X13685400Y-13642000D01*
D18*
X10342500Y-11104500D02*
X10485500Y-11247500D01*
X10485500Y-11104500D02*
X10342500Y-11247500D01*
X10464559Y-11226559D02*
X10464559Y-11125441D01*
X10363441Y-11125441D01*
X10363441Y-11226559D01*
X10464559Y-11226559D01*
X10342500Y-12752500D02*
X10485500Y-12895500D01*
X10485500Y-12752500D02*
X10342500Y-12895500D01*
X10464559Y-12874559D02*
X10464559Y-12773441D01*
X10363441Y-12773441D01*
X10363441Y-12874559D01*
X10464559Y-12874559D01*
X10342500Y-14400500D02*
X10485500Y-14543500D01*
X10485500Y-14400500D02*
X10342500Y-14543500D01*
X10464559Y-14522559D02*
X10464559Y-14421441D01*
X10363441Y-14421441D01*
X10363441Y-14522559D01*
X10464559Y-14522559D01*
X11409300Y-11104500D02*
X11552300Y-11247500D01*
X11552300Y-11104500D02*
X11409300Y-11247500D01*
X11531359Y-11226559D02*
X11531359Y-11125441D01*
X11430241Y-11125441D01*
X11430241Y-11226559D01*
X11531359Y-11226559D01*
X11409300Y-12752500D02*
X11552300Y-12895500D01*
X11552300Y-12752500D02*
X11409300Y-12895500D01*
X11531359Y-12874559D02*
X11531359Y-12773441D01*
X11430241Y-12773441D01*
X11430241Y-12874559D01*
X11531359Y-12874559D01*
X11409300Y-14400500D02*
X11552300Y-14543500D01*
X11552300Y-14400500D02*
X11409300Y-14543500D01*
X11531359Y-14522559D02*
X11531359Y-14421441D01*
X11430241Y-14421441D01*
X11430241Y-14522559D01*
X11531359Y-14522559D01*
X12476100Y-11104500D02*
X12619100Y-11247500D01*
X12619100Y-11104500D02*
X12476100Y-11247500D01*
X12598159Y-11226559D02*
X12598159Y-11125441D01*
X12497041Y-11125441D01*
X12497041Y-11226559D01*
X12598159Y-11226559D01*
X12476100Y-12752500D02*
X12619100Y-12895500D01*
X12619100Y-12752500D02*
X12476100Y-12895500D01*
X12598159Y-12874559D02*
X12598159Y-12773441D01*
X12497041Y-12773441D01*
X12497041Y-12874559D01*
X12598159Y-12874559D01*
X12476100Y-14400500D02*
X12619100Y-14543500D01*
X12619100Y-14400500D02*
X12476100Y-14543500D01*
X12598159Y-14522559D02*
X12598159Y-14421441D01*
X12497041Y-14421441D01*
X12497041Y-14522559D01*
X12598159Y-14522559D01*
X13542900Y-11104500D02*
X13685900Y-11247500D01*
X13685900Y-11104500D02*
X13542900Y-11247500D01*
X13664959Y-11226559D02*
X13664959Y-11125441D01*
X13563841Y-11125441D01*
X13563841Y-11226559D01*
X13664959Y-11226559D01*
X13542900Y-12752500D02*
X13685900Y-12895500D01*
X13685900Y-12752500D02*
X13542900Y-12895500D01*
X13664959Y-12874559D02*
X13664959Y-12773441D01*
X13563841Y-12773441D01*
X13563841Y-12874559D01*
X13664959Y-12874559D01*
X13542900Y-14400500D02*
X13685900Y-14543500D01*
X13685900Y-14400500D02*
X13542900Y-14543500D01*
X13664959Y-14522559D02*
X13664959Y-14421441D01*
X13563841Y-14421441D01*
X13563841Y-14522559D01*
X13664959Y-14522559D01*
D11*
X9386619Y-15100324D02*
X9386619Y-14900324D01*
X9386619Y-14900324D02*
X9434238Y-14900324D01*
X9434238Y-14900324D02*
X9462810Y-14909848D01*
X9462810Y-14909848D02*
X9481857Y-14928895D01*
X9481857Y-14928895D02*
X9491381Y-14947943D01*
X9491381Y-14947943D02*
X9500905Y-14986038D01*
X9500905Y-14986038D02*
X9500905Y-15014609D01*
X9500905Y-15014609D02*
X9491381Y-15052705D01*
X9491381Y-15052705D02*
X9481857Y-15071752D01*
X9481857Y-15071752D02*
X9462810Y-15090800D01*
X9462810Y-15090800D02*
X9434238Y-15100324D01*
X9434238Y-15100324D02*
X9386619Y-15100324D01*
X9586619Y-15100324D02*
X9586619Y-14966990D01*
X9586619Y-15005086D02*
X9596143Y-14986038D01*
X9596143Y-14986038D02*
X9605667Y-14976514D01*
X9605667Y-14976514D02*
X9624714Y-14966990D01*
X9624714Y-14966990D02*
X9643762Y-14966990D01*
X9710429Y-15100324D02*
X9710429Y-14966990D01*
X9710429Y-14900324D02*
X9700905Y-14909848D01*
X9700905Y-14909848D02*
X9710429Y-14919371D01*
X9710429Y-14919371D02*
X9719952Y-14909848D01*
X9719952Y-14909848D02*
X9710429Y-14900324D01*
X9710429Y-14900324D02*
X9710429Y-14919371D01*
X9834238Y-15100324D02*
X9815190Y-15090800D01*
X9815190Y-15090800D02*
X9805667Y-15071752D01*
X9805667Y-15071752D02*
X9805667Y-14900324D01*
X9939000Y-15100324D02*
X9919952Y-15090800D01*
X9919952Y-15090800D02*
X9910429Y-15071752D01*
X9910429Y-15071752D02*
X9910429Y-14900324D01*
X10167571Y-15100324D02*
X10167571Y-14900324D01*
X10167571Y-14900324D02*
X10234238Y-15043181D01*
X10234238Y-15043181D02*
X10300905Y-14900324D01*
X10300905Y-14900324D02*
X10300905Y-15100324D01*
X10481857Y-15100324D02*
X10481857Y-14995562D01*
X10481857Y-14995562D02*
X10472333Y-14976514D01*
X10472333Y-14976514D02*
X10453286Y-14966990D01*
X10453286Y-14966990D02*
X10415190Y-14966990D01*
X10415190Y-14966990D02*
X10396143Y-14976514D01*
X10481857Y-15090800D02*
X10462810Y-15100324D01*
X10462810Y-15100324D02*
X10415190Y-15100324D01*
X10415190Y-15100324D02*
X10396143Y-15090800D01*
X10396143Y-15090800D02*
X10386619Y-15071752D01*
X10386619Y-15071752D02*
X10386619Y-15052705D01*
X10386619Y-15052705D02*
X10396143Y-15033657D01*
X10396143Y-15033657D02*
X10415190Y-15024133D01*
X10415190Y-15024133D02*
X10462810Y-15024133D01*
X10462810Y-15024133D02*
X10481857Y-15014609D01*
X10577095Y-14966990D02*
X10577095Y-15166990D01*
X10577095Y-14976514D02*
X10596143Y-14966990D01*
X10596143Y-14966990D02*
X10634238Y-14966990D01*
X10634238Y-14966990D02*
X10653286Y-14976514D01*
X10653286Y-14976514D02*
X10662810Y-14986038D01*
X10662810Y-14986038D02*
X10672333Y-15005086D01*
X10672333Y-15005086D02*
X10672333Y-15062228D01*
X10672333Y-15062228D02*
X10662810Y-15081276D01*
X10662810Y-15081276D02*
X10653286Y-15090800D01*
X10653286Y-15090800D02*
X10634238Y-15100324D01*
X10634238Y-15100324D02*
X10596143Y-15100324D01*
X10596143Y-15100324D02*
X10577095Y-15090800D01*
X10758048Y-15081276D02*
X10767571Y-15090800D01*
X10767571Y-15090800D02*
X10758048Y-15100324D01*
X10758048Y-15100324D02*
X10748524Y-15090800D01*
X10748524Y-15090800D02*
X10758048Y-15081276D01*
X10758048Y-15081276D02*
X10758048Y-15100324D01*
X10758048Y-14976514D02*
X10767571Y-14986038D01*
X10767571Y-14986038D02*
X10758048Y-14995562D01*
X10758048Y-14995562D02*
X10748524Y-14986038D01*
X10748524Y-14986038D02*
X10758048Y-14976514D01*
X10758048Y-14976514D02*
X10758048Y-14995562D01*
D12*
X9099000Y-15407800D02*
X9139000Y-15447800D01*
X9139000Y-15407800D02*
X9099000Y-15447800D01*
D11*
X9424714Y-15320324D02*
X9443762Y-15320324D01*
X9443762Y-15320324D02*
X9462810Y-15329848D01*
X9462810Y-15329848D02*
X9472333Y-15339371D01*
X9472333Y-15339371D02*
X9481857Y-15358419D01*
X9481857Y-15358419D02*
X9491381Y-15396514D01*
X9491381Y-15396514D02*
X9491381Y-15444133D01*
X9491381Y-15444133D02*
X9481857Y-15482228D01*
X9481857Y-15482228D02*
X9472333Y-15501276D01*
X9472333Y-15501276D02*
X9462810Y-15510800D01*
X9462810Y-15510800D02*
X9443762Y-15520324D01*
X9443762Y-15520324D02*
X9424714Y-15520324D01*
X9424714Y-15520324D02*
X9405667Y-15510800D01*
X9405667Y-15510800D02*
X9396143Y-15501276D01*
X9396143Y-15501276D02*
X9386619Y-15482228D01*
X9386619Y-15482228D02*
X9377095Y-15444133D01*
X9377095Y-15444133D02*
X9377095Y-15396514D01*
X9377095Y-15396514D02*
X9386619Y-15358419D01*
X9386619Y-15358419D02*
X9396143Y-15339371D01*
X9396143Y-15339371D02*
X9405667Y-15329848D01*
X9405667Y-15329848D02*
X9424714Y-15320324D01*
X9577095Y-15501276D02*
X9586619Y-15510800D01*
X9586619Y-15510800D02*
X9577095Y-15520324D01*
X9577095Y-15520324D02*
X9567571Y-15510800D01*
X9567571Y-15510800D02*
X9577095Y-15501276D01*
X9577095Y-15501276D02*
X9577095Y-15520324D01*
X9758048Y-15386990D02*
X9758048Y-15520324D01*
X9710429Y-15310800D02*
X9662810Y-15453657D01*
X9662810Y-15453657D02*
X9786619Y-15453657D01*
X9900905Y-15320324D02*
X9919952Y-15320324D01*
X9919952Y-15320324D02*
X9939000Y-15329848D01*
X9939000Y-15329848D02*
X9948524Y-15339371D01*
X9948524Y-15339371D02*
X9958048Y-15358419D01*
X9958048Y-15358419D02*
X9967571Y-15396514D01*
X9967571Y-15396514D02*
X9967571Y-15444133D01*
X9967571Y-15444133D02*
X9958048Y-15482228D01*
X9958048Y-15482228D02*
X9948524Y-15501276D01*
X9948524Y-15501276D02*
X9939000Y-15510800D01*
X9939000Y-15510800D02*
X9919952Y-15520324D01*
X9919952Y-15520324D02*
X9900905Y-15520324D01*
X9900905Y-15520324D02*
X9881857Y-15510800D01*
X9881857Y-15510800D02*
X9872333Y-15501276D01*
X9872333Y-15501276D02*
X9862810Y-15482228D01*
X9862810Y-15482228D02*
X9853286Y-15444133D01*
X9853286Y-15444133D02*
X9853286Y-15396514D01*
X9853286Y-15396514D02*
X9862810Y-15358419D01*
X9862810Y-15358419D02*
X9872333Y-15339371D01*
X9872333Y-15339371D02*
X9881857Y-15329848D01*
X9881857Y-15329848D02*
X9900905Y-15320324D01*
X10091381Y-15320324D02*
X10110429Y-15320324D01*
X10110429Y-15320324D02*
X10129476Y-15329848D01*
X10129476Y-15329848D02*
X10139000Y-15339371D01*
X10139000Y-15339371D02*
X10148524Y-15358419D01*
X10148524Y-15358419D02*
X10158048Y-15396514D01*
X10158048Y-15396514D02*
X10158048Y-15444133D01*
X10158048Y-15444133D02*
X10148524Y-15482228D01*
X10148524Y-15482228D02*
X10139000Y-15501276D01*
X10139000Y-15501276D02*
X10129476Y-15510800D01*
X10129476Y-15510800D02*
X10110429Y-15520324D01*
X10110429Y-15520324D02*
X10091381Y-15520324D01*
X10091381Y-15520324D02*
X10072333Y-15510800D01*
X10072333Y-15510800D02*
X10062810Y-15501276D01*
X10062810Y-15501276D02*
X10053286Y-15482228D01*
X10053286Y-15482228D02*
X10043762Y-15444133D01*
X10043762Y-15444133D02*
X10043762Y-15396514D01*
X10043762Y-15396514D02*
X10053286Y-15358419D01*
X10053286Y-15358419D02*
X10062810Y-15339371D01*
X10062810Y-15339371D02*
X10072333Y-15329848D01*
X10072333Y-15329848D02*
X10091381Y-15320324D01*
X10243762Y-15520324D02*
X10243762Y-15386990D01*
X10243762Y-15406038D02*
X10253286Y-15396514D01*
X10253286Y-15396514D02*
X10272333Y-15386990D01*
X10272333Y-15386990D02*
X10300905Y-15386990D01*
X10300905Y-15386990D02*
X10319952Y-15396514D01*
X10319952Y-15396514D02*
X10329476Y-15415562D01*
X10329476Y-15415562D02*
X10329476Y-15520324D01*
X10329476Y-15415562D02*
X10339000Y-15396514D01*
X10339000Y-15396514D02*
X10358048Y-15386990D01*
X10358048Y-15386990D02*
X10386619Y-15386990D01*
X10386619Y-15386990D02*
X10405667Y-15396514D01*
X10405667Y-15396514D02*
X10415191Y-15415562D01*
X10415191Y-15415562D02*
X10415191Y-15520324D01*
X10510429Y-15520324D02*
X10510429Y-15386990D01*
X10510429Y-15406038D02*
X10519952Y-15396514D01*
X10519952Y-15396514D02*
X10539000Y-15386990D01*
X10539000Y-15386990D02*
X10567572Y-15386990D01*
X10567572Y-15386990D02*
X10586619Y-15396514D01*
X10586619Y-15396514D02*
X10596143Y-15415562D01*
X10596143Y-15415562D02*
X10596143Y-15520324D01*
X10596143Y-15415562D02*
X10605667Y-15396514D01*
X10605667Y-15396514D02*
X10624714Y-15386990D01*
X10624714Y-15386990D02*
X10653286Y-15386990D01*
X10653286Y-15386990D02*
X10672333Y-15396514D01*
X10672333Y-15396514D02*
X10681857Y-15415562D01*
X10681857Y-15415562D02*
X10681857Y-15520324D01*
X11072333Y-15310800D02*
X10900905Y-15567943D01*
X11329476Y-15320324D02*
X11348524Y-15320324D01*
X11348524Y-15320324D02*
X11367572Y-15329848D01*
X11367572Y-15329848D02*
X11377095Y-15339371D01*
X11377095Y-15339371D02*
X11386619Y-15358419D01*
X11386619Y-15358419D02*
X11396143Y-15396514D01*
X11396143Y-15396514D02*
X11396143Y-15444133D01*
X11396143Y-15444133D02*
X11386619Y-15482228D01*
X11386619Y-15482228D02*
X11377095Y-15501276D01*
X11377095Y-15501276D02*
X11367572Y-15510800D01*
X11367572Y-15510800D02*
X11348524Y-15520324D01*
X11348524Y-15520324D02*
X11329476Y-15520324D01*
X11329476Y-15520324D02*
X11310429Y-15510800D01*
X11310429Y-15510800D02*
X11300905Y-15501276D01*
X11300905Y-15501276D02*
X11291381Y-15482228D01*
X11291381Y-15482228D02*
X11281857Y-15444133D01*
X11281857Y-15444133D02*
X11281857Y-15396514D01*
X11281857Y-15396514D02*
X11291381Y-15358419D01*
X11291381Y-15358419D02*
X11300905Y-15339371D01*
X11300905Y-15339371D02*
X11310429Y-15329848D01*
X11310429Y-15329848D02*
X11329476Y-15320324D01*
X11481857Y-15501276D02*
X11491381Y-15510800D01*
X11491381Y-15510800D02*
X11481857Y-15520324D01*
X11481857Y-15520324D02*
X11472333Y-15510800D01*
X11472333Y-15510800D02*
X11481857Y-15501276D01*
X11481857Y-15501276D02*
X11481857Y-15520324D01*
X11615191Y-15320324D02*
X11634238Y-15320324D01*
X11634238Y-15320324D02*
X11653286Y-15329848D01*
X11653286Y-15329848D02*
X11662810Y-15339371D01*
X11662810Y-15339371D02*
X11672333Y-15358419D01*
X11672333Y-15358419D02*
X11681857Y-15396514D01*
X11681857Y-15396514D02*
X11681857Y-15444133D01*
X11681857Y-15444133D02*
X11672333Y-15482228D01*
X11672333Y-15482228D02*
X11662810Y-15501276D01*
X11662810Y-15501276D02*
X11653286Y-15510800D01*
X11653286Y-15510800D02*
X11634238Y-15520324D01*
X11634238Y-15520324D02*
X11615191Y-15520324D01*
X11615191Y-15520324D02*
X11596143Y-15510800D01*
X11596143Y-15510800D02*
X11586619Y-15501276D01*
X11586619Y-15501276D02*
X11577095Y-15482228D01*
X11577095Y-15482228D02*
X11567572Y-15444133D01*
X11567572Y-15444133D02*
X11567572Y-15396514D01*
X11567572Y-15396514D02*
X11577095Y-15358419D01*
X11577095Y-15358419D02*
X11586619Y-15339371D01*
X11586619Y-15339371D02*
X11596143Y-15329848D01*
X11596143Y-15329848D02*
X11615191Y-15320324D01*
X11872333Y-15520324D02*
X11758048Y-15520324D01*
X11815191Y-15520324D02*
X11815191Y-15320324D01*
X11815191Y-15320324D02*
X11796143Y-15348895D01*
X11796143Y-15348895D02*
X11777095Y-15367943D01*
X11777095Y-15367943D02*
X11758048Y-15377467D01*
X12053286Y-15320324D02*
X11958048Y-15320324D01*
X11958048Y-15320324D02*
X11948524Y-15415562D01*
X11948524Y-15415562D02*
X11958048Y-15406038D01*
X11958048Y-15406038D02*
X11977095Y-15396514D01*
X11977095Y-15396514D02*
X12024714Y-15396514D01*
X12024714Y-15396514D02*
X12043762Y-15406038D01*
X12043762Y-15406038D02*
X12053286Y-15415562D01*
X12053286Y-15415562D02*
X12062810Y-15434609D01*
X12062810Y-15434609D02*
X12062810Y-15482228D01*
X12062810Y-15482228D02*
X12053286Y-15501276D01*
X12053286Y-15501276D02*
X12043762Y-15510800D01*
X12043762Y-15510800D02*
X12024714Y-15520324D01*
X12024714Y-15520324D02*
X11977095Y-15520324D01*
X11977095Y-15520324D02*
X11958048Y-15510800D01*
X11958048Y-15510800D02*
X11948524Y-15501276D01*
X12129476Y-15320324D02*
X12262810Y-15320324D01*
X12262810Y-15320324D02*
X12177095Y-15520324D01*
X12329476Y-15320324D02*
X12329476Y-15358419D01*
X12405667Y-15320324D02*
X12405667Y-15358419D01*
X12700905Y-15596514D02*
X12691381Y-15586990D01*
X12691381Y-15586990D02*
X12672334Y-15558419D01*
X12672334Y-15558419D02*
X12662810Y-15539371D01*
X12662810Y-15539371D02*
X12653286Y-15510800D01*
X12653286Y-15510800D02*
X12643762Y-15463181D01*
X12643762Y-15463181D02*
X12643762Y-15425086D01*
X12643762Y-15425086D02*
X12653286Y-15377467D01*
X12653286Y-15377467D02*
X12662810Y-15348895D01*
X12662810Y-15348895D02*
X12672334Y-15329848D01*
X12672334Y-15329848D02*
X12691381Y-15301276D01*
X12691381Y-15301276D02*
X12700905Y-15291752D01*
X12881857Y-15520324D02*
X12767572Y-15520324D01*
X12824714Y-15520324D02*
X12824714Y-15320324D01*
X12824714Y-15320324D02*
X12805667Y-15348895D01*
X12805667Y-15348895D02*
X12786619Y-15367943D01*
X12786619Y-15367943D02*
X12767572Y-15377467D01*
X13119953Y-15520324D02*
X13119953Y-15320324D01*
X13205667Y-15520324D02*
X13205667Y-15415562D01*
X13205667Y-15415562D02*
X13196143Y-15396514D01*
X13196143Y-15396514D02*
X13177096Y-15386990D01*
X13177096Y-15386990D02*
X13148524Y-15386990D01*
X13148524Y-15386990D02*
X13129476Y-15396514D01*
X13129476Y-15396514D02*
X13119953Y-15406038D01*
X13329476Y-15520324D02*
X13310429Y-15510800D01*
X13310429Y-15510800D02*
X13300905Y-15501276D01*
X13300905Y-15501276D02*
X13291381Y-15482228D01*
X13291381Y-15482228D02*
X13291381Y-15425086D01*
X13291381Y-15425086D02*
X13300905Y-15406038D01*
X13300905Y-15406038D02*
X13310429Y-15396514D01*
X13310429Y-15396514D02*
X13329476Y-15386990D01*
X13329476Y-15386990D02*
X13358048Y-15386990D01*
X13358048Y-15386990D02*
X13377096Y-15396514D01*
X13377096Y-15396514D02*
X13386619Y-15406038D01*
X13386619Y-15406038D02*
X13396143Y-15425086D01*
X13396143Y-15425086D02*
X13396143Y-15482228D01*
X13396143Y-15482228D02*
X13386619Y-15501276D01*
X13386619Y-15501276D02*
X13377096Y-15510800D01*
X13377096Y-15510800D02*
X13358048Y-15520324D01*
X13358048Y-15520324D02*
X13329476Y-15520324D01*
X13510429Y-15520324D02*
X13491381Y-15510800D01*
X13491381Y-15510800D02*
X13481857Y-15491752D01*
X13481857Y-15491752D02*
X13481857Y-15320324D01*
X13662810Y-15510800D02*
X13643762Y-15520324D01*
X13643762Y-15520324D02*
X13605667Y-15520324D01*
X13605667Y-15520324D02*
X13586619Y-15510800D01*
X13586619Y-15510800D02*
X13577096Y-15491752D01*
X13577096Y-15491752D02*
X13577096Y-15415562D01*
X13577096Y-15415562D02*
X13586619Y-15396514D01*
X13586619Y-15396514D02*
X13605667Y-15386990D01*
X13605667Y-15386990D02*
X13643762Y-15386990D01*
X13643762Y-15386990D02*
X13662810Y-15396514D01*
X13662810Y-15396514D02*
X13672334Y-15415562D01*
X13672334Y-15415562D02*
X13672334Y-15434609D01*
X13672334Y-15434609D02*
X13577096Y-15453657D01*
X13739000Y-15596514D02*
X13748524Y-15586990D01*
X13748524Y-15586990D02*
X13767572Y-15558419D01*
X13767572Y-15558419D02*
X13777096Y-15539371D01*
X13777096Y-15539371D02*
X13786619Y-15510800D01*
X13786619Y-15510800D02*
X13796143Y-15463181D01*
X13796143Y-15463181D02*
X13796143Y-15425086D01*
X13796143Y-15425086D02*
X13786619Y-15377467D01*
X13786619Y-15377467D02*
X13777096Y-15348895D01*
X13777096Y-15348895D02*
X13767572Y-15329848D01*
X13767572Y-15329848D02*
X13748524Y-15301276D01*
X13748524Y-15301276D02*
X13739000Y-15291752D01*
D13*
X9139000Y-15691800D02*
G75*
G03*
X9139000Y-15691800I-40000J0D01*
G01*
D11*
X9424714Y-15584324D02*
X9443762Y-15584324D01*
X9443762Y-15584324D02*
X9462810Y-15593848D01*
X9462810Y-15593848D02*
X9472333Y-15603371D01*
X9472333Y-15603371D02*
X9481857Y-15622419D01*
X9481857Y-15622419D02*
X9491381Y-15660514D01*
X9491381Y-15660514D02*
X9491381Y-15708133D01*
X9491381Y-15708133D02*
X9481857Y-15746228D01*
X9481857Y-15746228D02*
X9472333Y-15765276D01*
X9472333Y-15765276D02*
X9462810Y-15774800D01*
X9462810Y-15774800D02*
X9443762Y-15784324D01*
X9443762Y-15784324D02*
X9424714Y-15784324D01*
X9424714Y-15784324D02*
X9405667Y-15774800D01*
X9405667Y-15774800D02*
X9396143Y-15765276D01*
X9396143Y-15765276D02*
X9386619Y-15746228D01*
X9386619Y-15746228D02*
X9377095Y-15708133D01*
X9377095Y-15708133D02*
X9377095Y-15660514D01*
X9377095Y-15660514D02*
X9386619Y-15622419D01*
X9386619Y-15622419D02*
X9396143Y-15603371D01*
X9396143Y-15603371D02*
X9405667Y-15593848D01*
X9405667Y-15593848D02*
X9424714Y-15584324D01*
X9577095Y-15765276D02*
X9586619Y-15774800D01*
X9586619Y-15774800D02*
X9577095Y-15784324D01*
X9577095Y-15784324D02*
X9567571Y-15774800D01*
X9567571Y-15774800D02*
X9577095Y-15765276D01*
X9577095Y-15765276D02*
X9577095Y-15784324D01*
X9700905Y-15670038D02*
X9681857Y-15660514D01*
X9681857Y-15660514D02*
X9672333Y-15650990D01*
X9672333Y-15650990D02*
X9662810Y-15631943D01*
X9662810Y-15631943D02*
X9662810Y-15622419D01*
X9662810Y-15622419D02*
X9672333Y-15603371D01*
X9672333Y-15603371D02*
X9681857Y-15593848D01*
X9681857Y-15593848D02*
X9700905Y-15584324D01*
X9700905Y-15584324D02*
X9739000Y-15584324D01*
X9739000Y-15584324D02*
X9758048Y-15593848D01*
X9758048Y-15593848D02*
X9767571Y-15603371D01*
X9767571Y-15603371D02*
X9777095Y-15622419D01*
X9777095Y-15622419D02*
X9777095Y-15631943D01*
X9777095Y-15631943D02*
X9767571Y-15650990D01*
X9767571Y-15650990D02*
X9758048Y-15660514D01*
X9758048Y-15660514D02*
X9739000Y-15670038D01*
X9739000Y-15670038D02*
X9700905Y-15670038D01*
X9700905Y-15670038D02*
X9681857Y-15679562D01*
X9681857Y-15679562D02*
X9672333Y-15689086D01*
X9672333Y-15689086D02*
X9662810Y-15708133D01*
X9662810Y-15708133D02*
X9662810Y-15746228D01*
X9662810Y-15746228D02*
X9672333Y-15765276D01*
X9672333Y-15765276D02*
X9681857Y-15774800D01*
X9681857Y-15774800D02*
X9700905Y-15784324D01*
X9700905Y-15784324D02*
X9739000Y-15784324D01*
X9739000Y-15784324D02*
X9758048Y-15774800D01*
X9758048Y-15774800D02*
X9767571Y-15765276D01*
X9767571Y-15765276D02*
X9777095Y-15746228D01*
X9777095Y-15746228D02*
X9777095Y-15708133D01*
X9777095Y-15708133D02*
X9767571Y-15689086D01*
X9767571Y-15689086D02*
X9758048Y-15679562D01*
X9758048Y-15679562D02*
X9739000Y-15670038D01*
X9900905Y-15584324D02*
X9919952Y-15584324D01*
X9919952Y-15584324D02*
X9939000Y-15593848D01*
X9939000Y-15593848D02*
X9948524Y-15603371D01*
X9948524Y-15603371D02*
X9958048Y-15622419D01*
X9958048Y-15622419D02*
X9967571Y-15660514D01*
X9967571Y-15660514D02*
X9967571Y-15708133D01*
X9967571Y-15708133D02*
X9958048Y-15746228D01*
X9958048Y-15746228D02*
X9948524Y-15765276D01*
X9948524Y-15765276D02*
X9939000Y-15774800D01*
X9939000Y-15774800D02*
X9919952Y-15784324D01*
X9919952Y-15784324D02*
X9900905Y-15784324D01*
X9900905Y-15784324D02*
X9881857Y-15774800D01*
X9881857Y-15774800D02*
X9872333Y-15765276D01*
X9872333Y-15765276D02*
X9862810Y-15746228D01*
X9862810Y-15746228D02*
X9853286Y-15708133D01*
X9853286Y-15708133D02*
X9853286Y-15660514D01*
X9853286Y-15660514D02*
X9862810Y-15622419D01*
X9862810Y-15622419D02*
X9872333Y-15603371D01*
X9872333Y-15603371D02*
X9881857Y-15593848D01*
X9881857Y-15593848D02*
X9900905Y-15584324D01*
X10091381Y-15584324D02*
X10110429Y-15584324D01*
X10110429Y-15584324D02*
X10129476Y-15593848D01*
X10129476Y-15593848D02*
X10139000Y-15603371D01*
X10139000Y-15603371D02*
X10148524Y-15622419D01*
X10148524Y-15622419D02*
X10158048Y-15660514D01*
X10158048Y-15660514D02*
X10158048Y-15708133D01*
X10158048Y-15708133D02*
X10148524Y-15746228D01*
X10148524Y-15746228D02*
X10139000Y-15765276D01*
X10139000Y-15765276D02*
X10129476Y-15774800D01*
X10129476Y-15774800D02*
X10110429Y-15784324D01*
X10110429Y-15784324D02*
X10091381Y-15784324D01*
X10091381Y-15784324D02*
X10072333Y-15774800D01*
X10072333Y-15774800D02*
X10062810Y-15765276D01*
X10062810Y-15765276D02*
X10053286Y-15746228D01*
X10053286Y-15746228D02*
X10043762Y-15708133D01*
X10043762Y-15708133D02*
X10043762Y-15660514D01*
X10043762Y-15660514D02*
X10053286Y-15622419D01*
X10053286Y-15622419D02*
X10062810Y-15603371D01*
X10062810Y-15603371D02*
X10072333Y-15593848D01*
X10072333Y-15593848D02*
X10091381Y-15584324D01*
X10243762Y-15784324D02*
X10243762Y-15650990D01*
X10243762Y-15670038D02*
X10253286Y-15660514D01*
X10253286Y-15660514D02*
X10272333Y-15650990D01*
X10272333Y-15650990D02*
X10300905Y-15650990D01*
X10300905Y-15650990D02*
X10319952Y-15660514D01*
X10319952Y-15660514D02*
X10329476Y-15679562D01*
X10329476Y-15679562D02*
X10329476Y-15784324D01*
X10329476Y-15679562D02*
X10339000Y-15660514D01*
X10339000Y-15660514D02*
X10358048Y-15650990D01*
X10358048Y-15650990D02*
X10386619Y-15650990D01*
X10386619Y-15650990D02*
X10405667Y-15660514D01*
X10405667Y-15660514D02*
X10415191Y-15679562D01*
X10415191Y-15679562D02*
X10415191Y-15784324D01*
X10510429Y-15784324D02*
X10510429Y-15650990D01*
X10510429Y-15670038D02*
X10519952Y-15660514D01*
X10519952Y-15660514D02*
X10539000Y-15650990D01*
X10539000Y-15650990D02*
X10567572Y-15650990D01*
X10567572Y-15650990D02*
X10586619Y-15660514D01*
X10586619Y-15660514D02*
X10596143Y-15679562D01*
X10596143Y-15679562D02*
X10596143Y-15784324D01*
X10596143Y-15679562D02*
X10605667Y-15660514D01*
X10605667Y-15660514D02*
X10624714Y-15650990D01*
X10624714Y-15650990D02*
X10653286Y-15650990D01*
X10653286Y-15650990D02*
X10672333Y-15660514D01*
X10672333Y-15660514D02*
X10681857Y-15679562D01*
X10681857Y-15679562D02*
X10681857Y-15784324D01*
X11072333Y-15574800D02*
X10900905Y-15831943D01*
X11329476Y-15584324D02*
X11348524Y-15584324D01*
X11348524Y-15584324D02*
X11367572Y-15593848D01*
X11367572Y-15593848D02*
X11377095Y-15603371D01*
X11377095Y-15603371D02*
X11386619Y-15622419D01*
X11386619Y-15622419D02*
X11396143Y-15660514D01*
X11396143Y-15660514D02*
X11396143Y-15708133D01*
X11396143Y-15708133D02*
X11386619Y-15746228D01*
X11386619Y-15746228D02*
X11377095Y-15765276D01*
X11377095Y-15765276D02*
X11367572Y-15774800D01*
X11367572Y-15774800D02*
X11348524Y-15784324D01*
X11348524Y-15784324D02*
X11329476Y-15784324D01*
X11329476Y-15784324D02*
X11310429Y-15774800D01*
X11310429Y-15774800D02*
X11300905Y-15765276D01*
X11300905Y-15765276D02*
X11291381Y-15746228D01*
X11291381Y-15746228D02*
X11281857Y-15708133D01*
X11281857Y-15708133D02*
X11281857Y-15660514D01*
X11281857Y-15660514D02*
X11291381Y-15622419D01*
X11291381Y-15622419D02*
X11300905Y-15603371D01*
X11300905Y-15603371D02*
X11310429Y-15593848D01*
X11310429Y-15593848D02*
X11329476Y-15584324D01*
X11481857Y-15765276D02*
X11491381Y-15774800D01*
X11491381Y-15774800D02*
X11481857Y-15784324D01*
X11481857Y-15784324D02*
X11472333Y-15774800D01*
X11472333Y-15774800D02*
X11481857Y-15765276D01*
X11481857Y-15765276D02*
X11481857Y-15784324D01*
X11615191Y-15584324D02*
X11634238Y-15584324D01*
X11634238Y-15584324D02*
X11653286Y-15593848D01*
X11653286Y-15593848D02*
X11662810Y-15603371D01*
X11662810Y-15603371D02*
X11672333Y-15622419D01*
X11672333Y-15622419D02*
X11681857Y-15660514D01*
X11681857Y-15660514D02*
X11681857Y-15708133D01*
X11681857Y-15708133D02*
X11672333Y-15746228D01*
X11672333Y-15746228D02*
X11662810Y-15765276D01*
X11662810Y-15765276D02*
X11653286Y-15774800D01*
X11653286Y-15774800D02*
X11634238Y-15784324D01*
X11634238Y-15784324D02*
X11615191Y-15784324D01*
X11615191Y-15784324D02*
X11596143Y-15774800D01*
X11596143Y-15774800D02*
X11586619Y-15765276D01*
X11586619Y-15765276D02*
X11577095Y-15746228D01*
X11577095Y-15746228D02*
X11567572Y-15708133D01*
X11567572Y-15708133D02*
X11567572Y-15660514D01*
X11567572Y-15660514D02*
X11577095Y-15622419D01*
X11577095Y-15622419D02*
X11586619Y-15603371D01*
X11586619Y-15603371D02*
X11596143Y-15593848D01*
X11596143Y-15593848D02*
X11615191Y-15584324D01*
X11748524Y-15584324D02*
X11872333Y-15584324D01*
X11872333Y-15584324D02*
X11805667Y-15660514D01*
X11805667Y-15660514D02*
X11834238Y-15660514D01*
X11834238Y-15660514D02*
X11853286Y-15670038D01*
X11853286Y-15670038D02*
X11862810Y-15679562D01*
X11862810Y-15679562D02*
X11872333Y-15698609D01*
X11872333Y-15698609D02*
X11872333Y-15746228D01*
X11872333Y-15746228D02*
X11862810Y-15765276D01*
X11862810Y-15765276D02*
X11853286Y-15774800D01*
X11853286Y-15774800D02*
X11834238Y-15784324D01*
X11834238Y-15784324D02*
X11777095Y-15784324D01*
X11777095Y-15784324D02*
X11758048Y-15774800D01*
X11758048Y-15774800D02*
X11748524Y-15765276D01*
X12062810Y-15784324D02*
X11948524Y-15784324D01*
X12005667Y-15784324D02*
X12005667Y-15584324D01*
X12005667Y-15584324D02*
X11986619Y-15612895D01*
X11986619Y-15612895D02*
X11967572Y-15631943D01*
X11967572Y-15631943D02*
X11948524Y-15641467D01*
X12243762Y-15584324D02*
X12148524Y-15584324D01*
X12148524Y-15584324D02*
X12139000Y-15679562D01*
X12139000Y-15679562D02*
X12148524Y-15670038D01*
X12148524Y-15670038D02*
X12167572Y-15660514D01*
X12167572Y-15660514D02*
X12215191Y-15660514D01*
X12215191Y-15660514D02*
X12234238Y-15670038D01*
X12234238Y-15670038D02*
X12243762Y-15679562D01*
X12243762Y-15679562D02*
X12253286Y-15698609D01*
X12253286Y-15698609D02*
X12253286Y-15746228D01*
X12253286Y-15746228D02*
X12243762Y-15765276D01*
X12243762Y-15765276D02*
X12234238Y-15774800D01*
X12234238Y-15774800D02*
X12215191Y-15784324D01*
X12215191Y-15784324D02*
X12167572Y-15784324D01*
X12167572Y-15784324D02*
X12148524Y-15774800D01*
X12148524Y-15774800D02*
X12139000Y-15765276D01*
X12329476Y-15584324D02*
X12329476Y-15622419D01*
X12405667Y-15584324D02*
X12405667Y-15622419D01*
X12700905Y-15860514D02*
X12691381Y-15850990D01*
X12691381Y-15850990D02*
X12672334Y-15822419D01*
X12672334Y-15822419D02*
X12662810Y-15803371D01*
X12662810Y-15803371D02*
X12653286Y-15774800D01*
X12653286Y-15774800D02*
X12643762Y-15727181D01*
X12643762Y-15727181D02*
X12643762Y-15689086D01*
X12643762Y-15689086D02*
X12653286Y-15641467D01*
X12653286Y-15641467D02*
X12662810Y-15612895D01*
X12662810Y-15612895D02*
X12672334Y-15593848D01*
X12672334Y-15593848D02*
X12691381Y-15565276D01*
X12691381Y-15565276D02*
X12700905Y-15555752D01*
X12805667Y-15670038D02*
X12786619Y-15660514D01*
X12786619Y-15660514D02*
X12777095Y-15650990D01*
X12777095Y-15650990D02*
X12767572Y-15631943D01*
X12767572Y-15631943D02*
X12767572Y-15622419D01*
X12767572Y-15622419D02*
X12777095Y-15603371D01*
X12777095Y-15603371D02*
X12786619Y-15593848D01*
X12786619Y-15593848D02*
X12805667Y-15584324D01*
X12805667Y-15584324D02*
X12843762Y-15584324D01*
X12843762Y-15584324D02*
X12862810Y-15593848D01*
X12862810Y-15593848D02*
X12872334Y-15603371D01*
X12872334Y-15603371D02*
X12881857Y-15622419D01*
X12881857Y-15622419D02*
X12881857Y-15631943D01*
X12881857Y-15631943D02*
X12872334Y-15650990D01*
X12872334Y-15650990D02*
X12862810Y-15660514D01*
X12862810Y-15660514D02*
X12843762Y-15670038D01*
X12843762Y-15670038D02*
X12805667Y-15670038D01*
X12805667Y-15670038D02*
X12786619Y-15679562D01*
X12786619Y-15679562D02*
X12777095Y-15689086D01*
X12777095Y-15689086D02*
X12767572Y-15708133D01*
X12767572Y-15708133D02*
X12767572Y-15746228D01*
X12767572Y-15746228D02*
X12777095Y-15765276D01*
X12777095Y-15765276D02*
X12786619Y-15774800D01*
X12786619Y-15774800D02*
X12805667Y-15784324D01*
X12805667Y-15784324D02*
X12843762Y-15784324D01*
X12843762Y-15784324D02*
X12862810Y-15774800D01*
X12862810Y-15774800D02*
X12872334Y-15765276D01*
X12872334Y-15765276D02*
X12881857Y-15746228D01*
X12881857Y-15746228D02*
X12881857Y-15708133D01*
X12881857Y-15708133D02*
X12872334Y-15689086D01*
X12872334Y-15689086D02*
X12862810Y-15679562D01*
X12862810Y-15679562D02*
X12843762Y-15670038D01*
X13119953Y-15784324D02*
X13119953Y-15584324D01*
X13205667Y-15784324D02*
X13205667Y-15679562D01*
X13205667Y-15679562D02*
X13196143Y-15660514D01*
X13196143Y-15660514D02*
X13177096Y-15650990D01*
X13177096Y-15650990D02*
X13148524Y-15650990D01*
X13148524Y-15650990D02*
X13129476Y-15660514D01*
X13129476Y-15660514D02*
X13119953Y-15670038D01*
X13329476Y-15784324D02*
X13310429Y-15774800D01*
X13310429Y-15774800D02*
X13300905Y-15765276D01*
X13300905Y-15765276D02*
X13291381Y-15746228D01*
X13291381Y-15746228D02*
X13291381Y-15689086D01*
X13291381Y-15689086D02*
X13300905Y-15670038D01*
X13300905Y-15670038D02*
X13310429Y-15660514D01*
X13310429Y-15660514D02*
X13329476Y-15650990D01*
X13329476Y-15650990D02*
X13358048Y-15650990D01*
X13358048Y-15650990D02*
X13377096Y-15660514D01*
X13377096Y-15660514D02*
X13386619Y-15670038D01*
X13386619Y-15670038D02*
X13396143Y-15689086D01*
X13396143Y-15689086D02*
X13396143Y-15746228D01*
X13396143Y-15746228D02*
X13386619Y-15765276D01*
X13386619Y-15765276D02*
X13377096Y-15774800D01*
X13377096Y-15774800D02*
X13358048Y-15784324D01*
X13358048Y-15784324D02*
X13329476Y-15784324D01*
X13510429Y-15784324D02*
X13491381Y-15774800D01*
X13491381Y-15774800D02*
X13481857Y-15755752D01*
X13481857Y-15755752D02*
X13481857Y-15584324D01*
X13662810Y-15774800D02*
X13643762Y-15784324D01*
X13643762Y-15784324D02*
X13605667Y-15784324D01*
X13605667Y-15784324D02*
X13586619Y-15774800D01*
X13586619Y-15774800D02*
X13577096Y-15755752D01*
X13577096Y-15755752D02*
X13577096Y-15679562D01*
X13577096Y-15679562D02*
X13586619Y-15660514D01*
X13586619Y-15660514D02*
X13605667Y-15650990D01*
X13605667Y-15650990D02*
X13643762Y-15650990D01*
X13643762Y-15650990D02*
X13662810Y-15660514D01*
X13662810Y-15660514D02*
X13672334Y-15679562D01*
X13672334Y-15679562D02*
X13672334Y-15698609D01*
X13672334Y-15698609D02*
X13577096Y-15717657D01*
X13748524Y-15774800D02*
X13767572Y-15784324D01*
X13767572Y-15784324D02*
X13805667Y-15784324D01*
X13805667Y-15784324D02*
X13824715Y-15774800D01*
X13824715Y-15774800D02*
X13834238Y-15755752D01*
X13834238Y-15755752D02*
X13834238Y-15746228D01*
X13834238Y-15746228D02*
X13824715Y-15727181D01*
X13824715Y-15727181D02*
X13805667Y-15717657D01*
X13805667Y-15717657D02*
X13777096Y-15717657D01*
X13777096Y-15717657D02*
X13758048Y-15708133D01*
X13758048Y-15708133D02*
X13748524Y-15689086D01*
X13748524Y-15689086D02*
X13748524Y-15679562D01*
X13748524Y-15679562D02*
X13758048Y-15660514D01*
X13758048Y-15660514D02*
X13777096Y-15650990D01*
X13777096Y-15650990D02*
X13805667Y-15650990D01*
X13805667Y-15650990D02*
X13824715Y-15660514D01*
X13900905Y-15860514D02*
X13910429Y-15850990D01*
X13910429Y-15850990D02*
X13929477Y-15822419D01*
X13929477Y-15822419D02*
X13939000Y-15803371D01*
X13939000Y-15803371D02*
X13948524Y-15774800D01*
X13948524Y-15774800D02*
X13958048Y-15727181D01*
X13958048Y-15727181D02*
X13958048Y-15689086D01*
X13958048Y-15689086D02*
X13948524Y-15641467D01*
X13948524Y-15641467D02*
X13939000Y-15612895D01*
X13939000Y-15612895D02*
X13929477Y-15593848D01*
X13929477Y-15593848D02*
X13910429Y-15565276D01*
X13910429Y-15565276D02*
X13900905Y-15555752D01*
D10*
X9089000Y-15905800D02*
X9089000Y-16005800D01*
X9039000Y-15955800D02*
X9139000Y-15955800D01*
D11*
X9491381Y-16048324D02*
X9377095Y-16048324D01*
X9434238Y-16048324D02*
X9434238Y-15848324D01*
X9434238Y-15848324D02*
X9415190Y-15876895D01*
X9415190Y-15876895D02*
X9396143Y-15895943D01*
X9396143Y-15895943D02*
X9377095Y-15905467D01*
X9577095Y-16029276D02*
X9586619Y-16038800D01*
X9586619Y-16038800D02*
X9577095Y-16048324D01*
X9577095Y-16048324D02*
X9567571Y-16038800D01*
X9567571Y-16038800D02*
X9577095Y-16029276D01*
X9577095Y-16029276D02*
X9577095Y-16048324D01*
X9710429Y-15848324D02*
X9729476Y-15848324D01*
X9729476Y-15848324D02*
X9748524Y-15857848D01*
X9748524Y-15857848D02*
X9758048Y-15867371D01*
X9758048Y-15867371D02*
X9767571Y-15886419D01*
X9767571Y-15886419D02*
X9777095Y-15924514D01*
X9777095Y-15924514D02*
X9777095Y-15972133D01*
X9777095Y-15972133D02*
X9767571Y-16010228D01*
X9767571Y-16010228D02*
X9758048Y-16029276D01*
X9758048Y-16029276D02*
X9748524Y-16038800D01*
X9748524Y-16038800D02*
X9729476Y-16048324D01*
X9729476Y-16048324D02*
X9710429Y-16048324D01*
X9710429Y-16048324D02*
X9691381Y-16038800D01*
X9691381Y-16038800D02*
X9681857Y-16029276D01*
X9681857Y-16029276D02*
X9672333Y-16010228D01*
X9672333Y-16010228D02*
X9662810Y-15972133D01*
X9662810Y-15972133D02*
X9662810Y-15924514D01*
X9662810Y-15924514D02*
X9672333Y-15886419D01*
X9672333Y-15886419D02*
X9681857Y-15867371D01*
X9681857Y-15867371D02*
X9691381Y-15857848D01*
X9691381Y-15857848D02*
X9710429Y-15848324D01*
X9900905Y-15848324D02*
X9919952Y-15848324D01*
X9919952Y-15848324D02*
X9939000Y-15857848D01*
X9939000Y-15857848D02*
X9948524Y-15867371D01*
X9948524Y-15867371D02*
X9958048Y-15886419D01*
X9958048Y-15886419D02*
X9967571Y-15924514D01*
X9967571Y-15924514D02*
X9967571Y-15972133D01*
X9967571Y-15972133D02*
X9958048Y-16010228D01*
X9958048Y-16010228D02*
X9948524Y-16029276D01*
X9948524Y-16029276D02*
X9939000Y-16038800D01*
X9939000Y-16038800D02*
X9919952Y-16048324D01*
X9919952Y-16048324D02*
X9900905Y-16048324D01*
X9900905Y-16048324D02*
X9881857Y-16038800D01*
X9881857Y-16038800D02*
X9872333Y-16029276D01*
X9872333Y-16029276D02*
X9862810Y-16010228D01*
X9862810Y-16010228D02*
X9853286Y-15972133D01*
X9853286Y-15972133D02*
X9853286Y-15924514D01*
X9853286Y-15924514D02*
X9862810Y-15886419D01*
X9862810Y-15886419D02*
X9872333Y-15867371D01*
X9872333Y-15867371D02*
X9881857Y-15857848D01*
X9881857Y-15857848D02*
X9900905Y-15848324D01*
X10091381Y-15848324D02*
X10110429Y-15848324D01*
X10110429Y-15848324D02*
X10129476Y-15857848D01*
X10129476Y-15857848D02*
X10139000Y-15867371D01*
X10139000Y-15867371D02*
X10148524Y-15886419D01*
X10148524Y-15886419D02*
X10158048Y-15924514D01*
X10158048Y-15924514D02*
X10158048Y-15972133D01*
X10158048Y-15972133D02*
X10148524Y-16010228D01*
X10148524Y-16010228D02*
X10139000Y-16029276D01*
X10139000Y-16029276D02*
X10129476Y-16038800D01*
X10129476Y-16038800D02*
X10110429Y-16048324D01*
X10110429Y-16048324D02*
X10091381Y-16048324D01*
X10091381Y-16048324D02*
X10072333Y-16038800D01*
X10072333Y-16038800D02*
X10062810Y-16029276D01*
X10062810Y-16029276D02*
X10053286Y-16010228D01*
X10053286Y-16010228D02*
X10043762Y-15972133D01*
X10043762Y-15972133D02*
X10043762Y-15924514D01*
X10043762Y-15924514D02*
X10053286Y-15886419D01*
X10053286Y-15886419D02*
X10062810Y-15867371D01*
X10062810Y-15867371D02*
X10072333Y-15857848D01*
X10072333Y-15857848D02*
X10091381Y-15848324D01*
X10243762Y-16048324D02*
X10243762Y-15914990D01*
X10243762Y-15934038D02*
X10253286Y-15924514D01*
X10253286Y-15924514D02*
X10272333Y-15914990D01*
X10272333Y-15914990D02*
X10300905Y-15914990D01*
X10300905Y-15914990D02*
X10319952Y-15924514D01*
X10319952Y-15924514D02*
X10329476Y-15943562D01*
X10329476Y-15943562D02*
X10329476Y-16048324D01*
X10329476Y-15943562D02*
X10339000Y-15924514D01*
X10339000Y-15924514D02*
X10358048Y-15914990D01*
X10358048Y-15914990D02*
X10386619Y-15914990D01*
X10386619Y-15914990D02*
X10405667Y-15924514D01*
X10405667Y-15924514D02*
X10415191Y-15943562D01*
X10415191Y-15943562D02*
X10415191Y-16048324D01*
X10510429Y-16048324D02*
X10510429Y-15914990D01*
X10510429Y-15934038D02*
X10519952Y-15924514D01*
X10519952Y-15924514D02*
X10539000Y-15914990D01*
X10539000Y-15914990D02*
X10567572Y-15914990D01*
X10567572Y-15914990D02*
X10586619Y-15924514D01*
X10586619Y-15924514D02*
X10596143Y-15943562D01*
X10596143Y-15943562D02*
X10596143Y-16048324D01*
X10596143Y-15943562D02*
X10605667Y-15924514D01*
X10605667Y-15924514D02*
X10624714Y-15914990D01*
X10624714Y-15914990D02*
X10653286Y-15914990D01*
X10653286Y-15914990D02*
X10672333Y-15924514D01*
X10672333Y-15924514D02*
X10681857Y-15943562D01*
X10681857Y-15943562D02*
X10681857Y-16048324D01*
X11072333Y-15838800D02*
X10900905Y-16095943D01*
X11329476Y-15848324D02*
X11348524Y-15848324D01*
X11348524Y-15848324D02*
X11367572Y-15857848D01*
X11367572Y-15857848D02*
X11377095Y-15867371D01*
X11377095Y-15867371D02*
X11386619Y-15886419D01*
X11386619Y-15886419D02*
X11396143Y-15924514D01*
X11396143Y-15924514D02*
X11396143Y-15972133D01*
X11396143Y-15972133D02*
X11386619Y-16010228D01*
X11386619Y-16010228D02*
X11377095Y-16029276D01*
X11377095Y-16029276D02*
X11367572Y-16038800D01*
X11367572Y-16038800D02*
X11348524Y-16048324D01*
X11348524Y-16048324D02*
X11329476Y-16048324D01*
X11329476Y-16048324D02*
X11310429Y-16038800D01*
X11310429Y-16038800D02*
X11300905Y-16029276D01*
X11300905Y-16029276D02*
X11291381Y-16010228D01*
X11291381Y-16010228D02*
X11281857Y-15972133D01*
X11281857Y-15972133D02*
X11281857Y-15924514D01*
X11281857Y-15924514D02*
X11291381Y-15886419D01*
X11291381Y-15886419D02*
X11300905Y-15867371D01*
X11300905Y-15867371D02*
X11310429Y-15857848D01*
X11310429Y-15857848D02*
X11329476Y-15848324D01*
X11481857Y-16029276D02*
X11491381Y-16038800D01*
X11491381Y-16038800D02*
X11481857Y-16048324D01*
X11481857Y-16048324D02*
X11472333Y-16038800D01*
X11472333Y-16038800D02*
X11481857Y-16029276D01*
X11481857Y-16029276D02*
X11481857Y-16048324D01*
X11615191Y-15848324D02*
X11634238Y-15848324D01*
X11634238Y-15848324D02*
X11653286Y-15857848D01*
X11653286Y-15857848D02*
X11662810Y-15867371D01*
X11662810Y-15867371D02*
X11672333Y-15886419D01*
X11672333Y-15886419D02*
X11681857Y-15924514D01*
X11681857Y-15924514D02*
X11681857Y-15972133D01*
X11681857Y-15972133D02*
X11672333Y-16010228D01*
X11672333Y-16010228D02*
X11662810Y-16029276D01*
X11662810Y-16029276D02*
X11653286Y-16038800D01*
X11653286Y-16038800D02*
X11634238Y-16048324D01*
X11634238Y-16048324D02*
X11615191Y-16048324D01*
X11615191Y-16048324D02*
X11596143Y-16038800D01*
X11596143Y-16038800D02*
X11586619Y-16029276D01*
X11586619Y-16029276D02*
X11577095Y-16010228D01*
X11577095Y-16010228D02*
X11567572Y-15972133D01*
X11567572Y-15972133D02*
X11567572Y-15924514D01*
X11567572Y-15924514D02*
X11577095Y-15886419D01*
X11577095Y-15886419D02*
X11586619Y-15867371D01*
X11586619Y-15867371D02*
X11596143Y-15857848D01*
X11596143Y-15857848D02*
X11615191Y-15848324D01*
X11748524Y-15848324D02*
X11872333Y-15848324D01*
X11872333Y-15848324D02*
X11805667Y-15924514D01*
X11805667Y-15924514D02*
X11834238Y-15924514D01*
X11834238Y-15924514D02*
X11853286Y-15934038D01*
X11853286Y-15934038D02*
X11862810Y-15943562D01*
X11862810Y-15943562D02*
X11872333Y-15962609D01*
X11872333Y-15962609D02*
X11872333Y-16010228D01*
X11872333Y-16010228D02*
X11862810Y-16029276D01*
X11862810Y-16029276D02*
X11853286Y-16038800D01*
X11853286Y-16038800D02*
X11834238Y-16048324D01*
X11834238Y-16048324D02*
X11777095Y-16048324D01*
X11777095Y-16048324D02*
X11758048Y-16038800D01*
X11758048Y-16038800D02*
X11748524Y-16029276D01*
X11967572Y-16048324D02*
X12005667Y-16048324D01*
X12005667Y-16048324D02*
X12024714Y-16038800D01*
X12024714Y-16038800D02*
X12034238Y-16029276D01*
X12034238Y-16029276D02*
X12053286Y-16000705D01*
X12053286Y-16000705D02*
X12062810Y-15962609D01*
X12062810Y-15962609D02*
X12062810Y-15886419D01*
X12062810Y-15886419D02*
X12053286Y-15867371D01*
X12053286Y-15867371D02*
X12043762Y-15857848D01*
X12043762Y-15857848D02*
X12024714Y-15848324D01*
X12024714Y-15848324D02*
X11986619Y-15848324D01*
X11986619Y-15848324D02*
X11967572Y-15857848D01*
X11967572Y-15857848D02*
X11958048Y-15867371D01*
X11958048Y-15867371D02*
X11948524Y-15886419D01*
X11948524Y-15886419D02*
X11948524Y-15934038D01*
X11948524Y-15934038D02*
X11958048Y-15953086D01*
X11958048Y-15953086D02*
X11967572Y-15962609D01*
X11967572Y-15962609D02*
X11986619Y-15972133D01*
X11986619Y-15972133D02*
X12024714Y-15972133D01*
X12024714Y-15972133D02*
X12043762Y-15962609D01*
X12043762Y-15962609D02*
X12053286Y-15953086D01*
X12053286Y-15953086D02*
X12062810Y-15934038D01*
X12234238Y-15914990D02*
X12234238Y-16048324D01*
X12186619Y-15838800D02*
X12139000Y-15981657D01*
X12139000Y-15981657D02*
X12262810Y-15981657D01*
X12329476Y-15848324D02*
X12329476Y-15886419D01*
X12405667Y-15848324D02*
X12405667Y-15886419D01*
X12700905Y-16124514D02*
X12691381Y-16114990D01*
X12691381Y-16114990D02*
X12672334Y-16086419D01*
X12672334Y-16086419D02*
X12662810Y-16067371D01*
X12662810Y-16067371D02*
X12653286Y-16038800D01*
X12653286Y-16038800D02*
X12643762Y-15991181D01*
X12643762Y-15991181D02*
X12643762Y-15953086D01*
X12643762Y-15953086D02*
X12653286Y-15905467D01*
X12653286Y-15905467D02*
X12662810Y-15876895D01*
X12662810Y-15876895D02*
X12672334Y-15857848D01*
X12672334Y-15857848D02*
X12691381Y-15829276D01*
X12691381Y-15829276D02*
X12700905Y-15819752D01*
X12767572Y-15867371D02*
X12777095Y-15857848D01*
X12777095Y-15857848D02*
X12796143Y-15848324D01*
X12796143Y-15848324D02*
X12843762Y-15848324D01*
X12843762Y-15848324D02*
X12862810Y-15857848D01*
X12862810Y-15857848D02*
X12872334Y-15867371D01*
X12872334Y-15867371D02*
X12881857Y-15886419D01*
X12881857Y-15886419D02*
X12881857Y-15905467D01*
X12881857Y-15905467D02*
X12872334Y-15934038D01*
X12872334Y-15934038D02*
X12758048Y-16048324D01*
X12758048Y-16048324D02*
X12881857Y-16048324D01*
X12948524Y-15848324D02*
X13072334Y-15848324D01*
X13072334Y-15848324D02*
X13005667Y-15924514D01*
X13005667Y-15924514D02*
X13034238Y-15924514D01*
X13034238Y-15924514D02*
X13053286Y-15934038D01*
X13053286Y-15934038D02*
X13062810Y-15943562D01*
X13062810Y-15943562D02*
X13072334Y-15962609D01*
X13072334Y-15962609D02*
X13072334Y-16010228D01*
X13072334Y-16010228D02*
X13062810Y-16029276D01*
X13062810Y-16029276D02*
X13053286Y-16038800D01*
X13053286Y-16038800D02*
X13034238Y-16048324D01*
X13034238Y-16048324D02*
X12977095Y-16048324D01*
X12977095Y-16048324D02*
X12958048Y-16038800D01*
X12958048Y-16038800D02*
X12948524Y-16029276D01*
X13310429Y-16048324D02*
X13310429Y-15848324D01*
X13396143Y-16048324D02*
X13396143Y-15943562D01*
X13396143Y-15943562D02*
X13386619Y-15924514D01*
X13386619Y-15924514D02*
X13367572Y-15914990D01*
X13367572Y-15914990D02*
X13339000Y-15914990D01*
X13339000Y-15914990D02*
X13319953Y-15924514D01*
X13319953Y-15924514D02*
X13310429Y-15934038D01*
X13519953Y-16048324D02*
X13500905Y-16038800D01*
X13500905Y-16038800D02*
X13491381Y-16029276D01*
X13491381Y-16029276D02*
X13481857Y-16010228D01*
X13481857Y-16010228D02*
X13481857Y-15953086D01*
X13481857Y-15953086D02*
X13491381Y-15934038D01*
X13491381Y-15934038D02*
X13500905Y-15924514D01*
X13500905Y-15924514D02*
X13519953Y-15914990D01*
X13519953Y-15914990D02*
X13548524Y-15914990D01*
X13548524Y-15914990D02*
X13567572Y-15924514D01*
X13567572Y-15924514D02*
X13577096Y-15934038D01*
X13577096Y-15934038D02*
X13586619Y-15953086D01*
X13586619Y-15953086D02*
X13586619Y-16010228D01*
X13586619Y-16010228D02*
X13577096Y-16029276D01*
X13577096Y-16029276D02*
X13567572Y-16038800D01*
X13567572Y-16038800D02*
X13548524Y-16048324D01*
X13548524Y-16048324D02*
X13519953Y-16048324D01*
X13700905Y-16048324D02*
X13681857Y-16038800D01*
X13681857Y-16038800D02*
X13672334Y-16019752D01*
X13672334Y-16019752D02*
X13672334Y-15848324D01*
X13853286Y-16038800D02*
X13834238Y-16048324D01*
X13834238Y-16048324D02*
X13796143Y-16048324D01*
X13796143Y-16048324D02*
X13777096Y-16038800D01*
X13777096Y-16038800D02*
X13767572Y-16019752D01*
X13767572Y-16019752D02*
X13767572Y-15943562D01*
X13767572Y-15943562D02*
X13777096Y-15924514D01*
X13777096Y-15924514D02*
X13796143Y-15914990D01*
X13796143Y-15914990D02*
X13834238Y-15914990D01*
X13834238Y-15914990D02*
X13853286Y-15924514D01*
X13853286Y-15924514D02*
X13862810Y-15943562D01*
X13862810Y-15943562D02*
X13862810Y-15962609D01*
X13862810Y-15962609D02*
X13767572Y-15981657D01*
X13939000Y-16038800D02*
X13958048Y-16048324D01*
X13958048Y-16048324D02*
X13996143Y-16048324D01*
X13996143Y-16048324D02*
X14015191Y-16038800D01*
X14015191Y-16038800D02*
X14024715Y-16019752D01*
X14024715Y-16019752D02*
X14024715Y-16010228D01*
X14024715Y-16010228D02*
X14015191Y-15991181D01*
X14015191Y-15991181D02*
X13996143Y-15981657D01*
X13996143Y-15981657D02*
X13967572Y-15981657D01*
X13967572Y-15981657D02*
X13948524Y-15972133D01*
X13948524Y-15972133D02*
X13939000Y-15953086D01*
X13939000Y-15953086D02*
X13939000Y-15943562D01*
X13939000Y-15943562D02*
X13948524Y-15924514D01*
X13948524Y-15924514D02*
X13967572Y-15914990D01*
X13967572Y-15914990D02*
X13996143Y-15914990D01*
X13996143Y-15914990D02*
X14015191Y-15924514D01*
X14091381Y-16124514D02*
X14100905Y-16114990D01*
X14100905Y-16114990D02*
X14119953Y-16086419D01*
X14119953Y-16086419D02*
X14129477Y-16067371D01*
X14129477Y-16067371D02*
X14139000Y-16038800D01*
X14139000Y-16038800D02*
X14148524Y-15991181D01*
X14148524Y-15991181D02*
X14148524Y-15953086D01*
X14148524Y-15953086D02*
X14139000Y-15905467D01*
X14139000Y-15905467D02*
X14129477Y-15876895D01*
X14129477Y-15876895D02*
X14119953Y-15857848D01*
X14119953Y-15857848D02*
X14100905Y-15829276D01*
X14100905Y-15829276D02*
X14091381Y-15819752D01*
D14*
X9124121Y-16255721D02*
X9124121Y-16183879D01*
X9052279Y-16183879D01*
X9052279Y-16255721D01*
X9124121Y-16255721D01*
D11*
X9491381Y-16312324D02*
X9377095Y-16312324D01*
X9434238Y-16312324D02*
X9434238Y-16112324D01*
X9434238Y-16112324D02*
X9415190Y-16140895D01*
X9415190Y-16140895D02*
X9396143Y-16159943D01*
X9396143Y-16159943D02*
X9377095Y-16169467D01*
X9577095Y-16293276D02*
X9586619Y-16302800D01*
X9586619Y-16302800D02*
X9577095Y-16312324D01*
X9577095Y-16312324D02*
X9567571Y-16302800D01*
X9567571Y-16302800D02*
X9577095Y-16293276D01*
X9577095Y-16293276D02*
X9577095Y-16312324D01*
X9710429Y-16112324D02*
X9729476Y-16112324D01*
X9729476Y-16112324D02*
X9748524Y-16121848D01*
X9748524Y-16121848D02*
X9758048Y-16131371D01*
X9758048Y-16131371D02*
X9767571Y-16150419D01*
X9767571Y-16150419D02*
X9777095Y-16188514D01*
X9777095Y-16188514D02*
X9777095Y-16236133D01*
X9777095Y-16236133D02*
X9767571Y-16274228D01*
X9767571Y-16274228D02*
X9758048Y-16293276D01*
X9758048Y-16293276D02*
X9748524Y-16302800D01*
X9748524Y-16302800D02*
X9729476Y-16312324D01*
X9729476Y-16312324D02*
X9710429Y-16312324D01*
X9710429Y-16312324D02*
X9691381Y-16302800D01*
X9691381Y-16302800D02*
X9681857Y-16293276D01*
X9681857Y-16293276D02*
X9672333Y-16274228D01*
X9672333Y-16274228D02*
X9662810Y-16236133D01*
X9662810Y-16236133D02*
X9662810Y-16188514D01*
X9662810Y-16188514D02*
X9672333Y-16150419D01*
X9672333Y-16150419D02*
X9681857Y-16131371D01*
X9681857Y-16131371D02*
X9691381Y-16121848D01*
X9691381Y-16121848D02*
X9710429Y-16112324D01*
X9967571Y-16312324D02*
X9853286Y-16312324D01*
X9910429Y-16312324D02*
X9910429Y-16112324D01*
X9910429Y-16112324D02*
X9891381Y-16140895D01*
X9891381Y-16140895D02*
X9872333Y-16159943D01*
X9872333Y-16159943D02*
X9853286Y-16169467D01*
X10139000Y-16112324D02*
X10100905Y-16112324D01*
X10100905Y-16112324D02*
X10081857Y-16121848D01*
X10081857Y-16121848D02*
X10072333Y-16131371D01*
X10072333Y-16131371D02*
X10053286Y-16159943D01*
X10053286Y-16159943D02*
X10043762Y-16198038D01*
X10043762Y-16198038D02*
X10043762Y-16274228D01*
X10043762Y-16274228D02*
X10053286Y-16293276D01*
X10053286Y-16293276D02*
X10062810Y-16302800D01*
X10062810Y-16302800D02*
X10081857Y-16312324D01*
X10081857Y-16312324D02*
X10119952Y-16312324D01*
X10119952Y-16312324D02*
X10139000Y-16302800D01*
X10139000Y-16302800D02*
X10148524Y-16293276D01*
X10148524Y-16293276D02*
X10158048Y-16274228D01*
X10158048Y-16274228D02*
X10158048Y-16226609D01*
X10158048Y-16226609D02*
X10148524Y-16207562D01*
X10148524Y-16207562D02*
X10139000Y-16198038D01*
X10139000Y-16198038D02*
X10119952Y-16188514D01*
X10119952Y-16188514D02*
X10081857Y-16188514D01*
X10081857Y-16188514D02*
X10062810Y-16198038D01*
X10062810Y-16198038D02*
X10053286Y-16207562D01*
X10053286Y-16207562D02*
X10043762Y-16226609D01*
X10243762Y-16312324D02*
X10243762Y-16178990D01*
X10243762Y-16198038D02*
X10253286Y-16188514D01*
X10253286Y-16188514D02*
X10272333Y-16178990D01*
X10272333Y-16178990D02*
X10300905Y-16178990D01*
X10300905Y-16178990D02*
X10319952Y-16188514D01*
X10319952Y-16188514D02*
X10329476Y-16207562D01*
X10329476Y-16207562D02*
X10329476Y-16312324D01*
X10329476Y-16207562D02*
X10339000Y-16188514D01*
X10339000Y-16188514D02*
X10358048Y-16178990D01*
X10358048Y-16178990D02*
X10386619Y-16178990D01*
X10386619Y-16178990D02*
X10405667Y-16188514D01*
X10405667Y-16188514D02*
X10415191Y-16207562D01*
X10415191Y-16207562D02*
X10415191Y-16312324D01*
X10510429Y-16312324D02*
X10510429Y-16178990D01*
X10510429Y-16198038D02*
X10519952Y-16188514D01*
X10519952Y-16188514D02*
X10539000Y-16178990D01*
X10539000Y-16178990D02*
X10567572Y-16178990D01*
X10567572Y-16178990D02*
X10586619Y-16188514D01*
X10586619Y-16188514D02*
X10596143Y-16207562D01*
X10596143Y-16207562D02*
X10596143Y-16312324D01*
X10596143Y-16207562D02*
X10605667Y-16188514D01*
X10605667Y-16188514D02*
X10624714Y-16178990D01*
X10624714Y-16178990D02*
X10653286Y-16178990D01*
X10653286Y-16178990D02*
X10672333Y-16188514D01*
X10672333Y-16188514D02*
X10681857Y-16207562D01*
X10681857Y-16207562D02*
X10681857Y-16312324D01*
X11072333Y-16102800D02*
X10900905Y-16359943D01*
X11329476Y-16112324D02*
X11348524Y-16112324D01*
X11348524Y-16112324D02*
X11367572Y-16121848D01*
X11367572Y-16121848D02*
X11377095Y-16131371D01*
X11377095Y-16131371D02*
X11386619Y-16150419D01*
X11386619Y-16150419D02*
X11396143Y-16188514D01*
X11396143Y-16188514D02*
X11396143Y-16236133D01*
X11396143Y-16236133D02*
X11386619Y-16274228D01*
X11386619Y-16274228D02*
X11377095Y-16293276D01*
X11377095Y-16293276D02*
X11367572Y-16302800D01*
X11367572Y-16302800D02*
X11348524Y-16312324D01*
X11348524Y-16312324D02*
X11329476Y-16312324D01*
X11329476Y-16312324D02*
X11310429Y-16302800D01*
X11310429Y-16302800D02*
X11300905Y-16293276D01*
X11300905Y-16293276D02*
X11291381Y-16274228D01*
X11291381Y-16274228D02*
X11281857Y-16236133D01*
X11281857Y-16236133D02*
X11281857Y-16188514D01*
X11281857Y-16188514D02*
X11291381Y-16150419D01*
X11291381Y-16150419D02*
X11300905Y-16131371D01*
X11300905Y-16131371D02*
X11310429Y-16121848D01*
X11310429Y-16121848D02*
X11329476Y-16112324D01*
X11481857Y-16293276D02*
X11491381Y-16302800D01*
X11491381Y-16302800D02*
X11481857Y-16312324D01*
X11481857Y-16312324D02*
X11472333Y-16302800D01*
X11472333Y-16302800D02*
X11481857Y-16293276D01*
X11481857Y-16293276D02*
X11481857Y-16312324D01*
X11615191Y-16112324D02*
X11634238Y-16112324D01*
X11634238Y-16112324D02*
X11653286Y-16121848D01*
X11653286Y-16121848D02*
X11662810Y-16131371D01*
X11662810Y-16131371D02*
X11672333Y-16150419D01*
X11672333Y-16150419D02*
X11681857Y-16188514D01*
X11681857Y-16188514D02*
X11681857Y-16236133D01*
X11681857Y-16236133D02*
X11672333Y-16274228D01*
X11672333Y-16274228D02*
X11662810Y-16293276D01*
X11662810Y-16293276D02*
X11653286Y-16302800D01*
X11653286Y-16302800D02*
X11634238Y-16312324D01*
X11634238Y-16312324D02*
X11615191Y-16312324D01*
X11615191Y-16312324D02*
X11596143Y-16302800D01*
X11596143Y-16302800D02*
X11586619Y-16293276D01*
X11586619Y-16293276D02*
X11577095Y-16274228D01*
X11577095Y-16274228D02*
X11567572Y-16236133D01*
X11567572Y-16236133D02*
X11567572Y-16188514D01*
X11567572Y-16188514D02*
X11577095Y-16150419D01*
X11577095Y-16150419D02*
X11586619Y-16131371D01*
X11586619Y-16131371D02*
X11596143Y-16121848D01*
X11596143Y-16121848D02*
X11615191Y-16112324D01*
X11853286Y-16178990D02*
X11853286Y-16312324D01*
X11805667Y-16102800D02*
X11758048Y-16245657D01*
X11758048Y-16245657D02*
X11881857Y-16245657D01*
X11996143Y-16112324D02*
X12015191Y-16112324D01*
X12015191Y-16112324D02*
X12034238Y-16121848D01*
X12034238Y-16121848D02*
X12043762Y-16131371D01*
X12043762Y-16131371D02*
X12053286Y-16150419D01*
X12053286Y-16150419D02*
X12062810Y-16188514D01*
X12062810Y-16188514D02*
X12062810Y-16236133D01*
X12062810Y-16236133D02*
X12053286Y-16274228D01*
X12053286Y-16274228D02*
X12043762Y-16293276D01*
X12043762Y-16293276D02*
X12034238Y-16302800D01*
X12034238Y-16302800D02*
X12015191Y-16312324D01*
X12015191Y-16312324D02*
X11996143Y-16312324D01*
X11996143Y-16312324D02*
X11977095Y-16302800D01*
X11977095Y-16302800D02*
X11967572Y-16293276D01*
X11967572Y-16293276D02*
X11958048Y-16274228D01*
X11958048Y-16274228D02*
X11948524Y-16236133D01*
X11948524Y-16236133D02*
X11948524Y-16188514D01*
X11948524Y-16188514D02*
X11958048Y-16150419D01*
X11958048Y-16150419D02*
X11967572Y-16131371D01*
X11967572Y-16131371D02*
X11977095Y-16121848D01*
X11977095Y-16121848D02*
X11996143Y-16112324D01*
X12186619Y-16112324D02*
X12205667Y-16112324D01*
X12205667Y-16112324D02*
X12224714Y-16121848D01*
X12224714Y-16121848D02*
X12234238Y-16131371D01*
X12234238Y-16131371D02*
X12243762Y-16150419D01*
X12243762Y-16150419D02*
X12253286Y-16188514D01*
X12253286Y-16188514D02*
X12253286Y-16236133D01*
X12253286Y-16236133D02*
X12243762Y-16274228D01*
X12243762Y-16274228D02*
X12234238Y-16293276D01*
X12234238Y-16293276D02*
X12224714Y-16302800D01*
X12224714Y-16302800D02*
X12205667Y-16312324D01*
X12205667Y-16312324D02*
X12186619Y-16312324D01*
X12186619Y-16312324D02*
X12167572Y-16302800D01*
X12167572Y-16302800D02*
X12158048Y-16293276D01*
X12158048Y-16293276D02*
X12148524Y-16274228D01*
X12148524Y-16274228D02*
X12139000Y-16236133D01*
X12139000Y-16236133D02*
X12139000Y-16188514D01*
X12139000Y-16188514D02*
X12148524Y-16150419D01*
X12148524Y-16150419D02*
X12158048Y-16131371D01*
X12158048Y-16131371D02*
X12167572Y-16121848D01*
X12167572Y-16121848D02*
X12186619Y-16112324D01*
X12329476Y-16112324D02*
X12329476Y-16150419D01*
X12405667Y-16112324D02*
X12405667Y-16150419D01*
X12700905Y-16388514D02*
X12691381Y-16378990D01*
X12691381Y-16378990D02*
X12672334Y-16350419D01*
X12672334Y-16350419D02*
X12662810Y-16331371D01*
X12662810Y-16331371D02*
X12653286Y-16302800D01*
X12653286Y-16302800D02*
X12643762Y-16255181D01*
X12643762Y-16255181D02*
X12643762Y-16217086D01*
X12643762Y-16217086D02*
X12653286Y-16169467D01*
X12653286Y-16169467D02*
X12662810Y-16140895D01*
X12662810Y-16140895D02*
X12672334Y-16121848D01*
X12672334Y-16121848D02*
X12691381Y-16093276D01*
X12691381Y-16093276D02*
X12700905Y-16083752D01*
X12758048Y-16112324D02*
X12881857Y-16112324D01*
X12881857Y-16112324D02*
X12815191Y-16188514D01*
X12815191Y-16188514D02*
X12843762Y-16188514D01*
X12843762Y-16188514D02*
X12862810Y-16198038D01*
X12862810Y-16198038D02*
X12872334Y-16207562D01*
X12872334Y-16207562D02*
X12881857Y-16226609D01*
X12881857Y-16226609D02*
X12881857Y-16274228D01*
X12881857Y-16274228D02*
X12872334Y-16293276D01*
X12872334Y-16293276D02*
X12862810Y-16302800D01*
X12862810Y-16302800D02*
X12843762Y-16312324D01*
X12843762Y-16312324D02*
X12786619Y-16312324D01*
X12786619Y-16312324D02*
X12767572Y-16302800D01*
X12767572Y-16302800D02*
X12758048Y-16293276D01*
X12958048Y-16131371D02*
X12967572Y-16121848D01*
X12967572Y-16121848D02*
X12986619Y-16112324D01*
X12986619Y-16112324D02*
X13034238Y-16112324D01*
X13034238Y-16112324D02*
X13053286Y-16121848D01*
X13053286Y-16121848D02*
X13062810Y-16131371D01*
X13062810Y-16131371D02*
X13072334Y-16150419D01*
X13072334Y-16150419D02*
X13072334Y-16169467D01*
X13072334Y-16169467D02*
X13062810Y-16198038D01*
X13062810Y-16198038D02*
X12948524Y-16312324D01*
X12948524Y-16312324D02*
X13072334Y-16312324D01*
X13310429Y-16312324D02*
X13310429Y-16112324D01*
X13396143Y-16312324D02*
X13396143Y-16207562D01*
X13396143Y-16207562D02*
X13386619Y-16188514D01*
X13386619Y-16188514D02*
X13367572Y-16178990D01*
X13367572Y-16178990D02*
X13339000Y-16178990D01*
X13339000Y-16178990D02*
X13319953Y-16188514D01*
X13319953Y-16188514D02*
X13310429Y-16198038D01*
X13519953Y-16312324D02*
X13500905Y-16302800D01*
X13500905Y-16302800D02*
X13491381Y-16293276D01*
X13491381Y-16293276D02*
X13481857Y-16274228D01*
X13481857Y-16274228D02*
X13481857Y-16217086D01*
X13481857Y-16217086D02*
X13491381Y-16198038D01*
X13491381Y-16198038D02*
X13500905Y-16188514D01*
X13500905Y-16188514D02*
X13519953Y-16178990D01*
X13519953Y-16178990D02*
X13548524Y-16178990D01*
X13548524Y-16178990D02*
X13567572Y-16188514D01*
X13567572Y-16188514D02*
X13577096Y-16198038D01*
X13577096Y-16198038D02*
X13586619Y-16217086D01*
X13586619Y-16217086D02*
X13586619Y-16274228D01*
X13586619Y-16274228D02*
X13577096Y-16293276D01*
X13577096Y-16293276D02*
X13567572Y-16302800D01*
X13567572Y-16302800D02*
X13548524Y-16312324D01*
X13548524Y-16312324D02*
X13519953Y-16312324D01*
X13700905Y-16312324D02*
X13681857Y-16302800D01*
X13681857Y-16302800D02*
X13672334Y-16283752D01*
X13672334Y-16283752D02*
X13672334Y-16112324D01*
X13853286Y-16302800D02*
X13834238Y-16312324D01*
X13834238Y-16312324D02*
X13796143Y-16312324D01*
X13796143Y-16312324D02*
X13777096Y-16302800D01*
X13777096Y-16302800D02*
X13767572Y-16283752D01*
X13767572Y-16283752D02*
X13767572Y-16207562D01*
X13767572Y-16207562D02*
X13777096Y-16188514D01*
X13777096Y-16188514D02*
X13796143Y-16178990D01*
X13796143Y-16178990D02*
X13834238Y-16178990D01*
X13834238Y-16178990D02*
X13853286Y-16188514D01*
X13853286Y-16188514D02*
X13862810Y-16207562D01*
X13862810Y-16207562D02*
X13862810Y-16226609D01*
X13862810Y-16226609D02*
X13767572Y-16245657D01*
X13939000Y-16302800D02*
X13958048Y-16312324D01*
X13958048Y-16312324D02*
X13996143Y-16312324D01*
X13996143Y-16312324D02*
X14015191Y-16302800D01*
X14015191Y-16302800D02*
X14024715Y-16283752D01*
X14024715Y-16283752D02*
X14024715Y-16274228D01*
X14024715Y-16274228D02*
X14015191Y-16255181D01*
X14015191Y-16255181D02*
X13996143Y-16245657D01*
X13996143Y-16245657D02*
X13967572Y-16245657D01*
X13967572Y-16245657D02*
X13948524Y-16236133D01*
X13948524Y-16236133D02*
X13939000Y-16217086D01*
X13939000Y-16217086D02*
X13939000Y-16207562D01*
X13939000Y-16207562D02*
X13948524Y-16188514D01*
X13948524Y-16188514D02*
X13967572Y-16178990D01*
X13967572Y-16178990D02*
X13996143Y-16178990D01*
X13996143Y-16178990D02*
X14015191Y-16188514D01*
X14091381Y-16388514D02*
X14100905Y-16378990D01*
X14100905Y-16378990D02*
X14119953Y-16350419D01*
X14119953Y-16350419D02*
X14129477Y-16331371D01*
X14129477Y-16331371D02*
X14139000Y-16302800D01*
X14139000Y-16302800D02*
X14148524Y-16255181D01*
X14148524Y-16255181D02*
X14148524Y-16217086D01*
X14148524Y-16217086D02*
X14139000Y-16169467D01*
X14139000Y-16169467D02*
X14129477Y-16140895D01*
X14129477Y-16140895D02*
X14119953Y-16121848D01*
X14119953Y-16121848D02*
X14100905Y-16093276D01*
X14100905Y-16093276D02*
X14091381Y-16083752D01*
D15*
X9084000Y-16538800D02*
X9139000Y-16483800D01*
X9084000Y-16428800D01*
X9029000Y-16483800D01*
X9084000Y-16538800D01*
D11*
X9491381Y-16576324D02*
X9377095Y-16576324D01*
X9434238Y-16576324D02*
X9434238Y-16376324D01*
X9434238Y-16376324D02*
X9415190Y-16404895D01*
X9415190Y-16404895D02*
X9396143Y-16423943D01*
X9396143Y-16423943D02*
X9377095Y-16433467D01*
X9577095Y-16557276D02*
X9586619Y-16566800D01*
X9586619Y-16566800D02*
X9577095Y-16576324D01*
X9577095Y-16576324D02*
X9567571Y-16566800D01*
X9567571Y-16566800D02*
X9577095Y-16557276D01*
X9577095Y-16557276D02*
X9577095Y-16576324D01*
X9777095Y-16576324D02*
X9662810Y-16576324D01*
X9719952Y-16576324D02*
X9719952Y-16376324D01*
X9719952Y-16376324D02*
X9700905Y-16404895D01*
X9700905Y-16404895D02*
X9681857Y-16423943D01*
X9681857Y-16423943D02*
X9662810Y-16433467D01*
X9900905Y-16376324D02*
X9919952Y-16376324D01*
X9919952Y-16376324D02*
X9939000Y-16385848D01*
X9939000Y-16385848D02*
X9948524Y-16395371D01*
X9948524Y-16395371D02*
X9958048Y-16414419D01*
X9958048Y-16414419D02*
X9967571Y-16452514D01*
X9967571Y-16452514D02*
X9967571Y-16500133D01*
X9967571Y-16500133D02*
X9958048Y-16538228D01*
X9958048Y-16538228D02*
X9948524Y-16557276D01*
X9948524Y-16557276D02*
X9939000Y-16566800D01*
X9939000Y-16566800D02*
X9919952Y-16576324D01*
X9919952Y-16576324D02*
X9900905Y-16576324D01*
X9900905Y-16576324D02*
X9881857Y-16566800D01*
X9881857Y-16566800D02*
X9872333Y-16557276D01*
X9872333Y-16557276D02*
X9862810Y-16538228D01*
X9862810Y-16538228D02*
X9853286Y-16500133D01*
X9853286Y-16500133D02*
X9853286Y-16452514D01*
X9853286Y-16452514D02*
X9862810Y-16414419D01*
X9862810Y-16414419D02*
X9872333Y-16395371D01*
X9872333Y-16395371D02*
X9881857Y-16385848D01*
X9881857Y-16385848D02*
X9900905Y-16376324D01*
X10091381Y-16376324D02*
X10110429Y-16376324D01*
X10110429Y-16376324D02*
X10129476Y-16385848D01*
X10129476Y-16385848D02*
X10139000Y-16395371D01*
X10139000Y-16395371D02*
X10148524Y-16414419D01*
X10148524Y-16414419D02*
X10158048Y-16452514D01*
X10158048Y-16452514D02*
X10158048Y-16500133D01*
X10158048Y-16500133D02*
X10148524Y-16538228D01*
X10148524Y-16538228D02*
X10139000Y-16557276D01*
X10139000Y-16557276D02*
X10129476Y-16566800D01*
X10129476Y-16566800D02*
X10110429Y-16576324D01*
X10110429Y-16576324D02*
X10091381Y-16576324D01*
X10091381Y-16576324D02*
X10072333Y-16566800D01*
X10072333Y-16566800D02*
X10062810Y-16557276D01*
X10062810Y-16557276D02*
X10053286Y-16538228D01*
X10053286Y-16538228D02*
X10043762Y-16500133D01*
X10043762Y-16500133D02*
X10043762Y-16452514D01*
X10043762Y-16452514D02*
X10053286Y-16414419D01*
X10053286Y-16414419D02*
X10062810Y-16395371D01*
X10062810Y-16395371D02*
X10072333Y-16385848D01*
X10072333Y-16385848D02*
X10091381Y-16376324D01*
X10243762Y-16576324D02*
X10243762Y-16442990D01*
X10243762Y-16462038D02*
X10253286Y-16452514D01*
X10253286Y-16452514D02*
X10272333Y-16442990D01*
X10272333Y-16442990D02*
X10300905Y-16442990D01*
X10300905Y-16442990D02*
X10319952Y-16452514D01*
X10319952Y-16452514D02*
X10329476Y-16471562D01*
X10329476Y-16471562D02*
X10329476Y-16576324D01*
X10329476Y-16471562D02*
X10339000Y-16452514D01*
X10339000Y-16452514D02*
X10358048Y-16442990D01*
X10358048Y-16442990D02*
X10386619Y-16442990D01*
X10386619Y-16442990D02*
X10405667Y-16452514D01*
X10405667Y-16452514D02*
X10415191Y-16471562D01*
X10415191Y-16471562D02*
X10415191Y-16576324D01*
X10510429Y-16576324D02*
X10510429Y-16442990D01*
X10510429Y-16462038D02*
X10519952Y-16452514D01*
X10519952Y-16452514D02*
X10539000Y-16442990D01*
X10539000Y-16442990D02*
X10567572Y-16442990D01*
X10567572Y-16442990D02*
X10586619Y-16452514D01*
X10586619Y-16452514D02*
X10596143Y-16471562D01*
X10596143Y-16471562D02*
X10596143Y-16576324D01*
X10596143Y-16471562D02*
X10605667Y-16452514D01*
X10605667Y-16452514D02*
X10624714Y-16442990D01*
X10624714Y-16442990D02*
X10653286Y-16442990D01*
X10653286Y-16442990D02*
X10672333Y-16452514D01*
X10672333Y-16452514D02*
X10681857Y-16471562D01*
X10681857Y-16471562D02*
X10681857Y-16576324D01*
X11072333Y-16366800D02*
X10900905Y-16623943D01*
X11329476Y-16376324D02*
X11348524Y-16376324D01*
X11348524Y-16376324D02*
X11367572Y-16385848D01*
X11367572Y-16385848D02*
X11377095Y-16395371D01*
X11377095Y-16395371D02*
X11386619Y-16414419D01*
X11386619Y-16414419D02*
X11396143Y-16452514D01*
X11396143Y-16452514D02*
X11396143Y-16500133D01*
X11396143Y-16500133D02*
X11386619Y-16538228D01*
X11386619Y-16538228D02*
X11377095Y-16557276D01*
X11377095Y-16557276D02*
X11367572Y-16566800D01*
X11367572Y-16566800D02*
X11348524Y-16576324D01*
X11348524Y-16576324D02*
X11329476Y-16576324D01*
X11329476Y-16576324D02*
X11310429Y-16566800D01*
X11310429Y-16566800D02*
X11300905Y-16557276D01*
X11300905Y-16557276D02*
X11291381Y-16538228D01*
X11291381Y-16538228D02*
X11281857Y-16500133D01*
X11281857Y-16500133D02*
X11281857Y-16452514D01*
X11281857Y-16452514D02*
X11291381Y-16414419D01*
X11291381Y-16414419D02*
X11300905Y-16395371D01*
X11300905Y-16395371D02*
X11310429Y-16385848D01*
X11310429Y-16385848D02*
X11329476Y-16376324D01*
X11481857Y-16557276D02*
X11491381Y-16566800D01*
X11491381Y-16566800D02*
X11481857Y-16576324D01*
X11481857Y-16576324D02*
X11472333Y-16566800D01*
X11472333Y-16566800D02*
X11481857Y-16557276D01*
X11481857Y-16557276D02*
X11481857Y-16576324D01*
X11615191Y-16376324D02*
X11634238Y-16376324D01*
X11634238Y-16376324D02*
X11653286Y-16385848D01*
X11653286Y-16385848D02*
X11662810Y-16395371D01*
X11662810Y-16395371D02*
X11672333Y-16414419D01*
X11672333Y-16414419D02*
X11681857Y-16452514D01*
X11681857Y-16452514D02*
X11681857Y-16500133D01*
X11681857Y-16500133D02*
X11672333Y-16538228D01*
X11672333Y-16538228D02*
X11662810Y-16557276D01*
X11662810Y-16557276D02*
X11653286Y-16566800D01*
X11653286Y-16566800D02*
X11634238Y-16576324D01*
X11634238Y-16576324D02*
X11615191Y-16576324D01*
X11615191Y-16576324D02*
X11596143Y-16566800D01*
X11596143Y-16566800D02*
X11586619Y-16557276D01*
X11586619Y-16557276D02*
X11577095Y-16538228D01*
X11577095Y-16538228D02*
X11567572Y-16500133D01*
X11567572Y-16500133D02*
X11567572Y-16452514D01*
X11567572Y-16452514D02*
X11577095Y-16414419D01*
X11577095Y-16414419D02*
X11586619Y-16395371D01*
X11586619Y-16395371D02*
X11596143Y-16385848D01*
X11596143Y-16385848D02*
X11615191Y-16376324D01*
X11853286Y-16442990D02*
X11853286Y-16576324D01*
X11805667Y-16366800D02*
X11758048Y-16509657D01*
X11758048Y-16509657D02*
X11881857Y-16509657D01*
X11939000Y-16376324D02*
X12062810Y-16376324D01*
X12062810Y-16376324D02*
X11996143Y-16452514D01*
X11996143Y-16452514D02*
X12024714Y-16452514D01*
X12024714Y-16452514D02*
X12043762Y-16462038D01*
X12043762Y-16462038D02*
X12053286Y-16471562D01*
X12053286Y-16471562D02*
X12062810Y-16490609D01*
X12062810Y-16490609D02*
X12062810Y-16538228D01*
X12062810Y-16538228D02*
X12053286Y-16557276D01*
X12053286Y-16557276D02*
X12043762Y-16566800D01*
X12043762Y-16566800D02*
X12024714Y-16576324D01*
X12024714Y-16576324D02*
X11967572Y-16576324D01*
X11967572Y-16576324D02*
X11948524Y-16566800D01*
X11948524Y-16566800D02*
X11939000Y-16557276D01*
X12129476Y-16376324D02*
X12253286Y-16376324D01*
X12253286Y-16376324D02*
X12186619Y-16452514D01*
X12186619Y-16452514D02*
X12215191Y-16452514D01*
X12215191Y-16452514D02*
X12234238Y-16462038D01*
X12234238Y-16462038D02*
X12243762Y-16471562D01*
X12243762Y-16471562D02*
X12253286Y-16490609D01*
X12253286Y-16490609D02*
X12253286Y-16538228D01*
X12253286Y-16538228D02*
X12243762Y-16557276D01*
X12243762Y-16557276D02*
X12234238Y-16566800D01*
X12234238Y-16566800D02*
X12215191Y-16576324D01*
X12215191Y-16576324D02*
X12158048Y-16576324D01*
X12158048Y-16576324D02*
X12139000Y-16566800D01*
X12139000Y-16566800D02*
X12129476Y-16557276D01*
X12329476Y-16376324D02*
X12329476Y-16414419D01*
X12405667Y-16376324D02*
X12405667Y-16414419D01*
X12700905Y-16652514D02*
X12691381Y-16642990D01*
X12691381Y-16642990D02*
X12672334Y-16614419D01*
X12672334Y-16614419D02*
X12662810Y-16595371D01*
X12662810Y-16595371D02*
X12653286Y-16566800D01*
X12653286Y-16566800D02*
X12643762Y-16519181D01*
X12643762Y-16519181D02*
X12643762Y-16481086D01*
X12643762Y-16481086D02*
X12653286Y-16433467D01*
X12653286Y-16433467D02*
X12662810Y-16404895D01*
X12662810Y-16404895D02*
X12672334Y-16385848D01*
X12672334Y-16385848D02*
X12691381Y-16357276D01*
X12691381Y-16357276D02*
X12700905Y-16347752D01*
X12767572Y-16395371D02*
X12777095Y-16385848D01*
X12777095Y-16385848D02*
X12796143Y-16376324D01*
X12796143Y-16376324D02*
X12843762Y-16376324D01*
X12843762Y-16376324D02*
X12862810Y-16385848D01*
X12862810Y-16385848D02*
X12872334Y-16395371D01*
X12872334Y-16395371D02*
X12881857Y-16414419D01*
X12881857Y-16414419D02*
X12881857Y-16433467D01*
X12881857Y-16433467D02*
X12872334Y-16462038D01*
X12872334Y-16462038D02*
X12758048Y-16576324D01*
X12758048Y-16576324D02*
X12881857Y-16576324D01*
X13119953Y-16576324D02*
X13119953Y-16376324D01*
X13205667Y-16576324D02*
X13205667Y-16471562D01*
X13205667Y-16471562D02*
X13196143Y-16452514D01*
X13196143Y-16452514D02*
X13177096Y-16442990D01*
X13177096Y-16442990D02*
X13148524Y-16442990D01*
X13148524Y-16442990D02*
X13129476Y-16452514D01*
X13129476Y-16452514D02*
X13119953Y-16462038D01*
X13329476Y-16576324D02*
X13310429Y-16566800D01*
X13310429Y-16566800D02*
X13300905Y-16557276D01*
X13300905Y-16557276D02*
X13291381Y-16538228D01*
X13291381Y-16538228D02*
X13291381Y-16481086D01*
X13291381Y-16481086D02*
X13300905Y-16462038D01*
X13300905Y-16462038D02*
X13310429Y-16452514D01*
X13310429Y-16452514D02*
X13329476Y-16442990D01*
X13329476Y-16442990D02*
X13358048Y-16442990D01*
X13358048Y-16442990D02*
X13377096Y-16452514D01*
X13377096Y-16452514D02*
X13386619Y-16462038D01*
X13386619Y-16462038D02*
X13396143Y-16481086D01*
X13396143Y-16481086D02*
X13396143Y-16538228D01*
X13396143Y-16538228D02*
X13386619Y-16557276D01*
X13386619Y-16557276D02*
X13377096Y-16566800D01*
X13377096Y-16566800D02*
X13358048Y-16576324D01*
X13358048Y-16576324D02*
X13329476Y-16576324D01*
X13510429Y-16576324D02*
X13491381Y-16566800D01*
X13491381Y-16566800D02*
X13481857Y-16547752D01*
X13481857Y-16547752D02*
X13481857Y-16376324D01*
X13662810Y-16566800D02*
X13643762Y-16576324D01*
X13643762Y-16576324D02*
X13605667Y-16576324D01*
X13605667Y-16576324D02*
X13586619Y-16566800D01*
X13586619Y-16566800D02*
X13577096Y-16547752D01*
X13577096Y-16547752D02*
X13577096Y-16471562D01*
X13577096Y-16471562D02*
X13586619Y-16452514D01*
X13586619Y-16452514D02*
X13605667Y-16442990D01*
X13605667Y-16442990D02*
X13643762Y-16442990D01*
X13643762Y-16442990D02*
X13662810Y-16452514D01*
X13662810Y-16452514D02*
X13672334Y-16471562D01*
X13672334Y-16471562D02*
X13672334Y-16490609D01*
X13672334Y-16490609D02*
X13577096Y-16509657D01*
X13748524Y-16566800D02*
X13767572Y-16576324D01*
X13767572Y-16576324D02*
X13805667Y-16576324D01*
X13805667Y-16576324D02*
X13824715Y-16566800D01*
X13824715Y-16566800D02*
X13834238Y-16547752D01*
X13834238Y-16547752D02*
X13834238Y-16538228D01*
X13834238Y-16538228D02*
X13824715Y-16519181D01*
X13824715Y-16519181D02*
X13805667Y-16509657D01*
X13805667Y-16509657D02*
X13777096Y-16509657D01*
X13777096Y-16509657D02*
X13758048Y-16500133D01*
X13758048Y-16500133D02*
X13748524Y-16481086D01*
X13748524Y-16481086D02*
X13748524Y-16471562D01*
X13748524Y-16471562D02*
X13758048Y-16452514D01*
X13758048Y-16452514D02*
X13777096Y-16442990D01*
X13777096Y-16442990D02*
X13805667Y-16442990D01*
X13805667Y-16442990D02*
X13824715Y-16452514D01*
X13900905Y-16652514D02*
X13910429Y-16642990D01*
X13910429Y-16642990D02*
X13929477Y-16614419D01*
X13929477Y-16614419D02*
X13939000Y-16595371D01*
X13939000Y-16595371D02*
X13948524Y-16566800D01*
X13948524Y-16566800D02*
X13958048Y-16519181D01*
X13958048Y-16519181D02*
X13958048Y-16481086D01*
X13958048Y-16481086D02*
X13948524Y-16433467D01*
X13948524Y-16433467D02*
X13939000Y-16404895D01*
X13939000Y-16404895D02*
X13929477Y-16385848D01*
X13929477Y-16385848D02*
X13910429Y-16357276D01*
X13910429Y-16357276D02*
X13900905Y-16347752D01*
D16*
X9017000Y-16686800D02*
X9139000Y-16808800D01*
X9139000Y-16686800D02*
X9017000Y-16808800D01*
X9139000Y-16747800D02*
G75*
G03*
X9139000Y-16747800I-61000J0D01*
G01*
D11*
X9491381Y-16840324D02*
X9377095Y-16840324D01*
X9434238Y-16840324D02*
X9434238Y-16640324D01*
X9434238Y-16640324D02*
X9415190Y-16668895D01*
X9415190Y-16668895D02*
X9396143Y-16687943D01*
X9396143Y-16687943D02*
X9377095Y-16697467D01*
X9577095Y-16821276D02*
X9586619Y-16830800D01*
X9586619Y-16830800D02*
X9577095Y-16840324D01*
X9577095Y-16840324D02*
X9567571Y-16830800D01*
X9567571Y-16830800D02*
X9577095Y-16821276D01*
X9577095Y-16821276D02*
X9577095Y-16840324D01*
X9662810Y-16659371D02*
X9672333Y-16649848D01*
X9672333Y-16649848D02*
X9691381Y-16640324D01*
X9691381Y-16640324D02*
X9739000Y-16640324D01*
X9739000Y-16640324D02*
X9758048Y-16649848D01*
X9758048Y-16649848D02*
X9767571Y-16659371D01*
X9767571Y-16659371D02*
X9777095Y-16678419D01*
X9777095Y-16678419D02*
X9777095Y-16697467D01*
X9777095Y-16697467D02*
X9767571Y-16726038D01*
X9767571Y-16726038D02*
X9653286Y-16840324D01*
X9653286Y-16840324D02*
X9777095Y-16840324D01*
X9853286Y-16659371D02*
X9862810Y-16649848D01*
X9862810Y-16649848D02*
X9881857Y-16640324D01*
X9881857Y-16640324D02*
X9929476Y-16640324D01*
X9929476Y-16640324D02*
X9948524Y-16649848D01*
X9948524Y-16649848D02*
X9958048Y-16659371D01*
X9958048Y-16659371D02*
X9967571Y-16678419D01*
X9967571Y-16678419D02*
X9967571Y-16697467D01*
X9967571Y-16697467D02*
X9958048Y-16726038D01*
X9958048Y-16726038D02*
X9843762Y-16840324D01*
X9843762Y-16840324D02*
X9967571Y-16840324D01*
X10091381Y-16640324D02*
X10110429Y-16640324D01*
X10110429Y-16640324D02*
X10129476Y-16649848D01*
X10129476Y-16649848D02*
X10139000Y-16659371D01*
X10139000Y-16659371D02*
X10148524Y-16678419D01*
X10148524Y-16678419D02*
X10158048Y-16716514D01*
X10158048Y-16716514D02*
X10158048Y-16764133D01*
X10158048Y-16764133D02*
X10148524Y-16802229D01*
X10148524Y-16802229D02*
X10139000Y-16821276D01*
X10139000Y-16821276D02*
X10129476Y-16830800D01*
X10129476Y-16830800D02*
X10110429Y-16840324D01*
X10110429Y-16840324D02*
X10091381Y-16840324D01*
X10091381Y-16840324D02*
X10072333Y-16830800D01*
X10072333Y-16830800D02*
X10062810Y-16821276D01*
X10062810Y-16821276D02*
X10053286Y-16802229D01*
X10053286Y-16802229D02*
X10043762Y-16764133D01*
X10043762Y-16764133D02*
X10043762Y-16716514D01*
X10043762Y-16716514D02*
X10053286Y-16678419D01*
X10053286Y-16678419D02*
X10062810Y-16659371D01*
X10062810Y-16659371D02*
X10072333Y-16649848D01*
X10072333Y-16649848D02*
X10091381Y-16640324D01*
X10243762Y-16840324D02*
X10243762Y-16706990D01*
X10243762Y-16726038D02*
X10253286Y-16716514D01*
X10253286Y-16716514D02*
X10272333Y-16706990D01*
X10272333Y-16706990D02*
X10300905Y-16706990D01*
X10300905Y-16706990D02*
X10319952Y-16716514D01*
X10319952Y-16716514D02*
X10329476Y-16735562D01*
X10329476Y-16735562D02*
X10329476Y-16840324D01*
X10329476Y-16735562D02*
X10339000Y-16716514D01*
X10339000Y-16716514D02*
X10358048Y-16706990D01*
X10358048Y-16706990D02*
X10386619Y-16706990D01*
X10386619Y-16706990D02*
X10405667Y-16716514D01*
X10405667Y-16716514D02*
X10415191Y-16735562D01*
X10415191Y-16735562D02*
X10415191Y-16840324D01*
X10510429Y-16840324D02*
X10510429Y-16706990D01*
X10510429Y-16726038D02*
X10519952Y-16716514D01*
X10519952Y-16716514D02*
X10539000Y-16706990D01*
X10539000Y-16706990D02*
X10567572Y-16706990D01*
X10567572Y-16706990D02*
X10586619Y-16716514D01*
X10586619Y-16716514D02*
X10596143Y-16735562D01*
X10596143Y-16735562D02*
X10596143Y-16840324D01*
X10596143Y-16735562D02*
X10605667Y-16716514D01*
X10605667Y-16716514D02*
X10624714Y-16706990D01*
X10624714Y-16706990D02*
X10653286Y-16706990D01*
X10653286Y-16706990D02*
X10672333Y-16716514D01*
X10672333Y-16716514D02*
X10681857Y-16735562D01*
X10681857Y-16735562D02*
X10681857Y-16840324D01*
X11072333Y-16630800D02*
X10900905Y-16887943D01*
X11329476Y-16640324D02*
X11348524Y-16640324D01*
X11348524Y-16640324D02*
X11367572Y-16649848D01*
X11367572Y-16649848D02*
X11377095Y-16659371D01*
X11377095Y-16659371D02*
X11386619Y-16678419D01*
X11386619Y-16678419D02*
X11396143Y-16716514D01*
X11396143Y-16716514D02*
X11396143Y-16764133D01*
X11396143Y-16764133D02*
X11386619Y-16802229D01*
X11386619Y-16802229D02*
X11377095Y-16821276D01*
X11377095Y-16821276D02*
X11367572Y-16830800D01*
X11367572Y-16830800D02*
X11348524Y-16840324D01*
X11348524Y-16840324D02*
X11329476Y-16840324D01*
X11329476Y-16840324D02*
X11310429Y-16830800D01*
X11310429Y-16830800D02*
X11300905Y-16821276D01*
X11300905Y-16821276D02*
X11291381Y-16802229D01*
X11291381Y-16802229D02*
X11281857Y-16764133D01*
X11281857Y-16764133D02*
X11281857Y-16716514D01*
X11281857Y-16716514D02*
X11291381Y-16678419D01*
X11291381Y-16678419D02*
X11300905Y-16659371D01*
X11300905Y-16659371D02*
X11310429Y-16649848D01*
X11310429Y-16649848D02*
X11329476Y-16640324D01*
X11481857Y-16821276D02*
X11491381Y-16830800D01*
X11491381Y-16830800D02*
X11481857Y-16840324D01*
X11481857Y-16840324D02*
X11472333Y-16830800D01*
X11472333Y-16830800D02*
X11481857Y-16821276D01*
X11481857Y-16821276D02*
X11481857Y-16840324D01*
X11615191Y-16640324D02*
X11634238Y-16640324D01*
X11634238Y-16640324D02*
X11653286Y-16649848D01*
X11653286Y-16649848D02*
X11662810Y-16659371D01*
X11662810Y-16659371D02*
X11672333Y-16678419D01*
X11672333Y-16678419D02*
X11681857Y-16716514D01*
X11681857Y-16716514D02*
X11681857Y-16764133D01*
X11681857Y-16764133D02*
X11672333Y-16802229D01*
X11672333Y-16802229D02*
X11662810Y-16821276D01*
X11662810Y-16821276D02*
X11653286Y-16830800D01*
X11653286Y-16830800D02*
X11634238Y-16840324D01*
X11634238Y-16840324D02*
X11615191Y-16840324D01*
X11615191Y-16840324D02*
X11596143Y-16830800D01*
X11596143Y-16830800D02*
X11586619Y-16821276D01*
X11586619Y-16821276D02*
X11577095Y-16802229D01*
X11577095Y-16802229D02*
X11567572Y-16764133D01*
X11567572Y-16764133D02*
X11567572Y-16716514D01*
X11567572Y-16716514D02*
X11577095Y-16678419D01*
X11577095Y-16678419D02*
X11586619Y-16659371D01*
X11586619Y-16659371D02*
X11596143Y-16649848D01*
X11596143Y-16649848D02*
X11615191Y-16640324D01*
X11853286Y-16706990D02*
X11853286Y-16840324D01*
X11805667Y-16630800D02*
X11758048Y-16773657D01*
X11758048Y-16773657D02*
X11881857Y-16773657D01*
X11986619Y-16726038D02*
X11967572Y-16716514D01*
X11967572Y-16716514D02*
X11958048Y-16706990D01*
X11958048Y-16706990D02*
X11948524Y-16687943D01*
X11948524Y-16687943D02*
X11948524Y-16678419D01*
X11948524Y-16678419D02*
X11958048Y-16659371D01*
X11958048Y-16659371D02*
X11967572Y-16649848D01*
X11967572Y-16649848D02*
X11986619Y-16640324D01*
X11986619Y-16640324D02*
X12024714Y-16640324D01*
X12024714Y-16640324D02*
X12043762Y-16649848D01*
X12043762Y-16649848D02*
X12053286Y-16659371D01*
X12053286Y-16659371D02*
X12062810Y-16678419D01*
X12062810Y-16678419D02*
X12062810Y-16687943D01*
X12062810Y-16687943D02*
X12053286Y-16706990D01*
X12053286Y-16706990D02*
X12043762Y-16716514D01*
X12043762Y-16716514D02*
X12024714Y-16726038D01*
X12024714Y-16726038D02*
X11986619Y-16726038D01*
X11986619Y-16726038D02*
X11967572Y-16735562D01*
X11967572Y-16735562D02*
X11958048Y-16745086D01*
X11958048Y-16745086D02*
X11948524Y-16764133D01*
X11948524Y-16764133D02*
X11948524Y-16802229D01*
X11948524Y-16802229D02*
X11958048Y-16821276D01*
X11958048Y-16821276D02*
X11967572Y-16830800D01*
X11967572Y-16830800D02*
X11986619Y-16840324D01*
X11986619Y-16840324D02*
X12024714Y-16840324D01*
X12024714Y-16840324D02*
X12043762Y-16830800D01*
X12043762Y-16830800D02*
X12053286Y-16821276D01*
X12053286Y-16821276D02*
X12062810Y-16802229D01*
X12062810Y-16802229D02*
X12062810Y-16764133D01*
X12062810Y-16764133D02*
X12053286Y-16745086D01*
X12053286Y-16745086D02*
X12043762Y-16735562D01*
X12043762Y-16735562D02*
X12024714Y-16726038D01*
X12186619Y-16640324D02*
X12205667Y-16640324D01*
X12205667Y-16640324D02*
X12224714Y-16649848D01*
X12224714Y-16649848D02*
X12234238Y-16659371D01*
X12234238Y-16659371D02*
X12243762Y-16678419D01*
X12243762Y-16678419D02*
X12253286Y-16716514D01*
X12253286Y-16716514D02*
X12253286Y-16764133D01*
X12253286Y-16764133D02*
X12243762Y-16802229D01*
X12243762Y-16802229D02*
X12234238Y-16821276D01*
X12234238Y-16821276D02*
X12224714Y-16830800D01*
X12224714Y-16830800D02*
X12205667Y-16840324D01*
X12205667Y-16840324D02*
X12186619Y-16840324D01*
X12186619Y-16840324D02*
X12167572Y-16830800D01*
X12167572Y-16830800D02*
X12158048Y-16821276D01*
X12158048Y-16821276D02*
X12148524Y-16802229D01*
X12148524Y-16802229D02*
X12139000Y-16764133D01*
X12139000Y-16764133D02*
X12139000Y-16716514D01*
X12139000Y-16716514D02*
X12148524Y-16678419D01*
X12148524Y-16678419D02*
X12158048Y-16659371D01*
X12158048Y-16659371D02*
X12167572Y-16649848D01*
X12167572Y-16649848D02*
X12186619Y-16640324D01*
X12329476Y-16640324D02*
X12329476Y-16678419D01*
X12405667Y-16640324D02*
X12405667Y-16678419D01*
X12700905Y-16916514D02*
X12691381Y-16906990D01*
X12691381Y-16906990D02*
X12672334Y-16878419D01*
X12672334Y-16878419D02*
X12662810Y-16859371D01*
X12662810Y-16859371D02*
X12653286Y-16830800D01*
X12653286Y-16830800D02*
X12643762Y-16783181D01*
X12643762Y-16783181D02*
X12643762Y-16745086D01*
X12643762Y-16745086D02*
X12653286Y-16697467D01*
X12653286Y-16697467D02*
X12662810Y-16668895D01*
X12662810Y-16668895D02*
X12672334Y-16649848D01*
X12672334Y-16649848D02*
X12691381Y-16621276D01*
X12691381Y-16621276D02*
X12700905Y-16611752D01*
X12881857Y-16840324D02*
X12767572Y-16840324D01*
X12824714Y-16840324D02*
X12824714Y-16640324D01*
X12824714Y-16640324D02*
X12805667Y-16668895D01*
X12805667Y-16668895D02*
X12786619Y-16687943D01*
X12786619Y-16687943D02*
X12767572Y-16697467D01*
X12958048Y-16659371D02*
X12967572Y-16649848D01*
X12967572Y-16649848D02*
X12986619Y-16640324D01*
X12986619Y-16640324D02*
X13034238Y-16640324D01*
X13034238Y-16640324D02*
X13053286Y-16649848D01*
X13053286Y-16649848D02*
X13062810Y-16659371D01*
X13062810Y-16659371D02*
X13072334Y-16678419D01*
X13072334Y-16678419D02*
X13072334Y-16697467D01*
X13072334Y-16697467D02*
X13062810Y-16726038D01*
X13062810Y-16726038D02*
X12948524Y-16840324D01*
X12948524Y-16840324D02*
X13072334Y-16840324D01*
X13310429Y-16840324D02*
X13310429Y-16640324D01*
X13396143Y-16840324D02*
X13396143Y-16735562D01*
X13396143Y-16735562D02*
X13386619Y-16716514D01*
X13386619Y-16716514D02*
X13367572Y-16706990D01*
X13367572Y-16706990D02*
X13339000Y-16706990D01*
X13339000Y-16706990D02*
X13319953Y-16716514D01*
X13319953Y-16716514D02*
X13310429Y-16726038D01*
X13519953Y-16840324D02*
X13500905Y-16830800D01*
X13500905Y-16830800D02*
X13491381Y-16821276D01*
X13491381Y-16821276D02*
X13481857Y-16802229D01*
X13481857Y-16802229D02*
X13481857Y-16745086D01*
X13481857Y-16745086D02*
X13491381Y-16726038D01*
X13491381Y-16726038D02*
X13500905Y-16716514D01*
X13500905Y-16716514D02*
X13519953Y-16706990D01*
X13519953Y-16706990D02*
X13548524Y-16706990D01*
X13548524Y-16706990D02*
X13567572Y-16716514D01*
X13567572Y-16716514D02*
X13577096Y-16726038D01*
X13577096Y-16726038D02*
X13586619Y-16745086D01*
X13586619Y-16745086D02*
X13586619Y-16802229D01*
X13586619Y-16802229D02*
X13577096Y-16821276D01*
X13577096Y-16821276D02*
X13567572Y-16830800D01*
X13567572Y-16830800D02*
X13548524Y-16840324D01*
X13548524Y-16840324D02*
X13519953Y-16840324D01*
X13700905Y-16840324D02*
X13681857Y-16830800D01*
X13681857Y-16830800D02*
X13672334Y-16811752D01*
X13672334Y-16811752D02*
X13672334Y-16640324D01*
X13853286Y-16830800D02*
X13834238Y-16840324D01*
X13834238Y-16840324D02*
X13796143Y-16840324D01*
X13796143Y-16840324D02*
X13777096Y-16830800D01*
X13777096Y-16830800D02*
X13767572Y-16811752D01*
X13767572Y-16811752D02*
X13767572Y-16735562D01*
X13767572Y-16735562D02*
X13777096Y-16716514D01*
X13777096Y-16716514D02*
X13796143Y-16706990D01*
X13796143Y-16706990D02*
X13834238Y-16706990D01*
X13834238Y-16706990D02*
X13853286Y-16716514D01*
X13853286Y-16716514D02*
X13862810Y-16735562D01*
X13862810Y-16735562D02*
X13862810Y-16754609D01*
X13862810Y-16754609D02*
X13767572Y-16773657D01*
X13939000Y-16830800D02*
X13958048Y-16840324D01*
X13958048Y-16840324D02*
X13996143Y-16840324D01*
X13996143Y-16840324D02*
X14015191Y-16830800D01*
X14015191Y-16830800D02*
X14024715Y-16811752D01*
X14024715Y-16811752D02*
X14024715Y-16802229D01*
X14024715Y-16802229D02*
X14015191Y-16783181D01*
X14015191Y-16783181D02*
X13996143Y-16773657D01*
X13996143Y-16773657D02*
X13967572Y-16773657D01*
X13967572Y-16773657D02*
X13948524Y-16764133D01*
X13948524Y-16764133D02*
X13939000Y-16745086D01*
X13939000Y-16745086D02*
X13939000Y-16735562D01*
X13939000Y-16735562D02*
X13948524Y-16716514D01*
X13948524Y-16716514D02*
X13967572Y-16706990D01*
X13967572Y-16706990D02*
X13996143Y-16706990D01*
X13996143Y-16706990D02*
X14015191Y-16716514D01*
X14091381Y-16916514D02*
X14100905Y-16906990D01*
X14100905Y-16906990D02*
X14119953Y-16878419D01*
X14119953Y-16878419D02*
X14129477Y-16859371D01*
X14129477Y-16859371D02*
X14139000Y-16830800D01*
X14139000Y-16830800D02*
X14148524Y-16783181D01*
X14148524Y-16783181D02*
X14148524Y-16745086D01*
X14148524Y-16745086D02*
X14139000Y-16697467D01*
X14139000Y-16697467D02*
X14129477Y-16668895D01*
X14129477Y-16668895D02*
X14119953Y-16649848D01*
X14119953Y-16649848D02*
X14100905Y-16621276D01*
X14100905Y-16621276D02*
X14091381Y-16611752D01*
D17*
X8997000Y-16940800D02*
X9139000Y-17082800D01*
X9139000Y-16940800D02*
X8997000Y-17082800D01*
X9068000Y-16940800D02*
X9068000Y-17082800D01*
X8997000Y-17011800D02*
X9139000Y-17011800D01*
D11*
X9491381Y-17104324D02*
X9377095Y-17104324D01*
X9434238Y-17104324D02*
X9434238Y-16904324D01*
X9434238Y-16904324D02*
X9415190Y-16932895D01*
X9415190Y-16932895D02*
X9396143Y-16951943D01*
X9396143Y-16951943D02*
X9377095Y-16961467D01*
X9577095Y-17085276D02*
X9586619Y-17094800D01*
X9586619Y-17094800D02*
X9577095Y-17104324D01*
X9577095Y-17104324D02*
X9567571Y-17094800D01*
X9567571Y-17094800D02*
X9577095Y-17085276D01*
X9577095Y-17085276D02*
X9577095Y-17104324D01*
X9758048Y-16970990D02*
X9758048Y-17104324D01*
X9710429Y-16894800D02*
X9662810Y-17037657D01*
X9662810Y-17037657D02*
X9786619Y-17037657D01*
X9853286Y-16923371D02*
X9862810Y-16913848D01*
X9862810Y-16913848D02*
X9881857Y-16904324D01*
X9881857Y-16904324D02*
X9929476Y-16904324D01*
X9929476Y-16904324D02*
X9948524Y-16913848D01*
X9948524Y-16913848D02*
X9958048Y-16923371D01*
X9958048Y-16923371D02*
X9967571Y-16942419D01*
X9967571Y-16942419D02*
X9967571Y-16961467D01*
X9967571Y-16961467D02*
X9958048Y-16990038D01*
X9958048Y-16990038D02*
X9843762Y-17104324D01*
X9843762Y-17104324D02*
X9967571Y-17104324D01*
X10091381Y-16904324D02*
X10110429Y-16904324D01*
X10110429Y-16904324D02*
X10129476Y-16913848D01*
X10129476Y-16913848D02*
X10139000Y-16923371D01*
X10139000Y-16923371D02*
X10148524Y-16942419D01*
X10148524Y-16942419D02*
X10158048Y-16980514D01*
X10158048Y-16980514D02*
X10158048Y-17028133D01*
X10158048Y-17028133D02*
X10148524Y-17066229D01*
X10148524Y-17066229D02*
X10139000Y-17085276D01*
X10139000Y-17085276D02*
X10129476Y-17094800D01*
X10129476Y-17094800D02*
X10110429Y-17104324D01*
X10110429Y-17104324D02*
X10091381Y-17104324D01*
X10091381Y-17104324D02*
X10072333Y-17094800D01*
X10072333Y-17094800D02*
X10062810Y-17085276D01*
X10062810Y-17085276D02*
X10053286Y-17066229D01*
X10053286Y-17066229D02*
X10043762Y-17028133D01*
X10043762Y-17028133D02*
X10043762Y-16980514D01*
X10043762Y-16980514D02*
X10053286Y-16942419D01*
X10053286Y-16942419D02*
X10062810Y-16923371D01*
X10062810Y-16923371D02*
X10072333Y-16913848D01*
X10072333Y-16913848D02*
X10091381Y-16904324D01*
X10243762Y-17104324D02*
X10243762Y-16970990D01*
X10243762Y-16990038D02*
X10253286Y-16980514D01*
X10253286Y-16980514D02*
X10272333Y-16970990D01*
X10272333Y-16970990D02*
X10300905Y-16970990D01*
X10300905Y-16970990D02*
X10319952Y-16980514D01*
X10319952Y-16980514D02*
X10329476Y-16999562D01*
X10329476Y-16999562D02*
X10329476Y-17104324D01*
X10329476Y-16999562D02*
X10339000Y-16980514D01*
X10339000Y-16980514D02*
X10358048Y-16970990D01*
X10358048Y-16970990D02*
X10386619Y-16970990D01*
X10386619Y-16970990D02*
X10405667Y-16980514D01*
X10405667Y-16980514D02*
X10415191Y-16999562D01*
X10415191Y-16999562D02*
X10415191Y-17104324D01*
X10510429Y-17104324D02*
X10510429Y-16970990D01*
X10510429Y-16990038D02*
X10519952Y-16980514D01*
X10519952Y-16980514D02*
X10539000Y-16970990D01*
X10539000Y-16970990D02*
X10567572Y-16970990D01*
X10567572Y-16970990D02*
X10586619Y-16980514D01*
X10586619Y-16980514D02*
X10596143Y-16999562D01*
X10596143Y-16999562D02*
X10596143Y-17104324D01*
X10596143Y-16999562D02*
X10605667Y-16980514D01*
X10605667Y-16980514D02*
X10624714Y-16970990D01*
X10624714Y-16970990D02*
X10653286Y-16970990D01*
X10653286Y-16970990D02*
X10672333Y-16980514D01*
X10672333Y-16980514D02*
X10681857Y-16999562D01*
X10681857Y-16999562D02*
X10681857Y-17104324D01*
X11072333Y-16894800D02*
X10900905Y-17151943D01*
X11329476Y-16904324D02*
X11348524Y-16904324D01*
X11348524Y-16904324D02*
X11367572Y-16913848D01*
X11367572Y-16913848D02*
X11377095Y-16923371D01*
X11377095Y-16923371D02*
X11386619Y-16942419D01*
X11386619Y-16942419D02*
X11396143Y-16980514D01*
X11396143Y-16980514D02*
X11396143Y-17028133D01*
X11396143Y-17028133D02*
X11386619Y-17066229D01*
X11386619Y-17066229D02*
X11377095Y-17085276D01*
X11377095Y-17085276D02*
X11367572Y-17094800D01*
X11367572Y-17094800D02*
X11348524Y-17104324D01*
X11348524Y-17104324D02*
X11329476Y-17104324D01*
X11329476Y-17104324D02*
X11310429Y-17094800D01*
X11310429Y-17094800D02*
X11300905Y-17085276D01*
X11300905Y-17085276D02*
X11291381Y-17066229D01*
X11291381Y-17066229D02*
X11281857Y-17028133D01*
X11281857Y-17028133D02*
X11281857Y-16980514D01*
X11281857Y-16980514D02*
X11291381Y-16942419D01*
X11291381Y-16942419D02*
X11300905Y-16923371D01*
X11300905Y-16923371D02*
X11310429Y-16913848D01*
X11310429Y-16913848D02*
X11329476Y-16904324D01*
X11481857Y-17085276D02*
X11491381Y-17094800D01*
X11491381Y-17094800D02*
X11481857Y-17104324D01*
X11481857Y-17104324D02*
X11472333Y-17094800D01*
X11472333Y-17094800D02*
X11481857Y-17085276D01*
X11481857Y-17085276D02*
X11481857Y-17104324D01*
X11615191Y-16904324D02*
X11634238Y-16904324D01*
X11634238Y-16904324D02*
X11653286Y-16913848D01*
X11653286Y-16913848D02*
X11662810Y-16923371D01*
X11662810Y-16923371D02*
X11672333Y-16942419D01*
X11672333Y-16942419D02*
X11681857Y-16980514D01*
X11681857Y-16980514D02*
X11681857Y-17028133D01*
X11681857Y-17028133D02*
X11672333Y-17066229D01*
X11672333Y-17066229D02*
X11662810Y-17085276D01*
X11662810Y-17085276D02*
X11653286Y-17094800D01*
X11653286Y-17094800D02*
X11634238Y-17104324D01*
X11634238Y-17104324D02*
X11615191Y-17104324D01*
X11615191Y-17104324D02*
X11596143Y-17094800D01*
X11596143Y-17094800D02*
X11586619Y-17085276D01*
X11586619Y-17085276D02*
X11577095Y-17066229D01*
X11577095Y-17066229D02*
X11567572Y-17028133D01*
X11567572Y-17028133D02*
X11567572Y-16980514D01*
X11567572Y-16980514D02*
X11577095Y-16942419D01*
X11577095Y-16942419D02*
X11586619Y-16923371D01*
X11586619Y-16923371D02*
X11596143Y-16913848D01*
X11596143Y-16913848D02*
X11615191Y-16904324D01*
X11862810Y-16904324D02*
X11767572Y-16904324D01*
X11767572Y-16904324D02*
X11758048Y-16999562D01*
X11758048Y-16999562D02*
X11767572Y-16990038D01*
X11767572Y-16990038D02*
X11786619Y-16980514D01*
X11786619Y-16980514D02*
X11834238Y-16980514D01*
X11834238Y-16980514D02*
X11853286Y-16990038D01*
X11853286Y-16990038D02*
X11862810Y-16999562D01*
X11862810Y-16999562D02*
X11872333Y-17018610D01*
X11872333Y-17018610D02*
X11872333Y-17066229D01*
X11872333Y-17066229D02*
X11862810Y-17085276D01*
X11862810Y-17085276D02*
X11853286Y-17094800D01*
X11853286Y-17094800D02*
X11834238Y-17104324D01*
X11834238Y-17104324D02*
X11786619Y-17104324D01*
X11786619Y-17104324D02*
X11767572Y-17094800D01*
X11767572Y-17094800D02*
X11758048Y-17085276D01*
X12053286Y-16904324D02*
X11958048Y-16904324D01*
X11958048Y-16904324D02*
X11948524Y-16999562D01*
X11948524Y-16999562D02*
X11958048Y-16990038D01*
X11958048Y-16990038D02*
X11977095Y-16980514D01*
X11977095Y-16980514D02*
X12024714Y-16980514D01*
X12024714Y-16980514D02*
X12043762Y-16990038D01*
X12043762Y-16990038D02*
X12053286Y-16999562D01*
X12053286Y-16999562D02*
X12062810Y-17018610D01*
X12062810Y-17018610D02*
X12062810Y-17066229D01*
X12062810Y-17066229D02*
X12053286Y-17085276D01*
X12053286Y-17085276D02*
X12043762Y-17094800D01*
X12043762Y-17094800D02*
X12024714Y-17104324D01*
X12024714Y-17104324D02*
X11977095Y-17104324D01*
X11977095Y-17104324D02*
X11958048Y-17094800D01*
X11958048Y-17094800D02*
X11948524Y-17085276D01*
X12158048Y-17104324D02*
X12196143Y-17104324D01*
X12196143Y-17104324D02*
X12215191Y-17094800D01*
X12215191Y-17094800D02*
X12224714Y-17085276D01*
X12224714Y-17085276D02*
X12243762Y-17056705D01*
X12243762Y-17056705D02*
X12253286Y-17018610D01*
X12253286Y-17018610D02*
X12253286Y-16942419D01*
X12253286Y-16942419D02*
X12243762Y-16923371D01*
X12243762Y-16923371D02*
X12234238Y-16913848D01*
X12234238Y-16913848D02*
X12215191Y-16904324D01*
X12215191Y-16904324D02*
X12177095Y-16904324D01*
X12177095Y-16904324D02*
X12158048Y-16913848D01*
X12158048Y-16913848D02*
X12148524Y-16923371D01*
X12148524Y-16923371D02*
X12139000Y-16942419D01*
X12139000Y-16942419D02*
X12139000Y-16990038D01*
X12139000Y-16990038D02*
X12148524Y-17009086D01*
X12148524Y-17009086D02*
X12158048Y-17018610D01*
X12158048Y-17018610D02*
X12177095Y-17028133D01*
X12177095Y-17028133D02*
X12215191Y-17028133D01*
X12215191Y-17028133D02*
X12234238Y-17018610D01*
X12234238Y-17018610D02*
X12243762Y-17009086D01*
X12243762Y-17009086D02*
X12253286Y-16990038D01*
X12329476Y-16904324D02*
X12329476Y-16942419D01*
X12405667Y-16904324D02*
X12405667Y-16942419D01*
X12700905Y-17180514D02*
X12691381Y-17170990D01*
X12691381Y-17170990D02*
X12672334Y-17142419D01*
X12672334Y-17142419D02*
X12662810Y-17123371D01*
X12662810Y-17123371D02*
X12653286Y-17094800D01*
X12653286Y-17094800D02*
X12643762Y-17047181D01*
X12643762Y-17047181D02*
X12643762Y-17009086D01*
X12643762Y-17009086D02*
X12653286Y-16961467D01*
X12653286Y-16961467D02*
X12662810Y-16932895D01*
X12662810Y-16932895D02*
X12672334Y-16913848D01*
X12672334Y-16913848D02*
X12691381Y-16885276D01*
X12691381Y-16885276D02*
X12700905Y-16875752D01*
X12881857Y-17104324D02*
X12767572Y-17104324D01*
X12824714Y-17104324D02*
X12824714Y-16904324D01*
X12824714Y-16904324D02*
X12805667Y-16932895D01*
X12805667Y-16932895D02*
X12786619Y-16951943D01*
X12786619Y-16951943D02*
X12767572Y-16961467D01*
X12958048Y-16923371D02*
X12967572Y-16913848D01*
X12967572Y-16913848D02*
X12986619Y-16904324D01*
X12986619Y-16904324D02*
X13034238Y-16904324D01*
X13034238Y-16904324D02*
X13053286Y-16913848D01*
X13053286Y-16913848D02*
X13062810Y-16923371D01*
X13062810Y-16923371D02*
X13072334Y-16942419D01*
X13072334Y-16942419D02*
X13072334Y-16961467D01*
X13072334Y-16961467D02*
X13062810Y-16990038D01*
X13062810Y-16990038D02*
X12948524Y-17104324D01*
X12948524Y-17104324D02*
X13072334Y-17104324D01*
X13310429Y-17104324D02*
X13310429Y-16904324D01*
X13396143Y-17104324D02*
X13396143Y-16999562D01*
X13396143Y-16999562D02*
X13386619Y-16980514D01*
X13386619Y-16980514D02*
X13367572Y-16970990D01*
X13367572Y-16970990D02*
X13339000Y-16970990D01*
X13339000Y-16970990D02*
X13319953Y-16980514D01*
X13319953Y-16980514D02*
X13310429Y-16990038D01*
X13519953Y-17104324D02*
X13500905Y-17094800D01*
X13500905Y-17094800D02*
X13491381Y-17085276D01*
X13491381Y-17085276D02*
X13481857Y-17066229D01*
X13481857Y-17066229D02*
X13481857Y-17009086D01*
X13481857Y-17009086D02*
X13491381Y-16990038D01*
X13491381Y-16990038D02*
X13500905Y-16980514D01*
X13500905Y-16980514D02*
X13519953Y-16970990D01*
X13519953Y-16970990D02*
X13548524Y-16970990D01*
X13548524Y-16970990D02*
X13567572Y-16980514D01*
X13567572Y-16980514D02*
X13577096Y-16990038D01*
X13577096Y-16990038D02*
X13586619Y-17009086D01*
X13586619Y-17009086D02*
X13586619Y-17066229D01*
X13586619Y-17066229D02*
X13577096Y-17085276D01*
X13577096Y-17085276D02*
X13567572Y-17094800D01*
X13567572Y-17094800D02*
X13548524Y-17104324D01*
X13548524Y-17104324D02*
X13519953Y-17104324D01*
X13700905Y-17104324D02*
X13681857Y-17094800D01*
X13681857Y-17094800D02*
X13672334Y-17075752D01*
X13672334Y-17075752D02*
X13672334Y-16904324D01*
X13853286Y-17094800D02*
X13834238Y-17104324D01*
X13834238Y-17104324D02*
X13796143Y-17104324D01*
X13796143Y-17104324D02*
X13777096Y-17094800D01*
X13777096Y-17094800D02*
X13767572Y-17075752D01*
X13767572Y-17075752D02*
X13767572Y-16999562D01*
X13767572Y-16999562D02*
X13777096Y-16980514D01*
X13777096Y-16980514D02*
X13796143Y-16970990D01*
X13796143Y-16970990D02*
X13834238Y-16970990D01*
X13834238Y-16970990D02*
X13853286Y-16980514D01*
X13853286Y-16980514D02*
X13862810Y-16999562D01*
X13862810Y-16999562D02*
X13862810Y-17018610D01*
X13862810Y-17018610D02*
X13767572Y-17037657D01*
X13939000Y-17094800D02*
X13958048Y-17104324D01*
X13958048Y-17104324D02*
X13996143Y-17104324D01*
X13996143Y-17104324D02*
X14015191Y-17094800D01*
X14015191Y-17094800D02*
X14024715Y-17075752D01*
X14024715Y-17075752D02*
X14024715Y-17066229D01*
X14024715Y-17066229D02*
X14015191Y-17047181D01*
X14015191Y-17047181D02*
X13996143Y-17037657D01*
X13996143Y-17037657D02*
X13967572Y-17037657D01*
X13967572Y-17037657D02*
X13948524Y-17028133D01*
X13948524Y-17028133D02*
X13939000Y-17009086D01*
X13939000Y-17009086D02*
X13939000Y-16999562D01*
X13939000Y-16999562D02*
X13948524Y-16980514D01*
X13948524Y-16980514D02*
X13967572Y-16970990D01*
X13967572Y-16970990D02*
X13996143Y-16970990D01*
X13996143Y-16970990D02*
X14015191Y-16980514D01*
X14091381Y-17180514D02*
X14100905Y-17170990D01*
X14100905Y-17170990D02*
X14119953Y-17142419D01*
X14119953Y-17142419D02*
X14129477Y-17123371D01*
X14129477Y-17123371D02*
X14139000Y-17094800D01*
X14139000Y-17094800D02*
X14148524Y-17047181D01*
X14148524Y-17047181D02*
X14148524Y-17009086D01*
X14148524Y-17009086D02*
X14139000Y-16961467D01*
X14139000Y-16961467D02*
X14129477Y-16932895D01*
X14129477Y-16932895D02*
X14119953Y-16913848D01*
X14119953Y-16913848D02*
X14100905Y-16885276D01*
X14100905Y-16885276D02*
X14091381Y-16875752D01*
D18*
X8996000Y-17204300D02*
X9139000Y-17347300D01*
X9139000Y-17204300D02*
X8996000Y-17347300D01*
X9118059Y-17326359D02*
X9118059Y-17225241D01*
X9016941Y-17225241D01*
X9016941Y-17326359D01*
X9118059Y-17326359D01*
D11*
X9491381Y-17368324D02*
X9377095Y-17368324D01*
X9434238Y-17368324D02*
X9434238Y-17168324D01*
X9434238Y-17168324D02*
X9415190Y-17196895D01*
X9415190Y-17196895D02*
X9396143Y-17215943D01*
X9396143Y-17215943D02*
X9377095Y-17225467D01*
X9577095Y-17349276D02*
X9586619Y-17358800D01*
X9586619Y-17358800D02*
X9577095Y-17368324D01*
X9577095Y-17368324D02*
X9567571Y-17358800D01*
X9567571Y-17358800D02*
X9577095Y-17349276D01*
X9577095Y-17349276D02*
X9577095Y-17368324D01*
X9758048Y-17234990D02*
X9758048Y-17368324D01*
X9710429Y-17158800D02*
X9662810Y-17301657D01*
X9662810Y-17301657D02*
X9786619Y-17301657D01*
X9843762Y-17168324D02*
X9967571Y-17168324D01*
X9967571Y-17168324D02*
X9900905Y-17244514D01*
X9900905Y-17244514D02*
X9929476Y-17244514D01*
X9929476Y-17244514D02*
X9948524Y-17254038D01*
X9948524Y-17254038D02*
X9958048Y-17263562D01*
X9958048Y-17263562D02*
X9967571Y-17282610D01*
X9967571Y-17282610D02*
X9967571Y-17330229D01*
X9967571Y-17330229D02*
X9958048Y-17349276D01*
X9958048Y-17349276D02*
X9948524Y-17358800D01*
X9948524Y-17358800D02*
X9929476Y-17368324D01*
X9929476Y-17368324D02*
X9872333Y-17368324D01*
X9872333Y-17368324D02*
X9853286Y-17358800D01*
X9853286Y-17358800D02*
X9843762Y-17349276D01*
X10091381Y-17168324D02*
X10110429Y-17168324D01*
X10110429Y-17168324D02*
X10129476Y-17177848D01*
X10129476Y-17177848D02*
X10139000Y-17187371D01*
X10139000Y-17187371D02*
X10148524Y-17206419D01*
X10148524Y-17206419D02*
X10158048Y-17244514D01*
X10158048Y-17244514D02*
X10158048Y-17292133D01*
X10158048Y-17292133D02*
X10148524Y-17330229D01*
X10148524Y-17330229D02*
X10139000Y-17349276D01*
X10139000Y-17349276D02*
X10129476Y-17358800D01*
X10129476Y-17358800D02*
X10110429Y-17368324D01*
X10110429Y-17368324D02*
X10091381Y-17368324D01*
X10091381Y-17368324D02*
X10072333Y-17358800D01*
X10072333Y-17358800D02*
X10062810Y-17349276D01*
X10062810Y-17349276D02*
X10053286Y-17330229D01*
X10053286Y-17330229D02*
X10043762Y-17292133D01*
X10043762Y-17292133D02*
X10043762Y-17244514D01*
X10043762Y-17244514D02*
X10053286Y-17206419D01*
X10053286Y-17206419D02*
X10062810Y-17187371D01*
X10062810Y-17187371D02*
X10072333Y-17177848D01*
X10072333Y-17177848D02*
X10091381Y-17168324D01*
X10243762Y-17368324D02*
X10243762Y-17234990D01*
X10243762Y-17254038D02*
X10253286Y-17244514D01*
X10253286Y-17244514D02*
X10272333Y-17234990D01*
X10272333Y-17234990D02*
X10300905Y-17234990D01*
X10300905Y-17234990D02*
X10319952Y-17244514D01*
X10319952Y-17244514D02*
X10329476Y-17263562D01*
X10329476Y-17263562D02*
X10329476Y-17368324D01*
X10329476Y-17263562D02*
X10339000Y-17244514D01*
X10339000Y-17244514D02*
X10358048Y-17234990D01*
X10358048Y-17234990D02*
X10386619Y-17234990D01*
X10386619Y-17234990D02*
X10405667Y-17244514D01*
X10405667Y-17244514D02*
X10415191Y-17263562D01*
X10415191Y-17263562D02*
X10415191Y-17368324D01*
X10510429Y-17368324D02*
X10510429Y-17234990D01*
X10510429Y-17254038D02*
X10519952Y-17244514D01*
X10519952Y-17244514D02*
X10539000Y-17234990D01*
X10539000Y-17234990D02*
X10567572Y-17234990D01*
X10567572Y-17234990D02*
X10586619Y-17244514D01*
X10586619Y-17244514D02*
X10596143Y-17263562D01*
X10596143Y-17263562D02*
X10596143Y-17368324D01*
X10596143Y-17263562D02*
X10605667Y-17244514D01*
X10605667Y-17244514D02*
X10624714Y-17234990D01*
X10624714Y-17234990D02*
X10653286Y-17234990D01*
X10653286Y-17234990D02*
X10672333Y-17244514D01*
X10672333Y-17244514D02*
X10681857Y-17263562D01*
X10681857Y-17263562D02*
X10681857Y-17368324D01*
X11072333Y-17158800D02*
X10900905Y-17415943D01*
X11329476Y-17168324D02*
X11348524Y-17168324D01*
X11348524Y-17168324D02*
X11367572Y-17177848D01*
X11367572Y-17177848D02*
X11377095Y-17187371D01*
X11377095Y-17187371D02*
X11386619Y-17206419D01*
X11386619Y-17206419D02*
X11396143Y-17244514D01*
X11396143Y-17244514D02*
X11396143Y-17292133D01*
X11396143Y-17292133D02*
X11386619Y-17330229D01*
X11386619Y-17330229D02*
X11377095Y-17349276D01*
X11377095Y-17349276D02*
X11367572Y-17358800D01*
X11367572Y-17358800D02*
X11348524Y-17368324D01*
X11348524Y-17368324D02*
X11329476Y-17368324D01*
X11329476Y-17368324D02*
X11310429Y-17358800D01*
X11310429Y-17358800D02*
X11300905Y-17349276D01*
X11300905Y-17349276D02*
X11291381Y-17330229D01*
X11291381Y-17330229D02*
X11281857Y-17292133D01*
X11281857Y-17292133D02*
X11281857Y-17244514D01*
X11281857Y-17244514D02*
X11291381Y-17206419D01*
X11291381Y-17206419D02*
X11300905Y-17187371D01*
X11300905Y-17187371D02*
X11310429Y-17177848D01*
X11310429Y-17177848D02*
X11329476Y-17168324D01*
X11481857Y-17349276D02*
X11491381Y-17358800D01*
X11491381Y-17358800D02*
X11481857Y-17368324D01*
X11481857Y-17368324D02*
X11472333Y-17358800D01*
X11472333Y-17358800D02*
X11481857Y-17349276D01*
X11481857Y-17349276D02*
X11481857Y-17368324D01*
X11615191Y-17168324D02*
X11634238Y-17168324D01*
X11634238Y-17168324D02*
X11653286Y-17177848D01*
X11653286Y-17177848D02*
X11662810Y-17187371D01*
X11662810Y-17187371D02*
X11672333Y-17206419D01*
X11672333Y-17206419D02*
X11681857Y-17244514D01*
X11681857Y-17244514D02*
X11681857Y-17292133D01*
X11681857Y-17292133D02*
X11672333Y-17330229D01*
X11672333Y-17330229D02*
X11662810Y-17349276D01*
X11662810Y-17349276D02*
X11653286Y-17358800D01*
X11653286Y-17358800D02*
X11634238Y-17368324D01*
X11634238Y-17368324D02*
X11615191Y-17368324D01*
X11615191Y-17368324D02*
X11596143Y-17358800D01*
X11596143Y-17358800D02*
X11586619Y-17349276D01*
X11586619Y-17349276D02*
X11577095Y-17330229D01*
X11577095Y-17330229D02*
X11567572Y-17292133D01*
X11567572Y-17292133D02*
X11567572Y-17244514D01*
X11567572Y-17244514D02*
X11577095Y-17206419D01*
X11577095Y-17206419D02*
X11586619Y-17187371D01*
X11586619Y-17187371D02*
X11596143Y-17177848D01*
X11596143Y-17177848D02*
X11615191Y-17168324D01*
X11862810Y-17168324D02*
X11767572Y-17168324D01*
X11767572Y-17168324D02*
X11758048Y-17263562D01*
X11758048Y-17263562D02*
X11767572Y-17254038D01*
X11767572Y-17254038D02*
X11786619Y-17244514D01*
X11786619Y-17244514D02*
X11834238Y-17244514D01*
X11834238Y-17244514D02*
X11853286Y-17254038D01*
X11853286Y-17254038D02*
X11862810Y-17263562D01*
X11862810Y-17263562D02*
X11872333Y-17282610D01*
X11872333Y-17282610D02*
X11872333Y-17330229D01*
X11872333Y-17330229D02*
X11862810Y-17349276D01*
X11862810Y-17349276D02*
X11853286Y-17358800D01*
X11853286Y-17358800D02*
X11834238Y-17368324D01*
X11834238Y-17368324D02*
X11786619Y-17368324D01*
X11786619Y-17368324D02*
X11767572Y-17358800D01*
X11767572Y-17358800D02*
X11758048Y-17349276D01*
X12043762Y-17168324D02*
X12005667Y-17168324D01*
X12005667Y-17168324D02*
X11986619Y-17177848D01*
X11986619Y-17177848D02*
X11977095Y-17187371D01*
X11977095Y-17187371D02*
X11958048Y-17215943D01*
X11958048Y-17215943D02*
X11948524Y-17254038D01*
X11948524Y-17254038D02*
X11948524Y-17330229D01*
X11948524Y-17330229D02*
X11958048Y-17349276D01*
X11958048Y-17349276D02*
X11967572Y-17358800D01*
X11967572Y-17358800D02*
X11986619Y-17368324D01*
X11986619Y-17368324D02*
X12024714Y-17368324D01*
X12024714Y-17368324D02*
X12043762Y-17358800D01*
X12043762Y-17358800D02*
X12053286Y-17349276D01*
X12053286Y-17349276D02*
X12062810Y-17330229D01*
X12062810Y-17330229D02*
X12062810Y-17282610D01*
X12062810Y-17282610D02*
X12053286Y-17263562D01*
X12053286Y-17263562D02*
X12043762Y-17254038D01*
X12043762Y-17254038D02*
X12024714Y-17244514D01*
X12024714Y-17244514D02*
X11986619Y-17244514D01*
X11986619Y-17244514D02*
X11967572Y-17254038D01*
X11967572Y-17254038D02*
X11958048Y-17263562D01*
X11958048Y-17263562D02*
X11948524Y-17282610D01*
X12129476Y-17168324D02*
X12253286Y-17168324D01*
X12253286Y-17168324D02*
X12186619Y-17244514D01*
X12186619Y-17244514D02*
X12215191Y-17244514D01*
X12215191Y-17244514D02*
X12234238Y-17254038D01*
X12234238Y-17254038D02*
X12243762Y-17263562D01*
X12243762Y-17263562D02*
X12253286Y-17282610D01*
X12253286Y-17282610D02*
X12253286Y-17330229D01*
X12253286Y-17330229D02*
X12243762Y-17349276D01*
X12243762Y-17349276D02*
X12234238Y-17358800D01*
X12234238Y-17358800D02*
X12215191Y-17368324D01*
X12215191Y-17368324D02*
X12158048Y-17368324D01*
X12158048Y-17368324D02*
X12139000Y-17358800D01*
X12139000Y-17358800D02*
X12129476Y-17349276D01*
X12329476Y-17168324D02*
X12329476Y-17206419D01*
X12405667Y-17168324D02*
X12405667Y-17206419D01*
X12700905Y-17444514D02*
X12691381Y-17434990D01*
X12691381Y-17434990D02*
X12672334Y-17406419D01*
X12672334Y-17406419D02*
X12662810Y-17387371D01*
X12662810Y-17387371D02*
X12653286Y-17358800D01*
X12653286Y-17358800D02*
X12643762Y-17311181D01*
X12643762Y-17311181D02*
X12643762Y-17273086D01*
X12643762Y-17273086D02*
X12653286Y-17225467D01*
X12653286Y-17225467D02*
X12662810Y-17196895D01*
X12662810Y-17196895D02*
X12672334Y-17177848D01*
X12672334Y-17177848D02*
X12691381Y-17149276D01*
X12691381Y-17149276D02*
X12700905Y-17139752D01*
X12881857Y-17368324D02*
X12767572Y-17368324D01*
X12824714Y-17368324D02*
X12824714Y-17168324D01*
X12824714Y-17168324D02*
X12805667Y-17196895D01*
X12805667Y-17196895D02*
X12786619Y-17215943D01*
X12786619Y-17215943D02*
X12767572Y-17225467D01*
X12958048Y-17187371D02*
X12967572Y-17177848D01*
X12967572Y-17177848D02*
X12986619Y-17168324D01*
X12986619Y-17168324D02*
X13034238Y-17168324D01*
X13034238Y-17168324D02*
X13053286Y-17177848D01*
X13053286Y-17177848D02*
X13062810Y-17187371D01*
X13062810Y-17187371D02*
X13072334Y-17206419D01*
X13072334Y-17206419D02*
X13072334Y-17225467D01*
X13072334Y-17225467D02*
X13062810Y-17254038D01*
X13062810Y-17254038D02*
X12948524Y-17368324D01*
X12948524Y-17368324D02*
X13072334Y-17368324D01*
X13310429Y-17368324D02*
X13310429Y-17168324D01*
X13396143Y-17368324D02*
X13396143Y-17263562D01*
X13396143Y-17263562D02*
X13386619Y-17244514D01*
X13386619Y-17244514D02*
X13367572Y-17234990D01*
X13367572Y-17234990D02*
X13339000Y-17234990D01*
X13339000Y-17234990D02*
X13319953Y-17244514D01*
X13319953Y-17244514D02*
X13310429Y-17254038D01*
X13519953Y-17368324D02*
X13500905Y-17358800D01*
X13500905Y-17358800D02*
X13491381Y-17349276D01*
X13491381Y-17349276D02*
X13481857Y-17330229D01*
X13481857Y-17330229D02*
X13481857Y-17273086D01*
X13481857Y-17273086D02*
X13491381Y-17254038D01*
X13491381Y-17254038D02*
X13500905Y-17244514D01*
X13500905Y-17244514D02*
X13519953Y-17234990D01*
X13519953Y-17234990D02*
X13548524Y-17234990D01*
X13548524Y-17234990D02*
X13567572Y-17244514D01*
X13567572Y-17244514D02*
X13577096Y-17254038D01*
X13577096Y-17254038D02*
X13586619Y-17273086D01*
X13586619Y-17273086D02*
X13586619Y-17330229D01*
X13586619Y-17330229D02*
X13577096Y-17349276D01*
X13577096Y-17349276D02*
X13567572Y-17358800D01*
X13567572Y-17358800D02*
X13548524Y-17368324D01*
X13548524Y-17368324D02*
X13519953Y-17368324D01*
X13700905Y-17368324D02*
X13681857Y-17358800D01*
X13681857Y-17358800D02*
X13672334Y-17339752D01*
X13672334Y-17339752D02*
X13672334Y-17168324D01*
X13853286Y-17358800D02*
X13834238Y-17368324D01*
X13834238Y-17368324D02*
X13796143Y-17368324D01*
X13796143Y-17368324D02*
X13777096Y-17358800D01*
X13777096Y-17358800D02*
X13767572Y-17339752D01*
X13767572Y-17339752D02*
X13767572Y-17263562D01*
X13767572Y-17263562D02*
X13777096Y-17244514D01*
X13777096Y-17244514D02*
X13796143Y-17234990D01*
X13796143Y-17234990D02*
X13834238Y-17234990D01*
X13834238Y-17234990D02*
X13853286Y-17244514D01*
X13853286Y-17244514D02*
X13862810Y-17263562D01*
X13862810Y-17263562D02*
X13862810Y-17282610D01*
X13862810Y-17282610D02*
X13767572Y-17301657D01*
X13939000Y-17358800D02*
X13958048Y-17368324D01*
X13958048Y-17368324D02*
X13996143Y-17368324D01*
X13996143Y-17368324D02*
X14015191Y-17358800D01*
X14015191Y-17358800D02*
X14024715Y-17339752D01*
X14024715Y-17339752D02*
X14024715Y-17330229D01*
X14024715Y-17330229D02*
X14015191Y-17311181D01*
X14015191Y-17311181D02*
X13996143Y-17301657D01*
X13996143Y-17301657D02*
X13967572Y-17301657D01*
X13967572Y-17301657D02*
X13948524Y-17292133D01*
X13948524Y-17292133D02*
X13939000Y-17273086D01*
X13939000Y-17273086D02*
X13939000Y-17263562D01*
X13939000Y-17263562D02*
X13948524Y-17244514D01*
X13948524Y-17244514D02*
X13967572Y-17234990D01*
X13967572Y-17234990D02*
X13996143Y-17234990D01*
X13996143Y-17234990D02*
X14015191Y-17244514D01*
X14091381Y-17444514D02*
X14100905Y-17434990D01*
X14100905Y-17434990D02*
X14119953Y-17406419D01*
X14119953Y-17406419D02*
X14129477Y-17387371D01*
X14129477Y-17387371D02*
X14139000Y-17358800D01*
X14139000Y-17358800D02*
X14148524Y-17311181D01*
X14148524Y-17311181D02*
X14148524Y-17273086D01*
X14148524Y-17273086D02*
X14139000Y-17225467D01*
X14139000Y-17225467D02*
X14129477Y-17196895D01*
X14129477Y-17196895D02*
X14119953Y-17177848D01*
X14119953Y-17177848D02*
X14100905Y-17149276D01*
X14100905Y-17149276D02*
X14091381Y-17139752D01*
M02*
